<svg width="60" height="60" viewBox="0 0 60 60" fill="none" xmlns="http://www.w3.org/2000/svg">
<mask id="mask0_2444_348" style="mask-type:luminance" maskUnits="userSpaceOnUse" x="3" y="3" width="54" height="54">
<path d="M30 56.4904C44.6302 56.4904 56.4903 44.6303 56.4903 30.0002C56.4903 15.37 44.6302 3.50992 30 3.50992C15.3699 3.50992 3.50977 15.37 3.50977 30.0002C3.50977 44.6303 15.3699 56.4904 30 56.4904Z" fill="white"/>
</mask>
<g mask="url(#mask0_2444_348)">
<path d="M28.8307 21.8945C28.7471 21.8945 28.9978 26.2399 28.9142 26.6577C28.9142 26.7413 28.9978 28.7468 28.8307 31.2538C28.8307 31.2538 28.7471 39.9446 28.7471 40.0282C29.6663 41.1145 30.2513 40.6131 31.5883 41.3652C33.0089 42.1173 34.9309 40.6967 36.1844 41.1145C36.268 41.1145 37.1036 35.3485 37.1036 35.3485C38.0228 31.4209 38.6914 28.1619 38.6914 27.9947C38.7749 27.5769 38.9421 26.6577 39.2763 26.2399C39.527 25.822 39.4435 25.3207 39.527 24.9028C39.7777 24.0672 40.1956 23.2315 40.112 23.2315C38.9421 23.5658 34.0953 23.9836 28.8307 21.8945Z" fill="#BDBCBC"/>
<path d="M33.844 47.8839C33.7604 47.8839 33.5933 47.8839 33.5097 47.8839C30.1671 47.8003 26.1559 47.0482 24.8189 45.3769C24.5682 45.0426 24.5682 44.4577 24.8189 43.9563C25.0696 43.3713 25.7381 42.3685 27.5766 41.7836C27.6601 41.3657 27.7437 40.5301 27.8273 39.9451C27.9108 39.5273 27.9944 39.193 28.2451 39.0259C28.4958 38.8588 28.6629 38.8588 28.7465 38.9423C28.9972 39.0259 29.1643 39.193 29.0808 39.4437C29.0808 39.6109 28.9136 39.778 28.7465 39.778C28.7465 39.8616 28.6629 39.9451 28.6629 40.1123C28.5794 40.8643 28.4122 42.2014 28.4122 42.2014C28.4122 42.3685 28.2451 42.5357 28.078 42.5357C26.5738 42.8699 25.9888 43.5384 25.7381 44.0398C25.4874 44.4577 25.4874 44.7919 25.571 44.8755C26.7409 46.2961 30.5013 46.9646 33.5933 47.0482C35.9331 47.0482 37.5208 46.7139 37.7715 46.3797C37.8551 46.2961 37.9387 45.9618 37.7715 45.544C37.6044 45.0426 37.1866 44.207 35.8495 43.5384C35.6824 43.4549 35.5988 43.2877 35.5988 43.1206C35.5988 43.1206 35.766 41.7836 35.8495 41.0315C35.8495 40.8643 35.8495 40.7808 35.8495 40.6972C35.6824 40.6136 35.5988 40.4465 35.5988 40.2794C35.5988 40.0287 35.766 39.8616 36.0167 39.8616C36.1002 39.8616 36.2674 39.8616 36.4345 40.1123C36.6016 40.363 36.6852 40.6972 36.6016 41.115C36.5181 41.6164 36.4345 42.4521 36.4345 42.9535C38.1058 43.9563 38.5236 45.1262 38.6072 45.7111C38.6907 46.2961 38.5236 46.7975 38.273 47.0482C37.688 47.8003 35.181 47.8839 33.844 47.8839Z" fill="#575756"/>
<path d="M33.5097 41.7834C32.1727 41.7834 30.4178 41.5327 28.4958 40.5299C28.3287 40.4464 28.2451 40.2792 28.2451 40.1121C28.2451 34.1789 28.3287 22.814 28.2451 21.8948C28.2451 21.6441 28.4122 21.477 28.6629 21.3934C28.9136 21.3934 29.0808 21.5606 29.1643 21.8113C29.2479 22.8976 29.1643 37.6051 29.1643 39.8614C32.2562 41.282 34.7632 40.8642 35.5153 40.6135C36.1003 38.023 39.1922 24.0675 39.7771 23.0647C39.8607 22.8976 40.195 22.814 40.3621 22.8976C40.5292 22.9812 40.6128 23.3154 40.5292 23.4826C40.1114 24.2347 37.7716 34.5968 36.351 40.9478C36.351 41.1149 36.1838 41.1984 36.1002 41.282C35.9331 41.4491 34.9303 41.7834 33.5097 41.7834Z" fill="#575756"/>
<path d="M41.4516 20.5572L41.2009 22.5628C41.1174 23.5656 37.9419 23.9834 34.265 23.5656C30.5881 23.1478 27.6633 21.9779 27.7469 20.9751L28.0811 18.8024" fill="white"/>
<path d="M37.1058 24.1505C36.1866 24.1505 35.1838 24.0669 34.2646 23.9834C32.4262 23.7327 30.7548 23.3984 29.5014 22.8134C27.9972 22.2285 27.3287 21.56 27.4122 20.8079L27.6629 18.7187C27.6629 18.468 27.9136 18.3009 28.1643 18.3009C28.415 18.3009 28.5821 18.5516 28.5821 18.8023L28.3314 20.8914C28.3314 20.975 28.5821 21.3928 29.9192 21.9778C31.0891 22.4792 32.7604 22.8134 34.5153 23.0641C38.61 23.5655 40.8663 22.897 40.9498 22.4792L41.2005 20.4736C41.2005 20.2229 41.4512 20.0558 41.7019 20.1393C41.9526 20.1393 42.1197 20.39 42.1197 20.6407L41.869 22.5627C41.869 22.5627 41.869 22.5627 41.869 22.6463C41.5348 23.7327 39.5292 24.1505 37.1058 24.1505Z" fill="#575756"/>
<path d="M41.618 16.7967L41.2002 19.7214C41.4509 19.9721 41.5344 20.1393 41.4509 20.39C41.3673 21.3928 38.1918 21.8106 34.515 21.3928C30.8381 20.9749 27.9133 19.805 27.9969 18.8022C27.9969 18.6351 28.164 18.468 28.4147 18.3008L28.7489 15.2925" fill="white"/>
<path d="M37.3561 22.0614C36.4369 22.0614 35.5177 21.9778 34.5149 21.8943C31.0887 21.4764 27.4118 20.3065 27.6625 18.8023C27.6625 18.6352 27.7461 18.3009 28.0804 18.1338L28.4146 15.2926C28.4146 15.0419 28.6653 14.8748 28.916 14.8748C29.1667 14.8748 29.3338 15.1255 29.3338 15.3762L28.9996 18.3845C28.9996 18.5516 28.916 18.6352 28.8325 18.7188C28.7489 18.8023 28.6653 18.8859 28.6653 18.8859C28.5818 19.3037 30.6709 20.5572 34.7656 21.0586C38.9439 21.56 41.2001 20.8079 41.2001 20.3901C41.2001 20.3065 41.1166 20.2229 41.033 20.1394C40.9494 20.0558 40.8659 19.8887 40.9495 19.8051L41.3673 16.7968C41.3673 16.5461 41.618 16.3789 41.8687 16.4625C42.1194 16.4625 42.2865 16.7132 42.2029 16.9639L41.8687 19.8051C42.0358 20.0558 42.2029 20.3065 42.1193 20.6408C41.7851 21.6436 39.7795 22.0614 37.3561 22.0614Z" fill="#575756"/>
<path d="M31.6731 14.2905C30.0018 14.2905 28.9155 14.7919 28.8319 15.2933C28.7484 16.2125 31.506 17.2989 35.0157 17.7167C38.5255 18.1345 41.5339 17.7167 41.6174 16.881C41.701 16.3796 40.8653 15.7947 39.5283 15.3769C39.5283 15.2933 36.2692 14.2069 31.6731 14.2905Z" fill="white"/>
<path d="M37.7735 18.3016C36.7707 18.3016 35.7679 18.218 35.0158 18.1344C33.261 17.9673 31.6732 17.5495 30.4197 17.0481C28.9991 16.4631 28.3306 15.8782 28.4142 15.2096C28.4978 14.374 29.7512 13.8726 31.6732 13.789C36.2693 13.7055 39.5284 14.7918 39.6955 14.8754C41.3668 15.4603 42.2025 16.1289 42.0353 16.881C41.8682 17.9673 39.7791 18.3016 37.7735 18.3016ZM31.6732 14.7083C29.9183 14.7083 29.2498 15.2096 29.2498 15.3768C29.2498 15.4603 29.5005 15.7946 30.6704 16.296C31.8403 16.7138 33.3445 17.1317 35.0158 17.2988C38.8598 17.8002 41.1161 17.1317 41.1161 16.7974C41.1161 16.7138 40.7819 16.296 39.2777 15.711C39.3613 15.711 36.1857 14.6247 31.6732 14.7083Z" fill="#575756"/>
<path d="M31.0879 15.2931C31.0879 15.2931 31.1715 13.7054 31.9235 12.9533C32.6756 12.2012 34.2634 11.4491 35.0155 9.35999C35.4333 8.3572 35.4333 7.27085 35.684 6.35163C35.9347 5.09815 37.2718 5.34885 37.2718 6.51876C37.2718 8.02294 36.9375 8.69146 37.1046 9.69425C37.3553 11.6998 38.6924 12.7026 39.3609 13.8725C40.0294 15.126 39.6116 16.3795 39.6116 16.3795C35.0155 16.7137 31.0879 15.2931 31.0879 15.2931Z" fill="white"/>
<path d="M37.6894 16.7972C34.0126 16.7972 31.0878 15.7108 30.9207 15.7108C30.7535 15.6273 30.6699 15.4602 30.6699 15.293C30.6699 15.2095 30.7535 13.5381 31.6727 12.6189C31.8398 12.4518 32.0906 12.2011 32.4248 11.9504C33.1769 11.3654 34.0961 10.6134 34.6811 9.10918C34.9318 8.52422 35.0154 7.8557 35.0989 7.18717C35.1825 6.85291 35.1825 6.43508 35.266 6.10082C35.4332 5.26517 36.1017 4.93091 36.6031 4.93091C37.1045 5.01447 37.6894 5.4323 37.6894 6.35152C37.6894 7.10361 37.6059 7.605 37.5223 8.10639C37.4387 8.60779 37.4388 9.02561 37.4388 9.44344C37.6059 10.6969 38.2744 11.5326 38.8594 12.3682C39.1101 12.7861 39.4443 13.1203 39.6114 13.4546C40.3635 14.8752 39.9457 16.2958 39.9457 16.2958C39.8622 16.4629 39.7786 16.5465 39.6114 16.6301C38.9429 16.7972 38.358 16.7972 37.6894 16.7972ZM31.5892 14.9588C32.592 15.293 35.6839 16.1287 39.1936 15.878C39.2772 15.4602 39.2772 14.7081 38.8594 13.956C38.6922 13.6217 38.4415 13.2875 38.1908 12.9532C37.6059 12.1175 36.7702 11.1147 36.6031 9.69414C36.5195 9.10918 36.6031 8.69135 36.6866 8.10639C36.7702 7.68857 36.8538 7.18717 36.8538 6.43509C36.8538 6.10082 36.6866 5.85013 36.5195 5.85013C36.3524 5.85013 36.1852 6.01726 36.1017 6.35152C36.0181 6.68578 35.9346 7.02004 35.9346 7.3543C35.851 8.02283 35.6839 8.77492 35.4332 9.44344C34.7646 11.1147 33.6783 11.9504 32.9262 12.6189C32.6755 12.7861 32.4248 13.0368 32.2577 13.2039C31.8399 13.6217 31.5892 14.4574 31.5892 14.9588Z" fill="#575756"/>
<path d="M-11.8662 38.9423C-11.8662 38.9423 -9.10854 38.1067 -6.68514 35.7668C-4.26174 33.5106 -1.25343 30.0844 0.167184 28.4131C1.83849 26.4075 3.92764 23.3156 6.18391 22.3128C8.35661 21.31 10.3622 19.973 12.2842 17.9674C14.2062 15.9618 15.4597 13.9563 17.8831 13.2877C20.3065 12.6192 22.2285 11.9507 23.8162 11.5329C25.404 11.115 25.8218 11.0315 28.1616 11.5329C30.5014 12.0342 31.2536 12.3685 31.0029 13.622" fill="white"/>
<path d="M-11.8656 39.3602C-12.0327 39.3602 -12.1999 39.2766 -12.2834 39.0259C-12.367 38.7752 -12.1999 38.5245 -12.0327 38.5245C-12.0327 38.5245 -9.35865 37.6889 -7.01882 35.5162C-4.67899 33.3435 -1.67065 29.9173 -0.250041 28.1624C0.000655174 27.8281 0.334948 27.4103 0.669209 27.076C2.25695 25.0705 4.01182 22.8978 5.93382 21.9785C8.19009 20.9758 10.0285 19.5552 11.9505 17.7167C12.3684 17.2153 12.7862 16.7975 13.204 16.2961C14.5411 14.7919 15.711 13.4549 17.7165 12.8699C18.6358 12.6192 19.4714 12.285 20.3071 12.1178C21.5606 11.7 22.6469 11.3657 23.6497 11.115C25.321 10.6972 25.8224 10.6136 28.1622 11.115C30.2514 11.5329 31.672 11.9507 31.3377 13.7056C31.3377 13.9563 31.087 14.1234 30.8363 14.0398C30.5856 14.0398 30.4185 13.7891 30.5021 13.5384C30.6692 12.7864 30.4185 12.4521 27.9951 11.9507C25.7389 11.4493 25.4046 11.5329 23.9004 11.9507C22.8976 12.2014 21.8113 12.5357 20.5578 12.9535C19.7221 13.2042 18.8865 13.4549 17.9673 13.7891C16.296 14.2905 15.126 15.544 13.8725 16.9646C13.4547 17.466 13.0369 17.8838 12.5355 18.3852C10.6135 20.3908 8.60794 21.8114 6.26811 22.8978C4.51323 23.6499 2.75834 25.9061 1.33772 27.7446C1.00346 28.1624 0.752786 28.4967 0.418524 28.9145C-1.00209 30.6694 -4.09402 34.0955 -6.43385 36.3518C-8.94082 38.6916 -11.6149 39.5273 -11.7821 39.6109C-11.6985 39.3602 -11.782 39.3602 -11.8656 39.3602Z" fill="#575756"/>
<path d="M28.496 15.1256C28.3288 15.2092 27.7439 15.3763 27.5768 15.3763C26.2397 15.8777 24.7355 16.1284 23.9834 15.7106" fill="white"/>
<path d="M24.9866 16.2957C24.5688 16.2957 24.0674 16.2121 23.7331 16.045C23.566 15.9614 23.4824 15.6272 23.566 15.46C23.6495 15.2929 23.9838 15.2094 24.151 15.2929C24.6523 15.5436 25.9058 15.46 27.3264 14.9587C27.41 14.9587 27.6607 14.8751 27.9114 14.7915C28.0785 14.708 28.1621 14.708 28.2457 14.708C28.4964 14.6244 28.7471 14.7915 28.7471 14.9587C28.8306 15.2094 28.6635 15.46 28.4964 15.46C28.4128 15.46 28.2457 15.5436 28.0785 15.5436C27.8278 15.6272 27.6607 15.7107 27.4936 15.7107C27.1593 15.9614 25.9894 16.2957 24.9866 16.2957Z" fill="#575756"/>
<path d="M23.8997 15.46C23.8997 15.46 24.2339 16.4628 22.3955 17.1313C20.5571 17.7998 20.3064 17.8834 19.4707 17.4656" fill="white"/>
<path d="M20.3902 18.0507C20.056 18.0507 19.7217 17.9672 19.3039 17.7165C19.0532 17.6329 18.9696 17.3822 19.1368 17.1315C19.2203 16.8808 19.471 16.7972 19.7217 16.9644C20.4738 17.2986 20.5574 17.2986 22.3958 16.6301C23.7329 16.1287 23.6493 15.5438 23.6493 15.5438C23.5657 15.2931 23.7328 15.0424 23.9835 15.0424C24.2342 14.9588 24.4014 15.1259 24.485 15.2931C24.485 15.3766 24.9028 16.7137 22.7301 17.4658C21.4766 17.8836 20.8916 18.0507 20.3902 18.0507Z" fill="#575756"/>
<path d="M19.3882 17.1313C19.3882 17.1313 19.639 18.4683 19.054 19.4711C18.5526 20.4739 18.7197 20.1396 17.4662 21.3931C16.2963 22.6466 16.3799 23.3151 16.1292 24.485C15.9621 25.4878 15.2935 26.9084 15.21 27.4098" fill="white"/>
<path d="M15.2928 27.9113H15.2092C14.9585 27.8277 14.875 27.6606 14.875 27.4099C14.9586 27.2428 15.0421 26.9085 15.2092 26.5743C15.4599 25.9893 15.7107 25.1536 15.8778 24.5687C15.8778 24.4015 15.9613 24.2344 15.9613 24.0673C16.1285 23.1481 16.212 22.396 17.2984 21.2261C17.5491 20.8918 17.7998 20.7247 17.9669 20.5575C18.4683 20.0561 18.4683 20.0561 18.8026 19.3876C19.304 18.552 19.0533 17.2985 19.0533 17.2985C19.0533 17.0478 19.1368 16.8807 19.3875 16.7971C19.6382 16.7971 19.8054 16.8807 19.8889 17.1314C19.8889 17.2149 20.1396 18.6355 19.5546 19.8054C19.1368 20.5575 19.1368 20.6411 18.5518 21.1425C18.3847 21.3096 18.2176 21.4768 17.8833 21.811C16.9641 22.7302 16.8806 23.3152 16.797 24.1509C16.797 24.318 16.7135 24.4851 16.7135 24.7358C16.5463 25.4043 16.2956 26.24 16.0449 26.9085C15.9613 27.2428 15.7942 27.4935 15.7942 27.6606C15.6271 27.7442 15.46 27.9113 15.2928 27.9113Z" fill="#575756"/>
<path d="M16.7959 22.6465C16.7959 22.6465 18.2165 22.3122 19.6371 22.1451C20.9742 21.978 22.8126 21.6437 23.6483 22.0615C24.4839 22.4794 28.3279 24.3178 28.3279 24.3178" fill="white"/>
<path d="M28.0778 24.7357C28.0778 24.7357 24.3173 22.8973 23.4817 22.4794C22.8132 22.1452 21.2254 22.3959 20.1391 22.563L19.7212 22.6466C18.3842 22.8137 16.9636 23.148 16.9636 23.148C16.7129 23.2315 16.4622 23.0644 16.4622 22.8137C16.3786 22.563 16.5458 22.3123 16.7964 22.3123C16.88 22.3123 18.3006 21.978 19.6377 21.8109L20.0555 21.7273C21.4761 21.5602 22.9803 21.3095 23.8995 21.7273C24.7352 22.1452 28.5792 24.0672 28.5792 24.0672L28.0778 24.7357Z" fill="#575756"/>
<path d="M28.2452 28.3289C28.2452 28.3289 23.8998 27.4932 21.6436 25.7383L28.2452 28.3289Z" fill="white"/>
<path d="M28.2454 28.7471C27.9947 28.6636 23.6493 27.8279 21.3095 26.073C21.1423 25.9059 21.0587 25.6552 21.2259 25.4881C21.393 25.3209 21.6437 25.2374 21.8108 25.4045C23.9835 27.0758 28.2454 27.9115 28.2454 27.9115C28.4961 27.995 28.6632 28.1622 28.5796 28.4129C28.6632 28.58 28.4961 28.7471 28.2454 28.7471Z" fill="#575756"/>
<path d="M22.3119 24.6521C22.1448 24.7357 21.5598 26.1563 20.2228 26.407C18.8857 26.6577 15.9609 26.407 15.9609 26.407" fill="white"/>
<path d="M18.5513 26.992C17.2978 26.992 16.0444 26.9085 15.9608 26.9085C15.7101 26.9085 15.543 26.6578 15.543 26.4071C15.543 26.1564 15.7936 25.9892 16.0443 25.9892C16.0443 25.9892 18.8856 26.2399 20.2226 25.9892C21.0583 25.8221 21.5597 25.07 21.8104 24.6522C21.9775 24.4851 21.9775 24.3179 22.1447 24.2344C22.3118 24.1508 22.646 24.1508 22.7296 24.4015C22.8131 24.5686 22.8132 24.8193 22.646 24.9865C22.646 24.9865 22.5625 25.07 22.5625 25.1536C22.2282 25.655 21.6432 26.6578 20.3898 26.8249C19.8884 26.992 19.2198 26.992 18.5513 26.992Z" fill="#575756"/>
<path d="M16.8808 26.5742C16.8808 26.5742 16.2123 27.9113 16.2123 29.3319C16.2123 30.8361 16.0452 31.2539 15.5438 32.1731C15.0424 33.0923 14.541 34.1787 14.541 34.1787" fill="white"/>
<path d="M14.9581 34.4294L14.2061 34.0116C14.2061 34.0116 14.791 32.9252 15.2088 32.006C15.6266 31.1704 15.7938 30.7525 15.7938 29.3319C15.7938 27.7442 16.4623 26.4071 16.4623 26.3236C16.5458 26.0729 16.7966 25.9893 17.0472 26.1564C17.2979 26.24 17.3815 26.4907 17.2144 26.7414C17.2144 26.7414 16.6294 27.9949 16.6294 29.3319C16.6294 30.9197 16.4623 31.3375 15.9609 32.3403C15.4595 33.3431 14.9581 34.4294 14.9581 34.4294Z" fill="#575756"/>
<path d="M18.9689 26.5743C18.3839 26.4907 27.3255 28.4963 28.4118 30.0841L18.9689 26.5743Z" fill="white"/>
<path d="M28.4961 30.502C28.3289 30.502 28.2454 30.4184 28.1618 30.3349C27.4097 29.2485 21.7273 27.7443 19.8888 27.3265C18.6354 26.9922 18.5518 26.9922 18.5518 26.5744C18.5518 26.3237 18.8025 26.1566 19.0532 26.2402C19.1367 26.2402 19.2203 26.2402 19.3039 26.3237C19.471 26.4073 19.7217 26.4073 20.1395 26.5744C23.9835 27.5772 28.0782 28.8307 28.9139 29.917C29.081 30.0842 28.9975 30.4184 28.8303 30.502C28.6632 30.4184 28.5796 30.502 28.4961 30.502Z" fill="#575756"/>
<path d="M25.487 33.3428C25.487 33.3428 21.2252 31.9222 20.5566 31.4208L25.487 33.3428Z" fill="white"/>
<path d="M25.4872 33.7608C25.4036 33.7608 25.4036 33.7608 25.32 33.7608C24.9022 33.5937 20.9746 32.3402 20.2225 31.7552C20.0554 31.5881 19.9718 31.3374 20.139 31.1703C20.3061 31.0031 20.5568 30.9196 20.7239 31.0867C21.2253 31.421 23.8994 32.4238 25.5707 32.9251C25.8214 33.0087 25.905 33.2594 25.8214 33.4265C25.8214 33.5937 25.6543 33.7608 25.4872 33.7608Z" fill="#575756"/>
<path d="M22.0609 30.9194C22.0609 30.9194 21.6431 32.34 19.1361 31.5044C17.8826 31.0865 16.8799 31.0865 16.2949 30.2509" fill="white"/>
<path d="M20.5573 32.1732C20.0559 32.1732 19.5545 32.0896 18.9696 31.8389C18.6353 31.7553 18.3011 31.6718 18.0504 31.5882C17.2147 31.3375 16.4626 31.1704 15.9612 30.4183C15.7941 30.2511 15.8776 29.9169 16.0448 29.8333C16.2119 29.6662 16.5462 29.7498 16.6297 29.9169C16.964 30.4183 17.4654 30.5018 18.2175 30.7525C18.5518 30.8361 18.886 30.9197 19.2203 31.0868C20.3066 31.5046 20.9751 31.3375 21.2258 31.1704C21.5601 31.0032 21.6437 30.7525 21.6437 30.7525C21.7272 30.5018 21.978 30.4183 22.1451 30.5018C22.3958 30.5854 22.4793 30.7525 22.4793 31.0032C22.4793 31.0868 22.3122 31.5882 21.7273 31.9225C21.3094 32.0896 20.9752 32.1732 20.5573 32.1732Z" fill="#575756"/>
<path d="M13.2869 32.4236C13.2869 32.4236 14.8747 36.5183 18.2173 35.6827C21.5599 34.9306 21.9777 34.3456 24.4847 33.8442C26.9916 33.3428 26.9916 33.3428 28.2451 33.3428C29.4986 33.4264 31.0028 33.4264 31.1699 34.5963C31.3371 35.6827 31.6713 36.9361 28.078 38.2732C24.4847 39.6102 23.2312 39.9445 20.4736 40.8637C17.7159 41.7829 15.1253 43.2871 12.2841 45.042C9.44287 46.7969 6.43451 47.9668 3.92755 47.9668C1.42059 47.9668 -2.50699 48.2175 -5.26465 49.6381" fill="white"/>
<path d="M-5.26424 50.1396C-5.43137 50.1396 -5.5985 50.056 -5.68206 49.8889C-5.76563 49.6382 -5.68205 49.3875 -5.51492 49.304C-2.75726 47.8834 1.08676 47.6327 3.84442 47.6327C6.18425 47.6327 9.02549 46.6299 11.9503 44.7914C14.9586 42.953 17.4656 41.4488 20.2232 40.5296C21.1425 40.1953 21.811 39.9446 22.5631 39.7775C24.0673 39.2761 25.4043 38.8583 27.8277 37.9391C31.0032 36.7691 30.836 35.8499 30.6689 34.8471V34.7636C30.5853 34.095 29.5826 33.9279 28.2455 33.9279H28.1619C26.9085 33.8444 26.9085 33.8444 24.4851 34.3457C23.3152 34.5964 22.6466 34.8471 21.8945 35.0978C21.0589 35.4321 20.0561 35.7664 18.3012 36.1842C15.3764 36.8527 13.4544 34.1786 12.8695 32.5909C12.7859 32.3402 12.8695 32.0895 13.1202 32.0059C13.3709 31.9224 13.6216 32.0059 13.7051 32.2566C13.7887 32.4237 15.2093 35.9335 18.2177 35.265C19.9726 34.8471 20.8918 34.5129 21.7274 34.2622C22.4795 34.0115 23.2316 33.7608 24.4015 33.4265C26.8249 32.9251 26.9085 32.9251 28.1619 32.9251H28.3291C29.5826 33.0087 31.3375 33.0923 31.5882 34.5129V34.5964C31.8389 36.0171 31.7553 37.3541 28.1619 38.6912C25.7386 39.6104 24.3179 40.0282 22.8973 40.5296C22.2288 40.7803 21.4767 41.031 20.5575 41.2817C17.8834 42.2009 15.46 43.5379 12.4517 45.46C9.4433 47.382 6.35138 48.4683 3.84442 48.4683C1.17033 48.4683 -2.50654 48.719 -5.18064 50.0561C-5.18064 50.1396 -5.26424 50.1396 -5.26424 50.1396Z" fill="#575756"/>
<path d="M13.2869 32.4236C13.2869 32.4236 14.8747 36.5183 18.2173 35.6827C21.5599 34.9306 21.9777 34.3456 24.4847 33.8442C26.9916 33.3428 26.9916 33.3428 28.2451 33.3428C29.4986 33.4264 31.0028 33.4264 31.1699 34.5963C31.3371 35.6827 31.6713 36.9361 28.078 38.2732C24.4847 39.6102 23.2312 39.9445 20.4736 40.8637C17.7159 41.7829 15.1253 43.2871 12.2841 45.042C9.44287 46.7969 6.43451 47.9668 3.92755 47.9668C1.42059 47.9668 -2.50699 48.2175 -5.26465 49.6381" fill="white"/>
<path d="M-5.26424 50.1396C-5.43137 50.1396 -5.5985 50.056 -5.68206 49.8889C-5.76563 49.6382 -5.68205 49.3875 -5.51492 49.304C-2.75726 47.8834 1.08676 47.6327 3.84442 47.6327C6.18425 47.6327 9.02549 46.6299 11.9503 44.7914C14.9586 42.953 17.4656 41.4488 20.2232 40.5296C21.1425 40.1953 21.811 39.9446 22.5631 39.7775C24.0673 39.2761 25.4043 38.8583 27.8277 37.9391C31.0032 36.7691 30.836 35.8499 30.6689 34.8471V34.7636C30.5853 34.095 29.5826 33.9279 28.2455 33.9279H28.1619C26.9085 33.8444 26.9085 33.8444 24.4851 34.3457C23.3152 34.5964 22.6466 34.8471 21.8945 35.0978C21.0589 35.4321 20.0561 35.7664 18.3012 36.1842C15.3764 36.8527 13.4544 34.1786 12.8695 32.5909C12.7859 32.3402 12.8695 32.0895 13.1202 32.0059C13.3709 31.9224 13.6216 32.0059 13.7051 32.2566C13.7887 32.4237 15.2093 35.9335 18.2177 35.265C19.9726 34.8471 20.8918 34.5129 21.7274 34.2622C22.4795 34.0115 23.2316 33.7608 24.4015 33.4265C26.8249 32.9251 26.9085 32.9251 28.1619 32.9251H28.3291C29.5826 33.0087 31.3375 33.0923 31.5882 34.5129V34.5964C31.8389 36.0171 31.7553 37.3541 28.1619 38.6912C25.7386 39.6104 24.3179 40.0282 22.8973 40.5296C22.2288 40.7803 21.4767 41.031 20.5575 41.2817C17.8834 42.2009 15.46 43.5379 12.4517 45.46C9.4433 47.382 6.35138 48.4683 3.84442 48.4683C1.17033 48.4683 -2.50654 48.719 -5.18064 50.0561C-5.18064 50.1396 -5.26424 50.1396 -5.26424 50.1396Z" fill="#575756"/>
<path d="M44.4572 42.0339H44.3737C44.0394 41.9503 43.8723 41.6996 43.9559 41.3654L47.4656 24.318C47.5492 23.9838 47.7999 23.8166 48.1341 23.9002C48.4684 23.9838 48.6355 24.2345 48.552 24.5687L45.0422 41.6161C44.9586 41.7832 44.7079 42.0339 44.4572 42.0339Z" fill="#575756"/>
<path d="M45.6272 25.0702C45.4601 25.0702 45.2094 24.9866 45.1259 24.7359C44.9587 24.4852 45.1259 24.0674 45.3766 23.9838L48.0507 22.5632C48.3014 22.3961 48.7192 22.5632 48.8027 22.8139C48.9699 23.0646 48.8027 23.4824 48.552 23.566L45.8779 24.9866C45.7944 25.0702 45.7108 25.0702 45.6272 25.0702Z" fill="#575756"/>
<path d="M50.3063 26.2401C50.1392 26.2401 49.972 26.1565 49.8885 25.9894L48.0501 23.566C47.883 23.3153 47.8829 22.981 48.1336 22.7303C48.3843 22.5632 48.7186 22.5632 48.9693 22.8139L50.8077 25.2373C50.9749 25.488 50.9748 25.8223 50.7241 26.073C50.557 26.2401 50.3899 26.2401 50.3063 26.2401Z" fill="#575756"/>
<path d="M44.3743 42.2013C44.2072 42.2013 43.9565 42.1177 43.8729 41.867C43.7058 41.6163 43.8729 41.1985 44.1236 41.1149L46.7977 39.6943C47.0484 39.5272 47.4662 39.6943 47.5498 39.945C47.7169 40.1957 47.5498 40.6135 47.2991 40.6971L44.625 42.1177C44.5414 42.2013 44.4579 42.2013 44.3743 42.2013Z" fill="#575756"/>
<path d="M44.2067 42.0341C44.0396 42.0341 43.8725 41.9505 43.7889 41.7834L41.9505 39.36C41.7833 39.1093 41.7834 38.775 42.034 38.5243C42.2847 38.3572 42.619 38.3572 42.8697 38.6079L44.7082 41.0313C44.8753 41.282 44.8753 41.6163 44.6246 41.867C44.4574 42.0341 44.2903 42.0341 44.2067 42.0341Z" fill="#575756"/>
</g>
<path d="M30 60C13.454 60 0 46.546 0 30C0 13.454 13.454 0 30 0C46.5459 0 60 13.454 60 30C60 46.546 46.5459 60 30 60ZM30 1.33705C14.2061 1.33705 1.33703 14.2061 1.33703 30C1.33703 45.7939 14.2061 58.6629 30 58.6629C45.7938 58.6629 58.6629 45.7939 58.6629 30C58.6629 14.2061 45.7938 1.33705 30 1.33705Z" fill="#575756"/>
<path d="M30.0009 56.9915C15.1262 56.9915 3.09277 44.8745 3.09277 30.0834C3.09277 15.2088 15.2098 3.17535 30.0009 3.17535C44.7919 3.17535 56.9089 15.2923 56.9089 30.0834C56.9089 44.8745 44.8755 56.9915 30.0009 56.9915ZM30.0009 3.92744C15.6276 3.92744 3.92843 15.6266 3.92843 29.9999C3.92843 44.3731 15.6276 56.0723 30.0009 56.0723C44.3741 56.0723 56.0733 44.3731 56.0733 29.9999C56.0733 15.6266 44.3741 3.92744 30.0009 3.92744Z" fill="#575756"/>
</svg>
