<svg width="62" height="62" viewBox="0 0 62 62" fill="none" xmlns="http://www.w3.org/2000/svg">
<path d="M30.7203 62C27.9862 62 25.3325 61.2763 23.0809 59.8288C14.3157 54.441 6.99788 46.882 1.93173 38.0363C-0.721963 33.3722 -0.641545 27.6628 2.17298 23.0791C7.56079 14.3139 15.1198 6.99611 23.9655 1.92996C26.1367 0.643319 28.7099 0 31.2028 0C33.9369 0 36.5906 0.723733 38.8422 2.1712C47.6075 7.55901 54.9252 15.118 59.9914 23.9637C62.6451 28.6278 62.5647 34.3372 59.7502 38.9209C54.3624 47.6861 46.8033 55.0039 37.9577 60.07C35.7865 61.3567 33.2132 62 30.7203 62ZM31.2028 1.28664C28.8708 1.28664 26.5387 1.92996 24.5284 3.05577C15.8435 8.0415 8.44535 15.1984 3.13796 23.7224C0.564678 27.904 0.484261 33.131 2.89671 37.393C7.88244 46.0778 15.0394 53.476 23.5634 58.7834C25.6542 60.07 28.0666 60.7938 30.5595 60.7938C32.8915 60.7938 35.2236 60.1505 37.2339 59.0246C45.9188 54.0389 53.317 46.882 58.6243 38.358C61.1976 34.1764 61.278 28.9494 58.8656 24.6874C53.8799 16.0026 46.7229 8.60441 38.1989 3.29702C36.1081 1.92996 33.6957 1.28664 31.2028 1.28664Z" fill="#575756"/>
<path d="M57.0972 25.6522C52.2723 17.2086 45.3566 10.1321 37.1542 5.06593C33.616 2.89472 29.1931 2.81431 25.6549 4.9051C17.2113 9.73 10.1348 16.6457 5.06862 24.848C2.89741 28.3863 2.81699 32.8091 4.90778 36.3474C9.73268 44.791 16.6484 51.8675 24.8507 56.9336C28.389 59.1048 32.8118 59.1853 36.3501 57.0945C44.7937 52.2696 51.8702 45.3539 56.9363 37.1515C59.1075 33.6937 59.1879 29.1904 57.0972 25.6522Z" fill="white"/>
<path d="M30.7207 59.0244C28.63 59.0244 26.4587 58.4615 24.6092 57.2553C16.3264 52.1087 9.33034 44.9518 4.50544 36.5082C2.41465 32.8091 2.49507 28.2254 4.66628 24.6068C9.81284 16.324 16.9698 9.3279 25.4133 4.503C29.1124 2.41221 33.6961 2.49262 37.3148 4.66383C45.5975 9.81039 52.5936 16.9673 57.4185 25.4109C59.5093 29.11 59.4289 33.6937 57.2577 37.3123C52.1111 45.5951 44.9542 52.5912 36.5106 57.4161C34.7415 58.5419 32.7311 59.0244 30.7207 59.0244ZM31.2032 3.77926C29.3537 3.77926 27.5041 4.26176 25.8154 5.22674C17.4523 9.97123 10.3757 16.8065 5.30959 25.0088C3.2188 28.3863 3.13838 32.6483 5.14876 36.1061C9.89325 44.4693 16.8089 51.5458 25.0113 56.612C28.3887 58.7027 32.6507 58.7832 36.1086 56.7728C44.4717 52.0283 51.5482 45.1126 56.6144 36.9103C58.7052 33.5328 58.7856 29.2708 56.7752 25.813C52.0307 17.4498 45.115 10.3733 36.9127 5.30715C35.1436 4.34217 33.2136 3.77926 31.2032 3.77926Z" fill="#575756"/>
<path d="M36.1878 17.6909L36.4291 19.4601L37.7157 17.8518L37.1528 20.023C37.1528 20.023 39.8869 20.988 39.7261 21.39C39.5653 21.7921 39.5653 22.2746 40.3694 22.6767C41.1736 23.1592 41.0932 23.8829 40.6107 24.285C40.1282 24.687 39.4044 25.4912 39.0024 25.5716C38.9219 25.5716 38.922 25.5716 38.8415 25.5716C38.6003 25.5716 38.1982 25.4912 37.8765 25.4912C37.4745 25.4912 36.992 25.5716 36.6703 25.8933C35.9466 26.617 31.765 32.4873 31.5238 33.6935C31.2825 34.9802 34.4187 41.0113 34.4187 41.0113C34.4991 41.0113 35.6249 41.0113 35.5445 41.9763C35.3837 42.9413 35.3837 42.9413 35.3837 42.9413C35.3837 42.9413 34.9816 43.0217 34.4991 43.0217C34.097 43.0217 33.5341 43.0217 33.1321 42.8608C32.2475 42.6196 29.1917 38.1164 28.8701 37.2318L22.5977 24.9283C22.5977 24.9283 28.7897 24.285 29.5938 23.8025C30.398 23.32 33.5341 20.2642 34.097 19.9426C34.5795 19.7013 36.1878 17.6909 36.1878 17.6909ZM36.1878 16.4847C35.7858 16.4847 35.4641 16.6455 35.2229 16.9672C34.4991 17.8518 33.6145 18.8972 33.2929 19.1384C33.0516 19.2992 32.4887 19.7817 31.5238 20.6663C30.7196 21.39 29.2721 22.6767 28.8701 22.9179C28.2267 23.1592 25.0101 23.6417 22.276 23.8829C21.874 23.9633 21.4719 24.2046 21.3111 24.5262C21.1502 24.8479 21.1502 25.3304 21.3111 25.652L27.5834 37.9555C27.9855 38.5988 31.0413 43.7454 32.6496 44.1475C33.1321 44.3083 33.695 44.3083 34.3383 44.3083C34.9012 44.3083 35.3837 44.2279 35.3837 44.2279C35.9466 44.1475 36.4291 43.7454 36.5095 43.1825L36.6703 42.2175C36.7507 41.6546 36.5899 41.0917 36.1878 40.6092C35.8662 40.2876 35.4641 40.0463 35.1424 39.9659C33.9362 37.5535 32.73 34.6585 32.6496 33.9348C32.9712 32.809 36.7507 27.4212 37.3941 26.7778C37.3941 26.7778 37.5549 26.6974 37.7157 26.6974C37.8765 26.6974 38.0374 26.6974 38.1982 26.6974C38.359 26.6974 38.5199 26.6974 38.7611 26.6974C38.9219 26.6974 39.0024 26.6974 39.1632 26.6974C39.8869 26.5366 40.6107 25.8933 41.4148 25.0891C41.9777 24.5262 42.219 23.8829 42.1385 23.1592C42.0581 22.4354 41.5756 21.8725 40.9323 21.4704C41.0127 21.2292 40.9323 20.9075 40.8519 20.6663C40.6911 20.3446 40.5302 19.8621 38.6807 19.1384L38.9219 18.093C38.9219 17.9322 39.0024 17.8518 39.0024 17.6909C39.0024 17.0476 38.4395 16.4847 37.7961 16.4847H37.7157C37.4745 16.4847 37.3136 16.5651 37.1528 16.6455C36.992 16.4847 36.8312 16.4043 36.6703 16.4043C36.4291 16.4847 36.3487 16.4847 36.1878 16.4847Z" fill="#575756"/>
<path d="M17.5312 25.652C17.5312 25.652 28.7894 24.4458 29.5935 23.9633C30.3977 23.4808 33.5338 20.425 34.0967 20.1034C34.6596 19.7817 36.2679 17.6909 36.2679 17.6909L36.5092 19.46L37.7958 17.8517L37.2329 20.023C37.2329 20.023 39.967 20.9879 39.8062 21.39C39.6454 21.7921 39.6454 22.2746 40.4495 22.6766C41.2537 23.1591 41.1733 23.8829 40.6908 24.2849C40.2083 24.7674 39.4845 25.4912 39.0825 25.5716C38.6 25.652 37.4742 25.2499 36.7504 25.8933C36.0267 26.617 31.8451 32.4873 31.6039 33.6935C31.3626 34.9802 34.4988 41.0113 34.4988 41.0113C34.4988 41.0113 35.7051 41.0113 35.6246 41.9763C35.5442 42.9412 35.4638 42.9412 35.4638 42.9412C35.4638 42.9412 34.0968 43.1021 33.2122 42.8608C32.3276 42.6196 29.2718 38.1163 25.0903 37.6338L17.5312 25.652Z" fill="white"/>
<path d="M21.6324 29.9144C26.1357 27.0999 27.2615 21.4708 27.4223 17.6109C27.4223 17.048 27.0202 16.6459 26.5377 16.5655C24.1253 16.1634 22.517 15.4397 21.7933 15.0376C21.4716 14.8768 21.1499 14.8768 20.8283 15.0376C20.1045 15.4397 18.4962 16.1634 16.0838 16.5655C15.6013 16.6459 15.1992 17.048 15.1992 17.6109C15.2796 21.3904 16.0034 26.7782 20.587 29.834C20.8283 30.0752 21.2303 30.1556 21.6324 29.9144Z" fill="white"/>
<path d="M21.0698 32.0856C20.4265 32.0856 19.8636 31.9248 19.3007 31.5227C15.2799 28.7886 13.1892 24.205 13.0283 17.6913C13.0283 16.1635 14.0737 14.8768 15.6016 14.6356C17.6924 14.3139 19.0595 13.6706 19.7028 13.3489C20.5873 12.8664 21.7131 12.8664 22.5977 13.3489C23.241 13.6706 24.6081 14.3139 26.6989 14.6356C28.2268 14.8768 29.3526 16.2439 29.2722 17.7718C29.1113 21.4708 28.0659 28.2257 22.5977 31.6836C22.1956 31.9248 21.6327 32.0856 21.0698 32.0856ZM17.1295 18.4151C17.3707 22.8379 18.6574 25.8937 21.0698 27.8236C24.206 25.4916 25.0906 21.2296 25.3318 18.4151C23.4823 18.013 22.1152 17.4501 21.2307 17.048C20.3461 17.5305 18.979 18.0934 17.1295 18.4151Z" fill="white"/>
<path d="M21.0696 30.4771C20.7479 30.4771 20.5067 30.3967 20.2654 30.2359C16.6468 27.743 14.8776 23.6418 14.7168 17.6911C14.7168 16.9674 15.1993 16.4045 15.923 16.2436C18.2551 15.8416 19.8634 15.1982 20.5067 14.7962C20.9088 14.5549 21.4717 14.5549 21.8737 14.7962C22.5975 15.1982 24.1253 15.922 26.4574 16.2436C27.1811 16.3241 27.744 16.9674 27.6636 17.6911C27.5028 21.0685 26.6182 27.2605 21.7129 30.3163C21.6325 30.3967 21.3108 30.4771 21.0696 30.4771ZM21.2304 15.3591C21.15 15.3591 20.9892 15.3591 20.9088 15.4395C20.1046 15.8416 18.4963 16.6457 16.0034 16.9674C15.6818 17.0478 15.4405 17.289 15.4405 17.6107C15.6014 23.3202 17.2901 27.2605 20.6675 29.5121C20.9088 29.673 21.15 29.673 21.3912 29.5121C25.9749 26.6976 26.8595 20.8273 26.9399 17.5303C26.9399 17.2086 26.6986 16.9674 26.377 16.887C23.8841 16.4849 22.2758 15.7611 21.4717 15.3591C21.4717 15.3591 21.3108 15.3591 21.2304 15.3591Z" fill="#575756"/>
<path d="M20.5881 25.572C20.3469 25.572 20.1861 25.4916 20.0252 25.3308L17.5324 22.275C17.2911 21.9534 17.3715 21.5513 17.6128 21.31C17.9345 21.0688 18.3365 21.1492 18.5778 21.3905L20.4273 23.7225L23.7243 19.0584C23.9656 18.7368 24.3677 18.6564 24.6893 18.8976C25.011 19.1388 25.0914 19.5409 24.8501 19.8626L20.9902 25.2504C20.9902 25.4112 20.749 25.572 20.5881 25.572Z" fill="#575756"/>
<path d="M24.6089 37.3929C24.6089 37.3929 26.1368 39.2425 26.2977 39.4837C26.4585 39.725 27.2626 40.0466 27.1822 40.2879C27.1822 40.5291 27.1822 40.8508 26.8606 40.8508C26.7801 40.8508 26.6997 40.8508 26.6193 40.7703C26.0564 40.6095 25.6543 40.3683 25.4131 40.0466C25.0914 39.725 23.0811 38.3579 23.0811 38.3579L24.6089 37.3929ZM24.6089 34.9805C24.1264 34.9805 23.644 35.1413 23.2419 35.3825L21.7944 36.4279C21.1511 36.9104 20.749 37.6342 20.749 38.4383C20.749 39.2425 21.1511 39.9662 21.7944 40.4487C22.5986 41.0116 23.5635 41.6549 23.8048 41.8962C24.4481 42.4591 25.1718 42.9416 26.0564 43.1828C26.3781 43.2632 26.6997 43.3436 26.941 43.3436C28.1472 43.3436 29.5143 42.5395 29.5947 40.6899C29.7555 39.5641 29.273 38.5991 28.0668 37.8754C27.8255 37.5537 27.4235 36.9908 26.5389 35.9454C26.0564 35.2217 25.3327 34.9805 24.6089 34.9805Z" fill="white"/>
<path d="M24.6078 37.393C24.6078 37.393 26.1357 39.2425 26.2965 39.4838C26.4573 39.725 27.2615 40.0467 27.1811 40.2879C27.1811 40.5291 27.181 40.8508 26.8594 40.8508C26.779 40.8508 26.6986 40.8508 26.6181 40.7704C26.0552 40.6096 25.6532 40.3683 25.4119 40.0467C25.0903 39.725 23.0799 38.3579 23.0799 38.3579L24.6078 37.393ZM24.6078 36.428C24.4469 36.428 24.2057 36.5084 24.0449 36.5888L22.5974 37.6342C22.3561 37.795 22.1953 38.1167 22.1953 38.4384C22.1953 38.76 22.3561 39.0817 22.5974 39.2425C23.482 39.8858 24.6078 40.6096 24.7686 40.8508C25.1707 41.2529 25.7336 41.5745 26.3769 41.8158C26.5377 41.8962 26.6986 41.8962 26.8594 41.8962C27.1006 41.8962 27.9852 41.8158 28.0656 40.6096V40.5292C28.146 39.725 27.5027 39.3229 27.1006 39.0817C27.0202 39.0817 26.9398 39.0013 26.9398 39.0013C26.6181 38.5992 25.6532 37.4734 25.2511 36.9105C25.1707 36.5084 24.9294 36.428 24.6078 36.428Z" fill="#575756"/>
<path d="M16.4064 38.0361L18.4168 38.2774C18.3364 38.4382 17.7735 39.4032 17.7735 39.6444C17.7735 39.8857 18.0147 40.529 18.1755 40.6094C18.3364 40.6898 19.0601 41.0115 19.0601 41.1723C19.1405 41.3331 19.1405 41.3331 19.1405 41.3331H17.6931C17.4518 41.3331 17.2106 41.2527 17.0497 41.0115C16.7281 40.6094 16.1652 39.8857 16.1652 39.564C16.1652 39.2423 16.4064 38.0361 16.4064 38.0361ZM16.4064 37.0711C15.9239 37.0711 15.5219 37.3928 15.4414 37.7949C15.361 38.1969 15.2002 39.1619 15.2002 39.6444C15.2002 39.9661 15.361 40.3682 16.326 41.5744C16.6477 41.9765 17.1302 42.2177 17.6931 42.2177H19.1405C19.4622 42.2177 19.7034 42.0569 19.8643 41.8156C20.0251 41.5744 20.1055 41.2527 20.0251 41.0115L19.9447 40.8506C19.7839 40.2877 19.3014 40.0465 18.8189 39.8052C18.8189 39.7248 18.7385 39.6444 18.7385 39.564C18.8189 39.4032 18.8993 39.1619 19.1405 38.7599L19.2209 38.599C19.3818 38.3578 19.3818 37.9557 19.2209 37.7145C19.0601 37.4732 18.8189 37.232 18.4972 37.232L16.4868 36.9907C16.4868 37.0711 16.4064 37.0711 16.4064 37.0711Z" fill="#575756"/>
<path d="M22.4373 41.8959C21.8744 41.8959 21.392 41.4939 21.2311 40.931C21.0703 40.3681 20.9095 39.6443 20.7486 39.0814C20.7486 38.9206 20.5878 38.8402 20.427 38.8402C20.1053 38.8402 19.7837 38.8402 19.5424 38.8402H19.462C19.0599 38.8402 18.2558 38.6793 17.532 38.5989C17.2104 38.5185 16.8083 38.5185 16.7279 38.4381C16.5671 38.5185 16.0041 39.001 15.7629 39.3227C15.6825 39.4835 15.4412 39.6443 13.3504 40.1268C13.27 40.2876 13.27 40.4485 13.27 40.5289C13.27 40.5289 13.3504 40.6093 13.4309 40.6093C13.5917 40.6897 13.7525 40.931 13.7525 41.1722C13.7525 41.4939 13.5113 41.8155 13.1092 41.8155C13.0288 41.8155 13.0288 41.8155 12.9484 41.8155C12.7071 41.8155 12.3051 41.8155 11.903 41.6547C11.6617 41.5743 11.4205 41.333 11.4205 41.0918C11.4205 40.2072 11.7422 39.001 11.903 38.5989C11.9834 38.4381 12.0638 38.2773 12.2246 38.1968L13.5113 37.5535C13.5917 37.4731 13.6721 37.3927 13.6721 37.2319C13.5917 36.2669 13.6721 35.9452 13.7525 35.7844C13.8329 35.6236 13.9134 35.3823 13.9134 34.9802C13.9134 34.8194 13.8329 34.739 13.7525 34.6586C12.7071 34.0957 11.8226 33.2111 11.3401 32.6482C11.1792 32.4874 11.0988 32.407 11.0184 32.3265C10.8576 32.1657 10.2143 32.0853 9.89261 32.0853C9.49053 32.0853 9.32969 32.0049 9.16886 31.9245C8.92762 31.7636 8.8472 31.442 8.92762 31.1203C9.00803 30.9595 9.24928 30.477 10.0534 30.477C10.2143 30.477 10.3751 30.477 10.5359 30.477C11.7421 30.6378 13.0288 31.7636 13.5113 32.2461C13.7525 32.4874 14.3958 32.809 15.2 33.1307C15.2804 33.1307 15.2804 33.1307 15.3608 33.1307C15.8433 33.1307 16.8887 33.0503 17.4516 33.0503C18.2558 32.9699 21.0703 32.809 21.6332 32.7286C22.9198 32.4874 23.8044 31.442 23.8848 31.2812C24.1261 30.9595 24.6086 30.7987 24.8498 30.7987C24.9302 30.7987 25.0106 30.7987 25.0106 30.7182L25.091 30.6378C25.9756 29.9141 26.3777 29.6729 26.6189 29.6729H26.6993C26.8602 29.6729 27.021 29.7533 27.1014 29.8337C27.2623 30.0749 27.2623 30.3162 27.2623 30.5574C27.2623 30.7182 27.3427 30.7987 27.4231 30.8791C27.7447 31.0399 27.9056 31.2007 28.0664 31.3616C28.2272 31.5224 28.4685 31.9245 28.7097 32.4874C28.7097 32.4874 28.7097 32.5678 28.7901 32.5678C29.1922 32.9699 29.2726 33.2111 29.2726 33.3719C29.353 34.2565 27.986 34.9802 27.7447 35.0607C27.6643 35.0607 27.5839 35.0607 27.5035 35.0607C27.4231 35.0607 27.2622 35.0607 27.021 35.0607C26.7798 35.0607 26.5385 35.0607 26.3777 35.0607C26.2973 35.0607 26.2973 35.0607 26.2169 35.0607C26.056 35.3019 25.8952 35.7844 25.7344 36.1865C25.4127 36.8298 25.2519 37.3123 25.091 37.4731C25.0106 37.5535 24.8498 37.7948 23.4827 38.5989C23.4023 38.6793 23.3219 38.7598 23.3219 38.9206C23.3219 39.1618 23.3219 39.5639 23.4023 39.8856C23.4023 40.1268 23.4827 40.2876 23.6436 40.5289L23.724 40.6897C23.8848 40.931 23.8848 41.1722 23.8044 41.4134C23.6436 41.6547 23.4023 41.8155 23.1611 41.8155L22.4373 41.8959Z" fill="white"/>
<path d="M26.6993 30.3969C26.7797 30.3969 26.7797 30.5577 26.7797 30.7185C26.6993 31.0402 26.8601 31.3618 27.1818 31.5227C27.3426 31.6031 27.5839 31.7639 27.6643 31.8443C27.8251 32.0856 28.0664 32.5681 28.2272 32.8897C28.2272 32.9701 28.3076 33.0506 28.388 33.131C28.5489 33.2918 28.7097 33.533 28.7097 33.6135C28.7097 34.1764 27.6643 34.7393 27.5035 34.8197H27.423C27.1818 34.8197 26.6993 34.7393 26.2972 34.7393C26.1364 34.7393 25.9756 34.7393 25.8952 34.8197C25.6539 34.9805 24.9302 36.9909 24.6889 37.393C24.5281 37.6342 23.7239 38.1167 23.2415 38.4384C23.0002 38.5992 22.8394 38.8404 22.8394 39.1621C22.8394 39.4033 22.8394 39.8054 22.9198 40.1271C22.9198 40.4487 23.0806 40.7704 23.2415 41.0117C23.2415 41.0921 23.3219 41.0921 23.3219 41.1725C23.4023 41.3333 23.3219 41.4941 23.161 41.4941H22.5981C22.2765 41.4941 21.9548 41.2529 21.794 40.9312C21.6332 40.3683 21.4723 39.6446 21.3115 39.0817C21.2311 38.6796 20.9094 38.4384 20.5073 38.4384C20.1857 38.4384 19.7836 38.4384 19.6228 38.4384H19.5424C18.9795 38.4384 17.0495 38.0363 16.7278 38.0363C16.4062 38.0363 15.6824 38.8404 15.4412 39.0817C15.2804 39.3229 13.4308 39.6446 13.0287 39.725C12.9483 39.725 12.9483 39.8054 12.9483 39.8054C12.8679 39.9663 12.7071 40.5292 12.7875 40.69C12.7875 40.8508 13.0287 41.0117 13.1896 41.0921C13.27 41.0921 13.27 41.1725 13.27 41.2529C13.27 41.3333 13.1896 41.4137 13.1092 41.4137C13.0287 41.4137 13.0287 41.4137 12.9483 41.4137C12.7071 41.4137 12.3854 41.4137 12.0638 41.3333C11.9834 41.3333 11.9833 41.2529 11.9833 41.1725C11.9833 40.3683 12.305 39.0817 12.3854 38.8404C12.3854 38.8404 12.3854 38.76 12.4658 38.76L13.7525 38.1167C14.0741 37.9559 14.235 37.6342 14.235 37.3126C14.235 36.9105 14.1546 36.2672 14.3154 36.1063C14.4762 35.8651 14.5566 35.5434 14.5566 35.0609C14.5566 34.7393 14.3958 34.4176 14.1546 34.2568C12.9483 33.5331 11.9029 32.4072 11.5009 32.0052C11.0184 31.6031 9.81215 31.6835 9.65132 31.5227C9.49049 31.4423 9.49049 31.0402 10.2946 31.0402C10.3751 31.0402 10.5359 31.0402 10.6967 31.0402C11.8225 31.201 13.1092 32.3268 13.5112 32.7289C13.8329 33.0506 14.8783 33.5331 15.2804 33.6939C15.3608 33.7743 15.5216 33.7743 15.602 33.7743C16.0041 33.7743 17.1299 33.6939 17.6928 33.6939C18.4166 33.6135 21.3115 33.4526 21.9548 33.3722C23.3219 33.131 24.2869 32.0856 24.5281 31.7639C24.7693 31.4423 25.3322 31.4423 25.4931 31.2814C25.6539 31.1206 26.3776 30.3969 26.6993 30.3969ZM26.6993 29.4319H26.5385C26.1364 29.5123 25.7343 29.7535 24.7693 30.4773C24.7693 30.4773 24.7693 30.4773 24.6889 30.4773C24.3673 30.5577 23.8044 30.7185 23.4827 31.201C23.4827 31.2814 22.6786 32.2464 21.5527 32.4877C21.0703 32.5681 18.1753 32.8093 17.4516 32.8093C16.9691 32.8093 15.8433 32.8897 15.4412 32.8897C14.5566 32.4877 14.0741 32.2464 13.9937 32.0856L13.9133 32.0052C13.0287 31.201 11.9029 30.3165 10.6967 30.1556C10.5359 30.1556 10.2946 30.0752 10.1338 30.0752C8.92757 30.0752 8.60591 30.7989 8.5255 31.0402C8.36467 31.5227 8.5255 32.0856 8.92757 32.3268C9.16882 32.5681 9.49049 32.5681 9.89256 32.5681C10.1338 32.5681 10.6163 32.6485 10.7771 32.7289C10.8575 32.8093 10.938 32.8897 11.0988 32.9701C11.5813 33.5331 12.4658 34.3372 13.5112 34.9805C13.5112 35.3826 13.4308 35.463 13.4308 35.5434C13.27 35.7847 13.1896 36.1867 13.27 37.1517L12.0638 37.7951C11.8225 37.9559 11.5813 38.1971 11.5009 38.4384C11.34 38.9209 11.0184 40.1271 11.0184 41.0921C11.0184 41.5746 11.34 42.057 11.8225 42.1375C12.305 42.2179 12.7071 42.2983 12.9483 42.2983C13.0287 42.2983 13.1092 42.2983 13.1896 42.2983C13.7525 42.2983 14.235 41.7354 14.235 41.1725C14.235 40.9312 14.1546 40.69 13.9937 40.5292C15.8433 40.1271 16.0041 39.8858 16.1649 39.6446C16.3258 39.4033 16.6474 39.0817 16.8887 38.9209C17.0495 38.9209 17.2907 39.0013 17.532 39.0013C18.4166 39.1621 19.1403 39.2425 19.5424 39.2425C19.6228 39.2425 19.6228 39.2425 19.7032 39.2425C19.7836 39.2425 19.9444 39.2425 20.4269 39.2425C20.5878 39.8054 20.7486 40.4487 20.9094 41.0117C21.1507 41.7354 21.794 42.2983 22.5981 42.2983H23.161C23.6435 42.2983 24.0456 42.057 24.2869 41.655C24.5281 41.2529 24.4477 40.7704 24.2064 40.4487C24.2064 40.3683 24.126 40.3683 24.126 40.2879C24.0456 40.2075 23.9652 40.0467 23.9652 39.9663C23.9652 39.6446 23.9652 39.3229 23.9652 39.0817C25.2518 38.2775 25.4931 38.0363 25.6539 37.8755C25.8147 37.6342 26.056 37.2321 26.3776 36.428C26.4581 36.1867 26.6189 35.8651 26.6993 35.6238C26.8601 35.6238 27.021 35.6238 27.1818 35.6238C27.423 35.6238 27.5839 35.6238 27.6643 35.6238C27.7447 35.6238 27.9055 35.6238 27.9859 35.6238C28.2272 35.5434 29.9963 34.7393 29.9159 33.4526C29.9159 33.131 29.7551 32.8093 29.353 32.3268C28.9509 31.4423 28.7901 31.1206 28.7097 31.0402C28.5488 30.8794 28.388 30.7185 28.0664 30.5577C28.0664 30.3165 28.0664 29.9144 27.8251 29.5927C27.2622 29.5123 27.021 29.4319 26.6993 29.4319Z" fill="#575756"/>
<path d="M38.5212 39.0011C38.28 39.0011 37.8779 38.9207 37.7975 38.197V38.1166C37.7171 37.6341 38.1192 37.3928 38.4408 37.232C38.5213 37.1516 38.6017 37.0712 38.6821 37.0712C38.8429 36.8299 39.9687 35.5433 40.1295 35.2216C40.21 35.1412 40.3708 35.0608 40.5316 35.0608C40.612 35.0608 40.6925 35.0608 40.7729 35.1412L42.0595 36.0258C42.2203 36.1062 42.3007 36.267 42.3007 36.4278C42.3007 36.5887 42.2203 36.7495 42.0595 36.8299C41.2554 37.3928 40.2904 38.1166 40.1295 38.2774C39.8079 38.5991 39.4058 38.8403 38.8429 39.0011C38.7625 39.0011 38.6017 39.0011 38.5212 39.0011Z" fill="white"/>
<path d="M40.5311 35.5433L41.8178 36.4279C41.8178 36.4279 40.0486 37.6341 39.8074 37.8754C39.5661 38.1166 39.2445 38.3579 38.762 38.5187C38.6816 38.5187 38.6012 38.5187 38.5207 38.5187C38.2795 38.5187 38.2795 38.2775 38.2795 38.0362C38.2795 37.795 38.9228 37.5537 39.0836 37.3125C39.1641 37.1517 40.5311 35.5433 40.5311 35.5433ZM40.5311 34.5784C40.2899 34.5784 39.9682 34.7392 39.8074 34.9C39.3249 35.4629 38.6012 36.3475 38.3599 36.7496C38.3599 36.7496 38.2795 36.83 38.1991 36.83C37.8774 37.0712 37.2341 37.4733 37.3145 38.197V38.2775C37.3949 39.4837 38.3599 39.4837 38.5207 39.4837C38.6816 39.4837 38.8424 39.4837 39.0032 39.4033C39.5661 39.2424 40.129 38.9208 40.5311 38.5187C40.6919 38.3579 41.6569 37.7146 42.3807 37.1516C42.6219 36.9908 42.7827 36.6692 42.7827 36.3475C42.7827 36.0258 42.6219 35.7042 42.3807 35.5433L41.094 34.6588C40.8528 34.6588 40.6919 34.5784 40.5311 34.5784Z" fill="#575756"/>
<path d="M47.6876 36.1867C47.6876 36.1867 47.9288 37.1516 47.8484 37.5537C47.8484 37.795 47.3659 38.4383 47.0443 38.7599C46.8835 38.9208 46.7226 39.0012 46.4814 39.0012H45.2752C45.2752 39.0012 45.2752 39.0012 45.2752 38.8404C45.2752 38.6795 45.9185 38.4383 46.0793 38.3579C46.1597 38.2775 46.401 37.7145 46.401 37.4733C46.401 37.3125 45.9185 36.4279 45.8381 36.2671L47.6876 36.1867ZM47.6876 35.2217H47.6072L45.8381 35.4629C45.5164 35.4629 45.2751 35.7042 45.1143 35.9454C44.9535 36.1867 44.9535 36.5887 45.1143 36.83L45.1947 36.9908C45.3556 37.3125 45.436 37.5537 45.5164 37.6341V37.7146C45.0339 37.9558 44.6318 38.197 44.471 38.6795V38.8404C44.3906 39.162 44.471 39.4033 44.6318 39.6445C44.7927 39.8858 45.1143 40.0466 45.3556 40.0466H46.5618C47.0443 40.0466 47.5268 39.8053 47.8484 39.4033C48.733 38.3579 48.8134 37.9558 48.8134 37.6341C48.8938 37.2321 48.733 36.4279 48.6526 35.9454C48.5722 35.5433 48.1701 35.2217 47.6876 35.2217Z" fill="#575756"/>
<path d="M41.8969 39.6449C41.6556 39.6449 41.4144 39.4841 41.2535 39.2428C41.1731 39.0016 41.1731 38.7603 41.334 38.5191L41.4144 38.3583C41.4948 38.1974 41.5752 38.0366 41.5752 37.8758C41.5752 37.5541 41.5752 37.3129 41.5752 37.0716C41.5752 36.9912 41.5752 36.9108 41.4948 36.8304C40.369 36.1066 40.1277 35.9458 40.0473 35.785C39.8865 35.6242 39.7257 35.2221 39.4844 34.6592C39.3236 34.3375 39.1627 33.9354 39.0823 33.7746H39.0019C38.8411 33.7746 38.5999 33.7746 38.439 33.7746C38.2782 33.7746 38.1174 33.7746 38.0369 33.7746C37.9565 33.7746 37.8761 33.7746 37.7957 33.7746C37.5545 33.6942 36.3482 33.1313 36.4286 32.2467C36.4286 32.0859 36.5091 31.9251 36.8307 31.523C36.8307 31.523 36.8307 31.4426 36.9111 31.4426C37.1524 30.9601 37.3132 30.6384 37.474 30.3972C37.5544 30.2363 37.7957 30.1559 38.0369 29.9951C38.1174 29.9147 38.1978 29.8343 38.1174 29.7539C38.1174 29.593 38.0369 29.2714 38.2782 29.1105L38.439 28.9497H38.6803H38.7607C39.0019 28.9497 39.3236 29.191 40.1277 29.8343L40.2082 29.9147H40.2886C40.5298 29.9951 40.9319 30.0755 41.1731 30.3972C41.2535 30.4776 41.9773 31.4426 43.1031 31.6034C43.5856 31.6838 45.998 31.8446 46.7218 31.9251C47.2043 31.9251 48.1692 32.0055 48.5713 32.0055H48.6517C49.5363 31.6034 49.9384 31.3622 50.0188 31.2817C50.5013 30.7993 51.6271 29.8343 52.6725 29.6734C52.8333 29.6734 52.9941 29.6734 53.0746 29.6734C53.8787 29.6734 54.0395 30.0755 54.12 30.2363C54.2004 30.4776 54.12 30.7993 53.8787 30.9601C53.7179 31.0405 53.557 31.1209 53.2354 31.1209C52.9941 31.1209 52.4312 31.2013 52.2704 31.2817C52.19 31.3622 52.1096 31.4426 52.0292 31.523C51.5467 32.0055 50.8229 32.7292 49.9384 33.2921C49.8579 33.3725 49.858 33.4529 49.858 33.5334C49.858 33.855 49.9384 34.0963 50.0188 34.2571C50.0992 34.4179 50.1796 34.6592 50.0992 35.5437C50.0992 35.6242 50.1796 35.7046 50.26 35.785L51.3858 36.3479C51.5467 36.4283 51.6271 36.5891 51.7075 36.75C51.7879 37.0716 52.1096 38.1974 52.1096 38.9212C52.1096 39.1624 51.9487 39.4037 51.6271 39.4841C51.225 39.5645 50.9033 39.5645 50.7425 39.5645C50.6621 39.5645 50.6621 39.5645 50.5817 39.5645C50.26 39.5645 50.0188 39.2428 50.0188 38.9212C50.0188 38.6799 50.0992 38.5191 50.3404 38.3583C50.3404 38.3583 50.4209 38.3583 50.4209 38.2779C50.4209 38.1974 50.4209 38.117 50.3404 38.0366C48.4909 37.6345 48.3301 37.4737 48.1692 37.3129C47.928 37.0716 47.5259 36.6696 47.3651 36.5891C47.2043 36.5891 46.963 36.6696 46.6414 36.6696C45.9176 36.75 45.2743 36.9108 44.9526 36.9108H44.8722C44.7114 36.9108 44.3897 36.9108 44.1485 36.9108C44.0681 36.9108 43.9072 36.9912 43.9072 37.0716C43.8268 37.5541 43.5856 38.1974 43.5052 38.6799C43.3443 39.1624 42.9423 39.5645 42.3794 39.5645L41.8969 39.6449Z" fill="white"/>
<path d="M38.6814 29.4318C38.9226 29.4318 39.8072 30.1555 39.968 30.3163C40.1288 30.4772 40.6113 30.3968 40.8526 30.7184C41.0938 31.0401 41.898 31.9246 43.1042 32.1659C43.5867 32.2463 46.16 32.4071 46.8033 32.4875C47.2858 32.4875 48.2508 32.568 48.6528 32.568C48.7332 32.568 48.8137 32.568 48.9745 32.4875C49.2961 32.3267 50.2611 31.9246 50.5024 31.6834C50.824 31.3617 51.9499 30.3968 52.9148 30.2359C53.0757 30.2359 53.1561 30.2359 53.2365 30.2359C53.8798 30.2359 53.8798 30.638 53.7994 30.7184C53.6386 30.7988 52.5127 30.7184 52.1911 31.1205C51.8694 31.4421 50.9849 32.4875 49.8591 33.0505C49.6178 33.2113 49.457 33.4525 49.5374 33.6938C49.5374 34.1763 49.6178 34.4175 49.7786 34.5783C49.8591 34.7392 49.8591 35.2217 49.8591 35.6237C49.8591 35.9454 50.0199 36.1866 50.2611 36.3475L51.3869 36.9104C51.3869 36.9104 51.4674 36.9104 51.4674 36.9908C51.5478 37.232 51.8694 38.3578 51.8694 39.0012C51.8694 39.0816 51.8694 39.0816 51.789 39.0816C51.4674 39.162 51.2261 39.162 50.9849 39.162C50.9044 39.162 50.9044 39.162 50.824 39.162C50.7436 39.162 50.6632 39.0816 50.6632 39.0012C50.6632 38.9208 50.6632 38.9207 50.7436 38.8403C50.824 38.7599 51.0653 38.6795 51.0653 38.5187C51.0653 38.3578 50.9849 37.9558 50.9045 37.7949L50.824 37.7145C50.5024 37.6341 48.8941 37.3124 48.7332 37.1516C48.5724 36.9104 47.8487 36.1866 47.6074 36.1866C47.3662 36.1866 45.6775 36.5083 45.195 36.5083H45.1146C44.9537 36.5083 44.6321 36.5083 44.3104 36.5083C43.9888 36.5083 43.6671 36.7495 43.5867 37.0712C43.5063 37.5537 43.265 38.197 43.1846 38.6795C43.1042 39.0012 42.8629 39.162 42.5413 39.2424H42.0588C41.898 39.2424 41.8175 39.0816 41.898 38.9208L41.9784 38.8403C42.1392 38.5991 42.2196 38.3578 42.3 38.0362C42.3 37.7949 42.3 37.4733 42.3 37.232C42.3 36.9908 42.2196 36.7495 41.9784 36.5887C41.5763 36.3475 40.8526 35.9454 40.6917 35.7042C40.4505 35.3825 39.8072 33.6134 39.6463 33.4525C39.5659 33.4525 39.4855 33.3721 39.3247 33.3721C39.003 33.3721 38.5205 33.4525 38.3597 33.4525H38.2793C38.1185 33.4525 37.2339 32.8896 37.2339 32.4071C37.2339 32.3267 37.3947 32.0855 37.5556 31.9246C37.636 31.8442 37.636 31.7638 37.7164 31.6834C37.7968 31.4422 38.038 30.9597 38.1989 30.7988C38.2793 30.7184 38.4401 30.5576 38.6009 30.4772C38.8422 30.3163 39.003 30.0751 38.9226 29.7534C38.6009 29.5926 38.6009 29.4318 38.6814 29.4318ZM38.6814 28.4668C38.3597 28.4668 38.1185 28.6276 37.8772 28.7885C37.636 29.1101 37.636 29.4318 37.636 29.673C37.3947 29.8339 37.2339 29.9143 37.0731 30.0751C36.9926 30.1555 36.8318 30.3968 36.4297 31.2009C36.1081 31.603 35.9473 31.9246 35.9473 32.2463C35.8668 33.4525 37.4751 34.1763 37.7164 34.2567C37.8772 34.2567 37.9576 34.2567 38.038 34.2567C38.1185 34.2567 38.2793 34.2567 38.5205 34.2567C38.6009 34.2567 38.7618 34.2567 38.8422 34.2567C38.9226 34.4175 39.003 34.6588 39.0834 34.9C39.3247 35.5433 39.4855 35.9454 39.7268 36.1866C39.8072 36.3475 40.0484 36.5887 41.1742 37.232C41.1742 37.4733 41.1742 37.7145 41.1742 37.9558C41.1742 38.0362 41.1742 38.1166 41.0938 38.197C41.0938 38.2774 41.0134 38.2774 41.0134 38.3578C40.7722 38.6795 40.6917 39.162 40.933 39.5641C41.0938 39.9661 41.4959 40.2074 41.9784 40.2074H42.5413C43.265 40.2074 43.9083 39.7249 44.1496 39.0012C44.23 38.5991 44.3908 38.0362 44.5517 37.5537C44.8733 37.5537 45.0341 37.5537 45.1146 37.5537C45.195 37.5537 45.195 37.5537 45.2754 37.5537C45.5971 37.5537 46.2404 37.4733 47.0445 37.3125C47.2054 37.3125 47.3662 37.232 47.527 37.232C47.6878 37.3929 47.9291 37.6341 48.0899 37.7949C48.2508 37.9558 48.4116 38.197 49.9395 38.5187C49.859 38.6795 49.7786 38.8403 49.7786 39.0012C49.7786 39.5641 50.2611 40.0466 50.824 40.127C50.9044 40.127 50.9044 40.127 50.9849 40.127C51.2261 40.127 51.6282 40.127 52.0303 39.9661C52.5128 39.8053 52.8344 39.4032 52.8344 38.9208C52.8344 38.1166 52.5127 36.9908 52.4323 36.5887C52.3519 36.2671 52.1107 36.1062 51.8694 35.9454L50.9045 35.4629C50.9849 34.6588 50.9044 34.3371 50.7436 34.0154C50.7436 34.0154 50.6632 33.935 50.6632 33.6938C51.5478 33.1309 52.2715 32.4071 52.754 31.9246C52.8344 31.8442 52.9148 31.7638 52.9952 31.6834C53.1561 31.603 53.4777 31.603 53.719 31.603C54.1211 31.603 54.3623 31.5226 54.684 31.3617C55.086 31.0401 55.2469 30.5576 55.086 30.0751C55.0056 29.8339 54.684 29.1905 53.5581 29.1905C53.3973 29.1905 53.2365 29.1905 53.0757 29.1905C51.9498 29.3514 50.9849 30.1555 50.1807 30.8792L50.1003 30.9597C50.0199 31.0401 49.6178 31.2813 48.8941 31.603C48.492 31.603 47.6074 31.603 47.1249 31.5226C46.4012 31.4421 43.9888 31.2813 43.5063 31.2009C42.6217 31.0401 41.898 30.1555 41.898 30.1555C41.5763 29.673 41.0134 29.5926 40.7722 29.5122C39.8876 28.7885 39.5659 28.6276 39.1639 28.5472H39.0834L38.6814 28.4668Z" fill="#575756"/>
</svg>
