<svg width="506" height="105" viewBox="0 0 506 105" fill="none" xmlns="http://www.w3.org/2000/svg">
<path d="M487.319 62.5996H370.029V74.3196H487.319V62.5996Z" fill="#A91255"/>
<path fill-rule="evenodd" clip-rule="evenodd" d="M369.438 62.0088H487.91V74.9105H369.438V62.0088ZM370.62 63.1905V73.7288H486.728V63.1905H370.62Z" fill="#A91255"/>
<path fill-rule="evenodd" clip-rule="evenodd" d="M377 98C377 97.4477 377.448 97 378 97H379.75C380.302 97 380.75 97.4477 380.75 98C380.75 98.5523 380.302 99 379.75 99H378C377.448 99 377 98.5523 377 98ZM382.25 98C382.25 97.4477 382.698 97 383.25 97H386.75C387.302 97 387.75 97.4477 387.75 98C387.75 98.5523 387.302 99 386.75 99H383.25C382.698 99 382.25 98.5523 382.25 98ZM389.25 98C389.25 97.4477 389.698 97 390.25 97H393.75C394.302 97 394.75 97.4477 394.75 98C394.75 98.5523 394.302 99 393.75 99H390.25C389.698 99 389.25 98.5523 389.25 98ZM396.25 98C396.25 97.4477 396.698 97 397.25 97H399C399.552 97 400 97.4477 400 98C400 98.5523 399.552 99 399 99H397.25C396.698 99 396.25 98.5523 396.25 98Z" fill="#EFB4CB"/>
<path fill-rule="evenodd" clip-rule="evenodd" d="M475 98C475 97.4477 475.448 97 476 97L478.25 97C478.802 97 479.25 97.4477 479.25 98C479.25 98.5523 478.802 99 478.25 99L476 99C475.448 99 475 98.5523 475 98ZM481.75 98C481.75 97.4477 482.198 97 482.75 97L487.25 97C487.802 97 488.25 97.4477 488.25 98C488.25 98.5523 487.802 99 487.25 99L482.75 99C482.198 99 481.75 98.5523 481.75 98ZM490.75 98C490.75 97.4477 491.198 97 491.75 97L494 97C494.552 97 495 97.4477 495 98C495 98.5523 494.552 99 494 99L491.75 99C491.198 99 490.75 98.5523 490.75 98Z" fill="#EFB4CB"/>
<path d="M498.727 101.18C498.727 101.747 498.267 102.207 497.7 102.207C497.133 102.207 496.673 101.747 496.673 101.18C496.673 100.613 497.133 100.153 497.7 100.153C498.267 100.153 498.727 100.613 498.727 101.18Z" fill="#A91255"/>
<path d="M496.199 103.24L505.069 98.12L496.199 93V103.24Z" fill="#A91255"/>
<path fill-rule="evenodd" clip-rule="evenodd" d="M104 98C104 97.4477 104.448 97 105 97L106.955 97C107.507 97 107.955 97.4477 107.955 98C107.955 98.5523 107.507 99 106.955 99L105 99C104.448 99 104 98.5523 104 98ZM109.864 98C109.864 97.4477 110.311 97 110.864 97L114.773 97C115.325 97 115.773 97.4477 115.773 98C115.773 98.5523 115.325 99 114.773 99L110.864 99C110.311 99 109.864 98.5523 109.864 98ZM117.682 98C117.682 97.4477 118.13 97 118.682 97L122.591 97C123.143 97 123.591 97.4477 123.591 98C123.591 98.5523 123.143 99 122.591 99L118.682 99C118.13 99 117.682 98.5523 117.682 98ZM125.5 98C125.5 97.4477 125.948 97 126.5 97L130.409 97C130.961 97 131.409 97.4477 131.409 98C131.409 98.5523 130.961 99 130.409 99L126.5 99C125.948 99 125.5 98.5523 125.5 98ZM133.318 98C133.318 97.4477 133.766 97 134.318 97L138.227 97C138.78 97 139.227 97.4477 139.227 98C139.227 98.5523 138.78 99 138.227 99L134.318 99C133.766 99 133.318 98.5523 133.318 98ZM141.136 98C141.136 97.4477 141.584 97 142.136 97L146.045 97C146.598 97 147.045 97.4477 147.045 98C147.045 98.5523 146.598 99 146.045 99L142.136 99C141.584 99 141.136 98.5523 141.136 98ZM148.955 98C148.955 97.4477 149.402 97 149.955 97L153.864 97C154.416 97 154.864 97.4477 154.864 98C154.864 98.5523 154.416 99 153.864 99L149.955 99C149.402 99 148.955 98.5523 148.955 98ZM156.773 98C156.773 97.4477 157.22 97 157.773 97L161.682 97C162.234 97 162.682 97.4477 162.682 98C162.682 98.5523 162.234 99 161.682 99L157.773 99C157.22 99 156.773 98.5523 156.773 98ZM164.591 98C164.591 97.4477 165.039 97 165.591 97L169.5 97C170.052 97 170.5 97.4477 170.5 98C170.5 98.5523 170.052 99 169.5 99L165.591 99C165.039 99 164.591 98.5523 164.591 98ZM172.409 98C172.409 97.4477 172.857 97 173.409 97L177.318 97C177.87 97 178.318 97.4477 178.318 98C178.318 98.5523 177.87 99 177.318 99L173.409 99C172.857 99 172.409 98.5523 172.409 98ZM180.227 98C180.227 97.4477 180.675 97 181.227 97L185.136 97C185.689 97 186.136 97.4477 186.136 98C186.136 98.5523 185.689 99 185.136 99L181.227 99C180.675 99 180.227 98.5523 180.227 98ZM188.045 98C188.045 97.4477 188.493 97 189.045 97L191 97C191.552 97 192 97.4477 192 98C192 98.5523 191.552 99 191 99L189.045 99C188.493 99 188.045 98.5523 188.045 98Z" fill="#A91255"/>
<path fill-rule="evenodd" clip-rule="evenodd" d="M276 98C276 97.4477 276.448 97 277 97L278.95 97C279.502 97 279.95 97.4477 279.95 98C279.95 98.5523 279.502 99 278.95 99L277 99C276.448 99 276 98.5523 276 98ZM281.85 98C281.85 97.4477 282.298 97 282.85 97L286.75 97C287.302 97 287.75 97.4477 287.75 98C287.75 98.5523 287.302 99 286.75 99L282.85 99C282.298 99 281.85 98.5523 281.85 98ZM289.65 98C289.65 97.4477 290.098 97 290.65 97L294.55 97C295.102 97 295.55 97.4477 295.55 98C295.55 98.5523 295.102 99 294.55 99L290.65 99C290.098 99 289.65 98.5523 289.65 98ZM297.45 98C297.45 97.4477 297.898 97 298.45 97L302.35 97C302.902 97 303.35 97.4477 303.35 98C303.35 98.5523 302.902 99 302.35 99L298.45 99C297.898 99 297.45 98.5523 297.45 98ZM305.25 98C305.25 97.4477 305.698 97 306.25 97L310.15 97C310.702 97 311.15 97.4477 311.15 98C311.15 98.5523 310.702 99 310.15 99L306.25 99C305.698 99 305.25 98.5523 305.25 98ZM313.05 98C313.05 97.4477 313.498 97 314.05 97L317.95 97C318.502 97 318.95 97.4477 318.95 98C318.95 98.5523 318.502 99 317.95 99L314.05 99C313.498 99 313.05 98.5523 313.05 98ZM320.85 98C320.85 97.4477 321.298 97 321.85 97L325.75 97C326.302 97 326.75 97.4477 326.75 98C326.75 98.5523 326.302 99 325.75 99L321.85 99C321.298 99 320.85 98.5523 320.85 98ZM328.65 98C328.65 97.4477 329.098 97 329.65 97L333.55 97C334.102 97 334.55 97.4477 334.55 98C334.55 98.5523 334.102 99 333.55 99L329.65 99C329.098 99 328.65 98.5523 328.65 98ZM336.45 98C336.45 97.4477 336.898 97 337.45 97L341.35 97C341.902 97 342.35 97.4477 342.35 98C342.35 98.5523 341.902 99 341.35 99L337.45 99C336.898 99 336.45 98.5523 336.45 98ZM344.25 98C344.25 97.4477 344.698 97 345.25 97L349.15 97C349.702 97 350.15 97.4477 350.15 98C350.15 98.5523 349.702 99 349.15 99L345.25 99C344.698 99 344.25 98.5523 344.25 98ZM352.05 98C352.05 97.4477 352.498 97 353.05 97L355 97C355.552 97 356 97.4477 356 98C356 98.5523 355.552 99 355 99L353.05 99C352.498 99 352.05 98.5523 352.05 98Z" fill="#A91255"/>
<path fill-rule="evenodd" clip-rule="evenodd" d="M16 98C16 97.4477 16.4477 97 17 97L18.5 97C19.0523 97 19.5 97.4477 19.5 98C19.5 98.5523 19.0523 99 18.5 99L17 99C16.4477 99 16 98.5523 16 98ZM20.5 98C20.5 97.4477 20.9477 97 21.5 97L24.5 97C25.0523 97 25.5 97.4477 25.5 98C25.5 98.5523 25.0523 99 24.5 99L21.5 99C20.9477 99 20.5 98.5523 20.5 98ZM26.5 98C26.5 97.4477 26.9477 97 27.5 97L29 97C29.5523 97 30 97.4477 30 98C30 98.5523 29.5523 99 29 99L27.5 99C26.9477 99 26.5 98.5523 26.5 98Z" fill="#EFB4CB"/>
<path fill-rule="evenodd" clip-rule="evenodd" d="M74 98C74 97.4477 74.4477 97 75 97L77.25 97C77.8023 97 78.25 97.4477 78.25 98C78.25 98.5523 77.8023 99 77.25 99L75 99C74.4477 99 74 98.5523 74 98ZM80.75 98C80.75 97.4477 81.1977 97 81.75 97L84 97C84.5523 97 85 97.4477 85 98C85 98.5523 84.5523 99 84 99L81.75 99C81.1977 99 80.75 98.5523 80.75 98Z" fill="#EFB4CB"/>
<path d="M72.1235 102H69.9643V101.235C69.6583 101.541 69.3409 101.762 69.0122 101.898C68.6949 102.023 68.2868 102.085 67.7881 102.085C66.8021 102.085 66.0483 101.824 65.527 101.303C65.0396 100.793 64.7959 100.13 64.7959 99.3138C64.7959 98.5657 65.0566 97.9537 65.578 97.4776C66.0993 96.9903 66.8587 96.7466 67.8561 96.7466H69.9133V96.3045C69.9133 95.8172 69.783 95.4658 69.5223 95.2505C69.2616 95.0238 68.8422 94.9104 68.2642 94.9104C67.5728 94.9104 67.0061 95.1655 66.564 95.6755L65.1699 94.2984C65.6006 93.8223 66.0483 93.4937 66.513 93.3123C66.9891 93.131 67.6011 93.0403 68.3492 93.0403C70.8654 93.0403 72.1235 94.083 72.1235 96.1685V102ZM69.9133 98.7357V98.2597H68.2302C67.3574 98.2597 66.9211 98.5997 66.9211 99.2798C66.9211 99.9485 67.3688 100.283 68.2642 100.283C68.8422 100.283 69.2786 100.141 69.5733 99.8578C69.8 99.6651 69.9133 99.2911 69.9133 98.7357Z" fill="#E2001A"/>
<path d="M58.6539 102H56.4268V93.1421H58.6539V102ZM64.3664 102H61.7142L58.6709 97.3584L61.5782 93.1421H64.1624L61.0341 97.2734L64.3664 102Z" fill="#E2001A"/>
<path d="M53.964 102H51.7538V98.8886C50.8584 99.0472 50.0537 99.1266 49.3396 99.1266C48.6142 99.1266 48.0192 98.9112 47.5545 98.4805C47.0898 98.0498 46.8574 97.4604 46.8574 96.7124V93.1421H49.0676V96.1003C49.0676 96.8144 49.4303 97.1714 50.1557 97.1714C50.439 97.1714 50.9718 97.1204 51.7538 97.0184V93.1421H53.964V102Z" fill="#E2001A"/>
<path d="M44.6407 102H42.4305V93.3972H44.6407V102ZM44.6577 91.629H42.3965V89.8269H44.6577V91.629Z" fill="#E2001A"/>
<path d="M40.674 92.0032H37.5118V102H35.1486V92.0032H31.9863V89.895H40.674V92.0032Z" fill="#E2001A"/>
<path d="M272.747 97.1204C273.291 97.6418 273.563 98.3218 273.563 99.1606C273.563 99.9993 273.285 100.685 272.73 101.218C272.186 101.739 271.483 102 270.622 102H266.354V93.1421H268.582V96.3383H270.622C271.495 96.3383 272.203 96.599 272.747 97.1204ZM270.214 98.0725H268.514V100.266H270.214C270.565 100.266 270.843 100.169 271.047 99.9766C271.262 99.7726 271.37 99.5006 271.37 99.1606C271.37 98.8319 271.262 98.5712 271.047 98.3785C270.843 98.1745 270.565 98.0725 270.214 98.0725Z" fill="#E2001A"/>
<path d="M264.943 95.0972H262.393V102H260.166V95.0972H257.564V93.1421H264.943V95.0972Z" fill="#E2001A"/>
<path d="M256.893 100.895C256.123 101.7 255.148 102.102 253.969 102.102C253.595 102.102 253.232 102.062 252.881 101.983C252.53 101.892 252.173 101.745 251.81 101.541C251.459 101.326 251.153 101.054 250.892 100.725C250.631 100.385 250.416 99.9485 250.246 99.4158C250.087 98.8718 250.008 98.254 250.008 97.5626C250.008 96.8713 250.087 96.2592 250.246 95.7265C250.416 95.1825 250.631 94.7461 250.892 94.4174C251.153 94.0887 251.459 93.8167 251.81 93.6013C252.173 93.386 252.53 93.2386 252.881 93.1593C253.232 93.08 253.595 93.0403 253.969 93.0403C255.159 93.0403 256.134 93.437 256.893 94.2304L255.397 95.7265C254.967 95.2618 254.491 95.0294 253.969 95.0294C253.448 95.0294 253.028 95.2221 252.711 95.6075C252.382 96.0155 252.218 96.6672 252.218 97.5626C252.218 98.4694 252.382 99.1268 252.711 99.5348C253.028 99.9202 253.448 100.113 253.969 100.113C254.491 100.113 254.967 99.8805 255.397 99.4158L256.893 100.895Z" fill="#E2001A"/>
<path d="M247.978 102H245.767V93.3972H247.978V102ZM247.995 91.629H245.733V89.8269H247.995V91.629Z" fill="#E2001A"/>
<path d="M243.298 102H241.071V98.4465H238.232V102H236.005V93.1421H238.232V96.4914H241.071V93.1421H243.298V102Z" fill="#E2001A"/>
<path d="M234.592 95.0972H232.042V102H229.815V95.0972H227.214V93.1421H234.592V95.0972Z" fill="#E2001A"/>
<path d="M225.796 102H223.586V93.3972H225.796V102ZM225.813 91.629H223.552V89.8269H225.813V91.629Z" fill="#E2001A"/>
<path d="M222.131 95.0972H218.476V102H216.266V93.1421H222.131V95.0972Z" fill="#E2001A"/>
<path d="M213.831 102H211.672V101.235C211.366 101.541 211.049 101.762 210.72 101.898C210.403 102.023 209.995 102.085 209.496 102.085C208.51 102.085 207.756 101.824 207.235 101.303C206.748 100.793 206.504 100.13 206.504 99.3138C206.504 98.5657 206.765 97.9537 207.286 97.4776C207.807 96.9903 208.567 96.7466 209.564 96.7466H211.621V96.3045C211.621 95.8172 211.491 95.4658 211.23 95.2505C210.97 95.0238 210.55 94.9104 209.972 94.9104C209.281 94.9104 208.714 95.1655 208.272 95.6755L206.878 94.2984C207.309 93.8223 207.756 93.4937 208.221 93.3123C208.697 93.131 209.309 93.0403 210.057 93.0403C212.573 93.0403 213.831 94.083 213.831 96.1685V102ZM211.621 98.7357V98.2597H209.938C209.065 98.2597 208.629 98.5997 208.629 99.2798C208.629 99.9485 209.077 100.283 209.972 100.283C210.55 100.283 210.987 100.141 211.281 99.8578C211.508 99.6651 211.621 99.2911 211.621 98.7357Z" fill="#E2001A"/>
<path d="M203.219 95.7945C203.604 95.9985 203.91 96.2139 204.137 96.4405C204.636 96.9733 204.885 97.6703 204.885 98.5317C204.885 99.5971 204.551 100.442 203.882 101.065C203.213 101.688 202.312 102 201.179 102H196.112V89.895H200.975C202.119 89.895 203.026 90.1954 203.695 90.7961C204.375 91.3968 204.715 92.2072 204.715 93.2273C204.715 94.3834 204.216 95.2391 203.219 95.7945ZM198.475 94.7914H200.788C201.275 94.7914 201.655 94.6667 201.927 94.4174C202.21 94.168 202.352 93.828 202.352 93.3973C202.352 92.9666 202.21 92.6266 201.927 92.3772C201.655 92.1279 201.275 92.0032 200.788 92.0032H198.475V94.7914ZM198.475 99.8918H200.941C201.428 99.8918 201.813 99.7558 202.097 99.4838C202.38 99.2118 202.522 98.8491 202.522 98.3957C202.522 97.9423 202.38 97.5853 202.097 97.3246C201.813 97.0526 201.428 96.9166 200.941 96.9166H198.475V99.8918Z" fill="#E2001A"/>
<path d="M470.172 97.1034V94.9102H468.438C468.075 94.9102 467.786 95.0122 467.571 95.2163C467.367 95.4089 467.265 95.6753 467.265 96.0153C467.265 96.344 467.367 96.6104 467.571 96.8144C467.786 97.0071 468.075 97.1034 468.438 97.1034H470.172ZM467.486 102H464.97L466.755 98.3785C466.245 98.1858 465.842 97.8741 465.548 97.4434C465.253 97.0127 465.106 96.5027 465.106 95.9133C465.106 95.1086 465.378 94.4455 465.922 93.9242C466.477 93.4028 467.186 93.1421 468.047 93.1421H472.348V102H470.138V98.8545H468.948L467.486 102Z" fill="#E2001A"/>
<path d="M463.246 102H461.036V93.3972H463.246V102ZM463.263 91.629H461.002V89.8269H463.263V91.629Z" fill="#E2001A"/>
<path d="M459.408 104.176H457.299V102H450.924V93.1421H453.151V100.045H455.99V93.1421H458.217V100.045H459.408V104.176Z" fill="#E2001A"/>
<path d="M448.558 102H446.399V101.235C446.093 101.541 445.776 101.762 445.447 101.898C445.129 102.023 444.721 102.085 444.223 102.085C443.237 102.085 442.483 101.824 441.962 101.303C441.474 100.793 441.23 100.13 441.23 99.3138C441.23 98.5657 441.491 97.9537 442.013 97.4776C442.534 96.9903 443.293 96.7466 444.291 96.7466H446.348V96.3045C446.348 95.8172 446.218 95.4658 445.957 95.2505C445.696 95.0238 445.277 94.9104 444.699 94.9104C444.007 94.9104 443.441 95.1655 442.999 95.6755L441.604 94.2984C442.035 93.8223 442.483 93.4937 442.948 93.3123C443.424 93.131 444.036 93.0403 444.784 93.0403C447.3 93.0403 448.558 94.083 448.558 96.1685V102ZM446.348 98.7357V98.2597H444.665C443.792 98.2597 443.356 98.5997 443.356 99.2798C443.356 99.9485 443.803 100.283 444.699 100.283C445.277 100.283 445.713 100.141 446.008 99.8578C446.235 99.6651 446.348 99.2911 446.348 98.7357Z" fill="#E2001A"/>
<path d="M440.513 95.0972H437.963V102H435.736V95.0972H433.135V93.1421H440.513V95.0972Z" fill="#E2001A"/>
<path d="M427.335 102H425.107V93.1421H427.335V102ZM433.047 102H430.395L427.352 97.3584L430.259 93.1421H432.843L429.715 97.2734L433.047 102Z" fill="#E2001A"/>
<path d="M422.724 102H420.565V101.235C420.259 101.541 419.942 101.762 419.613 101.898C419.295 102.023 418.887 102.085 418.389 102.085C417.403 102.085 416.649 101.824 416.128 101.303C415.64 100.793 415.396 100.13 415.396 99.3138C415.396 98.5657 415.657 97.9537 416.179 97.4776C416.7 96.9903 417.459 96.7466 418.457 96.7466H420.514V96.3045C420.514 95.8172 420.384 95.4658 420.123 95.2505C419.862 95.0238 419.443 94.9104 418.865 94.9104C418.173 94.9104 417.607 95.1655 417.165 95.6755L415.771 94.2984C416.201 93.8223 416.649 93.4937 417.114 93.3123C417.59 93.131 418.202 93.0403 418.95 93.0403C421.466 93.0403 422.724 94.083 422.724 96.1685V102ZM420.514 98.7357V98.2597H418.831C417.958 98.2597 417.522 98.5997 417.522 99.2798C417.522 99.9485 417.969 100.283 418.865 100.283C419.443 100.283 419.879 100.141 420.174 99.8578C420.401 99.6651 420.514 99.2911 420.514 98.7357Z" fill="#E2001A"/>
<path d="M413.364 102H411.001V92.0032H408.11V95.5225C408.11 97.1886 407.963 98.5034 407.668 99.4668C407.385 100.419 406.977 101.082 406.444 101.456C405.923 101.819 405.226 102 404.353 102H403.418V99.8918H403.758C404.087 99.8918 404.364 99.8352 404.591 99.7218C404.829 99.5971 405.044 99.3818 405.237 99.0758C405.441 98.7584 405.588 98.2937 405.679 97.6816C405.781 97.0696 405.832 96.3045 405.832 95.3865V89.895H413.364V102Z" fill="#E2001A"/>
<path d="M7 94C4.79348 94 3 95.7935 3 98C3 100.207 4.79348 102 7 102C9.20652 102 11 100.207 11 98C11 95.7935 9.20652 94 7 94Z" fill="#A91255"/>
<path d="M6.99507 91C3.133 91 0 94.1451 0 98C0 101.865 3.14286 105 6.99507 105C10.8571 105 14 101.855 14 98C14 94.1451 10.8571 91 6.99507 91ZM6.99507 102.989C4.2463 102.989 2.0197 100.761 2.0197 98.0099C2.0197 95.2592 4.2463 93.031 6.99507 93.031C9.74384 93.031 11.9704 95.269 11.9704 98.0099C11.9704 100.761 9.74384 102.989 6.99507 102.989Z" fill="#F7DBE7"/>
<path d="M94 94C91.7935 94 90 95.7935 90 98C90 100.207 91.7935 102 94 102C96.2065 102 98 100.207 98 98C98.0109 95.7935 96.2065 94 94 94Z" fill="#A91255"/>
<path d="M94 91C90.1352 91 87 94.1451 87 98C87 101.865 90.1451 105 94 105C97.8648 105 101 101.855 101 98C101.01 94.1451 97.8648 91 94 91ZM94 102.989C91.2493 102.989 89.0211 100.761 89.0211 98.0099C89.0211 95.2592 91.2493 93.031 94 93.031C96.7507 93.031 98.9789 95.269 98.9789 98.0099C98.9887 100.761 96.7507 102.989 94 102.989Z" fill="#F7DBE7"/>
<path d="M367 94C364.793 94 363 95.7935 363 98C363 100.207 364.793 102 367 102C369.207 102 371 100.207 371 98C371 95.7935 369.207 94 367 94Z" fill="#A91255"/>
<path d="M366.995 91C363.133 91 360 94.1451 360 98C360 101.865 363.143 105 366.995 105C370.857 105 374 101.855 374 98C374 94.1451 370.857 91 366.995 91ZM366.995 102.989C364.246 102.989 362.02 100.761 362.02 98.0099C362.02 95.2592 364.246 93.031 366.995 93.031C369.744 93.031 371.97 95.269 371.97 98.0099C371.97 100.761 369.744 102.989 366.995 102.989Z" fill="#F7DBE7"/>
<path fill-rule="evenodd" clip-rule="evenodd" d="M388.05 4.59C388.05 4.59 387.9 4.12 387.86 4.07C387.82 4.02 387.64 3.69 387.64 3.63C387.64 3.57 387.61 3.35 387.61 3.35C387.76 3.32 388.12 3.52 388.12 3.52C388.09 3.42 387.74 3.15 387.74 3.15L387.6 3.04L387.83 3.07C387.83 3.07 387.75 2.99 387.68 2.95C387.61 2.91 387.45 2.87 387.45 2.87L387.39 2.81L387.43 2.73L387.66 2.81C387.66 2.81 387.66 2.78 387.63 2.67C387.6 2.56 387.41 2.48 387.41 2.48L387.45 2.3C387.53 2.33 387.75 2.56 387.75 2.56L387.71 2.35C387.7 2.28 387.56 2.12 387.56 2.12C387.56 2.12 387.44 2.12 388.01 1.47C388.59 0.829999 388.82 0.06 388.82 0C388.72 0.12 387.32 0.809999 387.32 0.809999C387.32 0.809999 386.51 1.3 386.32 1.37C386.13 1.44 385.73 1.52 385.43 1.63C385.13 1.74 384.63 1.79 384.25 1.81C383.87 1.82 382.92 1.89 382.92 1.89C382.43 1.18 381.37 0.309999 381.37 0.309999C380.9 0.459999 380.67 0.790001 380.67 0.790001C380.09 1.45 380.44 3.15 380.44 3.15C379.78 3.85 379.97 4.54 379.97 4.54C379.97 4.54 379.98 4.58 379.97 4.82C379.96 5.05 379.89 6.04 379.89 6.04C379.89 6.04 379.83 6.21 379.56 6.55C379.29 6.89 378.76 8.28 378.76 8.28C378.76 8.28 378.29 9.25 378.15 9.51C378.01 9.77 377.69 9.79 377.69 9.79C377.69 9.79 377.24 9.89 377.04 9.95C376.84 10.01 376.44 10.16 376.44 10.16C376.44 10.16 376.19 10.23 375.83 10.35C375.47 10.47 374.81 11.14 374.81 11.14L373.77 12.35C373.77 12.35 373.23 13.05 373.07 13.24C372.91 13.43 372.56 14 372.56 14L372.78 13.96C372.78 13.96 372.16 14.67 371.82 16.13C371.48 17.58 371.38 17.36 370.97 18.66C370.82 19.14 370.62 19.64 370.45 20.07L370.39 20.02C370.3 20.2 370.18 20.56 370.06 20.97C369.96 21.2 369.89 21.33 369.89 21.33C369.89 21.33 369.9 21.42 369.9 21.55C369.74 22.22 369.63 22.88 369.73 23.06C369.64 23.2 370.01 24.16 369.91 24.22C369.8 24.27 370.23 24.15 370.05 24.61C369.87 25.07 370.44 24.63 370.33 25.07C370.22 25.51 370.54 24.96 370.52 25.07C370.5 25.18 370.7 25.6 370.52 25.78C370.34 25.96 371.18 25.26 371.12 25.81C371.07 26.36 371.48 26.7 370.02 26.73C368.56 26.77 369.31 26.98 369.08 27.12C368.85 27.26 369.04 27.9 368.72 27.49C368.4 27.08 368.47 27.54 368.38 27.51C368.29 27.47 368.59 28.06 368.2 27.78C368.2 27.78 368.63 28.21 368.45 28.22C368.27 28.24 367.92 28.31 367.85 28.24C367.78 28.17 368.22 29.16 366.73 29.16C365.24 29.16 368.21 29.32 367.51 29.53C366.82 29.74 375.84 30.24 376.2 30.12C376.56 30 379.27 30.12 379.7 29.87C379.75 29.84 379.83 29.82 379.92 29.8C379.95 29.8 379.97 29.8 380 29.8C380.06 29.8 380.1 29.79 380.13 29.78C380.81 29.73 381.9 29.81 381.63 29C381.63 29 381.63 29 381.64 29C381.84 29.01 382.02 29.01 382.16 29L382.26 29.08C382.25 29.05 382.21 29.02 382.16 29C382.39 28.98 382.51 28.94 382.51 28.94C383.18 29.89 383.48 29.79 383.48 29.79C383.48 29.79 384.3 29.89 384.95 29.87C385.59 29.86 385.98 29.5 385.98 29.5C386.64 29.6 386.65 29.2 386.65 29.2C386.65 29.2 386.79 29 386.58 28.42C386.37 27.84 385.61 27.9 385.61 27.9C385.24 26.98 385.23 25.91 385.23 25.91C385.23 25.91 385.24 24.73 385.37 24.29C385.49 23.85 385.58 22.4 385.58 22.4C385.58 22.4 385.59 21.54 385.63 21.22C385.67 20.9 385.9 20.09 385.9 20.09L385.98 19.5L386.06 19.32L386.13 19.09L386.08 18.75L386.11 18.56L386.15 18.44C386.15 18.44 386.25 18.37 386.4 18.26C386.55 18.15 386.5 17.95 386.5 17.95L386.69 17.7C386.69 17.7 386.91 17.57 387.03 17.32C387.15 17.06 387.09 16.88 387.09 16.88C387.09 16.88 387.1 16.69 387.19 16.6C387.28 16.5 387.32 16.3 387.31 16.17C387.3 16.05 387.36 16.02 387.45 15.87C387.54 15.72 387.53 15.5 387.53 15.5C387.53 15.5 387.5 15.41 387.72 15.23C387.95 15.04 387.75 14.8 387.75 14.8C387.75 14.8 387.76 14.75 387.93 14.57C388.1 14.4 387.98 14.36 388.04 13.97C388.1 13.58 388.1 13.23 388.1 13.23C388.1 13.23 388.09 12.67 388.07 11.66C388.06 10.66 387.79 10.06 387.79 10.06C387.79 10.06 387.61 9.72 387.6 9.38C387.59 9.04 387.73 9.04 387.93 8.87C388.13 8.71 388.25 8.3 388.25 8.3C388.29 8.02 388.13 7.82 388.12 7.67C388.12 7.64 388.12 7.64 388.12 7.64V7.52V7.4L388.16 7.13C388.16 7.13 388.3 6.65 388.33 6.18C388.36 5.71 388.25 5.29 388.25 5.29V5.25L388.29 5.22L388.3 5.16L388.23 5.01L388.39 5.05L388.11 4.72L388.52 4.65L388.05 4.59Z" fill="#A91255"/>
<path d="M402.25 24.3198C402.25 24.3198 402.06 24.4598 402.07 24.6098C402.09 24.9798 401.88 25.5898 401.79 25.8398C401.66 26.2098 401.26 26.5998 401.02 26.6798C400.78 26.7598 400.8 26.8298 400.8 26.8298L400.98 26.9298C400.98 26.9298 401.37 27.2698 401.49 27.3298C401.62 27.3898 402.26 27.9198 402.85 28.6698C403.45 30.0598 403.26 30.1098 403.04 30.2098C402.82 30.3098 402.14 30.2898 401.91 29.7998C401.52 29.0198 400.26 28.4798 400.26 28.4798C400.26 28.4798 399.99 28.9998 400.08 29.3098C400.28 29.1598 400.44 29.2098 400.68 29.2798C401.48 29.9498 400.68 30.1898 400.68 30.1898L400.19 30.2898C400.19 30.2898 399.41 30.2898 399.04 30.2198C398.68 30.1498 398.56 29.4498 398.54 29.1698C398.51 28.8898 398.48 27.7698 398.48 27.7698L398.2 27.5498C398.2 27.5498 397.64 26.8398 397.14 26.7798C396.64 26.7198 395.46 26.4598 395.01 26.4398C394.56 26.4298 394.55 26.5698 394.48 26.7798C394.41 26.9898 394.38 27.4798 394.35 27.6798C394.32 27.8798 394.32 28.4398 394.35 28.5598C394.38 28.6898 394.84 29.0898 395.33 29.2198C396.24 29.6098 395.8 30.0498 395.8 30.0498C395.8 30.0498 395.58 30.1498 395.44 30.1898C395.3 30.2298 394.66 30.1898 394.19 30.1198C393.71 30.0498 393.11 29.2098 392.8 28.4598C392.03 25.2798 391.76 27.9498 391.59 28.1998C391.44 28.6098 391.6 28.9398 391.9 29.1398C392.47 29.4198 392.21 29.8098 392.18 29.9198C392.15 30.0298 391.89 30.0198 391.89 30.0198H390.85C390.28 29.7398 390.3 29.1198 390.3 29.1198C390.3 29.1198 390.22 27.8898 390.2 27.5798C390.09 26.9398 390.14 26.9898 390.13 26.7598C390.11 26.4898 390.15 26.4198 390.5 25.7498C389.9 24.2698 390.21 23.1698 390.21 23.1698L390.07 22.9198C390.07 22.9198 388.39 22.0898 388.45 20.3698C388.51 18.6498 388.98 17.7498 389.75 17.1798C391.25 16.3998 391.12 17.1098 391.12 17.1098L391.06 17.3598C391.06 17.3598 390.87 17.8798 390.49 18.3698C390.03 18.9498 389.96 19.4898 390.17 20.0598C390.3 20.5398 391.27 20.5898 391.6 20.4898C395.2 19.9898 396.96 20.6398 397.53 20.7498C398.1 20.8598 398.9 21.2998 398.9 21.2998C399.13 21.2898 399.15 21.1498 399.15 21.1498C399.15 21.1498 399.37 20.1298 400.56 19.7598C401.78 19.5598 402.24 19.3098 402.49 19.2498C402.74 19.1798 403.22 19.0098 403.27 19.4398C403.98 19.1398 404.59 19.0198 404.75 18.9398C404.91 18.8598 404.38 19.5798 404.2 19.6598C404.03 19.7398 403.79 20.0998 403.75 20.3498C404.06 20.4498 404.27 20.8198 404.25 21.0198C404.23 21.2198 404.26 21.7398 404.21 21.8998C404.16 22.0598 404.24 22.4898 404.23 22.6598C404.22 22.8298 404.23 22.9598 404.28 23.1398C404.28 23.2698 404.33 23.4098 404.01 23.5698C403.73 23.7198 403.68 23.7998 403.58 23.8298C403.48 23.8598 403.24 23.9998 403.12 23.9698C403 23.9398 402.99 23.8498 402.86 23.8398C402.73 23.8298 402.67 23.8698 402.67 23.8698C402.67 23.8698 402.5 23.9598 402.43 24.0298C402.36 24.1098 402.25 24.3198 402.25 24.3198Z" fill="#F7DBE7"/>
<path d="M501.765 39.4934V41.9216H499.489V53H496.795V41.9216H494.519V39.4934H501.765Z" fill="#A91255"/>
<path d="M485.379 53L488.85 39.4934H491.506L494.978 53H492.17L491.734 50.8944H488.623L488.186 53H485.379ZM489.135 48.4662H491.222L490.178 43.4581L489.135 48.4662Z" fill="#A91255"/>
<path d="M481.168 39.3416C482.287 39.3416 483.084 39.664 483.767 40.309C484.469 40.973 484.924 42.0353 484.981 43.3253H482.287C482.268 42.9459 482.23 42.5665 482.078 42.2819C481.927 41.9594 481.661 41.7697 481.168 41.7697C480.675 41.7697 480.409 41.9974 480.257 42.3009C479.935 42.9269 479.897 44.6152 479.897 46.2466C479.897 47.8781 479.935 49.5664 480.257 50.1924C480.409 50.4959 480.675 50.7236 481.168 50.7236C481.661 50.7236 481.927 50.5149 482.078 50.1924C482.23 49.9078 482.268 49.5284 482.287 49.149H484.981C484.924 50.439 484.469 51.5203 483.767 52.1842C483.084 52.8292 482.287 53.1517 481.168 53.1517C479.707 53.1517 478.816 52.5447 478.209 51.7859C477.26 50.6287 477.203 48.8455 477.203 46.2466C477.203 43.6477 477.26 41.8646 478.209 40.7074C478.816 39.9486 479.707 39.3416 481.168 39.3416Z" fill="#A91255"/>
<path d="M476.768 39.4934L474.018 47.9161V53H471.324V47.9161L468.573 39.4934H471.533L472.671 44.3877L473.809 39.4934H476.768Z" fill="#A91255"/>
<path d="M460.28 39.4934H464.188C465.535 39.4934 466.427 39.7969 467.015 40.366C467.66 40.992 467.906 41.6939 467.906 43.1736C467.906 44.1411 467.735 44.8809 467.166 45.45C466.996 45.6207 466.806 45.7725 466.54 45.9053C466.787 46.0381 467.015 46.2088 467.166 46.3795C467.735 46.9676 467.906 47.7074 467.906 49.0353C467.906 50.5909 467.679 51.4066 466.996 52.1085C466.427 52.6965 465.535 53 464.188 53H460.28V39.4934ZM463.828 47.0814H462.974V50.5719H463.828C464.909 50.5719 465.212 50.0597 465.212 48.8266C465.212 47.5936 464.871 47.0814 463.828 47.0814ZM463.866 41.9216H462.974V44.805H463.866C464.909 44.805 465.212 44.3497 465.212 43.3633C465.212 42.3768 464.928 41.9216 463.866 41.9216Z" fill="#A91255"/>
<path d="M449.532 53L453.004 39.4934H455.66L459.131 53H456.323L455.887 50.8944H452.776L452.34 53H449.532ZM453.288 48.4662H455.375L454.332 43.4581L453.288 48.4662Z" fill="#A91255"/>
<path d="M441.014 39.4934H444.921C446.268 39.4934 447.16 39.7969 447.748 40.366C448.393 40.992 448.64 41.6939 448.64 43.1736C448.64 44.1411 448.469 44.8809 447.9 45.45C447.729 45.6207 447.539 45.7725 447.274 45.9053C447.52 46.0381 447.748 46.2088 447.9 46.3795C448.469 46.9676 448.64 47.7074 448.64 49.0353C448.64 50.5909 448.412 51.4066 447.729 52.1085C447.16 52.6965 446.268 53 444.921 53H441.014V39.4934ZM444.561 47.0814H443.707V50.5719H444.561C445.642 50.5719 445.946 50.0597 445.946 48.8266C445.946 47.5936 445.604 47.0814 444.561 47.0814ZM444.599 41.9216H443.707V44.805H444.599C445.642 44.805 445.946 44.3497 445.946 43.3633C445.946 42.3768 445.661 41.9216 444.599 41.9216Z" fill="#A91255"/>
<path d="M431.023 39.3416C432.958 39.3416 433.868 40.7074 433.868 42.3388C433.868 43.9323 433.166 45.0326 432.332 45.9811L433.451 47.7453C433.66 47.1572 433.735 46.4363 433.792 45.6586H435.917C435.879 47.1572 435.386 48.9024 434.836 50.0027L436.676 53H434.077L433.489 52.0515C432.806 52.7533 432.009 53.1517 430.928 53.1517C428.993 53.1517 427.665 51.8048 427.665 49.5854C427.665 48.1057 428.386 46.7968 429.505 45.6017C428.879 44.767 428.234 43.7047 428.234 42.5285C428.234 40.2142 429.619 39.3416 431.023 39.3416ZM432.275 50.1165L430.738 47.6504C430.226 48.2195 430.017 48.8645 430.017 49.4146C430.017 50.3631 430.548 50.8753 431.137 50.8753C431.535 50.8753 431.914 50.6666 432.275 50.1165ZM431.042 41.618C430.757 41.618 430.473 41.8077 430.473 42.4526C430.473 42.9269 430.814 43.6477 431.08 43.9513C431.459 43.458 431.63 43.0597 431.63 42.3768C431.63 41.9025 431.364 41.618 431.042 41.618Z" fill="#A91255"/>
<path d="M415.338 39.4934H419.189C422.129 39.4934 422.945 41.03 422.945 43.6099C422.945 45.0516 422.717 46.3416 421.408 47.1573L423.381 53H420.574L418.923 47.7454H418.032V53H415.338V39.4934ZM419.17 41.9216H418.032V45.3172H419.17C420.194 45.3172 420.251 44.3877 420.251 43.6099C420.251 42.8321 420.194 41.9216 419.17 41.9216Z" fill="#A91255"/>
<path d="M413.687 39.4934V41.9216H410.159V44.9188H413.194V47.347H410.159V50.5719H413.687V53H407.465V39.4934H413.687Z" fill="#A91255"/>
<path d="M405.384 39.4934V53H402.69V47.347H400.452V53H397.758V39.4934H400.452V44.9188H402.69V39.4934H405.384Z" fill="#A91255"/>
<path d="M396.337 39.4934V41.9216H394.061V53H391.367V41.9216H389.091V39.4934H396.337Z" fill="#A91255"/>
<path d="M384.373 53.1517C382.912 53.1517 382.021 52.5447 381.414 51.7859C380.465 50.6287 380.408 48.8455 380.408 46.2466C380.408 43.6477 380.465 41.8646 381.414 40.7074C382.021 39.9486 382.912 39.3416 384.373 39.3416C385.834 39.3416 386.725 39.9486 387.332 40.7074C388.281 41.8646 388.338 43.6477 388.338 46.2466C388.338 48.8455 388.281 50.6287 387.332 51.7859C386.725 52.5447 385.834 53.1517 384.373 53.1517ZM384.373 50.7236C384.866 50.7236 385.132 50.4959 385.283 50.1924C385.606 49.5664 385.644 47.8781 385.644 46.2466C385.644 44.6152 385.606 42.9269 385.283 42.3009C385.132 41.9974 384.866 41.7697 384.373 41.7697C383.88 41.7697 383.614 41.9974 383.462 42.3009C383.14 42.9269 383.102 44.6152 383.102 46.2466C383.102 47.8781 383.14 49.5664 383.462 50.1924C383.614 50.4959 383.88 50.7236 384.373 50.7236Z" fill="#A91255"/>
<path d="M378.718 39.4934V53H376.024V45.9811L374.582 50.5909H373.178L371.737 45.9811V53H369.043V39.4934H371.414L373.88 46.1139L376.346 39.4934H378.718Z" fill="#A91255"/>
<mask id="mask0_2261_1962" style="mask-type:luminance" maskUnits="userSpaceOnUse" x="96" y="62" width="269" height="13">
<path d="M364.73 62.0098H96.4697V74.9198H364.73V62.0098Z" fill="white"/>
</mask>
<g mask="url(#mask0_2261_1962)">
<path fill-rule="evenodd" clip-rule="evenodd" d="M227.863 77.2598L243.783 58.0898L243.976 58.2496L228.056 77.4196L227.863 77.2598Z" fill="#EFB4CB"/>
<path fill-rule="evenodd" clip-rule="evenodd" d="M229.773 80.2398L245.693 61.0698L245.886 61.2295L229.966 80.3995L229.773 80.2398Z" fill="#EFB4CB"/>
<path fill-rule="evenodd" clip-rule="evenodd" d="M231.533 82.8898L252.963 57.0898L253.156 57.2496L231.726 83.0496L231.533 82.8898Z" fill="#EFB4CB"/>
<path fill-rule="evenodd" clip-rule="evenodd" d="M231.963 87.4797L253.383 61.6797L253.575 61.8394L232.155 87.6394L231.963 87.4797Z" fill="#EFB4CB"/>
<path fill-rule="evenodd" clip-rule="evenodd" d="M239.554 84.4599L260.974 58.6599L261.166 58.8196L239.746 84.6196L239.554 84.4599Z" fill="#EFB4CB"/>
<path fill-rule="evenodd" clip-rule="evenodd" d="M242.443 86.5798L263.863 60.7898L264.056 60.9495L242.636 86.7395L242.443 86.5798Z" fill="#EFB4CB"/>
<path fill-rule="evenodd" clip-rule="evenodd" d="M249.293 83.5498L270.713 57.7598L270.905 57.9195L249.485 83.7095L249.293 83.5498Z" fill="#EFB4CB"/>
<path fill-rule="evenodd" clip-rule="evenodd" d="M249.724 88.1499L271.144 62.3499L271.336 62.5095L249.916 88.3096L249.724 88.1499Z" fill="#EFB4CB"/>
<path fill-rule="evenodd" clip-rule="evenodd" d="M258.554 82.6999L279.974 56.8999L280.166 57.0596L258.746 82.8596L258.554 82.6999Z" fill="#EFB4CB"/>
<path fill-rule="evenodd" clip-rule="evenodd" d="M258.983 87.2897L280.403 61.4897L280.596 61.6494L259.176 87.4494L258.983 87.2897Z" fill="#EFB4CB"/>
<path fill-rule="evenodd" clip-rule="evenodd" d="M268.613 81.7597L290.033 55.9697L290.226 56.1295L268.806 81.9195L268.613 81.7597Z" fill="#EFB4CB"/>
<path fill-rule="evenodd" clip-rule="evenodd" d="M269.033 86.3598L290.453 60.5598L290.646 60.7195L269.226 86.5195L269.033 86.3598Z" fill="#EFB4CB"/>
<path fill-rule="evenodd" clip-rule="evenodd" d="M277.883 80.8999L299.303 55.1099L299.495 55.2696L278.075 81.0596L277.883 80.8999Z" fill="#EFB4CB"/>
<path fill-rule="evenodd" clip-rule="evenodd" d="M278.313 85.4997L299.733 59.6997L299.926 59.8594L278.506 85.6594L278.313 85.4997Z" fill="#EFB4CB"/>
<path fill-rule="evenodd" clip-rule="evenodd" d="M287.483 80.0097L308.903 54.2197L309.096 54.3795L287.676 80.1695L287.483 80.0097Z" fill="#EFB4CB"/>
<path fill-rule="evenodd" clip-rule="evenodd" d="M287.913 84.6098L309.333 58.8098L309.525 58.9695L288.105 84.7695L287.913 84.6098Z" fill="#EFB4CB"/>
<path fill-rule="evenodd" clip-rule="evenodd" d="M296.363 79.1899L317.783 53.3899L317.976 53.5496L296.556 79.3496L296.363 79.1899Z" fill="#EFB4CB"/>
<path fill-rule="evenodd" clip-rule="evenodd" d="M296.793 83.7797L318.213 57.9797L318.405 58.1394L296.985 83.9394L296.793 83.7797Z" fill="#EFB4CB"/>
<path fill-rule="evenodd" clip-rule="evenodd" d="M305.663 78.3298L327.083 52.5298L327.275 52.6895L305.855 78.4895L305.663 78.3298Z" fill="#EFB4CB"/>
<path fill-rule="evenodd" clip-rule="evenodd" d="M306.083 82.9199L327.513 57.1199L327.705 57.2796L306.275 83.0796L306.083 82.9199Z" fill="#EFB4CB"/>
<path fill-rule="evenodd" clip-rule="evenodd" d="M314.343 77.5297L335.763 51.7297L335.955 51.8894L314.535 77.6894L314.343 77.5297Z" fill="#EFB4CB"/>
<path fill-rule="evenodd" clip-rule="evenodd" d="M314.764 82.1198L336.184 56.3198L336.376 56.4795L314.956 82.2795L314.764 82.1198Z" fill="#EFB4CB"/>
<path fill-rule="evenodd" clip-rule="evenodd" d="M323.014 76.7197L344.434 50.9197L344.626 51.0794L323.206 76.8794L323.014 76.7197Z" fill="#EFB4CB"/>
<path fill-rule="evenodd" clip-rule="evenodd" d="M323.434 81.3098L344.854 55.5098L345.046 55.6695L323.626 81.4695L323.434 81.3098Z" fill="#EFB4CB"/>
<path fill-rule="evenodd" clip-rule="evenodd" d="M331.413 75.9399L352.833 50.1499L353.025 50.3096L331.605 76.0996L331.413 75.9399Z" fill="#EFB4CB"/>
<path fill-rule="evenodd" clip-rule="evenodd" d="M331.833 80.5297L353.263 54.7397L353.455 54.8995L332.025 80.6895L331.833 80.5297Z" fill="#EFB4CB"/>
<path fill-rule="evenodd" clip-rule="evenodd" d="M340.554 75.0998L361.974 49.2998L362.166 49.4595L340.746 75.2595L340.554 75.0998Z" fill="#EFB4CB"/>
<path fill-rule="evenodd" clip-rule="evenodd" d="M340.974 79.6899L362.394 53.8899L362.586 54.0496L341.166 79.8496L340.974 79.6899Z" fill="#EFB4CB"/>
<path fill-rule="evenodd" clip-rule="evenodd" d="M345.563 79.2597L366.983 53.4597L367.176 53.6194L345.756 79.4194L345.563 79.2597Z" fill="#EFB4CB"/>
<path fill-rule="evenodd" clip-rule="evenodd" d="M349.583 79.6899L371.003 53.8899L371.195 54.0496L349.775 79.8496L349.583 79.6899Z" fill="#EFB4CB"/>
<path fill-rule="evenodd" clip-rule="evenodd" d="M353.713 79.6899L375.133 53.8899L375.325 54.0496L353.905 79.8496L353.713 79.6899Z" fill="#EFB4CB"/>
</g>
<mask id="mask1_2261_1962" style="mask-type:luminance" maskUnits="userSpaceOnUse" x="96" y="62" width="269" height="13">
<path d="M364.73 62.0098H96.4697V74.9198H364.73V62.0098Z" fill="white"/>
</mask>
<g mask="url(#mask1_2261_1962)">
<path fill-rule="evenodd" clip-rule="evenodd" d="M95.6738 77.2598L111.594 58.0898L111.786 58.2496L95.8662 77.4196L95.6738 77.2598Z" fill="#EFB4CB"/>
<path fill-rule="evenodd" clip-rule="evenodd" d="M97.584 80.2398L113.504 61.0698L113.696 61.2295L97.7763 80.3995L97.584 80.2398Z" fill="#EFB4CB"/>
<path fill-rule="evenodd" clip-rule="evenodd" d="M99.3535 82.8898L120.774 57.0898L120.966 57.2495L99.5459 83.0495L99.3535 82.8898Z" fill="#EFB4CB"/>
<path fill-rule="evenodd" clip-rule="evenodd" d="M99.7734 87.4797L121.193 61.6797L121.386 61.8394L99.9658 87.6394L99.7734 87.4797Z" fill="#EFB4CB"/>
<path fill-rule="evenodd" clip-rule="evenodd" d="M107.364 84.4599L128.784 58.6599L128.977 58.8196L107.557 84.6196L107.364 84.4599Z" fill="#EFB4CB"/>
<path fill-rule="evenodd" clip-rule="evenodd" d="M110.254 86.5798L131.674 60.7898L131.866 60.9495L110.446 86.7395L110.254 86.5798Z" fill="#EFB4CB"/>
<path fill-rule="evenodd" clip-rule="evenodd" d="M117.104 83.5498L138.524 57.7598L138.716 57.9195L117.296 83.7095L117.104 83.5498Z" fill="#EFB4CB"/>
<path fill-rule="evenodd" clip-rule="evenodd" d="M117.534 88.1499L138.954 62.3499L139.147 62.5095L117.727 88.3096L117.534 88.1499Z" fill="#EFB4CB"/>
<path fill-rule="evenodd" clip-rule="evenodd" d="M126.364 82.6999L147.794 56.8999L147.987 57.0596L126.557 82.8596L126.364 82.6999Z" fill="#EFB4CB"/>
<path fill-rule="evenodd" clip-rule="evenodd" d="M126.794 87.2897L148.214 61.4897L148.406 61.6494L126.986 87.4494L126.794 87.2897Z" fill="#EFB4CB"/>
<path fill-rule="evenodd" clip-rule="evenodd" d="M136.424 81.7597L157.844 55.9697L158.036 56.1295L136.616 81.9195L136.424 81.7597Z" fill="#EFB4CB"/>
<path fill-rule="evenodd" clip-rule="evenodd" d="M136.844 86.3598L158.274 60.5598L158.466 60.7196L137.036 86.5196L136.844 86.3598Z" fill="#EFB4CB"/>
<path fill-rule="evenodd" clip-rule="evenodd" d="M145.693 80.8999L167.113 55.1099L167.306 55.2696L145.886 81.0596L145.693 80.8999Z" fill="#EFB4CB"/>
<path fill-rule="evenodd" clip-rule="evenodd" d="M146.124 85.4997L167.544 59.6997L167.736 59.8594L146.316 85.6594L146.124 85.4997Z" fill="#EFB4CB"/>
<path fill-rule="evenodd" clip-rule="evenodd" d="M155.294 80.0097L176.714 54.2197L176.906 54.3795L155.486 80.1695L155.294 80.0097Z" fill="#EFB4CB"/>
<path fill-rule="evenodd" clip-rule="evenodd" d="M155.724 84.6098L177.144 58.8098L177.336 58.9695L155.916 84.7695L155.724 84.6098Z" fill="#EFB4CB"/>
<path fill-rule="evenodd" clip-rule="evenodd" d="M164.174 79.1899L185.604 53.3899L185.796 53.5496L164.366 79.3496L164.174 79.1899Z" fill="#EFB4CB"/>
<path fill-rule="evenodd" clip-rule="evenodd" d="M164.604 83.7797L186.024 57.9797L186.216 58.1394L164.796 83.9394L164.604 83.7797Z" fill="#EFB4CB"/>
<path fill-rule="evenodd" clip-rule="evenodd" d="M173.474 78.3298L194.894 52.5298L195.086 52.6895L173.666 78.4895L173.474 78.3298Z" fill="#EFB4CB"/>
<path fill-rule="evenodd" clip-rule="evenodd" d="M173.904 82.9199L195.324 57.1199L195.517 57.2796L174.097 83.0796L173.904 82.9199Z" fill="#EFB4CB"/>
<path fill-rule="evenodd" clip-rule="evenodd" d="M182.154 77.5297L203.574 51.7297L203.767 51.8894L182.347 77.6894L182.154 77.5297Z" fill="#EFB4CB"/>
<path fill-rule="evenodd" clip-rule="evenodd" d="M182.574 82.1198L203.994 56.3198L204.187 56.4795L182.767 82.2795L182.574 82.1198Z" fill="#EFB4CB"/>
<path fill-rule="evenodd" clip-rule="evenodd" d="M190.824 76.7197L212.244 50.9197L212.437 51.0794L191.017 76.8794L190.824 76.7197Z" fill="#EFB4CB"/>
<path fill-rule="evenodd" clip-rule="evenodd" d="M191.244 81.3098L212.664 55.5098L212.856 55.6695L191.436 81.4695L191.244 81.3098Z" fill="#EFB4CB"/>
<path fill-rule="evenodd" clip-rule="evenodd" d="M199.224 75.9399L220.644 50.1499L220.836 50.3096L199.416 76.0996L199.224 75.9399Z" fill="#EFB4CB"/>
<path fill-rule="evenodd" clip-rule="evenodd" d="M199.654 80.5297L221.074 54.7397L221.267 54.8995L199.847 80.6895L199.654 80.5297Z" fill="#EFB4CB"/>
<path fill-rule="evenodd" clip-rule="evenodd" d="M208.364 75.0998L229.784 49.2998L229.977 49.4595L208.557 75.2595L208.364 75.0998Z" fill="#EFB4CB"/>
<path fill-rule="evenodd" clip-rule="evenodd" d="M208.784 79.6899L230.204 53.8899L230.397 54.0496L208.977 79.8496L208.784 79.6899Z" fill="#EFB4CB"/>
<path fill-rule="evenodd" clip-rule="evenodd" d="M213.374 79.2597L234.804 53.4597L234.996 53.6195L213.566 79.4195L213.374 79.2597Z" fill="#EFB4CB"/>
<path fill-rule="evenodd" clip-rule="evenodd" d="M217.394 79.6899L238.814 53.8899L239.006 54.0496L217.586 79.8496L217.394 79.6899Z" fill="#EFB4CB"/>
<path fill-rule="evenodd" clip-rule="evenodd" d="M221.523 79.6899L242.943 53.8899L243.136 54.0496L221.716 79.8496L221.523 79.6899Z" fill="#EFB4CB"/>
</g>
<mask id="mask2_2261_1962" style="mask-type:luminance" maskUnits="userSpaceOnUse" x="96" y="62" width="269" height="13">
<path d="M364.73 62.0098H96.4697V74.9198H364.73V62.0098Z" fill="white"/>
</mask>
<g mask="url(#mask2_2261_1962)">
<path fill-rule="evenodd" clip-rule="evenodd" d="M76.1738 75.0998L97.5938 49.2998L97.7862 49.4595L76.3662 75.2595L76.1738 75.0998Z" fill="#EFB4CB"/>
<path fill-rule="evenodd" clip-rule="evenodd" d="M76.5938 79.6899L98.0237 53.8899L98.2161 54.0496L76.7861 79.8496L76.5938 79.6899Z" fill="#EFB4CB"/>
<path fill-rule="evenodd" clip-rule="evenodd" d="M81.1934 79.2597L102.613 53.4597L102.806 53.6194L81.3857 79.4194L81.1934 79.2597Z" fill="#EFB4CB"/>
</g>
<mask id="mask3_2261_1962" style="mask-type:luminance" maskUnits="userSpaceOnUse" x="6" y="62" width="86" height="13">
<path d="M91.81 62.0098H6.54004V74.9198H91.81V62.0098Z" fill="white"/>
</mask>
<g mask="url(#mask3_2261_1962)">
<path fill-rule="evenodd" clip-rule="evenodd" d="M-14.1963 82.6999L7.22371 56.8999L7.41606 57.0596L-14.0039 82.8596L-14.1963 82.6999Z" fill="#EFB4CB"/>
<path fill-rule="evenodd" clip-rule="evenodd" d="M-4.14648 81.7597L17.2735 55.9697L17.4658 56.1295L-3.95417 81.9195L-4.14648 81.7597Z" fill="#EFB4CB"/>
<path fill-rule="evenodd" clip-rule="evenodd" d="M-3.7168 86.3598L17.7032 60.5598L17.8956 60.7195L-3.52445 86.5195L-3.7168 86.3598Z" fill="#EFB4CB"/>
<path fill-rule="evenodd" clip-rule="evenodd" d="M5.12305 80.8999L26.543 55.1099L26.7354 55.2696L5.31536 81.0596L5.12305 80.8999Z" fill="#EFB4CB"/>
<path fill-rule="evenodd" clip-rule="evenodd" d="M5.55371 85.4997L26.9737 59.6997L27.1661 59.8594L5.74606 85.6594L5.55371 85.4997Z" fill="#EFB4CB"/>
<path fill-rule="evenodd" clip-rule="evenodd" d="M14.7236 80.0097L36.1536 54.2197L36.3459 54.3795L14.9159 80.1695L14.7236 80.0097Z" fill="#EFB4CB"/>
<path fill-rule="evenodd" clip-rule="evenodd" d="M15.1533 84.6098L36.5733 58.8098L36.7657 58.9695L15.3457 84.7695L15.1533 84.6098Z" fill="#EFB4CB"/>
<path fill-rule="evenodd" clip-rule="evenodd" d="M23.6133 79.1899L45.0333 53.3899L45.2256 53.5496L23.8056 79.3496L23.6133 79.1899Z" fill="#EFB4CB"/>
<path fill-rule="evenodd" clip-rule="evenodd" d="M24.0332 83.7797L45.4532 57.9797L45.6456 58.1394L24.2256 83.9394L24.0332 83.7797Z" fill="#EFB4CB"/>
<path fill-rule="evenodd" clip-rule="evenodd" d="M32.9033 78.3298L54.3233 52.5298L54.5157 52.6895L33.0957 78.4895L32.9033 78.3298Z" fill="#EFB4CB"/>
<path fill-rule="evenodd" clip-rule="evenodd" d="M33.334 82.9199L54.754 57.1199L54.9463 57.2796L33.5263 83.0796L33.334 82.9199Z" fill="#EFB4CB"/>
<path fill-rule="evenodd" clip-rule="evenodd" d="M41.584 77.5297L63.004 51.7297L63.1963 51.8894L41.7763 77.6894L41.584 77.5297Z" fill="#EFB4CB"/>
<path fill-rule="evenodd" clip-rule="evenodd" d="M42.0039 82.1198L63.4339 56.3198L63.6262 56.4796L42.1962 82.2796L42.0039 82.1198Z" fill="#EFB4CB"/>
<path fill-rule="evenodd" clip-rule="evenodd" d="M50.2539 76.7199L71.6739 50.9199L71.8663 51.0796L50.4463 76.8796L50.2539 76.7199Z" fill="#EFB4CB"/>
<path fill-rule="evenodd" clip-rule="evenodd" d="M50.6738 81.3098L72.1038 55.5098L72.2961 55.6695L50.8661 81.4695L50.6738 81.3098Z" fill="#EFB4CB"/>
<path fill-rule="evenodd" clip-rule="evenodd" d="M58.6533 75.9399L80.0733 50.1499L80.2656 50.3096L58.8456 76.0996L58.6533 75.9399Z" fill="#EFB4CB"/>
<path fill-rule="evenodd" clip-rule="evenodd" d="M59.084 80.5297L80.504 54.7397L80.6963 54.8995L59.2763 80.6895L59.084 80.5297Z" fill="#EFB4CB"/>
<path fill-rule="evenodd" clip-rule="evenodd" d="M67.7939 75.0998L89.2139 49.2998L89.4063 49.4595L67.9863 75.2595L67.7939 75.0998Z" fill="#EFB4CB"/>
<path fill-rule="evenodd" clip-rule="evenodd" d="M68.2139 79.6899L89.6439 53.8899L89.8362 54.0496L68.4062 79.8496L68.2139 79.6899Z" fill="#EFB4CB"/>
<path fill-rule="evenodd" clip-rule="evenodd" d="M72.8135 79.2597L94.2335 53.4597L94.4258 53.6194L73.0058 79.4194L72.8135 79.2597Z" fill="#EFB4CB"/>
<path fill-rule="evenodd" clip-rule="evenodd" d="M76.8232 79.6899L98.2432 53.8899L98.4356 54.0496L77.0156 79.8496L76.8232 79.6899Z" fill="#EFB4CB"/>
</g>
<path d="M492.054 63.027C492.054 63.5941 491.594 64.0539 491.027 64.0539C490.46 64.0539 490 63.5941 490 63.027C490 62.4598 490.46 62 491.027 62C491.594 62 492.054 62.4598 492.054 63.027Z" fill="#A91255"/>
<path d="M492.054 73.7467C492.054 74.3138 491.594 74.7736 491.027 74.7736C490.46 74.7736 490 74.3138 490 73.7467C490 73.1795 490.46 72.7197 491.027 72.7197C491.594 72.7197 492.054 73.1795 492.054 73.7467Z" fill="#A91255"/>
<path d="M497.054 63.027C497.054 63.5941 496.594 64.0539 496.027 64.0539C495.46 64.0539 495 63.5941 495 63.027C495 62.4598 495.46 62 496.027 62C496.594 62 497.054 62.4598 497.054 63.027Z" fill="#A91255"/>
<path d="M497.054 73.7467C497.054 74.3138 496.594 74.7736 496.027 74.7736C495.46 74.7736 495 74.3138 495 73.7467C495 73.1795 495.46 72.7197 496.027 72.7197C496.594 72.7197 497.054 73.1795 497.054 73.7467Z" fill="#A91255"/>
<path d="M502.054 63.027C502.054 63.5941 501.594 64.0539 501.027 64.0539C500.46 64.0539 500 63.5941 500 63.027C500 62.4598 500.46 62 501.027 62C501.594 62 502.054 62.4598 502.054 63.027Z" fill="#A91255"/>
<path d="M502.054 73.7467C502.054 74.3138 501.594 74.7736 501.027 74.7736C500.46 74.7736 500 74.3138 500 73.7467C500 73.1795 500.46 72.7197 501.027 72.7197C501.594 72.7197 502.054 73.1795 502.054 73.7467Z" fill="#A91255"/>
</svg>
