<svg width="540" height="124" viewBox="0 0 540 124" fill="none" xmlns="http://www.w3.org/2000/svg">
<path d="M409.67 80.6716C404.72 80.6716 400.7 76.6516 400.7 71.7016C400.7 66.7516 404.72 62.7316 409.67 62.7316C414.62 62.7316 418.64 66.7516 418.64 71.7016C418.64 76.6616 414.62 80.6716 409.67 80.6716Z" fill="#F7DBE7"/>
<path fill-rule="evenodd" clip-rule="evenodd" d="M407.21 66.2505C407.504 65.9579 407.978 65.9584 408.271 66.2516L413.231 71.2216C413.524 71.5146 413.523 71.989 413.231 72.2817L408.341 77.1717C408.048 77.4646 407.573 77.4646 407.28 77.1717C406.987 76.8788 406.987 76.4039 407.28 76.111L411.64 71.7508L407.209 67.3112C406.917 67.018 406.917 66.5431 407.21 66.2505Z" fill="#A91255"/>
<path fill-rule="evenodd" clip-rule="evenodd" d="M8.2168 44.4922H133.782V57.0578H8.2168V44.4922ZM9.7824 46.0578V55.4922H132.217V46.0578H9.7824Z" fill="#EFB4CB"/>
<path d="M412 44.275H278V57.275H412V44.275Z" fill="#A91255"/>
<path fill-rule="evenodd" clip-rule="evenodd" d="M414.217 44.4922H519.782V58.0578H414.217V44.4922ZM415.782 46.0578V56.4922H518.217V46.0578H415.782Z" fill="#EFB4CB"/>
<path d="M525.054 46.302C525.054 46.8691 524.594 47.3289 524.027 47.3289C523.46 47.3289 523 46.8691 523 46.302C523 45.7348 523.46 45.275 524.027 45.275C524.594 45.275 525.054 45.7348 525.054 46.302Z" fill="#A91255"/>
<path d="M525.054 57.0217C525.054 57.5889 524.594 58.0487 524.027 58.0487C523.46 58.0487 523 57.5889 523 57.0217C523 56.4545 523.46 55.9948 524.027 55.9948C524.594 55.9948 525.054 56.4545 525.054 57.0217Z" fill="#A91255"/>
<path d="M530.054 46.302C530.054 46.8691 529.594 47.3289 529.027 47.3289C528.46 47.3289 528 46.8691 528 46.302C528 45.7348 528.46 45.275 529.027 45.275C529.594 45.275 530.054 45.7348 530.054 46.302Z" fill="#A91255"/>
<path d="M530.054 57.0217C530.054 57.5889 529.594 58.0487 529.027 58.0487C528.46 58.0487 528 57.5889 528 57.0217C528 56.4545 528.46 55.9948 529.027 55.9948C529.594 55.9948 530.054 56.4545 530.054 57.0217Z" fill="#A91255"/>
<path d="M535.054 46.302C535.054 46.8691 534.594 47.3289 534.027 47.3289C533.46 47.3289 533 46.8691 533 46.302C533 45.7348 533.46 45.275 534.027 45.275C534.594 45.275 535.054 45.7348 535.054 46.302Z" fill="#A91255"/>
<path d="M535.054 57.0217C535.054 57.5889 534.594 58.0487 534.027 58.0487C533.46 58.0487 533 57.5889 533 57.0217C533 56.4545 533.46 55.9948 534.027 55.9948C534.594 55.9948 535.054 56.4545 535.054 57.0217Z" fill="#A91255"/>
<path fill-rule="evenodd" clip-rule="evenodd" d="M254 71.275C254 70.7227 254.448 70.275 255 70.275L257 70.275C257.552 70.275 258 70.7227 258 71.275C258 71.8273 257.552 72.275 257 72.275L255 72.275C254.448 72.275 254 71.8273 254 71.275ZM260 71.275C260 70.7227 260.448 70.275 261 70.275L263 70.275C263.552 70.275 264 70.7227 264 71.275C264 71.8273 263.552 72.275 263 72.275L261 72.275C260.448 72.275 260 71.8273 260 71.275Z" fill="#EFB4CB"/>
<path fill-rule="evenodd" clip-rule="evenodd" d="M147 71.275C147 70.7227 147.448 70.275 148 70.275L149.5 70.275C150.052 70.275 150.5 70.7227 150.5 71.275C150.5 71.8273 150.052 72.275 149.5 72.275L148 72.275C147.448 72.275 147 71.8273 147 71.275ZM151.5 71.275C151.5 70.7227 151.948 70.275 152.5 70.275L155.5 70.275C156.052 70.275 156.5 70.7227 156.5 71.275C156.5 71.8273 156.052 72.275 155.5 72.275L152.5 72.275C151.948 72.275 151.5 71.8273 151.5 71.275ZM157.5 71.275C157.5 70.7227 157.948 70.275 158.5 70.275L160 70.275C160.552 70.275 161 70.7227 161 71.275C161 71.8273 160.552 72.275 160 72.275L158.5 72.275C157.948 72.275 157.5 71.8273 157.5 71.275Z" fill="#EFB4CB"/>
<path fill-rule="evenodd" clip-rule="evenodd" d="M204.26 7.27496C204.26 6.72268 204.707 6.27496 205.26 6.27496H207.152C207.705 6.27496 208.152 6.72268 208.152 7.27496C208.152 7.82725 207.705 8.27496 207.152 8.27496H205.26C204.707 8.27496 204.26 7.82725 204.26 7.27496ZM209.937 7.27496C209.937 6.72268 210.385 6.27496 210.937 6.27496H214.722C215.275 6.27496 215.722 6.72268 215.722 7.27496C215.722 7.82725 215.275 8.27496 214.722 8.27496H210.937C210.385 8.27496 209.937 7.82725 209.937 7.27496ZM217.507 7.27496C217.507 6.72268 217.955 6.27496 218.507 6.27496H220.4C220.952 6.27496 221.4 6.72268 221.4 7.27496C221.4 7.82725 220.952 8.27496 220.4 8.27496H218.507C217.955 8.27496 217.507 7.82725 217.507 7.27496Z" fill="#EFB4CB"/>
<path fill-rule="evenodd" clip-rule="evenodd" d="M140.97 7.27496C140.97 6.72268 141.417 6.27496 141.97 6.27496H143.872C144.425 6.27496 144.872 6.72268 144.872 7.27496C144.872 7.82725 144.425 8.27496 143.872 8.27496H141.97C141.417 8.27496 140.97 7.82725 140.97 7.27496ZM146.677 7.27496C146.677 6.72268 147.125 6.27496 147.677 6.27496H151.482C152.035 6.27496 152.482 6.72268 152.482 7.27496C152.482 7.82725 152.035 8.27496 151.482 8.27496H147.677C147.125 8.27496 146.677 7.82725 146.677 7.27496ZM154.287 7.27496C154.287 6.72268 154.735 6.27496 155.287 6.27496H159.092C159.645 6.27496 160.092 6.72268 160.092 7.27496C160.092 7.82725 159.645 8.27496 159.092 8.27496H155.287C154.735 8.27496 154.287 7.82725 154.287 7.27496ZM161.897 7.27496C161.897 6.72268 162.345 6.27496 162.897 6.27496H166.702C167.255 6.27496 167.702 6.72268 167.702 7.27496C167.702 7.82725 167.255 8.27496 166.702 8.27496H162.897C162.345 8.27496 161.897 7.82725 161.897 7.27496ZM169.507 7.27496C169.507 6.72268 169.955 6.27496 170.507 6.27496H174.312C174.865 6.27496 175.312 6.72268 175.312 7.27496C175.312 7.82725 174.865 8.27496 174.312 8.27496H170.507C169.955 8.27496 169.507 7.82725 169.507 7.27496ZM177.117 7.27496C177.117 6.72268 177.565 6.27496 178.117 6.27496H181.922C182.475 6.27496 182.922 6.72268 182.922 7.27496C182.922 7.82725 182.475 8.27496 181.922 8.27496H178.117C177.565 8.27496 177.117 7.82725 177.117 7.27496ZM184.727 7.27496C184.727 6.72268 185.175 6.27496 185.727 6.27496H187.63C188.182 6.27496 188.63 6.72268 188.63 7.27496C188.63 7.82725 188.182 8.27496 187.63 8.27496H185.727C185.175 8.27496 184.727 7.82725 184.727 7.27496Z" fill="#EFB4CB"/>
<path fill-rule="evenodd" clip-rule="evenodd" d="M340 7.27496C340 6.72268 340.448 6.27496 341 6.27496L343.031 6.27496C343.584 6.27496 344.031 6.72268 344.031 7.27496C344.031 7.82725 343.584 8.27496 343.031 8.27496L341 8.27496C340.448 8.27496 340 7.82725 340 7.27496ZM346.094 7.27496C346.094 6.72268 346.541 6.27496 347.094 6.27496L351.156 6.27496C351.709 6.27496 352.156 6.72268 352.156 7.27496C352.156 7.82725 351.709 8.27496 351.156 8.27496L347.094 8.27496C346.541 8.27496 346.094 7.82725 346.094 7.27496ZM354.219 7.27496C354.219 6.72268 354.666 6.27496 355.219 6.27496L359.281 6.27497C359.834 6.27497 360.281 6.72268 360.281 7.27497C360.281 7.82725 359.834 8.27497 359.281 8.27497L355.219 8.27496C354.666 8.27496 354.219 7.82725 354.219 7.27496ZM362.344 7.27497C362.344 6.72268 362.791 6.27497 363.344 6.27497L367.406 6.27497C367.959 6.27497 368.406 6.72268 368.406 7.27497C368.406 7.82725 367.959 8.27497 367.406 8.27497L363.344 8.27497C362.791 8.27497 362.344 7.82725 362.344 7.27497ZM370.469 7.27497C370.469 6.72268 370.916 6.27497 371.469 6.27497L375.531 6.27497C376.084 6.27497 376.531 6.72268 376.531 7.27497C376.531 7.82725 376.084 8.27497 375.531 8.27497L371.469 8.27497C370.916 8.27497 370.469 7.82725 370.469 7.27497ZM378.594 7.27497C378.594 6.72268 379.041 6.27497 379.594 6.27497L383.656 6.27497C384.209 6.27497 384.656 6.72268 384.656 7.27497C384.656 7.82725 384.209 8.27497 383.656 8.27497L379.594 8.27497C379.041 8.27497 378.594 7.82725 378.594 7.27497ZM386.719 7.27497C386.719 6.72268 387.166 6.27497 387.719 6.27497L391.781 6.27497C392.334 6.27497 392.781 6.72268 392.781 7.27497C392.781 7.82725 392.334 8.27497 391.781 8.27497L387.719 8.27497C387.166 8.27497 386.719 7.82725 386.719 7.27497ZM394.844 7.27497C394.844 6.72268 395.291 6.27497 395.844 6.27497L399.906 6.27497C400.459 6.27497 400.906 6.72268 400.906 7.27497C400.906 7.82725 400.459 8.27497 399.906 8.27497L395.844 8.27497C395.291 8.27497 394.844 7.82725 394.844 7.27497ZM402.969 7.27497C402.969 6.72268 403.416 6.27497 403.969 6.27497L406 6.27497C406.552 6.27497 407 6.72268 407 7.27497C407 7.82725 406.552 8.27497 406 8.27497L403.969 8.27497C403.416 8.27497 402.969 7.82725 402.969 7.27497Z" fill="#EFB4CB"/>
<path d="M518.14 77.5117L528.19 71.7117L518.14 65.9117V77.5117Z" fill="#EFB4CB"/>
<path fill-rule="evenodd" clip-rule="evenodd" d="M19 71.275C19 70.7227 19.4477 70.275 20 70.275H21.5C22.0523 70.275 22.5 70.7227 22.5 71.275C22.5 71.8273 22.0523 72.275 21.5 72.275H20C19.4477 72.275 19 71.8273 19 71.275ZM23.5 71.275C23.5 70.7227 23.9477 70.275 24.5 70.275H27.5C28.0523 70.275 28.5 70.7227 28.5 71.275C28.5 71.8273 28.0523 72.275 27.5 72.275H24.5C23.9477 72.275 23.5 71.8273 23.5 71.275ZM29.5 71.275C29.5 70.7227 29.9477 70.275 30.5 70.275H32C32.5523 70.275 33 70.7227 33 71.275C33 71.8273 32.5523 72.275 32 72.275H30.5C29.9477 72.275 29.5 71.8273 29.5 71.275Z" fill="#EFB4CB"/>
<path fill-rule="evenodd" clip-rule="evenodd" d="M109 72.275C109 71.7227 109.448 71.275 110 71.275L111.625 71.275C112.177 71.275 112.625 71.7227 112.625 72.275C112.625 72.8273 112.177 73.275 111.625 73.275L110 73.275C109.448 73.275 109 72.8273 109 72.275ZM113.875 72.275C113.875 71.7227 114.323 71.275 114.875 71.275L118.125 71.275C118.677 71.275 119.125 71.7227 119.125 72.275C119.125 72.8273 118.677 73.275 118.125 73.275L114.875 73.275C114.323 73.275 113.875 72.8273 113.875 72.275ZM120.375 72.275C120.375 71.7227 120.823 71.275 121.375 71.275L123 71.275C123.552 71.275 124 71.7227 124 72.275C124 72.8273 123.552 73.275 123 73.275L121.375 73.275C120.823 73.275 120.375 72.8273 120.375 72.275Z" fill="#EFB4CB"/>
<path d="M103.458 71.3787V69.1855H101.724C101.361 69.1855 101.072 69.2875 100.857 69.4915C100.653 69.6842 100.551 69.9506 100.551 70.2906C100.551 70.6193 100.653 70.8856 100.857 71.0897C101.072 71.2823 101.361 71.3787 101.724 71.3787H103.458ZM100.772 76.2751H98.2559L100.041 72.6538C99.531 72.4611 99.1286 72.1494 98.8339 71.7187C98.5392 71.288 98.3919 70.778 98.3919 70.1886C98.3919 69.3838 98.6639 68.7208 99.2079 68.1994C99.7633 67.678 100.472 67.4174 101.333 67.4174H105.634V76.2751H103.424V73.1298H102.234L100.772 76.2751Z" fill="#E2001A"/>
<path d="M96.5323 76.275H94.3221V67.6723H96.5323V76.275ZM96.5493 65.9042H94.2881V64.1021H96.5493V65.9042Z" fill="#E2001A"/>
<path d="M92.6936 78.4512H90.5855V76.2751H84.21V67.4174H86.4371V74.3199H89.2764V67.4174H91.5035V74.3199H92.6936V78.4512Z" fill="#E2001A"/>
<path d="M81.8442 76.275H79.685V75.51C79.379 75.816 79.0616 76.037 78.7329 76.173C78.4156 76.2977 78.0075 76.36 77.5088 76.36C76.5228 76.36 75.769 76.0993 75.2477 75.578C74.7603 75.0679 74.5166 74.4049 74.5166 73.5888C74.5166 72.8408 74.7773 72.2287 75.2987 71.7527C75.82 71.2653 76.5794 71.0216 77.5768 71.0216H79.634V70.5796C79.634 70.0922 79.5037 69.7408 79.243 69.5255C78.9823 69.2988 78.5629 69.1855 77.9849 69.1855C77.2935 69.1855 76.7268 69.4405 76.2847 69.9505L74.8906 68.5734C75.3213 68.0974 75.769 67.7687 76.2337 67.5873C76.7098 67.406 77.3218 67.3153 78.0699 67.3153C80.5861 67.3153 81.8442 68.3581 81.8442 70.4436V76.275ZM79.634 73.0108V72.5347H77.9509C77.0781 72.5347 76.6418 72.8748 76.6418 73.5548C76.6418 74.2235 77.0895 74.5579 77.9849 74.5579C78.5629 74.5579 78.9993 74.4162 79.294 74.1329C79.5207 73.9402 79.634 73.5661 79.634 73.0108Z" fill="#E2001A"/>
<path d="M73.7995 69.3725H71.2493V76.2751H69.0221V69.3725H66.4209V67.4174H73.7995V69.3725Z" fill="#E2001A"/>
<path d="M60.6207 76.2751H58.3936V67.4174H60.6207V76.2751ZM66.3332 76.2751H63.681L60.6377 71.6337L63.545 67.4174H66.1292L63.0009 71.5487L66.3332 76.2751Z" fill="#E2001A"/>
<path d="M56.0102 76.275H53.851V75.51C53.545 75.816 53.2277 76.037 52.899 76.173C52.5816 76.2977 52.1736 76.36 51.6749 76.36C50.6888 76.36 49.9351 76.0993 49.4137 75.578C48.9263 75.0679 48.6826 74.4049 48.6826 73.5888C48.6826 72.8408 48.9433 72.2287 49.4647 71.7527C49.9861 71.2653 50.7455 71.0216 51.7429 71.0216H53.8V70.5796C53.8 70.0922 53.6697 69.7408 53.409 69.5255C53.1483 69.2988 52.7289 69.1855 52.1509 69.1855C51.4595 69.1855 50.8928 69.4405 50.4508 69.9505L49.0566 68.5734C49.4873 68.0974 49.9351 67.7687 50.3998 67.5873C50.8758 67.406 51.4878 67.3153 52.2359 67.3153C54.7521 67.3153 56.0102 68.3581 56.0102 70.4436V76.275ZM53.8 73.0108V72.5347H52.1169C51.2442 72.5347 50.8078 72.8748 50.8078 73.5548C50.8078 74.2235 51.2555 74.5579 52.1509 74.5579C52.7289 74.5579 53.1653 74.4162 53.46 74.1329C53.6867 73.9402 53.8 73.5661 53.8 73.0108Z" fill="#E2001A"/>
<path d="M46.6499 76.275H44.2867V66.2782H41.3965V69.7975C41.3965 71.4636 41.2491 72.7784 40.9544 73.7418C40.6711 74.6939 40.2631 75.3569 39.7303 75.731C39.209 76.0937 38.5119 76.275 37.6392 76.275H36.7041V74.1668H37.0441C37.3728 74.1668 37.6505 74.1102 37.8772 73.9968C38.1152 73.8722 38.3306 73.6568 38.5232 73.3508C38.7273 73.0334 38.8746 72.5687 38.9653 71.9567C39.0673 71.3446 39.1183 70.5796 39.1183 69.6615V64.17H46.6499V76.275Z" fill="#E2001A"/>
<path d="M249.408 71.3787V69.1855H247.674C247.312 69.1855 247.023 69.2875 246.807 69.4915C246.603 69.6842 246.501 69.9506 246.501 70.2906C246.501 70.6193 246.603 70.8856 246.807 71.0897C247.023 71.2823 247.312 71.3787 247.674 71.3787H249.408ZM246.722 76.2751H244.206L245.991 72.6538C245.481 72.4611 245.079 72.1494 244.784 71.7187C244.489 71.288 244.342 70.778 244.342 70.1886C244.342 69.3838 244.614 68.7208 245.158 68.1994C245.714 67.678 246.422 67.4174 247.283 67.4174H251.585V76.2751H249.374V73.1298H248.184L246.722 76.2751Z" fill="#E2001A"/>
<path d="M242.484 76.2751H240.257V72.7218H237.418V76.2751H235.19V67.4174H237.418V70.7666H240.257V67.4174H242.484V76.2751Z" fill="#E2001A"/>
<path d="M232.739 76.2751H230.512V72.7218H227.672V76.2751H225.445V67.4174H227.672V70.7666H230.512V67.4174H232.739V76.2751Z" fill="#E2001A"/>
<path d="M223.425 72.5347H217.882C217.882 73.1241 218.052 73.6001 218.392 73.9628C218.732 74.3255 219.208 74.5069 219.82 74.5069C220.274 74.5069 220.642 74.4445 220.925 74.3199C221.22 74.1839 221.521 73.9685 221.827 73.6738L223.17 74.9829C222.694 75.4703 222.201 75.8273 221.691 76.054C221.192 76.2694 220.563 76.377 219.803 76.377C219.237 76.377 218.721 76.309 218.256 76.173C217.803 76.0257 217.378 75.7877 216.981 75.459C216.584 75.1303 216.273 74.6599 216.046 74.0478C215.819 73.4358 215.706 72.6991 215.706 71.8377C215.706 70.4209 216.057 69.3158 216.76 68.5224C217.463 67.7177 218.398 67.3153 219.565 67.3153C220.778 67.3153 221.725 67.712 222.405 68.5054C223.085 69.2875 223.425 70.3189 223.425 71.5997V72.5347ZM221.249 71.0216C221.237 70.6362 221.169 70.3189 221.044 70.0695C220.772 69.4575 220.279 69.1515 219.565 69.1515C218.851 69.1515 218.358 69.4575 218.086 70.0695C217.962 70.3189 217.894 70.6362 217.882 71.0216H221.249Z" fill="#E2001A"/>
<path d="M213.685 76.2751H211.475V73.1638C210.579 73.3225 209.774 73.4018 209.06 73.4018C208.335 73.4018 207.74 73.1865 207.275 72.7558C206.81 72.3251 206.578 71.7357 206.578 70.9876V67.4174H208.788V70.3756C208.788 71.0897 209.151 71.4467 209.876 71.4467C210.16 71.4467 210.692 71.3957 211.475 71.2937V67.4174H213.685V76.2751Z" fill="#E2001A"/>
<path d="M205.605 67.4174L201.814 77.7032C201.576 78.3379 201.253 78.7969 200.845 79.0803C200.448 79.375 199.916 79.5223 199.247 79.5223H198.38V77.5332H198.89C199.219 77.5332 199.457 77.4765 199.604 77.3632C199.751 77.2612 199.882 77.0515 199.995 76.7341L200.369 75.646L197.343 67.4174H199.672L201.508 72.8918L203.276 67.4174H205.605Z" fill="#E2001A"/>
<path d="M196.111 76.2751H193.901V69.3725H191.776V71.4977C191.776 73.2998 191.544 74.5466 191.079 75.238C190.614 75.9294 189.9 76.2751 188.937 76.2751H187.883V74.3199H188.155C188.393 74.3199 188.58 74.2972 188.716 74.2519C188.852 74.1952 188.999 74.0706 189.158 73.8779C189.328 73.6739 189.447 73.3338 189.515 72.8578C189.594 72.3818 189.634 71.764 189.634 71.0046V67.4174H196.111V76.2751Z" fill="#E2001A"/>
<path d="M187.253 78.4512H185.161V76.2751H180.095V78.4512H178.004V74.3199H178.905C179.483 73.2885 179.772 71.8887 179.772 70.1206V67.4174H186.131V74.3199H187.253V78.4512ZM183.92 74.3199V69.3725H181.897V70.5286C181.897 72.1267 181.671 73.3905 181.217 74.3199H183.92Z" fill="#E2001A"/>
<path d="M176.552 76.275H174.342V67.6723H176.552V76.275ZM176.569 65.9042H174.308V64.1021H176.569V65.9042Z" fill="#E2001A"/>
<path d="M170.428 70.0695C170.813 70.2735 171.119 70.4889 171.346 70.7156C171.845 71.2483 172.094 71.9453 172.094 72.8067C172.094 73.8722 171.76 74.7166 171.091 75.3399C170.422 75.9633 169.521 76.275 168.388 76.275H163.321V64.17H168.184C169.328 64.17 170.235 64.4704 170.904 65.0711C171.584 65.6718 171.924 66.4822 171.924 67.5023C171.924 68.6584 171.425 69.5141 170.428 70.0695ZM165.684 69.0664H167.997C168.484 69.0664 168.864 68.9418 169.136 68.6924C169.419 68.4431 169.561 68.103 169.561 67.6723C169.561 67.2416 169.419 66.9016 169.136 66.6522C168.864 66.4029 168.484 66.2782 167.997 66.2782H165.684V69.0664ZM165.684 74.1668H168.15C168.637 74.1668 169.022 74.0308 169.306 73.7588C169.589 73.4868 169.731 73.1241 169.731 72.6707C169.731 72.2174 169.589 71.8603 169.306 71.5996C169.022 71.3276 168.637 71.1916 168.15 71.1916H165.684V74.1668Z" fill="#E2001A"/>
<path d="M337.035 3.4173L333.244 13.7031C333.006 14.3378 332.683 14.7969 332.275 15.0802C331.878 15.3749 331.345 15.5223 330.677 15.5223H329.81V13.5331H330.32C330.648 13.5331 330.886 13.4764 331.034 13.3631C331.181 13.2611 331.311 13.0514 331.425 12.734L331.799 11.646L328.772 3.4173H331.102L332.938 8.89174L334.706 3.4173H337.035Z" fill="#E2001A"/>
<path d="M328.35 5.37245H325.8V12.275H323.573V5.37245H320.972V3.4173H328.35V5.37245Z" fill="#E2001A"/>
<path d="M320.301 11.1699C319.53 11.9746 318.555 12.377 317.376 12.377C317.002 12.377 316.64 12.3373 316.288 12.258C315.937 12.1673 315.58 12.0199 315.217 11.8159C314.866 11.6006 314.56 11.3286 314.299 10.9999C314.038 10.6598 313.823 10.2235 313.653 9.69076C313.494 9.14672 313.415 8.529 313.415 7.83761C313.415 7.14622 313.494 6.53417 313.653 6.00146C313.823 5.45742 314.038 5.02105 314.299 4.69236C314.56 4.36366 314.866 4.09164 315.217 3.87629C315.58 3.66094 315.937 3.5136 316.288 3.43426C316.64 3.35492 317.002 3.31525 317.376 3.31525C318.566 3.31525 319.541 3.71194 320.301 4.50534L318.804 6.00146C318.374 5.53676 317.898 5.30441 317.376 5.30441C316.855 5.30441 316.436 5.49709 316.118 5.88245C315.79 6.29049 315.625 6.9422 315.625 7.83761C315.625 8.74435 315.79 9.40174 316.118 9.80977C316.436 10.1951 316.855 10.3878 317.376 10.3878C317.898 10.3878 318.374 10.1555 318.804 9.69076L320.301 11.1699Z" fill="#E2001A"/>
<path d="M311.75 7.83761C311.75 8.68768 311.676 9.37907 311.529 9.91178C311.393 10.4332 311.132 10.8922 310.746 11.2889C310.044 12.0143 309.126 12.377 307.992 12.377C306.87 12.377 305.958 12.0143 305.255 11.2889C304.87 10.8809 304.603 10.4162 304.456 9.89478C304.32 9.36207 304.252 8.67634 304.252 7.83761C304.252 6.99888 304.32 6.31882 304.456 5.79745C304.603 5.27607 304.87 4.81137 305.255 4.40333C305.958 3.67794 306.87 3.31525 307.992 3.31525C309.148 3.31525 310.066 3.67794 310.746 4.40333C311.132 4.81137 311.393 5.27607 311.529 5.79745C311.676 6.31882 311.75 6.99888 311.75 7.83761ZM309.539 7.83761C309.539 6.73819 309.369 6.02413 309.029 5.69544C308.769 5.43475 308.423 5.30441 307.992 5.30441C307.573 5.30441 307.233 5.43475 306.972 5.69544C306.632 6.02413 306.462 6.73819 306.462 7.83761C306.462 8.94837 306.632 9.66809 306.972 9.99678C307.233 10.2575 307.573 10.3878 307.992 10.3878C308.423 10.3878 308.769 10.2575 309.029 9.99678C309.369 9.66809 309.539 8.94837 309.539 7.83761Z" fill="#E2001A"/>
<path d="M302.525 7.83761C302.525 8.75568 302.468 9.50941 302.355 10.0988C302.242 10.6882 301.992 11.1812 301.607 11.5779C301.097 12.1106 300.383 12.377 299.465 12.377C298.547 12.377 297.833 12.0823 297.322 11.4929V15.5222H295.112V3.41725H297.254V4.25032C297.81 3.62694 298.547 3.31525 299.465 3.31525C300.383 3.31525 301.097 3.5816 301.607 4.11431C301.992 4.51101 302.242 5.00405 302.355 5.59343C302.468 6.18281 302.525 6.93087 302.525 7.83761ZM300.264 8.85769C300.298 8.58567 300.315 8.24564 300.315 7.83761C300.315 7.42958 300.298 7.09522 300.264 6.83453C300.23 6.56251 300.162 6.30182 300.06 6.05247C299.969 5.80311 299.816 5.6161 299.601 5.49142C299.397 5.36674 299.136 5.30441 298.819 5.30441C298.501 5.30441 298.235 5.36674 298.02 5.49142C297.816 5.6161 297.663 5.80311 297.561 6.05247C297.47 6.30182 297.407 6.56251 297.373 6.83453C297.339 7.09522 297.322 7.42958 297.322 7.83761C297.322 8.24564 297.339 8.58567 297.373 8.85769C297.407 9.11838 297.47 9.37907 297.561 9.63976C297.663 9.88911 297.816 10.0761 298.02 10.2008C298.235 10.3255 298.501 10.3878 298.819 10.3878C299.136 10.3878 299.397 10.3255 299.601 10.2008C299.816 10.0761 299.969 9.88911 300.06 9.63976C300.162 9.37907 300.23 9.11838 300.264 8.85769Z" fill="#E2001A"/>
<path d="M288.775 12.275H286.548V5.37245H283.709V12.275H281.481V3.4173H288.775V12.275Z" fill="#E2001A"/>
<path d="M279.115 12.275H276.956V11.5099C276.649 11.8159 276.332 12.0369 276.003 12.173C275.686 12.2976 275.278 12.36 274.779 12.36C273.793 12.36 273.04 12.0993 272.518 11.5779C272.031 11.0679 271.787 10.4048 271.787 9.58875C271.787 8.84069 272.048 8.22864 272.569 7.7526C273.091 7.26523 273.85 7.02154 274.847 7.02154H276.905V6.57951C276.905 6.09214 276.774 5.74077 276.513 5.52542C276.253 5.29874 275.833 5.1854 275.255 5.1854C274.564 5.1854 273.997 5.44042 273.555 5.95046L272.161 4.57335C272.592 4.09731 273.04 3.76862 273.504 3.58727C273.98 3.40592 274.592 3.31525 275.34 3.31525C277.857 3.31525 279.115 4.358 279.115 6.4435V12.275ZM276.905 9.0107V8.53467H275.221C274.349 8.53467 273.912 8.87469 273.912 9.55475C273.912 10.2235 274.36 10.5578 275.255 10.5578C275.833 10.5578 276.27 10.4162 276.564 10.1328C276.791 9.94011 276.905 9.56608 276.905 9.0107Z" fill="#E2001A"/>
<path d="M271.071 5.37245H268.521V12.275H266.294V5.37245H263.692V3.4173H271.071V5.37245Z" fill="#E2001A"/>
<path d="M262.875 8.53467H257.332C257.332 9.12405 257.502 9.60009 257.842 9.96278C258.182 10.3255 258.659 10.5068 259.271 10.5068C259.724 10.5068 260.092 10.4445 260.376 10.3198C260.67 10.1838 260.971 9.96845 261.277 9.67376L262.62 10.9829C262.144 11.4702 261.651 11.8273 261.141 12.0539C260.642 12.2693 260.013 12.377 259.254 12.377C258.687 12.377 258.171 12.309 257.706 12.173C257.253 12.0256 256.828 11.7876 256.431 11.4589C256.035 11.1302 255.723 10.6598 255.496 10.0478C255.27 9.43574 255.156 8.69901 255.156 7.83761C255.156 6.42083 255.508 5.31574 256.21 4.52234C256.913 3.71761 257.848 3.31525 259.016 3.31525C260.228 3.31525 261.175 3.71194 261.855 4.50534C262.535 5.2874 262.875 6.31882 262.875 7.59959V8.53467ZM260.699 7.02154C260.687 6.63618 260.619 6.31882 260.495 6.06947C260.223 5.45742 259.73 5.15139 259.016 5.15139C258.302 5.15139 257.808 5.45742 257.536 6.06947C257.412 6.31882 257.344 6.63618 257.332 7.02154H260.699Z" fill="#E2001A"/>
<path d="M248.147 0C248.124 0.850069 247.846 1.46779 247.314 1.85315C246.792 2.23851 246.152 2.4312 245.392 2.4312C244.633 2.4312 243.993 2.23851 243.471 1.85315C242.95 1.46779 242.672 0.850069 242.638 0H244.304C244.35 0.702724 244.712 1.05409 245.392 1.05409C246.073 1.05409 246.435 0.702724 246.481 0H248.147ZM249.184 12.275H246.957V6.86855L243.845 12.275H241.618V3.41728H243.845V8.6877L246.957 3.41728H249.184V12.275Z" fill="#E2001A"/>
<path d="M239.395 8.44968H234.158V6.39252H239.395V8.44968Z" fill="#E2001A"/>
<path d="M230.35 12.275H228.14V2.55024L225.675 4.69241V2.31222L228.14 0.170044H230.35V12.275Z" fill="#E2001A"/>
<path fill-rule="evenodd" clip-rule="evenodd" d="M422 71.275C422 70.7227 422.448 70.275 423 70.275H424.812C425.365 70.275 425.812 70.7227 425.812 71.275C425.812 71.8273 425.365 72.275 424.812 72.275H423C422.448 72.275 422 71.8273 422 71.275ZM427.438 71.275C427.438 70.7227 427.885 70.275 428.438 70.275H432.062C432.615 70.275 433.062 70.7227 433.062 71.275C433.062 71.8273 432.615 72.275 432.062 72.275H428.438C427.885 72.275 427.438 71.8273 427.438 71.275ZM434.688 71.275C434.688 70.7227 435.135 70.275 435.688 70.275H439.312C439.865 70.275 440.312 70.7227 440.312 71.275C440.312 71.8273 439.865 72.275 439.312 72.275H435.688C435.135 72.275 434.688 71.8273 434.688 71.275ZM441.938 71.275C441.938 70.7227 442.385 70.275 442.938 70.275H446.562C447.115 70.275 447.562 70.7227 447.562 71.275C447.562 71.8273 447.115 72.275 446.562 72.275H442.938C442.385 72.275 441.938 71.8273 441.938 71.275ZM449.188 71.275C449.188 70.7227 449.635 70.275 450.188 70.275H452C452.552 70.275 453 70.7227 453 71.275C453 71.8273 452.552 72.275 452 72.275H450.188C449.635 72.275 449.188 71.8273 449.188 71.275Z" fill="#EFB4CB"/>
<path fill-rule="evenodd" clip-rule="evenodd" d="M492 71.275C492 70.7227 492.448 70.275 493 70.275L494.75 70.275C495.302 70.275 495.75 70.7227 495.75 71.275C495.75 71.8273 495.302 72.275 494.75 72.275L493 72.275C492.448 72.275 492 71.8273 492 71.275ZM497.25 71.275C497.25 70.7227 497.698 70.275 498.25 70.275L501.75 70.275C502.302 70.275 502.75 70.7227 502.75 71.275C502.75 71.8273 502.302 72.275 501.75 72.275L498.25 72.275C497.698 72.275 497.25 71.8273 497.25 71.275ZM504.25 71.275C504.25 70.7227 504.698 70.275 505.25 70.275L508.75 70.275C509.302 70.275 509.75 70.7227 509.75 71.275C509.75 71.8273 509.302 72.275 508.75 72.275L505.25 72.275C504.698 72.275 504.25 71.8273 504.25 71.275ZM511.25 71.275C511.25 70.7227 511.698 70.275 512.25 70.275L514 70.275C514.552 70.275 515 70.7227 515 71.275C515 71.8273 514.552 72.275 514 72.275L512.25 72.275C511.698 72.275 511.25 71.8273 511.25 71.275Z" fill="#EFB4CB"/>
<path d="M488.091 69.3725H485.541V76.2751H483.314V69.3725H480.713V67.4174H488.091V69.3725Z" fill="#E2001A"/>
<path d="M480.043 75.1699C479.272 75.9747 478.297 76.377 477.119 76.377C476.745 76.377 476.382 76.3374 476.03 76.258C475.679 76.1674 475.322 76.02 474.959 75.816C474.608 75.6006 474.302 75.3286 474.041 74.9999C473.781 74.6599 473.565 74.2235 473.395 73.6908C473.237 73.1468 473.157 72.5291 473.157 71.8377C473.157 71.1463 473.237 70.5342 473.395 70.0015C473.565 69.4575 473.781 69.0211 474.041 68.6924C474.302 68.3637 474.608 68.0917 474.959 67.8764C475.322 67.661 475.679 67.5137 476.03 67.4343C476.382 67.355 476.745 67.3153 477.119 67.3153C478.309 67.3153 479.283 67.712 480.043 68.5054L478.547 70.0015C478.116 69.5368 477.64 69.3045 477.119 69.3045C476.597 69.3045 476.178 69.4971 475.86 69.8825C475.532 70.2905 475.367 70.9423 475.367 71.8377C475.367 72.7444 475.532 73.4018 475.86 73.8098C476.178 74.1952 476.597 74.3879 477.119 74.3879C477.64 74.3879 478.116 74.1555 478.547 73.6908L480.043 75.1699Z" fill="#E2001A"/>
<path d="M471.127 76.275H468.917V67.6723H471.127V76.275ZM471.144 65.9042H468.883V64.1021H471.144V65.9042Z" fill="#E2001A"/>
<path d="M466.011 65.2581C466.736 65.9835 467.099 66.8789 467.099 67.9443C467.099 69.0098 466.736 69.9052 466.011 70.6306C465.297 71.356 464.328 71.7187 463.104 71.7187H460.774V76.275H458.411V64.17H463.104C464.328 64.17 465.297 64.5327 466.011 65.2581ZM464.26 69.1514C464.577 68.8454 464.736 68.4431 464.736 67.9443C464.736 67.4456 464.577 67.0433 464.26 66.7372C463.942 66.4312 463.517 66.2782 462.985 66.2782H460.774V69.5935H462.985C463.517 69.5935 463.942 69.4461 464.26 69.1514Z" fill="#E2001A"/>
<path d="M73.0822 112.505V110.816H71.7469C71.4676 110.816 71.245 110.894 71.0792 111.051C70.9221 111.2 70.8435 111.405 70.8435 111.667C70.8435 111.92 70.9221 112.125 71.0792 112.282C71.245 112.43 71.4676 112.505 71.7469 112.505H73.0822ZM71.0137 116.275H69.0762L70.4508 113.486C70.058 113.338 69.7482 113.098 69.5213 112.766C69.2944 112.435 69.1809 112.042 69.1809 111.588C69.1809 110.968 69.3904 110.458 69.8093 110.056C70.237 109.655 70.7824 109.454 71.4458 109.454H74.7579V116.275H73.056V113.853H72.1396L71.0137 116.275Z" fill="#A91255"/>
<path d="M67.7511 116.275H66.0361V113.539H63.8498V116.275H62.1348V109.454H63.8498V112.033H66.0361V109.454H67.7511V116.275Z" fill="#A91255"/>
<path d="M60.2462 116.275H58.5312V113.539H56.3449V116.275H54.6299V109.454H56.3449V112.033H58.5312V109.454H60.2462V116.275Z" fill="#A91255"/>
<path d="M53.0744 113.395H48.8066C48.8066 113.849 48.9375 114.215 49.1993 114.495C49.4612 114.774 49.8277 114.913 50.299 114.913C50.6481 114.913 50.9318 114.865 51.15 114.769C51.3769 114.665 51.6082 114.499 51.8438 114.272L52.8781 115.28C52.5115 115.655 52.1318 115.93 51.7391 116.105C51.3551 116.271 50.8707 116.354 50.2859 116.354C49.8495 116.354 49.4524 116.301 49.0946 116.196C48.7455 116.083 48.4182 115.9 48.1127 115.647C47.8073 115.394 47.5672 115.031 47.3927 114.56C47.2181 114.089 47.1309 113.521 47.1309 112.858C47.1309 111.767 47.4014 110.916 47.9425 110.305C48.4837 109.686 49.2037 109.376 50.1026 109.376C51.0365 109.376 51.7653 109.681 52.2889 110.292C52.8126 110.894 53.0744 111.689 53.0744 112.675V113.395ZM51.3987 112.23C51.39 111.933 51.3376 111.689 51.2416 111.497C51.0322 111.025 50.6525 110.79 50.1026 110.79C49.5528 110.79 49.1731 111.025 48.9637 111.497C48.8677 111.689 48.8153 111.933 48.8066 112.23H51.3987Z" fill="#A91255"/>
<path d="M46.854 116.275H44.8641L42.6516 112.701L44.7593 109.454H46.71L44.4713 112.635L46.854 116.275ZM42.6385 116.275H40.9235V109.454H42.6385V116.275ZM38.711 116.275H36.708L39.1038 112.635L36.8651 109.454H38.8158L40.9104 112.701L38.711 116.275Z" fill="#A91255"/>
<path d="M36.4841 117.951H34.8739V116.275H30.9726V117.951H29.3623V114.769H30.0562C30.5013 113.975 30.7238 112.897 30.7238 111.536V109.454H35.6201V114.769H36.4841V117.951ZM33.9182 114.769V110.96H32.3603V111.85C32.3603 113.081 32.1857 114.054 31.8366 114.769H33.9182Z" fill="#A91255"/>
<path d="M28.7168 112.858C28.7168 113.513 28.66 114.045 28.5466 114.455C28.4418 114.857 28.2411 115.21 27.9444 115.516C27.4032 116.074 26.6963 116.354 25.8235 116.354C24.9595 116.354 24.2569 116.074 23.7158 115.516C23.419 115.201 23.2139 114.844 23.1005 114.442C22.9957 114.032 22.9434 113.504 22.9434 112.858C22.9434 112.212 22.9957 111.689 23.1005 111.287C23.2139 110.886 23.419 110.528 23.7158 110.214C24.2569 109.655 24.9595 109.376 25.8235 109.376C26.7137 109.376 27.4207 109.655 27.9444 110.214C28.2411 110.528 28.4418 110.886 28.5466 111.287C28.66 111.689 28.7168 112.212 28.7168 112.858ZM27.0148 112.858C27.0148 112.012 26.8839 111.462 26.6221 111.209C26.4214 111.008 26.1552 110.907 25.8235 110.907C25.5006 110.907 25.2388 111.008 25.038 111.209C24.7762 111.462 24.6453 112.012 24.6453 112.858C24.6453 113.713 24.7762 114.268 25.038 114.521C25.2388 114.721 25.5006 114.822 25.8235 114.822C26.1552 114.822 26.4214 114.721 26.6221 114.521C26.8839 114.268 27.0148 113.713 27.0148 112.858Z" fill="#A91255"/>
<path d="M21.6132 112.858C21.6132 113.565 21.5696 114.145 21.4823 114.599C21.395 115.053 21.203 115.433 20.9063 115.738C20.5135 116.148 19.9637 116.354 19.2567 116.354C18.5498 116.354 17.9999 116.127 17.6072 115.673V118.776H15.9053V109.454H17.5548V110.096C17.9825 109.616 18.5498 109.376 19.2567 109.376C19.9637 109.376 20.5135 109.581 20.9063 109.991C21.203 110.297 21.395 110.676 21.4823 111.13C21.5696 111.584 21.6132 112.16 21.6132 112.858ZM19.872 113.644C19.8982 113.434 19.9113 113.172 19.9113 112.858C19.9113 112.544 19.8982 112.286 19.872 112.086C19.8458 111.876 19.7935 111.675 19.7149 111.483C19.6451 111.291 19.5273 111.147 19.3615 111.051C19.2044 110.955 19.0036 110.907 18.7592 110.907C18.5149 110.907 18.3098 110.955 18.1439 111.051C17.9868 111.147 17.869 111.291 17.7905 111.483C17.7206 111.675 17.6726 111.876 17.6465 112.086C17.6203 112.286 17.6072 112.544 17.6072 112.858C17.6072 113.172 17.6203 113.434 17.6465 113.644C17.6726 113.844 17.7206 114.045 17.7905 114.246C17.869 114.438 17.9868 114.582 18.1439 114.678C18.3098 114.774 18.5149 114.822 18.7592 114.822C19.0036 114.822 19.2044 114.774 19.3615 114.678C19.5273 114.582 19.6451 114.438 19.7149 114.246C19.7935 114.045 19.8458 113.844 19.872 113.644Z" fill="#A91255"/>
<path d="M14.0702 116.275H12.4076V115.686C12.1719 115.922 11.9276 116.092 11.6745 116.196C11.4301 116.292 11.1159 116.34 10.7319 116.34C9.97254 116.34 9.39215 116.14 8.99067 115.738C8.61538 115.346 8.42773 114.835 8.42773 114.207C8.42773 113.631 8.62847 113.159 9.02995 112.793C9.43142 112.417 10.0162 112.23 10.7842 112.23H12.3683V111.889C12.3683 111.514 12.2679 111.243 12.0672 111.078C11.8665 110.903 11.5435 110.816 11.0984 110.816C10.566 110.816 10.1296 111.012 9.78926 111.405L8.71575 110.345C9.0474 109.978 9.39215 109.725 9.74999 109.585C10.1166 109.446 10.5878 109.376 11.1639 109.376C13.1014 109.376 14.0702 110.179 14.0702 111.785V116.275ZM12.3683 113.761V113.395H11.0722C10.4002 113.395 10.0642 113.657 10.0642 114.18C10.0642 114.695 10.4089 114.953 11.0984 114.953C11.5435 114.953 11.8796 114.844 12.1065 114.625C12.281 114.477 12.3683 114.189 12.3683 113.761Z" fill="#A91255"/>
<path d="M6.8756 116.275H5.05586V112.374H1.90079V116.275H0.0810547V106.954H1.90079V110.763H5.05586V106.954H6.8756V116.275Z" fill="#A91255"/>
<path d="M8.99961 66.6715C6.70961 66.6715 4.84961 68.5315 4.84961 70.8215C4.84961 73.1115 6.70961 74.9715 8.99961 74.9715C11.2896 74.9715 13.1496 73.1115 13.1496 70.8215C13.1396 68.5315 11.2796 66.6715 8.99961 66.6715Z" fill="#A91255"/>
<path d="M9.00024 62.8116C4.58024 62.8116 0.990234 66.4016 0.990234 70.8216C0.990234 75.2416 4.58024 78.8316 9.00024 78.8316C13.4202 78.8316 17.0102 75.2416 17.0102 70.8216C17.0002 66.4016 13.4102 62.8116 9.00024 62.8116ZM9.00024 76.5016C5.86024 76.5016 3.31023 73.9516 3.31023 70.8116C3.31023 67.6716 5.86024 65.1217 9.00024 65.1217C12.1402 65.1217 14.6902 67.6716 14.6902 70.8116C14.6902 73.9516 12.1402 76.5016 9.00024 76.5016Z" fill="#F7DBE7"/>
<path fill-rule="evenodd" clip-rule="evenodd" d="M8.36035 102.415V83.275H10.3604V102.415H8.36035Z" fill="black"/>
<path fill-rule="evenodd" clip-rule="evenodd" d="M7.91992 61.8518V30.7018H9.91992V61.8518H7.91992Z" fill="black"/>
<path d="M136.05 80.6716C131.1 80.6716 127.08 76.6516 127.08 71.7016C127.08 66.7516 131.1 62.7316 136.05 62.7316C141 62.7316 145.02 66.7516 145.02 71.7016C145.02 76.6616 141 80.6716 136.05 80.6716Z" fill="#F7DBE7"/>
<path fill-rule="evenodd" clip-rule="evenodd" d="M133.58 66.251C133.873 65.9581 134.348 65.9581 134.641 66.251L139.611 71.221C139.751 71.3617 139.83 71.5525 139.83 71.7514C139.83 71.9503 139.751 72.1411 139.611 72.2817L134.721 77.1717C134.428 77.4646 133.953 77.4646 133.66 77.1717C133.367 76.8788 133.367 76.4039 133.66 76.111L138.02 71.7514L133.58 67.3117C133.287 67.0188 133.287 66.5439 133.58 66.251Z" fill="#A91255"/>
<path d="M164.734 112.518C165.153 112.919 165.362 113.443 165.362 114.089C165.362 114.735 165.149 115.263 164.721 115.673C164.302 116.074 163.761 116.275 163.098 116.275H159.812V109.454H161.527V111.915H163.098C163.77 111.915 164.315 112.116 164.734 112.518ZM162.783 113.251H161.474V114.94H162.783C163.054 114.94 163.268 114.865 163.425 114.717C163.591 114.56 163.674 114.35 163.674 114.089C163.674 113.836 163.591 113.635 163.425 113.486C163.268 113.329 163.054 113.251 162.783 113.251Z" fill="#A91255"/>
<path d="M158.572 117.951H156.948V116.275H152.039V109.454H153.754V114.769H155.94V109.454H157.655V114.769H158.572V117.951Z" fill="#A91255"/>
<path d="M148.476 112.505V110.816H147.14C146.861 110.816 146.639 110.894 146.473 111.051C146.316 111.2 146.237 111.405 146.237 111.667C146.237 111.92 146.316 112.125 146.473 112.282C146.639 112.43 146.861 112.505 147.14 112.505H148.476ZM146.407 116.275H144.47L145.844 113.486C145.452 113.338 145.142 113.098 144.915 112.766C144.688 112.435 144.574 112.042 144.574 111.588C144.574 110.968 144.784 110.458 145.203 110.056C145.631 109.655 146.176 109.454 146.839 109.454H150.151V116.275H148.45V113.853H147.533L146.407 116.275Z" fill="#A91255"/>
<path d="M143.717 115.424C143.124 116.044 142.373 116.354 141.465 116.354C141.177 116.354 140.898 116.323 140.628 116.262C140.357 116.192 140.082 116.079 139.803 115.922C139.532 115.756 139.297 115.546 139.096 115.293C138.895 115.031 138.729 114.695 138.598 114.285C138.476 113.866 138.415 113.39 138.415 112.858C138.415 112.326 138.476 111.854 138.598 111.444C138.729 111.025 138.895 110.689 139.096 110.436C139.297 110.183 139.532 109.974 139.803 109.808C140.082 109.642 140.357 109.528 140.628 109.467C140.898 109.406 141.177 109.376 141.465 109.376C142.382 109.376 143.132 109.681 143.717 110.292L142.565 111.444C142.233 111.086 141.867 110.907 141.465 110.907C141.064 110.907 140.741 111.056 140.497 111.353C140.244 111.667 140.117 112.169 140.117 112.858C140.117 113.556 140.244 114.063 140.497 114.377C140.741 114.673 141.064 114.822 141.465 114.822C141.867 114.822 142.233 114.643 142.565 114.285L143.717 115.424Z" fill="#A91255"/>
<path d="M136.852 116.275H135.15V109.651H136.852V116.275ZM136.865 108.289H135.124V106.901H136.865V108.289Z" fill="#A91255"/>
<path d="M133.242 116.275H131.54V112.334L130.257 114.861H129.288L127.992 112.334V116.275H126.277V109.454H127.966L129.773 113.041L131.566 109.454H133.242V116.275Z" fill="#A91255"/>
<path d="M120.132 116.275H118.431V108.787L116.532 110.436V108.603L118.431 106.954H120.132V116.275Z" fill="#A91255"/>
<path fill-rule="evenodd" clip-rule="evenodd" d="M136.59 84.275C137.142 84.275 137.59 84.7227 137.59 85.275V87.3813C137.59 87.9336 137.142 88.3813 136.59 88.3813C136.038 88.3813 135.59 87.9336 135.59 87.3813V85.275C135.59 84.7227 136.038 84.275 136.59 84.275ZM136.59 90.5938C137.142 90.5938 137.59 91.0415 137.59 91.5938V95.8063C137.59 96.3586 137.142 96.8063 136.59 96.8063C136.038 96.8063 135.59 96.3586 135.59 95.8063V91.5938C135.59 91.0415 136.038 90.5938 136.59 90.5938ZM136.59 99.0188C137.142 99.0188 137.59 99.4665 137.59 100.019V102.125C137.59 102.677 137.142 103.125 136.59 103.125C136.038 103.125 135.59 102.677 135.59 102.125V100.019C135.59 99.4665 136.038 99.0188 136.59 99.0188Z" fill="#EFB4CB"/>
<path d="M274.61 80.6716C269.66 80.6716 265.64 76.6516 265.64 71.7016C265.64 66.7516 269.66 62.7316 274.61 62.7316C279.56 62.7316 283.58 66.7516 283.58 71.7016C283.57 76.6616 279.56 80.6716 274.61 80.6716Z" fill="#F7DBE7"/>
<path fill-rule="evenodd" clip-rule="evenodd" d="M272.14 66.251C272.432 65.9581 272.907 65.9581 273.2 66.251L278.17 71.221C278.311 71.3617 278.39 71.5525 278.39 71.7514C278.39 71.9503 278.311 72.1411 278.17 72.2817L273.28 77.1717C272.987 77.4646 272.512 77.4646 272.22 77.1717C271.927 76.8788 271.927 76.4039 272.22 76.111L276.579 71.7514L272.14 67.3117C271.847 67.0188 271.847 66.5439 272.14 66.251Z" fill="#A91255"/>
<path d="M300.583 116.275H298.881V109.651H300.583V116.275ZM300.596 108.289H298.854V106.901H300.596V108.289Z" fill="#A91255"/>
<path d="M297.627 117.951H296.004V116.275H291.095V109.454H292.81V114.77H294.996V109.454H296.711V114.77H297.627V117.951Z" fill="#A91255"/>
<path d="M287.531 112.505V110.816H286.196C285.917 110.816 285.694 110.894 285.528 111.052C285.371 111.2 285.293 111.405 285.293 111.667C285.293 111.92 285.371 112.125 285.528 112.282C285.694 112.431 285.917 112.505 286.196 112.505H287.531ZM285.463 116.275H283.525L284.9 113.487C284.507 113.338 284.197 113.098 283.971 112.767C283.744 112.435 283.63 112.042 283.63 111.588C283.63 110.969 283.84 110.458 284.259 110.057C284.686 109.655 285.232 109.454 285.895 109.454H289.207V116.275H287.505V113.853H286.589L285.463 116.275Z" fill="#A91255"/>
<path d="M282.773 115.424C282.179 116.044 281.429 116.354 280.521 116.354C280.233 116.354 279.954 116.323 279.683 116.262C279.413 116.192 279.138 116.079 278.858 115.922C278.588 115.756 278.352 115.546 278.151 115.293C277.951 115.031 277.785 114.695 277.654 114.285C277.532 113.866 277.471 113.39 277.471 112.858C277.471 112.326 277.532 111.854 277.654 111.444C277.785 111.025 277.951 110.689 278.151 110.436C278.352 110.183 278.588 109.974 278.858 109.808C279.138 109.642 279.413 109.528 279.683 109.467C279.954 109.406 280.233 109.376 280.521 109.376C281.437 109.376 282.188 109.681 282.773 110.292L281.621 111.444C281.289 111.086 280.923 110.907 280.521 110.907C280.12 110.907 279.797 111.056 279.552 111.353C279.299 111.667 279.173 112.169 279.173 112.858C279.173 113.556 279.299 114.063 279.552 114.377C279.797 114.673 280.12 114.822 280.521 114.822C280.923 114.822 281.289 114.643 281.621 114.285L282.773 115.424Z" fill="#A91255"/>
<path d="M275.908 116.275H274.206V109.651H275.908V116.275ZM275.921 108.289H274.18V106.901H275.921V108.289Z" fill="#A91255"/>
<path d="M272.298 116.275H270.596V112.334L269.313 114.861H268.344L267.048 112.334V116.275H265.333V109.454H267.022L268.828 113.041L270.622 109.454H272.298V116.275Z" fill="#A91255"/>
<path d="M260.68 116.275H255.012V114.743L258.494 110.698C258.817 110.314 258.978 109.939 258.978 109.572C258.978 109.223 258.878 108.944 258.677 108.734C258.485 108.516 258.21 108.407 257.853 108.407C257.53 108.407 257.259 108.503 257.041 108.695C256.823 108.878 256.714 109.179 256.714 109.598H255.012C255.012 108.769 255.278 108.11 255.81 107.621C256.351 107.124 257.032 106.875 257.853 106.875C258.69 106.875 259.371 107.12 259.895 107.608C260.419 108.097 260.68 108.756 260.68 109.585C260.68 110.004 260.606 110.358 260.458 110.646C260.309 110.934 260.052 111.291 259.685 111.719L257.08 114.743H260.68V116.275Z" fill="#A91255"/>
<path d="M436.537 116.275H434.835V109.651H436.537V116.275ZM436.55 108.289H434.809V106.901H436.55V108.289Z" fill="#A91255"/>
<path d="M433.582 117.951H431.958V116.275H427.049V109.454H428.764V114.769H430.95V109.454H432.665V114.769H433.582V117.951Z" fill="#A91255"/>
<path d="M423.486 112.505V110.816H422.15C421.871 110.816 421.648 110.894 421.483 111.051C421.325 111.2 421.247 111.405 421.247 111.667C421.247 111.92 421.325 112.125 421.483 112.282C421.648 112.43 421.871 112.505 422.15 112.505H423.486ZM421.417 116.275H419.479L420.854 113.486C420.461 113.338 420.152 113.098 419.925 112.766C419.698 112.435 419.584 112.042 419.584 111.588C419.584 110.968 419.794 110.458 420.213 110.056C420.64 109.655 421.186 109.454 421.849 109.454H425.161V116.275H423.459V113.853H422.543L421.417 116.275Z" fill="#A91255"/>
<path d="M418.728 115.424C418.134 116.044 417.384 116.354 416.476 116.354C416.188 116.354 415.909 116.323 415.638 116.262C415.368 116.192 415.093 116.079 414.813 115.922C414.543 115.756 414.307 115.546 414.107 115.293C413.906 115.031 413.74 114.695 413.609 114.285C413.487 113.866 413.426 113.39 413.426 112.858C413.426 112.326 413.487 111.854 413.609 111.444C413.74 111.025 413.906 110.689 414.107 110.436C414.307 110.183 414.543 109.974 414.813 109.808C415.093 109.642 415.368 109.528 415.638 109.467C415.909 109.406 416.188 109.376 416.476 109.376C417.393 109.376 418.143 109.681 418.728 110.292L417.576 111.444C417.244 111.086 416.878 110.907 416.476 110.907C416.075 110.907 415.752 111.056 415.507 111.353C415.254 111.667 415.128 112.169 415.128 112.858C415.128 113.556 415.254 114.063 415.507 114.377C415.752 114.673 416.075 114.822 416.476 114.822C416.878 114.822 417.244 114.643 417.576 114.285L418.728 115.424Z" fill="#A91255"/>
<path d="M411.862 116.275H410.16V109.651H411.862V116.275ZM411.875 108.289H410.134V106.901H411.875V108.289Z" fill="#A91255"/>
<path d="M408.252 116.275H406.55V112.334L405.267 114.861H404.298L403.002 112.334V116.275H401.287V109.454H402.976L404.783 113.041L406.576 109.454H408.252V116.275Z" fill="#A91255"/>
<path d="M396.897 114.953H396.046V116.275H394.409V114.953H390.6V113.342L393.794 106.954H395.653L392.459 113.342H394.409V111.601H396.046V113.342H396.897V114.953Z" fill="#A91255"/>
<path d="M538.679 114.311C538.679 114.914 538.491 115.394 538.116 115.751C537.74 116.101 537.23 116.275 536.584 116.275H533.102V109.454H536.466C537.103 109.454 537.614 109.625 537.998 109.965C538.382 110.305 538.574 110.759 538.574 111.326C538.574 111.955 538.286 112.435 537.71 112.767C538.356 113.098 538.679 113.613 538.679 114.311ZM536.06 110.711H534.79V112.177H536.06C536.61 112.177 536.885 111.929 536.885 111.431C536.885 110.951 536.61 110.711 536.06 110.711ZM536.99 114.22C536.99 113.967 536.916 113.77 536.767 113.631C536.619 113.491 536.409 113.421 536.139 113.421H534.79V115.018H536.139C536.401 115.018 536.606 114.948 536.754 114.809C536.911 114.66 536.99 114.464 536.99 114.22Z" fill="#EFB4CB"/>
<path d="M531.211 116.275H529.51V109.651H531.211V116.275ZM531.225 108.289H529.483V106.901H531.225V108.289Z" fill="#EFB4CB"/>
<path d="M528.256 117.951H526.633V116.275H521.724V109.454H523.439V114.77H525.625V109.454H527.34V114.77H528.256V117.951Z" fill="#EFB4CB"/>
<path d="M518.16 112.505V110.816H516.825C516.546 110.816 516.323 110.894 516.157 111.052C516 111.2 515.922 111.405 515.922 111.667C515.922 111.92 516 112.125 516.157 112.282C516.323 112.431 516.546 112.505 516.825 112.505H518.16ZM516.092 116.275H514.154L515.529 113.487C515.136 113.338 514.826 113.098 514.599 112.767C514.372 112.435 514.259 112.042 514.259 111.588C514.259 110.969 514.468 110.458 514.887 110.057C515.315 109.655 515.861 109.454 516.524 109.454H519.836V116.275H518.134V113.853H517.218L516.092 116.275Z" fill="#EFB4CB"/>
<path d="M513.402 115.424C512.808 116.044 512.058 116.354 511.15 116.354C510.862 116.354 510.583 116.323 510.312 116.262C510.042 116.192 509.767 116.079 509.487 115.922C509.217 115.756 508.981 115.546 508.78 115.293C508.58 115.031 508.414 114.695 508.283 114.285C508.161 113.866 508.1 113.39 508.1 112.858C508.1 112.326 508.161 111.854 508.283 111.444C508.414 111.025 508.58 110.689 508.78 110.436C508.981 110.183 509.217 109.974 509.487 109.808C509.767 109.642 510.042 109.528 510.312 109.467C510.583 109.406 510.862 109.376 511.15 109.376C512.066 109.376 512.817 109.681 513.402 110.292L512.25 111.444C511.918 111.086 511.551 110.907 511.15 110.907C510.748 110.907 510.426 111.056 510.181 111.353C509.928 111.667 509.802 112.169 509.802 112.858C509.802 113.556 509.928 114.063 510.181 114.377C510.426 114.673 510.748 114.822 511.15 114.822C511.551 114.822 511.918 114.643 512.25 114.285L513.402 115.424Z" fill="#EFB4CB"/>
<path d="M506.537 116.275H504.835V109.651H506.537V116.275ZM506.55 108.289H504.809V106.901H506.55V108.289Z" fill="#EFB4CB"/>
<path d="M502.927 116.275H501.225V112.334L499.942 114.861H498.973L497.677 112.334V116.275H495.962V109.454H497.651L499.457 113.041L501.251 109.454H502.927V116.275Z" fill="#EFB4CB"/>
<path d="M491.309 116.275H485.641V114.743L489.123 110.698C489.446 110.314 489.607 109.939 489.607 109.572C489.607 109.223 489.507 108.944 489.306 108.734C489.114 108.516 488.839 108.407 488.482 108.407C488.159 108.407 487.888 108.503 487.67 108.695C487.452 108.878 487.343 109.179 487.343 109.598H485.641C485.641 108.769 485.907 108.11 486.439 107.621C486.98 107.124 487.661 106.875 488.482 106.875C489.319 106.875 490 107.12 490.524 107.608C491.047 108.097 491.309 108.756 491.309 109.585C491.309 110.004 491.235 110.358 491.087 110.646C490.938 110.934 490.681 111.291 490.314 111.719L487.709 114.743H491.309V116.275Z" fill="#EFB4CB"/>
<path d="M482.709 116.275H481.007V108.787L479.108 110.436V108.603L481.007 106.954H482.709V116.275Z" fill="#EFB4CB"/>
<path fill-rule="evenodd" clip-rule="evenodd" d="M275.149 84.275C275.702 84.275 276.149 84.7227 276.149 85.275V87.3813C276.149 87.9336 275.702 88.3813 275.149 88.3813C274.597 88.3813 274.149 87.9336 274.149 87.3813V85.275C274.149 84.7227 274.597 84.275 275.149 84.275ZM275.149 90.5938C275.702 90.5938 276.149 91.0415 276.149 91.5938V95.8063C276.149 96.3586 275.702 96.8063 275.149 96.8063C274.597 96.8063 274.149 96.3586 274.149 95.8063V91.5938C274.149 91.0415 274.597 90.5938 275.149 90.5938ZM275.149 99.0188C275.702 99.0188 276.149 99.4665 276.149 100.019V102.125C276.149 102.677 275.702 103.125 275.149 103.125C274.597 103.125 274.149 102.677 274.149 102.125V100.019C274.149 99.4665 274.597 99.0188 275.149 99.0188Z" fill="#EFB4CB"/>
<path fill-rule="evenodd" clip-rule="evenodd" d="M411.05 84.275C411.602 84.275 412.05 84.7227 412.05 85.275V87.3813C412.05 87.9336 411.602 88.3813 411.05 88.3813C410.498 88.3813 410.05 87.9336 410.05 87.3813V85.275C410.05 84.7227 410.498 84.275 411.05 84.275ZM411.05 90.5938C411.602 90.5938 412.05 91.0415 412.05 91.5938V95.8063C412.05 96.3586 411.602 96.8063 411.05 96.8063C410.498 96.8063 410.05 96.3586 410.05 95.8063V91.5938C410.05 91.0415 410.498 90.5938 411.05 90.5938ZM411.05 99.0188C411.602 99.0188 412.05 99.4665 412.05 100.019V102.125C412.05 102.677 411.602 103.125 411.05 103.125C410.498 103.125 410.05 102.677 410.05 102.125V100.019C410.05 99.4665 410.498 99.0188 411.05 99.0188Z" fill="#EFB4CB"/>
<path fill-rule="evenodd" clip-rule="evenodd" d="M136.59 6.57135C137.142 6.57135 137.59 7.01907 137.59 7.57135V9.58135C137.59 10.1336 137.142 10.5814 136.59 10.5814C136.038 10.5814 135.59 10.1336 135.59 9.58135V7.57135C135.59 7.01907 136.038 6.57135 136.59 6.57135ZM136.59 12.6014C137.142 12.6014 137.59 13.0491 137.59 13.6014V17.6214C137.59 18.1736 137.142 18.6214 136.59 18.6214C136.038 18.6214 135.59 18.1736 135.59 17.6214V13.6014C135.59 13.0491 136.038 12.6014 136.59 12.6014ZM136.59 20.6414C137.142 20.6414 137.59 21.0891 137.59 21.6414V25.6614C137.59 26.2136 137.142 26.6614 136.59 26.6614C136.038 26.6614 135.59 26.2136 135.59 25.6614V21.6414C135.59 21.0891 136.038 20.6414 136.59 20.6414ZM136.59 28.6814C137.142 28.6814 137.59 29.1291 137.59 29.6814V33.7014C137.59 34.2536 137.142 34.7014 136.59 34.7014C136.038 34.7014 135.59 34.2536 135.59 33.7014V29.6814C135.59 29.1291 136.038 28.6814 136.59 28.6814ZM136.59 36.7214C137.142 36.7214 137.59 37.1691 137.59 37.7214V39.7314C137.59 40.2836 137.142 40.7314 136.59 40.7314C136.038 40.7314 135.59 40.2836 135.59 39.7314V37.7214C135.59 37.1691 136.038 36.7214 136.59 36.7214Z" fill="#EFB4CB"/>
<path fill-rule="evenodd" clip-rule="evenodd" d="M411.05 6.57135C411.602 6.57135 412.05 7.01907 412.05 7.57135V9.58135C412.05 10.1336 411.602 10.5814 411.05 10.5814C410.498 10.5814 410.05 10.1336 410.05 9.58135V7.57135C410.05 7.01907 410.498 6.57135 411.05 6.57135ZM411.05 12.6014C411.602 12.6014 412.05 13.0491 412.05 13.6014V17.6214C412.05 18.1736 411.602 18.6214 411.05 18.6214C410.498 18.6214 410.05 18.1736 410.05 17.6214V13.6014C410.05 13.0491 410.498 12.6014 411.05 12.6014ZM411.05 20.6414C411.602 20.6414 412.05 21.0891 412.05 21.6414V25.6614C412.05 26.2136 411.602 26.6614 411.05 26.6614C410.498 26.6614 410.05 26.2136 410.05 25.6614V21.6414C410.05 21.0891 410.498 20.6414 411.05 20.6414ZM411.05 28.6814C411.602 28.6814 412.05 29.1291 412.05 29.6814V33.7014C412.05 34.2536 411.602 34.7014 411.05 34.7014C410.498 34.7014 410.05 34.2536 410.05 33.7014V29.6814C410.05 29.1291 410.498 28.6814 411.05 28.6814ZM411.05 36.7214C411.602 36.7214 412.05 37.1691 412.05 37.7214V39.7314C412.05 40.2836 411.602 40.7314 411.05 40.7314C410.498 40.7314 410.05 40.2836 410.05 39.7314V37.7214C410.05 37.1691 410.498 36.7214 411.05 36.7214Z" fill="#EFB4CB"/>
<path fill-rule="evenodd" clip-rule="evenodd" d="M528.95 84.275C529.502 84.275 529.95 84.7227 529.95 85.275V87.3813C529.95 87.9336 529.502 88.3813 528.95 88.3813C528.398 88.3813 527.95 87.9336 527.95 87.3813V85.275C527.95 84.7227 528.398 84.275 528.95 84.275ZM528.95 90.5938C529.502 90.5938 529.95 91.0415 529.95 91.5938V95.8063C529.95 96.3586 529.502 96.8063 528.95 96.8063C528.398 96.8063 527.95 96.3586 527.95 95.8063V91.5938C527.95 91.0415 528.398 90.5938 528.95 90.5938ZM528.95 99.0188C529.502 99.0188 529.95 99.4665 529.95 100.019V102.125C529.95 102.677 529.502 103.125 528.95 103.125C528.398 103.125 527.95 102.677 527.95 102.125V100.019C527.95 99.4665 528.398 99.0188 528.95 99.0188Z" fill="#EFB4CB"/>
<path d="M274 44.275H136V57.275H274V44.275Z" fill="#A91255"/>
<path fill-rule="evenodd" clip-rule="evenodd" d="M200.519 8.84139C200.519 8.84139 200.349 8.33139 200.309 8.27139C200.269 8.21139 200.069 7.85139 200.069 7.79139C200.069 7.73139 200.039 7.49139 200.039 7.49139C200.199 7.46139 200.589 7.67139 200.589 7.67139C200.559 7.57139 200.169 7.27139 200.169 7.27139L200.019 7.15139L200.269 7.18139C200.269 7.18139 200.179 7.09139 200.109 7.05139C200.039 7.00139 199.859 6.96139 199.859 6.96139L199.799 6.90139L199.839 6.81139L200.089 6.90139C200.089 6.90139 200.089 6.87139 200.059 6.75139C200.029 6.63139 199.819 6.54139 199.819 6.54139L199.869 6.35139C199.959 6.38139 200.199 6.63139 200.199 6.63139L200.149 6.41139C200.139 6.34139 199.989 6.16139 199.989 6.16139C199.989 6.16139 199.859 6.16139 200.479 5.46139C201.109 4.76139 201.359 3.92139 201.359 3.86139C201.259 3.99139 199.729 4.74139 199.729 4.74139C199.729 4.74139 198.849 5.28139 198.639 5.35139C198.429 5.43139 197.999 5.51139 197.669 5.63139C197.339 5.75139 196.799 5.81139 196.389 5.82139C195.969 5.83139 194.939 5.91139 194.939 5.91139C194.399 5.13139 193.249 4.19139 193.249 4.19139C192.739 4.35139 192.489 4.71139 192.489 4.71139C191.859 5.43139 192.239 7.28139 192.239 7.28139C191.519 8.04139 191.729 8.79139 191.729 8.79139C191.729 8.79139 191.739 8.84139 191.729 9.09139C191.719 9.34139 191.639 10.4214 191.639 10.4214C191.639 10.4214 191.579 10.6014 191.279 10.9714C190.979 11.3414 190.409 12.8514 190.409 12.8514C190.409 12.8514 189.889 13.9014 189.749 14.1914C189.599 14.4714 189.249 14.5014 189.249 14.5014C189.249 14.5014 188.759 14.6114 188.549 14.6714C188.339 14.7314 187.889 14.8914 187.889 14.8914C187.889 14.8914 187.619 14.9714 187.229 15.0914C186.829 15.2214 186.119 15.9514 186.119 15.9514L184.989 17.2714C184.989 17.2714 184.409 18.0314 184.229 18.2414C184.049 18.4514 183.679 19.0614 183.679 19.0614L183.919 19.0114C183.919 19.0114 183.249 19.7914 182.869 21.3714C182.499 22.9514 182.389 22.7114 181.939 24.1214C181.769 24.6514 181.559 25.1914 181.369 25.6614L181.309 25.6114C181.209 25.8014 181.079 26.1914 180.949 26.6414C180.839 26.8914 180.769 27.0314 180.769 27.0314C180.769 27.0314 180.779 27.1314 180.779 27.2714C180.599 28.0014 180.479 28.7214 180.589 28.9114C180.489 29.0714 180.899 30.1114 180.779 30.1714C180.659 30.2314 181.129 30.0914 180.929 30.6014C180.739 31.1014 181.359 30.6214 181.239 31.1014C181.119 31.5814 181.469 30.9814 181.449 31.1014C181.429 31.2214 181.639 31.6814 181.449 31.8714C181.259 32.0614 182.159 31.3114 182.109 31.9114C182.049 32.5114 182.499 32.8814 180.909 32.9214C179.319 32.9614 180.139 33.1914 179.879 33.3514C179.629 33.5014 179.839 34.2014 179.489 33.7614C179.139 33.3114 179.219 33.8214 179.119 33.7814C179.019 33.7414 179.349 34.3814 178.929 34.0714C178.929 34.0714 179.389 34.5314 179.199 34.5514C179.009 34.5714 178.619 34.6514 178.539 34.5714C178.459 34.4914 178.949 35.5814 177.319 35.5814C175.699 35.5814 178.929 35.7514 178.169 35.9914C177.419 36.2214 187.239 36.7614 187.629 36.6314C188.019 36.4914 190.969 36.6314 191.439 36.3614C191.499 36.3314 191.579 36.3014 191.679 36.2914C191.709 36.2914 191.739 36.2914 191.759 36.2914C191.829 36.2914 191.869 36.2814 191.899 36.2714C192.639 36.2214 193.829 36.3014 193.539 35.4214C193.539 35.4214 193.539 35.4214 193.549 35.4214C193.769 35.4414 193.959 35.4314 194.109 35.4214L194.219 35.5014C194.209 35.4614 194.169 35.4414 194.109 35.4214C194.359 35.4014 194.489 35.3614 194.489 35.3614C195.219 36.3914 195.549 36.2914 195.549 36.2914C195.549 36.2914 196.449 36.3914 197.149 36.3814C197.849 36.3714 198.269 35.9814 198.269 35.9814C198.989 36.0814 198.999 35.6514 198.999 35.6514C198.999 35.6514 199.149 35.4314 198.919 34.8014C198.699 34.1714 197.859 34.2314 197.859 34.2314C197.459 33.2314 197.439 32.0614 197.439 32.0614C197.439 32.0614 197.449 30.7814 197.589 30.3014C197.719 29.8214 197.809 28.2414 197.809 28.2414C197.809 28.2414 197.819 27.3014 197.869 26.9614C197.909 26.6214 198.169 25.7314 198.169 25.7314L198.259 25.0914L198.349 24.9014L198.429 24.6514L198.369 24.2814L198.399 24.0714L198.439 23.9414C198.439 23.9414 198.539 23.8614 198.709 23.7514C198.879 23.6314 198.809 23.4114 198.809 23.4114L199.009 23.1414C199.009 23.1414 199.249 23.0014 199.379 22.7214C199.509 22.4414 199.439 22.2414 199.439 22.2414C199.439 22.2414 199.449 22.0414 199.549 21.9314C199.649 21.8314 199.689 21.6014 199.679 21.4714C199.659 21.3414 199.729 21.3014 199.829 21.1414C199.929 20.9714 199.909 20.7414 199.909 20.7414C199.909 20.7414 199.869 20.6414 200.119 20.4414C200.369 20.2414 200.159 19.9814 200.159 19.9814C200.159 19.9814 200.169 19.9214 200.349 19.7314C200.529 19.5414 200.399 19.5014 200.469 19.0714C200.539 18.6414 200.529 18.2614 200.529 18.2614C200.529 18.2614 200.519 17.6514 200.499 16.5614C200.489 15.4714 200.189 14.8214 200.189 14.8214C200.189 14.8214 199.999 14.4514 199.979 14.0814C199.959 13.7114 200.119 13.7114 200.339 13.5314C200.559 13.3514 200.679 12.9114 200.679 12.9114C200.719 12.6014 200.549 12.3914 200.539 12.2214C200.539 12.1814 200.539 12.1814 200.539 12.1814V12.0414V11.9114L200.579 11.6214C200.579 11.6214 200.729 11.1014 200.769 10.5814C200.809 10.0614 200.679 9.61139 200.679 9.61139V9.57139L200.729 9.54139L200.739 9.47139L200.659 9.32139L200.829 9.36139L200.519 9.00139L200.969 8.93139L200.519 8.84139Z" fill="#F7DBE7"/>
<path d="M217.66 31.3718C217.66 31.3718 217.45 31.5218 217.46 31.6918C217.48 32.0918 217.25 32.7518 217.16 33.0318C217.02 33.4318 216.58 33.8617 216.32 33.9517C216.06 34.0417 216.08 34.1218 216.08 34.1218L216.28 34.2318C216.28 34.2318 216.7 34.6018 216.84 34.6618C216.98 34.7218 217.68 35.3018 218.32 36.1218C218.97 37.6318 218.77 37.6818 218.52 37.7918C218.28 37.9018 217.55 37.8818 217.29 37.3518C216.86 36.5017 215.49 35.9218 215.49 35.9218C215.49 35.9218 215.2 36.4818 215.29 36.8218C215.5 36.6518 215.69 36.7118 215.94 36.7918C216.81 37.5218 215.94 37.7818 215.94 37.7818L215.41 37.8817C215.41 37.8817 214.56 37.8817 214.16 37.8117C213.76 37.7317 213.64 36.9718 213.61 36.6718C213.58 36.3617 213.55 35.1518 213.55 35.1518L213.24 34.9118C213.24 34.9118 212.63 34.1318 212.08 34.0718C211.53 34.0118 210.25 33.7217 209.77 33.7017C209.28 33.6917 209.27 33.8418 209.19 34.0718C209.11 34.3018 209.08 34.8318 209.05 35.0418C209.02 35.2518 209.02 35.8618 209.05 36.0018C209.08 36.1418 209.58 36.5818 210.12 36.7218C211.11 37.1518 210.63 37.6218 210.63 37.6218C210.63 37.6218 210.39 37.7317 210.23 37.7717C210.08 37.8217 209.39 37.7718 208.87 37.6918C208.35 37.6118 207.69 36.7018 207.36 35.8918C206.53 32.4318 206.23 35.3317 206.04 35.6018C205.87 36.0417 206.06 36.4118 206.38 36.6218C207 36.9218 206.72 37.3518 206.69 37.4718C206.66 37.5918 206.37 37.5818 206.37 37.5818H205.24C204.62 37.2818 204.65 36.6118 204.65 36.6118C204.65 36.6118 204.56 35.2718 204.55 34.9418C204.43 34.2418 204.49 34.3018 204.47 34.0518C204.45 33.7518 204.49 33.6817 204.88 32.9517C204.22 31.3417 204.56 30.1418 204.56 30.1418L204.41 29.8718C204.41 29.8718 202.58 28.9718 202.64 27.1018C202.7 25.2318 203.22 24.2517 204.06 23.6317C205.69 22.7817 205.55 23.5518 205.55 23.5518L205.49 23.8218C205.49 23.8218 205.28 24.3918 204.87 24.9218C204.37 25.5518 204.29 26.1418 204.52 26.7618C204.66 27.2818 205.72 27.3418 206.07 27.2318C209.98 26.6818 211.9 27.4017 212.53 27.5217C213.15 27.6417 214.02 28.1118 214.02 28.1118C214.27 28.1018 214.29 27.9517 214.29 27.9517C214.29 27.9517 214.52 26.8418 215.83 26.4418C217.15 26.2218 217.65 25.9617 217.93 25.8817C218.21 25.8117 218.73 25.6217 218.78 26.0917C219.55 25.7717 220.21 25.6318 220.39 25.5418C220.56 25.4518 219.98 26.2418 219.79 26.3218C219.6 26.4018 219.34 26.8018 219.3 27.0718C219.64 27.1818 219.87 27.5818 219.85 27.8018C219.83 28.0218 219.87 28.5818 219.81 28.7618C219.75 28.9418 219.84 29.4017 219.83 29.5917C219.82 29.7717 219.83 29.9218 219.89 30.1118C219.89 30.2618 219.95 30.4018 219.59 30.5818C219.29 30.7518 219.23 30.8318 219.12 30.8718C219.01 30.9118 218.75 31.0617 218.62 31.0217C218.48 30.9817 218.47 30.8917 218.33 30.8817C218.19 30.8717 218.13 30.9118 218.13 30.9118C218.13 30.9118 217.94 31.0017 217.87 31.0917C217.78 31.1417 217.66 31.3718 217.66 31.3718Z" fill="#A91255"/>
<path d="M357.137 24.864V27.2922H354.861V38.3707H352.167V27.2922H349.891V24.864H357.137Z" fill="#A91255"/>
<path d="M340.751 38.3707L344.222 24.864H346.878L350.35 38.3707H347.542L347.106 36.265H343.995L343.559 38.3707H340.751ZM344.507 33.8368H346.594L345.55 28.8287L344.507 33.8368Z" fill="#A91255"/>
<path d="M336.54 24.7123C337.659 24.7123 338.456 25.0348 339.139 25.6798C339.841 26.3437 340.296 27.406 340.353 28.696H337.659C337.64 28.3166 337.602 27.9372 337.45 27.6526C337.299 27.3301 337.033 27.1404 336.54 27.1404C336.047 27.1404 335.781 27.3681 335.629 27.6716C335.307 28.2976 335.269 29.9859 335.269 31.6174C335.269 33.2488 335.307 34.9371 335.629 35.5631C335.781 35.8666 336.047 36.0943 336.54 36.0943C337.033 36.0943 337.299 35.8856 337.45 35.5631C337.602 35.2786 337.64 34.8992 337.659 34.5198H340.353C340.296 35.8097 339.841 36.891 339.139 37.555C338.456 38.2 337.659 38.5224 336.54 38.5224C335.079 38.5224 334.188 37.9154 333.581 37.1566C332.632 35.9994 332.575 34.2163 332.575 31.6174C332.575 29.0185 332.632 27.2353 333.581 26.0781C334.188 25.3193 335.079 24.7123 336.54 24.7123Z" fill="#A91255"/>
<path d="M332.14 24.864L329.39 33.2867V38.3707H326.696V33.2867L323.945 24.864H326.905L328.043 29.7583L329.181 24.864H332.14Z" fill="#A91255"/>
<path d="M315.652 24.864H319.56C320.907 24.864 321.799 25.1675 322.387 25.7366C323.032 26.3626 323.278 27.0645 323.278 28.5442C323.278 29.5117 323.108 30.2515 322.538 30.8206C322.368 30.9913 322.178 31.1431 321.912 31.2759C322.159 31.4087 322.387 31.5794 322.538 31.7501C323.108 32.3382 323.278 33.078 323.278 34.4059C323.278 35.9615 323.051 36.7772 322.368 37.4791C321.799 38.0671 320.907 38.3707 319.56 38.3707H315.652V24.864ZM319.2 32.452H318.346V35.9425H319.2C320.281 35.9425 320.585 35.4303 320.585 34.1973C320.585 32.9642 320.243 32.452 319.2 32.452ZM319.238 27.2922H318.346V30.1756H319.238C320.281 30.1756 320.585 29.7203 320.585 28.7339C320.585 27.7475 320.3 27.2922 319.238 27.2922Z" fill="#A91255"/>
<path d="M304.904 38.3707L308.376 24.864H311.032L314.503 38.3707H311.696L311.259 36.265H308.148L307.712 38.3707H304.904ZM308.66 33.8368H310.747L309.704 28.8287L308.66 33.8368Z" fill="#A91255"/>
<path d="M296.386 24.864H300.294C301.64 24.864 302.532 25.1675 303.12 25.7366C303.765 26.3626 304.012 27.0645 304.012 28.5442C304.012 29.5117 303.841 30.2515 303.272 30.8206C303.101 30.9913 302.911 31.1431 302.646 31.2759C302.892 31.4087 303.12 31.5794 303.272 31.7501C303.841 32.3382 304.012 33.078 304.012 34.4059C304.012 35.9615 303.784 36.7772 303.101 37.4791C302.532 38.0671 301.64 38.3707 300.294 38.3707H296.386V24.864ZM299.933 32.452H299.079V35.9425H299.933C301.014 35.9425 301.318 35.4303 301.318 34.1973C301.318 32.9642 300.976 32.452 299.933 32.452ZM299.971 27.2922H299.079V30.1756H299.971C301.014 30.1756 301.318 29.7203 301.318 28.7339C301.318 27.7475 301.033 27.2922 299.971 27.2922Z" fill="#A91255"/>
<path d="M286.395 24.7123C288.33 24.7123 289.24 26.0781 289.24 27.7095C289.24 29.303 288.538 30.4033 287.704 31.3518L288.823 33.116C289.032 32.5279 289.108 31.8071 289.164 31.0293H291.289C291.251 32.5279 290.758 34.2732 290.208 35.3734L292.048 38.3707H289.449L288.861 37.4222C288.178 38.1241 287.381 38.5224 286.3 38.5224C284.365 38.5224 283.037 37.1756 283.037 34.9561C283.037 33.4764 283.758 32.1675 284.877 30.9724C284.251 30.1377 283.606 29.0754 283.606 27.8992C283.606 25.5849 284.991 24.7123 286.395 24.7123ZM287.647 35.4872L286.11 33.0211C285.598 33.5902 285.389 34.2352 285.389 34.7853C285.389 35.7338 285.921 36.246 286.509 36.246C286.907 36.246 287.286 36.0374 287.647 35.4872ZM286.414 26.9887C286.129 26.9887 285.845 27.1784 285.845 27.8234C285.845 28.2976 286.186 29.0185 286.452 29.322C286.831 28.8288 287.002 28.4304 287.002 27.7475C287.002 27.2732 286.736 26.9887 286.414 26.9887Z" fill="#A91255"/>
<path d="M270.71 24.864H274.561C277.501 24.864 278.317 26.4006 278.317 28.9805C278.317 30.4222 278.089 31.7122 276.78 32.5279L278.753 38.3707H275.946L274.295 33.116H273.404V38.3707H270.71V24.864ZM274.542 27.2922H273.404V30.6878H274.542C275.566 30.6878 275.623 29.7583 275.623 28.9805C275.623 28.2027 275.566 27.2922 274.542 27.2922Z" fill="#A91255"/>
<path d="M269.059 24.864V27.2922H265.531V30.2894H268.566V32.7176H265.531V35.9425H269.059V38.3707H262.837V24.864H269.059Z" fill="#A91255"/>
<path d="M260.755 24.864V38.3707H258.061V32.7176H255.823V38.3707H253.129V24.864H255.823V30.2894H258.061V24.864H260.755Z" fill="#A91255"/>
<path d="M251.709 24.864V27.2922H249.433V38.3707H246.739V27.2922H244.463V24.864H251.709Z" fill="#A91255"/>
<path d="M239.745 38.5224C238.284 38.5224 237.393 37.9154 236.786 37.1566C235.837 35.9994 235.78 34.2163 235.78 31.6174C235.78 29.0185 235.837 27.2353 236.786 26.0781C237.393 25.3193 238.284 24.7123 239.745 24.7123C241.206 24.7123 242.097 25.3193 242.704 26.0781C243.653 27.2353 243.71 29.0185 243.71 31.6174C243.71 34.2163 243.653 35.9994 242.704 37.1566C242.097 37.9154 241.206 38.5224 239.745 38.5224ZM239.745 36.0943C240.238 36.0943 240.504 35.8666 240.656 35.5631C240.978 34.9371 241.016 33.2488 241.016 31.6174C241.016 29.9859 240.978 28.2976 240.656 27.6716C240.504 27.3681 240.238 27.1404 239.745 27.1404C239.252 27.1404 238.986 27.3681 238.834 27.6716C238.512 28.2976 238.474 29.9859 238.474 31.6174C238.474 33.2488 238.512 34.9371 238.834 35.5631C238.986 35.8666 239.252 36.0943 239.745 36.0943Z" fill="#A91255"/>
<path d="M234.09 24.864V38.3707H231.396V31.3518L229.954 35.9615H228.55L227.109 31.3518V38.3707H224.415V24.864H226.786L229.252 31.4845L231.718 24.864H234.09Z" fill="#A91255"/>
<path opacity="0.69" d="M540 123.275H442V90.775L420.369 75.2567V60.926H413V42.275H540V123.275Z" fill="white"/>
<path opacity="0.69" d="M0 123.275H111.958L111.441 75.304L125.708 74.9021V60.4656L134.5 55.775L134.678 21.275H0V123.275Z" fill="white"/>
</svg>
