<svg width="506" height="88" viewBox="0 0 506 88" fill="none" xmlns="http://www.w3.org/2000/svg">
<path d="M91.1896 45.2402H7.09961V56.9602H91.1896V45.2402Z" fill="#A91255"/>
<path fill-rule="evenodd" clip-rule="evenodd" d="M6.50879 44.6494H91.7805V57.5511H6.50879V44.6494ZM7.69049 45.8311V56.3694H90.5988V45.8311H7.69049Z" fill="#A91255"/>
<path d="M364.13 45.2402H97.0801V56.9602H364.13V45.2402Z" fill="#A91255"/>
<path d="M364.13 45.2402H97.0801V56.9602H364.13V45.2402Z" fill="#A91255"/>
<path fill-rule="evenodd" clip-rule="evenodd" d="M96.4893 44.6494H364.721V57.5511H96.4893V44.6494ZM97.671 45.8311V56.3694H363.539V45.8311H97.671Z" fill="#A91255"/>
<path fill-rule="evenodd" clip-rule="evenodd" d="M376.553 80.0001C376.553 79.4329 377.013 78.9731 377.58 78.9731H379.574C380.141 78.9731 380.601 79.4329 380.601 80.0001C380.601 80.5673 380.141 81.027 379.574 81.027H377.58C377.013 81.027 376.553 80.5673 376.553 80.0001ZM382.535 80.0001C382.535 79.4329 382.995 78.9731 383.562 78.9731H387.551C388.118 78.9731 388.577 79.4329 388.577 80.0001C388.577 80.5673 388.118 81.027 387.551 81.027H383.562C382.995 81.027 382.535 80.5673 382.535 80.0001ZM390.512 80.0001C390.512 79.4329 390.972 78.9731 391.539 78.9731H395.527C396.094 78.9731 396.554 79.4329 396.554 80.0001C396.554 80.5673 396.094 81.027 395.527 81.027H391.539C390.972 81.027 390.512 80.5673 390.512 80.0001ZM398.489 80.0001C398.489 79.4329 398.948 78.9731 399.516 78.9731H401.51C402.077 78.9731 402.537 79.4329 402.537 80.0001C402.537 80.5673 402.077 81.027 401.51 81.027H399.516C398.948 81.027 398.489 80.5673 398.489 80.0001Z" fill="#EFB4CB"/>
<path fill-rule="evenodd" clip-rule="evenodd" d="M475.002 80.0001C475.002 79.4329 475.462 78.9731 476.029 78.9731H478.146C478.714 78.9731 479.173 79.4329 479.173 80.0001C479.173 80.5673 478.714 81.027 478.146 81.027H476.029C475.462 81.027 475.002 80.5673 475.002 80.0001ZM481.354 80.0001C481.354 79.4329 481.814 78.9731 482.381 78.9731H486.616C487.184 78.9731 487.643 79.4329 487.643 80.0001C487.643 80.5673 487.184 81.027 486.616 81.027H482.381C481.814 81.027 481.354 80.5673 481.354 80.0001ZM489.824 80.0001C489.824 79.4329 490.284 78.9731 490.851 78.9731H492.969C493.536 78.9731 493.996 79.4329 493.996 80.0001C493.996 80.5673 493.536 81.027 492.969 81.027H490.851C490.284 81.027 489.824 80.5673 489.824 80.0001Z" fill="#EFB4CB"/>
<path d="M498.727 80.027C498.727 80.5941 498.267 81.0539 497.7 81.0539C497.133 81.0539 496.673 80.5941 496.673 80.027C496.673 79.4598 497.133 79 497.7 79C498.267 79 498.727 79.4598 498.727 80.027Z" fill="#A91255"/>
<path d="M496.199 85.24L505.069 80.12L496.199 75V85.24Z" fill="#A91255"/>
<path fill-rule="evenodd" clip-rule="evenodd" d="M105.202 80.0001C105.202 79.4329 105.662 78.9731 106.229 78.9731H108.299C108.866 78.9731 109.326 79.4329 109.326 80.0001C109.326 80.5673 108.866 81.027 108.299 81.027H106.229C105.662 81.027 105.202 80.5673 105.202 80.0001ZM111.411 80.0001C111.411 79.4329 111.871 78.9731 112.438 78.9731H116.578C117.145 78.9731 117.605 79.4329 117.605 80.0001C117.605 80.5673 117.145 81.027 116.578 81.027H112.438C111.871 81.027 111.411 80.5673 111.411 80.0001ZM119.69 80.0001C119.69 79.4329 120.15 78.9731 120.717 78.9731H124.857C125.424 78.9731 125.884 79.4329 125.884 80.0001C125.884 80.5673 125.424 81.027 124.857 81.027H120.717C120.15 81.027 119.69 80.5673 119.69 80.0001ZM127.969 80.0001C127.969 79.4329 128.429 78.9731 128.996 78.9731H133.136C133.703 78.9731 134.163 79.4329 134.163 80.0001C134.163 80.5673 133.703 81.027 133.136 81.027H128.996C128.429 81.027 127.969 80.5673 127.969 80.0001ZM136.248 80.0001C136.248 79.4329 136.708 78.9731 137.275 78.9731H141.415C141.982 78.9731 142.442 79.4329 142.442 80.0001C142.442 80.5673 141.982 81.027 141.415 81.027H137.275C136.708 81.027 136.248 80.5673 136.248 80.0001ZM144.527 80.0001C144.527 79.4329 144.987 78.9731 145.554 78.9731H149.694C150.261 78.9731 150.721 79.4329 150.721 80.0001C150.721 80.5673 150.261 81.027 149.694 81.027H145.554C144.987 81.027 144.527 80.5673 144.527 80.0001ZM152.806 80.0001C152.806 79.4329 153.266 78.9731 153.833 78.9731H157.973C158.54 78.9731 159 79.4329 159 80.0001C159 80.5673 158.54 81.027 157.973 81.027H153.833C153.266 81.027 152.806 80.5673 152.806 80.0001ZM161.085 80.0001C161.085 79.4329 161.545 78.9731 162.112 78.9731H166.252C166.819 78.9731 167.279 79.4329 167.279 80.0001C167.279 80.5673 166.819 81.027 166.252 81.027H162.112C161.545 81.027 161.085 80.5673 161.085 80.0001ZM169.364 80.0001C169.364 79.4329 169.824 78.9731 170.391 78.9731H174.531C175.098 78.9731 175.558 79.4329 175.558 80.0001C175.558 80.5673 175.098 81.027 174.531 81.027H170.391C169.824 81.027 169.364 80.5673 169.364 80.0001ZM177.643 80.0001C177.643 79.4329 178.103 78.9731 178.67 78.9731H182.81C183.377 78.9731 183.837 79.4329 183.837 80.0001C183.837 80.5673 183.377 81.027 182.81 81.027H178.67C178.103 81.027 177.643 80.5673 177.643 80.0001ZM185.922 80.0001C185.922 79.4329 186.382 78.9731 186.949 78.9731H189.019C189.586 78.9731 190.046 79.4329 190.046 80.0001C190.046 80.5673 189.586 81.027 189.019 81.027H186.949C186.382 81.027 185.922 80.5673 185.922 80.0001Z" fill="#A91255"/>
<path fill-rule="evenodd" clip-rule="evenodd" d="M275.473 80.0001C275.473 79.4329 275.932 78.9731 276.5 78.9731H278.494C279.062 78.9731 279.521 79.4329 279.521 80.0001C279.521 80.5673 279.062 81.027 278.494 81.027H276.5C275.932 81.027 275.473 80.5673 275.473 80.0001ZM281.457 80.0001C281.457 79.4329 281.917 78.9731 282.484 78.9731H286.473C287.041 78.9731 287.5 79.4329 287.5 80.0001C287.5 80.5673 287.041 81.027 286.473 81.027H282.484C281.917 81.027 281.457 80.5673 281.457 80.0001ZM289.436 80.0001C289.436 79.4329 289.896 78.9731 290.463 78.9731H294.452C295.02 78.9731 295.479 79.4329 295.479 80.0001C295.479 80.5673 295.02 81.027 294.452 81.027H290.463C289.896 81.027 289.436 80.5673 289.436 80.0001ZM297.415 80.0001C297.415 79.4329 297.875 78.9731 298.442 78.9731H302.431C302.999 78.9731 303.458 79.4329 303.458 80.0001C303.458 80.5673 302.999 81.027 302.431 81.027H298.442C297.875 81.027 297.415 80.5673 297.415 80.0001ZM305.394 80.0001C305.394 79.4329 305.854 78.9731 306.421 78.9731H310.41C310.978 78.9731 311.437 79.4329 311.437 80.0001C311.437 80.5673 310.978 81.027 310.41 81.027H306.421C305.854 81.027 305.394 80.5673 305.394 80.0001ZM313.373 80.0001C313.373 79.4329 313.833 78.9731 314.4 78.9731H318.389C318.957 78.9731 319.416 79.4329 319.416 80.0001C319.416 80.5673 318.957 81.027 318.389 81.027H314.4C313.833 81.027 313.373 80.5673 313.373 80.0001ZM321.352 80.0001C321.352 79.4329 321.812 78.9731 322.379 78.9731H326.368C326.936 78.9731 327.395 79.4329 327.395 80.0001C327.395 80.5673 326.936 81.027 326.368 81.027H322.379C321.812 81.027 321.352 80.5673 321.352 80.0001ZM329.331 80.0001C329.331 79.4329 329.791 78.9731 330.358 78.9731H334.347C334.915 78.9731 335.374 79.4329 335.374 80.0001C335.374 80.5673 334.915 81.027 334.347 81.027H330.358C329.791 81.027 329.331 80.5673 329.331 80.0001ZM337.31 80.0001C337.31 79.4329 337.77 78.9731 338.337 78.9731H342.326C342.894 78.9731 343.353 79.4329 343.353 80.0001C343.353 80.5673 342.894 81.027 342.326 81.027H338.337C337.77 81.027 337.31 80.5673 337.31 80.0001ZM345.289 80.0001C345.289 79.4329 345.749 78.9731 346.316 78.9731H350.305C350.873 78.9731 351.332 79.4329 351.332 80.0001C351.332 80.5673 350.873 81.027 350.305 81.027H346.316C345.749 81.027 345.289 80.5673 345.289 80.0001ZM353.268 80.0001C353.268 79.4329 353.728 78.9731 354.295 78.9731H356.29C356.857 78.9731 357.317 79.4329 357.317 80.0001C357.317 80.5673 356.857 81.027 356.29 81.027H354.295C353.728 81.027 353.268 80.5673 353.268 80.0001Z" fill="#A91255"/>
<path fill-rule="evenodd" clip-rule="evenodd" d="M16.0723 80.0001C16.0723 79.4329 16.532 78.9731 17.0992 78.9731H18.7192C19.2864 78.9731 19.7462 79.4329 19.7462 80.0001C19.7462 80.5673 19.2864 81.027 18.7192 81.027H17.0992C16.532 81.027 16.0723 80.5673 16.0723 80.0001ZM20.9323 80.0001C20.9323 79.4329 21.392 78.9731 21.9592 78.9731H25.1992C25.7664 78.9731 26.2262 79.4329 26.2262 80.0001C26.2262 80.5673 25.7664 81.027 25.1992 81.027H21.9592C21.392 81.027 20.9323 80.5673 20.9323 80.0001ZM27.4123 80.0001C27.4123 79.4329 27.872 78.9731 28.4392 78.9731H30.0592C30.6264 78.9731 31.0862 79.4329 31.0862 80.0001C31.0862 80.5673 30.6264 81.027 30.0592 81.027H28.4392C27.872 81.027 27.4123 80.5673 27.4123 80.0001Z" fill="#EFB4CB"/>
<path fill-rule="evenodd" clip-rule="evenodd" d="M75.2725 80.0001C75.2725 79.4329 75.7322 78.9731 76.2994 78.9731H78.0394C78.6066 78.9731 79.0664 79.4329 79.0664 80.0001C79.0664 80.5673 78.6066 81.027 78.0394 81.027H76.2994C75.7322 81.027 75.2725 80.5673 75.2725 80.0001ZM80.4925 80.0001C80.4925 79.4329 80.9522 78.9731 81.5194 78.9731H83.2594C83.8266 78.9731 84.2864 79.4329 84.2864 80.0001C84.2864 80.5673 83.8266 81.027 83.2594 81.027H81.5194C80.9522 81.027 80.4925 80.5673 80.4925 80.0001Z" fill="#EFB4CB"/>
<path d="M72.1235 85H69.9643V84.2349C69.6583 84.541 69.3409 84.762 69.0122 84.898C68.6949 85.0227 68.2868 85.085 67.7881 85.085C66.8021 85.085 66.0483 84.8243 65.527 84.3029C65.0396 83.7929 64.7959 83.1299 64.7959 82.3138C64.7959 81.5657 65.0566 80.9537 65.578 80.4776C66.0993 79.9903 66.8587 79.7466 67.8561 79.7466H69.9133V79.3045C69.9133 78.8172 69.783 78.4658 69.5223 78.2505C69.2616 78.0238 68.8422 77.9104 68.2642 77.9104C67.5728 77.9104 67.0061 78.1655 66.564 78.6755L65.1699 77.2984C65.6006 76.8223 66.0483 76.4937 66.513 76.3123C66.9891 76.131 67.6011 76.0403 68.3492 76.0403C70.8654 76.0403 72.1235 77.083 72.1235 79.1685V85ZM69.9133 81.7357V81.2597H68.2302C67.3574 81.2597 66.9211 81.5997 66.9211 82.2798C66.9211 82.9485 67.3688 83.2829 68.2642 83.2829C68.8422 83.2829 69.2786 83.1412 69.5733 82.8578C69.8 82.6651 69.9133 82.2911 69.9133 81.7357Z" fill="#E2001A"/>
<path d="M58.6539 84.9998H56.4268V76.1421H58.6539V84.9998ZM64.3664 84.9998H61.7142L58.6709 80.3584L61.5782 76.1421H64.1624L61.0341 80.2734L64.3664 84.9998Z" fill="#E2001A"/>
<path d="M53.964 84.9998H51.7538V81.8886C50.8584 82.0472 50.0537 82.1266 49.3396 82.1266C48.6142 82.1266 48.0192 81.9112 47.5545 81.4805C47.0898 81.0498 46.8574 80.4604 46.8574 79.7124V76.1421H49.0676V79.1003C49.0676 79.8144 49.4303 80.1714 50.1557 80.1714C50.439 80.1714 50.9718 80.1204 51.7538 80.0184V76.1421H53.964V84.9998Z" fill="#E2001A"/>
<path d="M44.6407 84.9999H42.4305V76.3972H44.6407V84.9999ZM44.6577 74.629H42.3965V72.8269H44.6577V74.629Z" fill="#E2001A"/>
<path d="M40.674 75.0032H37.5118V85H35.1486V75.0032H31.9863V72.895H40.674V75.0032Z" fill="#E2001A"/>
<path d="M271.747 80.1204C272.291 80.6418 272.563 81.3218 272.563 82.1606C272.563 82.9993 272.285 83.685 271.73 84.2177C271.186 84.7391 270.483 84.9998 269.622 84.9998H265.354V76.1421H267.582V79.3383H269.622C270.495 79.3383 271.203 79.599 271.747 80.1204ZM269.214 81.0725H267.514V83.2657H269.214C269.565 83.2657 269.843 83.1693 270.047 82.9766C270.262 82.7726 270.37 82.5006 270.37 82.1606C270.37 81.8319 270.262 81.5712 270.047 81.3785C269.843 81.1745 269.565 81.0725 269.214 81.0725Z" fill="#E2001A"/>
<path d="M263.943 78.0972H261.393V84.9998H259.166V78.0972H256.564V76.1421H263.943V78.0972Z" fill="#E2001A"/>
<path d="M255.893 83.8949C255.123 84.6996 254.148 85.102 252.969 85.102C252.595 85.102 252.232 85.0623 251.881 84.983C251.53 84.8923 251.173 84.745 250.81 84.541C250.459 84.3256 250.153 84.0536 249.892 83.7249C249.631 83.3849 249.416 82.9485 249.246 82.4158C249.087 81.8718 249.008 81.254 249.008 80.5626C249.008 79.8713 249.087 79.2592 249.246 78.7265C249.416 78.1825 249.631 77.7461 249.892 77.4174C250.153 77.0887 250.459 76.8167 250.81 76.6013C251.173 76.386 251.53 76.2386 251.881 76.1593C252.232 76.08 252.595 76.0403 252.969 76.0403C254.159 76.0403 255.134 76.437 255.893 77.2304L254.397 78.7265C253.967 78.2618 253.491 78.0294 252.969 78.0294C252.448 78.0294 252.028 78.2221 251.711 78.6075C251.382 79.0155 251.218 79.6672 251.218 80.5626C251.218 81.4694 251.382 82.1268 251.711 82.5348C252.028 82.9202 252.448 83.1129 252.969 83.1129C253.491 83.1129 253.967 82.8805 254.397 82.4158L255.893 83.8949Z" fill="#E2001A"/>
<path d="M246.978 84.9999H244.767V76.3972H246.978V84.9999ZM246.995 74.629H244.733V72.8269H246.995V74.629Z" fill="#E2001A"/>
<path d="M242.298 84.9998H240.071V81.4465H237.232V84.9998H235.005V76.1421H237.232V79.4914H240.071V76.1421H242.298V84.9998Z" fill="#E2001A"/>
<path d="M233.592 78.0972H231.042V84.9998H228.815V78.0972H226.214V76.1421H233.592V78.0972Z" fill="#E2001A"/>
<path d="M224.796 84.9999H222.586V76.3972H224.796V84.9999ZM224.813 74.629H222.552V72.8269H224.813V74.629Z" fill="#E2001A"/>
<path d="M221.131 78.0972H217.476V84.9998H215.266V76.1421H221.131V78.0972Z" fill="#E2001A"/>
<path d="M212.831 85H210.672V84.2349C210.366 84.541 210.049 84.762 209.72 84.898C209.403 85.0227 208.995 85.085 208.496 85.085C207.51 85.085 206.756 84.8243 206.235 84.3029C205.748 83.7929 205.504 83.1299 205.504 82.3138C205.504 81.5657 205.765 80.9537 206.286 80.4776C206.807 79.9903 207.567 79.7466 208.564 79.7466H210.621V79.3045C210.621 78.8172 210.491 78.4658 210.23 78.2505C209.97 78.0238 209.55 77.9104 208.972 77.9104C208.281 77.9104 207.714 78.1655 207.272 78.6755L205.878 77.2984C206.309 76.8223 206.756 76.4937 207.221 76.3123C207.697 76.131 208.309 76.0403 209.057 76.0403C211.573 76.0403 212.831 77.083 212.831 79.1685V85ZM210.621 81.7357V81.2597H208.938C208.065 81.2597 207.629 81.5997 207.629 82.2798C207.629 82.9485 208.077 83.2829 208.972 83.2829C209.55 83.2829 209.987 83.1412 210.281 82.8578C210.508 82.6651 210.621 82.2911 210.621 81.7357Z" fill="#E2001A"/>
<path d="M202.219 78.7945C202.604 78.9985 202.91 79.2139 203.137 79.4405C203.636 79.9733 203.885 80.6703 203.885 81.5317C203.885 82.5971 203.551 83.4415 202.882 84.0649C202.213 84.6883 201.312 85 200.179 85H195.112V72.895H199.975C201.119 72.895 202.026 73.1954 202.695 73.7961C203.375 74.3968 203.715 75.2072 203.715 76.2273C203.715 77.3834 203.216 78.2391 202.219 78.7945ZM197.475 77.7914H199.788C200.275 77.7914 200.655 77.6667 200.927 77.4174C201.21 77.168 201.352 76.828 201.352 76.3973C201.352 75.9666 201.21 75.6266 200.927 75.3772C200.655 75.1279 200.275 75.0032 199.788 75.0032H197.475V77.7914ZM197.475 82.8918H199.941C200.428 82.8918 200.813 82.7558 201.097 82.4838C201.38 82.2118 201.522 81.8491 201.522 81.3957C201.522 80.9423 201.38 80.5853 201.097 80.3246C200.813 80.0526 200.428 79.9166 199.941 79.9166H197.475V82.8918Z" fill="#E2001A"/>
<path d="M471.172 80.1034V77.9102H469.438C469.075 77.9102 468.786 78.0122 468.571 78.2163C468.367 78.4089 468.265 78.6753 468.265 79.0153C468.265 79.344 468.367 79.6104 468.571 79.8144C468.786 80.0071 469.075 80.1034 469.438 80.1034H471.172ZM468.486 84.9998H465.97L467.755 81.3785C467.245 81.1858 466.842 80.8741 466.548 80.4434C466.253 80.0127 466.106 79.5027 466.106 78.9133C466.106 78.1086 466.378 77.4455 466.922 76.9242C467.477 76.4028 468.186 76.1421 469.047 76.1421H473.348V84.9998H471.138V81.8545H469.948L468.486 84.9998Z" fill="#E2001A"/>
<path d="M464.246 84.9999H462.036V76.3972H464.246V84.9999ZM464.263 74.629H462.002V72.8269H464.263V74.629Z" fill="#E2001A"/>
<path d="M460.408 87.176H458.299V84.9998H451.924V76.1421H454.151V83.0446H456.99V76.1421H459.217V83.0446H460.408V87.176Z" fill="#E2001A"/>
<path d="M449.558 85H447.399V84.2349C447.093 84.541 446.776 84.762 446.447 84.898C446.129 85.0227 445.721 85.085 445.223 85.085C444.237 85.085 443.483 84.8243 442.962 84.3029C442.474 83.7929 442.23 83.1299 442.23 82.3138C442.23 81.5657 442.491 80.9537 443.013 80.4776C443.534 79.9903 444.293 79.7466 445.291 79.7466H447.348V79.3045C447.348 78.8172 447.218 78.4658 446.957 78.2505C446.696 78.0238 446.277 77.9104 445.699 77.9104C445.007 77.9104 444.441 78.1655 443.999 78.6755L442.604 77.2984C443.035 76.8223 443.483 76.4937 443.948 76.3123C444.424 76.131 445.036 76.0403 445.784 76.0403C448.3 76.0403 449.558 77.083 449.558 79.1685V85ZM447.348 81.7357V81.2597H445.665C444.792 81.2597 444.356 81.5997 444.356 82.2798C444.356 82.9485 444.803 83.2829 445.699 83.2829C446.277 83.2829 446.713 83.1412 447.008 82.8578C447.235 82.6651 447.348 82.2911 447.348 81.7357Z" fill="#E2001A"/>
<path d="M441.513 78.0972H438.963V84.9998H436.736V78.0972H434.135V76.1421H441.513V78.0972Z" fill="#E2001A"/>
<path d="M428.335 84.9998H426.107V76.1421H428.335V84.9998ZM434.047 84.9998H431.395L428.352 80.3584L431.259 76.1421H433.843L430.715 80.2734L434.047 84.9998Z" fill="#E2001A"/>
<path d="M423.724 85H421.565V84.2349C421.259 84.541 420.942 84.762 420.613 84.898C420.295 85.0227 419.887 85.085 419.389 85.085C418.403 85.085 417.649 84.8243 417.128 84.3029C416.64 83.7929 416.396 83.1299 416.396 82.3138C416.396 81.5657 416.657 80.9537 417.179 80.4776C417.7 79.9903 418.459 79.7466 419.457 79.7466H421.514V79.3045C421.514 78.8172 421.384 78.4658 421.123 78.2505C420.862 78.0238 420.443 77.9104 419.865 77.9104C419.173 77.9104 418.607 78.1655 418.165 78.6755L416.771 77.2984C417.201 76.8223 417.649 76.4937 418.114 76.3123C418.59 76.131 419.202 76.0403 419.95 76.0403C422.466 76.0403 423.724 77.083 423.724 79.1685V85ZM421.514 81.7357V81.2597H419.831C418.958 81.2597 418.522 81.5997 418.522 82.2798C418.522 82.9485 418.969 83.2829 419.865 83.2829C420.443 83.2829 420.879 83.1412 421.174 82.8578C421.401 82.6651 421.514 82.2911 421.514 81.7357Z" fill="#E2001A"/>
<path d="M414.364 85H412.001V75.0032H409.11V78.5225C409.11 80.1886 408.963 81.5034 408.668 82.4668C408.385 83.4189 407.977 84.0819 407.444 84.4559C406.923 84.8186 406.226 85 405.353 85H404.418V82.8918H404.758C405.087 82.8918 405.364 82.8352 405.591 82.7218C405.829 82.5971 406.044 82.3818 406.237 82.0758C406.441 81.7584 406.588 81.2937 406.679 80.6816C406.781 80.0696 406.832 79.3045 406.832 78.3865V72.895H414.364V85Z" fill="#E2001A"/>
<path d="M492.427 45.2403C492.427 45.8075 491.967 46.2673 491.4 46.2673C490.833 46.2673 490.373 45.8075 490.373 45.2403C490.373 44.6732 490.833 44.2134 491.4 44.2134C491.967 44.2134 492.427 44.6732 492.427 45.2403Z" fill="#A91255"/>
<path d="M492.427 56.9601C492.427 57.5272 491.967 57.987 491.4 57.987C490.833 57.987 490.373 57.5272 490.373 56.9601C490.373 56.3929 490.833 55.9331 491.4 55.9331C491.967 55.9331 492.427 56.3929 492.427 56.9601Z" fill="#A91255"/>
<path d="M497.427 45.2403C497.427 45.8075 496.967 46.2673 496.4 46.2673C495.833 46.2673 495.373 45.8075 495.373 45.2403C495.373 44.6732 495.833 44.2134 496.4 44.2134C496.967 44.2134 497.427 44.6732 497.427 45.2403Z" fill="#A91255"/>
<path d="M497.427 56.9601C497.427 57.5272 496.967 57.987 496.4 57.987C495.833 57.987 495.373 57.5272 495.373 56.9601C495.373 56.3929 495.833 55.9331 496.4 55.9331C496.967 55.9331 497.427 56.3929 497.427 56.9601Z" fill="#A91255"/>
<path d="M502.427 45.2403C502.427 45.8075 501.967 46.2673 501.4 46.2673C500.833 46.2673 500.373 45.8075 500.373 45.2403C500.373 44.6732 500.833 44.2134 501.4 44.2134C501.967 44.2134 502.427 44.6732 502.427 45.2403Z" fill="#A91255"/>
<path d="M502.427 56.9601C502.427 57.5272 501.967 57.987 501.4 57.987C500.833 57.987 500.373 57.5272 500.373 56.9601C500.373 56.3929 500.833 55.9331 501.4 55.9331C501.967 55.9331 502.427 56.3929 502.427 56.9601Z" fill="#A91255"/>
<path d="M256.082 19.0024V34.5347H253.443L250.149 26.9431V34.5347H247.051V19.0024H249.756L252.984 26.5941V19.0024H256.082Z" fill="#A91255"/>
<path d="M245.151 19.0024V21.7948H241.094V25.2415H244.584V28.0339H241.094V31.7424H245.151V34.5347H237.996V19.0024H245.151Z" fill="#A91255"/>
<path d="M236.098 19.0024V21.7948H232.04V25.2415H235.531V28.0339H232.04V31.7424H236.098V34.5347H228.942V19.0024H236.098Z" fill="#A91255"/>
<path d="M226.652 19.0024V30.3681C226.652 31.6115 226.238 32.6586 225.496 33.4222C224.667 34.2729 223.577 34.7092 222.268 34.7092C220.959 34.7092 219.868 34.2729 219.039 33.4222C218.297 32.6586 217.883 31.6115 217.883 30.3681V19.0024H220.981V30.2808C220.981 31.4588 221.439 31.9169 222.268 31.9169C223.097 31.9169 223.555 31.4588 223.555 30.2808V19.0024H226.652Z" fill="#A91255"/>
<path d="M211.484 18.8279C213.164 18.8279 214.189 19.526 214.887 20.3986C215.978 21.7293 216.043 23.7799 216.043 26.7685C216.043 29.1246 216 30.9134 215.454 32.2005L216.785 33.3349L215.389 35.0146L214.08 33.9239C213.447 34.382 212.619 34.7092 211.484 34.7092C209.804 34.7092 208.779 34.0111 208.081 33.1385C206.99 31.8078 206.925 29.7572 206.925 26.7685C206.925 23.7799 206.99 21.7293 208.081 20.3986C208.779 19.526 209.804 18.8279 211.484 18.8279ZM211.484 21.6202C210.917 21.6202 210.612 21.882 210.437 22.231C210.066 22.9509 210.023 24.8925 210.023 26.7685C210.023 28.6446 210.066 30.5862 210.437 31.3061C210.612 31.6551 210.917 31.9169 211.484 31.9169L211.702 31.8951L211.113 31.4151L212.509 29.7354L212.837 29.9972C212.924 29.1027 212.946 27.9247 212.946 26.7685C212.946 24.8925 212.902 22.9509 212.531 22.231C212.357 21.882 212.051 21.6202 211.484 21.6202Z" fill="#A91255"/>
<path d="M7 76C4.79348 76 3 77.7935 3 80C3 82.2065 4.79348 84 7 84C9.20652 84 11 82.2065 11 80C11 77.7935 9.20652 76 7 76Z" fill="#A91255"/>
<path d="M6.99507 73C3.133 73 0 76.1451 0 80C0 83.8648 3.14286 87 6.99507 87C10.8571 87 14 83.8549 14 80C14 76.1451 10.8571 73 6.99507 73ZM6.99507 84.9887C4.2463 84.9887 2.0197 82.7606 2.0197 80.0099C2.0197 77.2592 4.2463 75.031 6.99507 75.031C9.74384 75.031 11.9704 77.269 11.9704 80.0099C11.9704 82.7507 9.74384 84.9887 6.99507 84.9887Z" fill="#F7DBE7"/>
<path d="M155.42 11.77C155.32 11.83 155.23 11.9 155.12 11.92C155.07 11.93 155.04 11.93 155 11.95C154.89 12.01 154.79 12.08 154.68 12.14C154.47 12.25 154.29 12.4 154.1 12.53C153.97 12.63 153.84 12.71 153.7 12.79C153.65 12.82 153.6 12.85 153.55 12.88C153.51 12.9 153.44 12.94 153.41 12.97C153.5 12.95 153.58 12.88 153.67 12.88C153.67 12.88 153.57 13.04 153.56 13.05C153.52 13.09 153.48 13.14 153.44 13.17C153.42 13.19 153.39 13.2 153.36 13.21C153.31 13.23 153.26 13.23 153.21 13.27C153.15 13.32 153.1 13.39 153.04 13.43C152.97 13.48 152.9 13.52 152.84 13.58C152.67 13.74 152.49 13.88 152.31 14.03C152.16 14.16 151.97 14.25 151.83 14.4C151.73 14.51 151.65 14.63 151.58 14.76C151.54 14.83 151.5 14.91 151.45 14.97C151.43 15 151.39 15.01 151.37 15.04C151.34 15.08 151.32 15.14 151.28 15.19C151.18 15.31 151.11 15.44 151.01 15.57C150.83 15.82 150.65 16.06 150.47 16.31C150.41 16.39 150.37 16.46 150.3 16.53C150.22 16.6 150.19 16.69 150.13 16.76C150.04 16.87 149.89 16.93 149.79 17.01C149.94 16.92 150.11 16.87 150.25 16.78C150.35 16.72 150.48 16.64 150.61 16.62C150.59 16.71 150.5 16.78 150.44 16.83C150.35 16.91 150.26 17 150.18 17.08C150.11 17.15 150.05 17.22 149.97 17.28C149.92 17.32 149.85 17.34 149.81 17.38C149.94 17.43 150.08 17.34 150.2 17.32C150.2 17.36 150.09 17.45 150.06 17.48C150 17.53 149.92 17.58 149.86 17.63C149.81 17.67 149.76 17.69 149.71 17.73C149.66 17.77 149.62 17.83 149.58 17.88C149.47 18.02 149.34 18.16 149.21 18.28C149.21 18.22 149.34 18.18 149.38 18.15C149.54 18.06 149.69 17.97 149.85 17.89C149.93 17.85 150 17.79 150.08 17.75C150.11 17.73 150.14 17.72 150.17 17.7C150.19 17.69 150.21 17.69 150.22 17.68C150.1 17.78 150.02 17.91 149.92 18.01C149.87 18.06 149.81 18.1 149.76 18.16C149.72 18.2 149.68 18.23 149.64 18.26C149.56 18.32 149.47 18.36 149.38 18.42C149.34 18.45 149.3 18.47 149.26 18.49C149.2 18.52 149.16 18.56 149.1 18.6C149.07 18.62 149.03 18.63 149 18.66C149.01 18.66 149.02 18.66 149.03 18.66C149.07 18.65 149.1 18.65 149.14 18.65C149.21 18.65 149.29 18.64 149.36 18.65C149.37 18.67 149.35 18.7 149.34 18.72C149.34 18.73 149.31 18.78 149.31 18.78C149.32 18.81 149.38 18.79 149.4 18.79C149.43 18.79 149.58 18.77 149.6 18.8C149.57 18.84 149.55 18.88 149.53 18.91C149.47 18.99 149.4 19.06 149.32 19.11C149.25 19.16 149.16 19.18 149.12 19.26C149.11 19.29 149.1 19.31 149.08 19.34C149.07 19.35 149.06 19.37 149.04 19.38C148.95 19.46 148.85 19.53 148.76 19.6C148.64 19.7 148.54 19.81 148.43 19.91C148.35 19.99 148.28 20.1 148.17 20.16C148.33 20.06 148.48 19.92 148.66 19.86C148.76 19.82 148.9 19.76 149 19.75C149 19.75 148.93 19.87 148.92 19.88C148.87 19.94 148.8 19.98 148.74 20.04C148.7 20.07 148.67 20.11 148.63 20.13C148.58 20.15 148.53 20.15 148.48 20.17C148.34 20.23 148.23 20.36 148.12 20.47C148.05 20.53 148.01 20.61 147.94 20.68C147.85 20.77 147.75 20.84 147.65 20.91C147.51 21.01 147.35 21.09 147.18 21.15C147.09 21.18 147.01 21.2 146.92 21.23C146.87 21.25 146.79 21.3 146.73 21.3C146.84 21.31 146.97 21.29 147.07 21.27C147.19 21.25 147.32 21.24 147.43 21.21C147.48 21.2 147.52 21.19 147.56 21.18C147.68 21.16 147.8 21.11 147.92 21.06C148.02 21.02 148.12 20.98 148.2 20.93C148.11 21 148.02 21.08 147.94 21.16C147.88 21.22 147.8 21.25 147.74 21.3C147.69 21.34 147.67 21.38 147.61 21.42C147.58 21.44 147.55 21.45 147.51 21.47C147.42 21.52 147.34 21.55 147.25 21.6C147.33 21.6 147.44 21.62 147.52 21.6C147.57 21.59 147.61 21.55 147.66 21.57C147.67 21.65 147.46 21.74 147.39 21.77C147.29 21.82 147.21 21.89 147.11 21.92C147.01 21.96 146.92 22 146.83 22.04C146.71 22.08 146.59 22.13 146.51 22.23C146.59 22.27 146.74 22.2 146.82 22.19C146.89 22.18 146.97 22.18 147.04 22.17C147.15 22.15 147.25 22.15 147.35 22.14C147.24 22.2 147.12 22.25 147.01 22.32C146.94 22.36 146.87 22.41 146.79 22.45C146.75 22.47 146.71 22.49 146.67 22.52C146.72 22.48 146.78 22.49 146.83 22.49C146.88 22.49 146.93 22.46 146.98 22.46C146.8 22.71 146.48 22.71 146.21 22.8C146.15 22.82 146.09 22.84 146.02 22.84C145.97 22.84 145.94 22.85 145.91 22.86C145.82 22.88 145.72 22.87 145.63 22.87C145.67 22.91 145.74 22.9 145.79 22.9C145.89 22.9 145.99 22.9 146.09 22.9C146.21 22.9 146.34 22.9 146.46 22.9C146.55 22.9 146.64 22.88 146.73 22.87C146.82 22.85 146.92 22.81 147 22.81C146.86 22.93 146.67 23.01 146.5 23.08C146.43 23.11 146.38 23.16 146.32 23.2C146.26 23.23 146.19 23.28 146.12 23.31C146.2 23.28 146.32 23.21 146.41 23.22C146.36 23.28 146.25 23.3 146.18 23.33C146.12 23.36 146.06 23.39 146 23.41C145.88 23.44 145.76 23.49 145.64 23.5C145.58 23.5 145.54 23.52 145.48 23.53C145.43 23.54 145.38 23.53 145.33 23.54C145.22 23.56 145.13 23.56 145.02 23.56C145.25 23.56 145.47 23.56 145.7 23.56C145.84 23.56 145.99 23.56 146.13 23.56C146.2 23.56 146.26 23.55 146.33 23.54C146.38 23.53 146.44 23.51 146.49 23.53C146.47 23.52 146.35 23.61 146.33 23.62C146.28 23.65 146.22 23.69 146.16 23.71C146.13 23.72 146.11 23.72 146.08 23.73C146.02 23.75 145.96 23.77 145.9 23.79C145.78 23.82 145.65 23.83 145.53 23.83C145.27 23.84 145.01 23.81 144.75 23.79C144.49 23.78 144.22 23.78 143.98 23.86C144.5 23.94 145.01 24.02 145.53 24.1C145.51 24.1 145.47 24.12 145.45 24.13C145.42 24.14 145.38 24.15 145.35 24.16C145.29 24.18 145.22 24.2 145.16 24.22C145.03 24.26 144.89 24.28 144.76 24.31C144.63 24.33 144.49 24.35 144.36 24.36C144.2 24.37 144.03 24.36 143.87 24.38C143.73 24.4 143.58 24.35 143.44 24.32C143.38 24.31 143.31 24.31 143.26 24.28C143.33 24.32 143.39 24.37 143.47 24.4C143.55 24.43 143.63 24.48 143.71 24.48C143.75 24.48 143.79 24.49 143.83 24.5C143.93 24.52 144.03 24.54 144.13 24.55C144.33 24.58 144.54 24.58 144.74 24.57C144.36 24.67 143.95 24.68 143.57 24.6C143.7 24.69 143.83 24.78 143.96 24.86C143.95 24.85 143.89 24.87 143.87 24.88C143.84 24.89 143.8 24.89 143.77 24.89C143.7 24.9 143.63 24.9 143.56 24.9C143.49 24.9 143.42 24.9 143.35 24.9C143.32 24.9 143.28 24.89 143.25 24.89C143.19 24.88 143.14 24.87 143.08 24.86C143.02 24.85 142.96 24.87 142.91 24.86C142.87 24.85 142.82 24.84 142.79 24.83C142.73 24.81 142.71 24.78 142.64 24.77C142.54 24.76 142.46 24.75 142.38 24.68C142.36 24.8 142.6 24.92 142.68 24.98C142.72 25.02 142.76 25.06 142.8 25.1C142.82 25.12 142.86 25.14 142.88 25.16C142.85 25.19 142.79 25.18 142.75 25.18C142.64 25.18 142.53 25.18 142.41 25.18C142.31 25.18 142.24 25.17 142.14 25.15C142.02 25.13 141.9 25.1 141.78 25.08C141.68 25.06 141.54 25.03 141.44 25.03C141.46 25.06 141.51 25.07 141.54 25.08C141.58 25.1 141.62 25.12 141.66 25.15C141.72 25.19 141.79 25.24 141.8 25.32C141.77 25.33 141.74 25.32 141.72 25.3C141.61 25.26 141.49 25.23 141.38 25.19C141.24 25.15 141.1 25.09 140.95 25.07C140.93 25.12 140.99 25.24 140.99 25.29C141 25.34 141 25.39 140.99 25.44C140.96 25.59 140.92 25.66 140.75 25.68C140.46 25.71 140.24 25.52 140.02 25.37C139.97 25.48 140.1 25.58 140.15 25.66C140.17 25.69 140.25 25.75 140.26 25.79C140.2 25.82 140.09 25.8 140.03 25.8C139.94 25.8 139.84 25.8 139.75 25.8C139.63 25.8 139.46 25.77 139.34 25.81C139.37 25.88 139.51 25.94 139.5 26.02C139.43 26.05 139.37 25.99 139.3 25.99C139.26 25.99 139.24 26.02 139.19 26.03C139.17 26.1 139.28 26.12 139.22 26.19C139.2 26.21 139.18 26.22 139.16 26.23C139.13 26.25 139.11 26.27 139.09 26.29C138.98 26.37 138.77 26.31 138.64 26.34C138.59 26.35 138.55 26.37 138.5 26.37C138.47 26.37 138.43 26.37 138.4 26.37C138.28 26.35 138.08 26.32 137.98 26.25C138 26.34 138.11 26.4 138.17 26.46C138.2 26.49 138.23 26.52 138.26 26.55C138.29 26.58 138.36 26.64 138.36 26.69C138.31 26.72 138.21 26.72 138.16 26.7C138.09 26.67 138.03 26.64 137.98 26.6C137.93 26.56 137.88 26.5 137.87 26.44C137.85 26.44 137.86 26.48 137.86 26.49C137.85 26.53 137.85 26.56 137.85 26.6C137.85 26.69 137.85 26.79 137.84 26.88C137.83 26.95 137.85 27.02 137.85 27.1C137.85 27.14 137.86 27.19 137.87 27.23C137.88 27.26 137.89 27.28 137.89 27.31C137.84 27.28 137.79 27.22 137.75 27.18C137.74 27.16 137.72 27.12 137.7 27.11C137.69 27.16 137.71 27.23 137.72 27.27C137.75 27.39 137.84 27.48 137.87 27.6C137.89 27.66 137.93 27.72 137.96 27.77C137.98 27.8 137.99 27.85 138.02 27.87C138 27.86 137.98 27.85 137.97 27.84C137.94 27.82 137.92 27.8 137.9 27.78C137.87 27.76 137.84 27.75 137.81 27.73C137.8 27.72 137.78 27.7 137.76 27.7C137.76 27.72 137.8 27.73 137.81 27.75C137.85 27.79 137.87 27.83 137.91 27.87C137.96 27.93 138.01 28 138.07 28.05C138.13 28.11 138.21 28.16 138.27 28.22C138.31 28.25 138.35 28.29 138.38 28.33C138.41 28.38 138.43 28.44 138.45 28.49C138.41 28.52 138.3 28.47 138.26 28.45C138.22 28.43 138.17 28.41 138.13 28.39C138.09 28.37 138.06 28.36 138.03 28.34C137.99 28.31 137.95 28.31 137.91 28.29C137.95 28.31 137.96 28.38 137.99 28.41C138.1 28.57 138.23 28.71 138.36 28.86C138.38 28.88 138.4 28.91 138.41 28.94C138.43 28.98 138.44 29.03 138.47 29.07C138.51 29.13 138.58 29.17 138.65 29.21C138.73 29.25 138.8 29.3 138.88 29.34C138.93 29.37 138.98 29.4 139.03 29.44C139.09 29.47 139.14 29.51 139.19 29.54C139.27 29.59 139.35 29.64 139.43 29.68C139.51 29.72 139.63 29.75 139.69 29.81C139.61 29.83 139.51 29.83 139.42 29.83C139.35 29.83 139.28 29.83 139.21 29.83C139.22 29.84 139.24 29.85 139.26 29.86C139.33 29.89 139.4 29.93 139.46 29.96C139.56 30.01 139.66 30.06 139.76 30.1C139.86 30.14 139.94 30.16 140.05 30.18C140.16 30.2 140.27 30.22 140.39 30.21C140.31 30.23 140.25 30.24 140.17 30.24C140.07 30.24 139.96 30.26 139.86 30.26C139.91 30.26 139.96 30.28 140 30.29C140.1 30.31 140.21 30.33 140.31 30.34C140.49 30.36 140.66 30.38 140.84 30.38C141 30.38 141.17 30.38 141.32 30.32C141.42 30.29 141.52 30.26 141.61 30.21C141.56 30.28 141.42 30.29 141.34 30.33C141.25 30.37 141.15 30.38 141.05 30.42C140.97 30.45 140.89 30.46 140.82 30.5C140.83 30.5 140.85 30.5 140.87 30.5C140.93 30.5 140.99 30.51 141.05 30.51C141.18 30.51 141.3 30.49 141.43 30.49C141.58 30.49 141.73 30.49 141.89 30.47C142.01 30.45 142.13 30.41 142.25 30.4C142.5 30.36 142.75 30.33 142.98 30.24C143.07 30.21 143.16 30.17 143.25 30.14C143.3 30.12 143.37 30.08 143.42 30.09C143.4 30.11 143.37 30.11 143.34 30.12C143.31 30.13 143.28 30.16 143.24 30.17C143.21 30.18 143.17 30.2 143.14 30.21C143.13 30.22 143.12 30.23 143.1 30.24C143.06 30.26 143.02 30.27 142.99 30.29C142.89 30.35 142.8 30.42 142.71 30.48C142.67 30.5 142.48 30.58 142.49 30.63C142.53 30.63 142.62 30.59 142.65 30.57C142.81 30.51 142.96 30.45 143.12 30.41C143.18 30.4 143.23 30.38 143.29 30.36C143.33 30.35 143.37 30.34 143.41 30.33C143.46 30.32 143.5 30.3 143.54 30.28C143.61 30.25 143.69 30.23 143.77 30.2C143.82 30.18 143.87 30.15 143.92 30.12C143.98 30.09 144.05 30.06 144.11 30.03C144.14 30.02 144.19 30 144.22 29.98C144.21 30 144.19 30.02 144.17 30.04C144.15 30.07 144.13 30.1 144.1 30.12C144.05 30.16 143.99 30.2 143.94 30.24C143.81 30.36 143.62 30.43 143.53 30.58C143.56 30.56 143.59 30.54 143.62 30.53C143.7 30.49 143.77 30.43 143.85 30.39C144.01 30.31 144.16 30.24 144.3 30.15C144.38 30.09 144.49 30.05 144.59 30.02C144.66 30 144.72 29.98 144.79 29.96C144.82 29.95 144.87 29.93 144.88 29.96C144.89 29.99 144.86 30.04 144.85 30.07C144.82 30.15 144.78 30.22 144.73 30.3C144.68 30.39 144.59 30.53 144.6 30.64C144.59 30.61 144.62 30.59 144.64 30.57C144.68 30.54 144.7 30.5 144.73 30.46C144.79 30.4 144.88 30.32 144.96 30.29C145.08 30.24 145.2 30.17 145.32 30.12C145.45 30.06 145.58 29.99 145.71 29.92C145.8 29.87 145.89 29.84 145.97 29.78C146 29.76 146.07 29.69 146.11 29.69C146.11 29.71 146.08 29.74 146.07 29.76C146.05 29.79 146.03 29.82 146.01 29.85C145.97 29.91 145.93 29.97 145.9 30.03C145.86 30.1 145.79 30.17 145.74 30.23C145.72 30.25 145.7 30.28 145.69 30.31C145.67 30.34 145.64 30.38 145.64 30.42C145.7 30.46 145.82 30.3 145.85 30.26C145.92 30.19 145.99 30.12 146.05 30.05C146.19 29.88 146.31 29.71 146.45 29.53C146.51 29.46 146.57 29.39 146.63 29.32C146.68 29.26 146.72 29.2 146.76 29.14C146.83 29.06 146.91 28.99 146.97 28.9C147 28.86 147.03 28.8 147.08 28.78C147.06 28.8 147.06 28.84 147.05 28.86C147.03 28.92 147.01 28.97 146.98 29.03C146.94 29.1 146.9 29.16 146.86 29.23C146.82 29.32 146.75 29.4 146.71 29.49C146.68 29.56 146.65 29.63 146.63 29.7C146.76 29.62 146.85 29.48 146.96 29.38C147.18 29.17 147.39 28.93 147.63 28.75C147.58 28.79 147.58 28.83 147.55 28.87C147.53 28.9 147.51 28.92 147.5 28.94C147.48 28.98 147.46 29.03 147.44 29.07C147.43 29.1 147.43 29.12 147.43 29.15C147.43 29.17 147.42 29.19 147.42 29.22C147.42 29.25 147.42 29.27 147.42 29.3C147.42 29.32 147.41 29.34 147.41 29.36C147.43 29.35 147.43 29.3 147.44 29.27C147.46 29.23 147.47 29.19 147.49 29.15C147.51 29.12 147.54 29.1 147.56 29.07C147.57 29.05 147.58 29.04 147.6 29.02C147.61 29.01 147.62 28.99 147.63 28.98C147.66 28.94 147.71 28.91 147.74 28.87C147.77 28.83 147.81 28.8 147.85 28.77C147.93 28.72 148 28.67 148.08 28.62C148.1 28.6 148.27 28.48 148.25 28.57C148.25 28.59 148.23 28.6 148.23 28.62C148.22 28.64 148.22 28.66 148.2 28.68C148.18 28.71 148.17 28.75 148.16 28.78C148.14 28.81 148.13 28.84 148.12 28.87C148.12 28.9 148.11 28.93 148.11 28.97C148.11 29 148.11 29.03 148.11 29.06C148.11 29.08 148.11 29.1 148.11 29.12C148.11 29.14 148.1 29.15 148.1 29.16C148.1 29.14 148.11 29.12 148.11 29.1C148.11 29.08 148.12 29.06 148.13 29.04C148.14 29.02 148.15 28.99 148.16 28.96C148.18 28.92 148.23 28.88 148.26 28.84C148.29 28.81 148.32 28.78 148.34 28.75C148.36 28.73 148.39 28.71 148.4 28.68C148.43 28.63 148.47 28.58 148.5 28.53C148.52 28.5 148.53 28.47 148.54 28.45C148.56 28.42 148.58 28.39 148.6 28.36C148.64 28.31 148.68 28.25 148.72 28.2C148.74 28.17 148.77 28.14 148.8 28.11C148.83 28.08 148.87 28.05 148.91 28.02C148.94 28 148.96 27.97 149 27.96C149.02 27.95 149.05 27.95 149.07 27.97C149.08 27.98 149.08 27.98 149.09 27.99C149.1 28.04 149.07 28.11 149.05 28.15C149.03 28.2 149.01 28.25 148.99 28.3C148.97 28.35 148.94 28.39 148.93 28.43C148.9 28.51 148.87 28.58 148.84 28.66C148.83 28.7 148.82 28.75 148.81 28.8C148.81 28.83 148.8 28.87 148.78 28.89C148.79 28.87 148.79 28.86 148.79 28.85C148.8 28.81 148.83 28.78 148.84 28.75C148.88 28.64 148.94 28.56 149 28.46C149.03 28.4 149.08 28.35 149.12 28.3C149.14 28.27 149.15 28.24 149.17 28.22C149.18 28.2 149.2 28.19 149.21 28.18C149.21 28.17 149.21 28.16 149.22 28.15C149.23 28.13 149.26 28.12 149.27 28.1C149.29 28.07 149.32 28.04 149.34 28.01C149.36 27.99 149.38 27.98 149.4 27.96C149.42 27.94 149.43 27.91 149.44 27.89C149.46 27.84 149.5 27.79 149.53 27.75C149.55 27.72 149.56 27.68 149.57 27.65C149.59 27.62 149.6 27.58 149.61 27.55C149.64 27.48 149.66 27.42 149.69 27.35C149.72 27.29 149.76 27.21 149.8 27.16C149.84 27.11 149.88 27.05 149.93 27C149.95 26.98 149.97 26.96 149.99 26.94C150 26.93 150.02 26.92 150.04 26.9C150.02 26.91 150.02 26.93 150.01 26.94C150 26.96 149.98 26.98 149.97 27C149.95 27.04 149.93 27.08 149.92 27.12C149.89 27.19 149.84 27.25 149.83 27.33C149.83 27.36 149.83 27.38 149.84 27.4C149.85 27.49 149.81 27.58 149.81 27.66C149.81 27.7 149.81 27.73 149.81 27.77C149.81 27.8 149.82 27.82 149.82 27.85C149.82 27.88 149.8 27.93 149.83 27.96C149.86 27.88 149.87 27.78 149.9 27.7C149.92 27.65 149.93 27.6 149.95 27.56C149.97 27.51 150.01 27.47 150.03 27.42C150.04 27.4 150.05 27.39 150.06 27.37C150.1 27.31 150.15 27.24 150.18 27.18C150.19 27.16 150.19 27.14 150.2 27.12C150.23 27.06 150.28 27.01 150.32 26.96C150.37 26.9 150.4 26.82 150.43 26.75C150.47 26.65 150.52 26.55 150.56 26.45C150.58 26.4 150.6 26.35 150.62 26.3C150.65 26.25 150.65 26.21 150.7 26.18C150.73 26.16 150.76 26.13 150.77 26.09C150.78 26.07 150.79 26.02 150.82 26.01C150.84 26.07 150.81 26.14 150.8 26.2C150.79 26.27 150.78 26.33 150.77 26.4C150.76 26.43 150.76 26.47 150.75 26.5C150.74 26.54 150.75 26.58 150.75 26.62C150.74 26.67 150.74 26.7 150.74 26.75C150.74 26.78 150.71 26.83 150.73 26.87C150.76 26.86 150.76 26.81 150.77 26.79C150.77 26.78 150.78 26.77 150.78 26.75C150.78 26.73 150.79 26.71 150.79 26.69C150.8 26.64 150.82 26.59 150.84 26.54C150.87 26.46 150.89 26.37 150.93 26.29C150.96 26.22 151.01 26.16 151.04 26.09C151.05 26.06 151.07 26.04 151.09 26.02C151.11 26 151.11 25.97 151.13 25.94C151.16 25.87 151.18 25.8 151.19 25.73C151.19 25.7 151.19 25.67 151.21 25.64C151.23 25.59 151.26 25.54 151.27 25.5C151.28 25.46 151.3 25.44 151.35 25.43C151.36 25.49 151.34 25.54 151.34 25.6C151.34 25.66 151.32 25.73 151.31 25.79C151.29 25.87 151.25 25.95 151.25 26.03C151.25 26.08 151.24 26.13 151.24 26.17C151.24 26.19 151.23 26.23 151.25 26.24C151.26 26.22 151.25 26.21 151.25 26.19C151.25 26.17 151.26 26.16 151.26 26.14C151.27 26.08 151.29 26.03 151.31 25.97C151.33 25.92 151.35 25.87 151.38 25.83C151.44 25.75 151.49 25.67 151.54 25.57C151.56 25.53 151.57 25.49 151.59 25.45C151.61 25.42 151.63 25.36 151.64 25.33C151.65 25.26 151.66 25.2 151.69 25.13C151.7 25.09 151.72 25.06 151.73 25.02C151.74 25 151.73 24.96 151.76 24.95C151.78 25.01 151.75 25.11 151.75 25.17C151.75 25.23 151.74 25.29 151.74 25.36C151.74 25.4 151.72 25.45 151.74 25.48C151.82 25.47 151.82 25.34 151.83 25.29C151.87 25.18 151.85 25.07 151.88 24.97C151.89 24.93 151.9 24.9 151.9 24.86C151.9 24.77 151.9 24.67 151.94 24.58C151.97 24.51 151.97 24.43 151.99 24.36C152.02 24.27 152.07 24.17 152.12 24.09C152.13 24.12 152.13 24.18 152.13 24.22C152.14 24.27 152.14 24.31 152.15 24.36C152.16 24.43 152.16 24.5 152.16 24.57C152.15 24.64 152.15 24.71 152.14 24.78C152.14 24.83 152.13 24.88 152.13 24.94C152.13 24.97 152.15 24.99 152.15 25.02C152.16 24.78 152.24 24.56 152.29 24.33C152.3 24.26 152.31 24.2 152.33 24.13C152.34 24.09 152.36 24.05 152.36 24C152.36 23.94 152.37 23.89 152.37 23.83C152.38 23.72 152.41 23.61 152.41 23.5C152.41 23.64 152.46 23.77 152.54 23.89C152.54 23.83 152.55 23.76 152.54 23.7C152.54 23.68 152.54 23.66 152.55 23.64C152.56 23.59 152.58 23.53 152.6 23.48C152.62 23.43 152.64 23.37 152.66 23.32C152.67 23.29 152.68 23.27 152.7 23.24C152.71 23.23 152.71 23.22 152.72 23.2C152.72 23.19 152.74 23.17 152.74 23.17L152.81 23.35C152.83 23.13 152.9 22.91 153.02 22.72C153.02 22.77 153.01 22.81 153.01 22.86C153.05 22.8 153.08 22.73 153.12 22.67C153.13 22.79 153.1 22.91 153.04 23.02C153.24 22.79 153.24 22.48 153.19 22.2C153.18 22.17 153.18 22.13 153.2 22.1C153.22 22.08 153.26 22.06 153.29 22.08C153.3 22.09 153.3 22.09 153.31 22.1C153.33 22.13 153.36 22.16 153.38 22.19" fill="#A91255"/>
<path d="M154.48 12.15C154.36 12.2 154.23 12.26 154.13 12.33C154.18 12.35 154.3 12.3 154.31 12.37C154.18 12.51 154 12.61 153.83 12.7C153.66 12.78 153.51 12.89 153.37 13.01C153.17 13.17 152.92 13.32 152.76 13.52C152.71 13.58 152.68 13.65 152.65 13.72C152.59 13.83 152.51 13.93 152.44 14.04C152.12 14.52 151.81 15.05 151.59 15.58C151.34 16.18 151.02 16.75 150.84 17.37C150.5 18.87 150.31 20.18 151.09 22.37C151.09 22.18 151.1 21.99 151.09 21.81C151.09 21.84 151.11 21.88 151.12 21.91C151.13 21.95 151.15 21.99 151.16 22.03C151.19 22.11 151.23 22.18 151.27 22.26C151.3 22.31 151.33 22.37 151.37 22.42C151.41 22.46 151.42 22.52 151.43 22.57C151.47 22.71 151.53 22.84 151.59 22.97L151.62 22.88C151.71 23.01 151.78 23.17 151.79 23.33C151.79 23.3 151.81 23.28 151.84 23.27C151.92 23.42 151.95 23.6 151.9 23.76C151.94 23.7 151.96 23.64 152.02 23.59C152.03 23.58 152.04 23.57 152.05 23.57C152.07 23.57 152.08 23.6 152.09 23.62C152.13 23.88 152.14 24.14 152.11 24.4C152.13 24.33 152.17 24.27 152.21 24.21C152.22 24.2 152.22 24.19 152.23 24.19C152.25 24.18 152.27 24.21 152.27 24.23C152.29 24.31 152.3 24.39 152.3 24.47C152.3 24.52 152.28 24.57 152.26 24.62C152.22 24.78 152.17 24.92 152.06 25.04C152.15 24.98 152.24 24.93 152.34 24.89C152.2 25.17 152.06 25.44 151.92 25.72C151.97 25.67 152.01 25.61 152.06 25.56C152.04 25.58 152.03 25.64 152.02 25.67C152 25.71 151.99 25.74 151.97 25.78C151.93 25.85 151.89 25.92 151.85 25.98C151.8 26.04 151.75 26.11 151.7 26.16C151.67 26.19 151.64 26.21 151.62 26.24C151.6 26.26 151.59 26.29 151.58 26.31C151.48 26.44 151.37 26.56 151.26 26.68C151.16 26.8 151.05 26.93 150.96 27.06C150.78 27.3 150.63 27.55 150.54 27.83C150.61 27.8 150.78 27.63 150.83 27.63C150.58 28.01 150.51 28.48 150.37 28.9C150.42 28.87 150.5 28.71 150.55 28.73C150.42 29.08 150.34 29.44 150.2 29.78C150.27 29.72 150.36 29.67 150.42 29.59C150.35 29.76 150.29 29.87 150.29 30.04C150.29 30.88 150.45 32.02 150.45 32.86C150.49 33.53 150.37 34.23 150.53 34.87C150.66 35.17 150.96 35.36 151.14 35.63C151.2 35.72 151.25 35.8 151.34 35.86C152.02 36.13 152.81 36.01 153.53 36.13C154.02 36.14 154.5 36.05 154.96 35.89C155.11 35.85 155.2 35.72 155.19 35.57C155.17 35.46 155.19 35.44 155.23 35.34C155.22 35.25 155.21 35.15 155.2 35.06C155.19 35.05 155.19 34.96 155.16 34.9C155.07 34.74 154.96 34.59 154.86 34.45C154.69 34.31 154.57 34.12 154.4 33.99C154.06 33.74 153.34 34.23 153.21 33.66C153.24 32.84 153.25 31.7 153.38 30.88C153.41 30.73 153.43 30.55 153.52 30.42C153.72 30.06 153.8 29.64 154.1 29.34C154.1 29.42 154.02 29.51 154.04 29.57C154.4 29.12 154.98 28.87 155.45 28.55C155.43 28.6 155.33 28.63 155.29 28.67C155.22 28.77 155.14 28.89 155.1 29.01C155.31 28.75 155.47 28.55 155.81 28.45C156.27 28.29 156.7 28.04 157.06 27.72C156.96 27.83 156.87 27.95 156.82 28.09C157.22 27.75 157.69 27.51 158.05 27.12C157.96 27.24 157.78 27.36 157.77 27.51C157.81 27.39 158.01 27.33 158.09 27.24C158.25 27.09 158.45 26.94 158.63 26.8C158.67 26.78 158.72 26.75 158.75 26.72C158.78 26.69 158.8 26.65 158.83 26.62C158.91 26.55 159.07 26.47 159.09 26.38C159.1 26.53 159.15 26.65 159.12 26.8C159.21 26.69 159.29 26.58 159.38 26.47C159.27 26.74 159.12 26.99 158.92 27.21C159.1 27.11 159.27 27.01 159.45 26.9C159.35 27 159.25 27.11 159.15 27.21C159.23 27.19 159.31 27.16 159.39 27.14C159.25 27.31 159.11 27.48 158.97 27.65C159.07 27.56 159.2 27.49 159.33 27.46C159.27 27.54 159.22 27.63 159.17 27.71C159.29 27.66 159.42 27.61 159.54 27.57C159.36 27.75 159.2 27.95 159.07 28.16C159.16 28.12 159.25 28.08 159.34 28.04C159.24 28.33 159.22 28.66 159.29 28.96C159.36 28.8 159.49 28.66 159.64 28.56C159.46 28.75 159.35 29.01 159.34 29.27C159.4 29.2 159.48 29.14 159.58 29.1C159.49 29.49 159.49 29.89 159.59 30.28C159.57 30.2 159.62 30.11 159.7 30.07C159.73 30.3 159.75 30.53 159.78 30.75C159.82 30.66 159.87 30.56 159.91 30.47C159.89 30.63 159.92 30.79 159.99 30.93C160.03 30.7 160.31 30.77 160.44 31.01C160.71 31.45 161.15 31.73 161.53 32.06C162.33 32.79 163.14 33.51 163.95 34.22C164.06 34.23 166.15 34.33 166.5 34.13C167.6 34.24 167.75 33.47 167.15 32.7C166.88 32.38 166.66 31.87 166.17 31.92C165.85 31.94 165.5 31.87 165.19 31.95C165.15 31.96 165.02 32 165 31.98C164.45 31.42 163.9 30.95 163.48 30.28C163.16 29.93 163.23 29.43 163.47 29.06C163.63 28.73 163.68 28.36 163.73 27.99C163.76 28.07 163.8 28.14 163.83 28.22C163.89 27.76 163.93 27.12 164.42 26.91C164.43 26.97 164.42 27.03 164.4 27.09C164.46 27 164.56 26.93 164.67 26.9C164.67 26.99 164.56 27.06 164.51 27.14C164.58 27.06 164.73 26.97 164.82 27.08C164.91 27.17 164.91 27.31 164.97 27.41C164.99 27.44 165.01 27.47 165.05 27.48C165.08 27.51 165.05 27.56 165.07 27.59C165.12 27.66 165.21 27.59 165.27 27.57C165.3 27.57 165.33 27.57 165.36 27.55C165.49 27.49 165.61 27.39 165.76 27.4C165.92 27.39 166.03 27.54 166.19 27.56C166.6 27.73 167.09 27.76 167.46 28.01C167.59 28.13 167.69 28.29 167.86 28.33C167.87 28.34 167.88 28.36 167.9 28.37C167.98 28.41 167.98 28.34 168.02 28.31C168.15 28.3 168.21 28.2 168.27 28.1C168.3 28.05 168.35 28.06 168.41 28.05C169.01 27.96 169.65 27.97 170.22 27.76C170.36 27.72 170.51 27.83 170.65 27.85C170.76 27.92 170.88 27.98 171.01 27.99C171.04 28.03 171.1 28.07 171.12 27.99C171.13 27.95 171.14 27.9 171.17 27.87C171.25 27.76 171.25 27.61 171.34 27.51C171.39 27.42 171.5 27.42 171.59 27.41C171.95 27.35 172.32 27.22 172.58 26.95C172.57 27 172.56 27.05 172.56 27.1C172.77 26.83 173 26.54 173.33 26.44C173.32 26.63 173.13 26.77 172.96 26.88C173.21 26.82 173.38 26.6 173.56 26.43C173.72 26.3 173.95 26.28 174.13 26.16C174.09 26.23 174.08 26.3 174.07 26.38C174.24 26.12 174.56 25.99 174.84 25.89C175.23 25.85 175.07 26.37 174.94 26.56C175.03 26.43 175.13 26.32 175.24 26.21C175.17 26.39 175.1 26.57 175.03 26.76C175.11 26.65 175.22 26.56 175.35 26.51C175.2 26.72 175.06 26.95 174.96 27.18C175.07 27.09 175.18 27.02 175.31 26.96C175.22 27.07 175.12 27.18 175.03 27.28C175.27 27.17 175.52 27.1 175.79 27.08C175.52 27.4 175.31 27.78 175.19 28.18C175.33 28 175.51 27.86 175.71 27.75C175.56 27.99 175.4 28.23 175.18 28.41C175.29 28.34 175.41 28.28 175.54 28.26C175.59 28.49 175.39 28.72 175.3 28.93C175.24 29.09 175.28 29.35 175.21 29.56C175.36 29.42 175.52 29.27 175.67 29.13C175.12 29.82 175.88 33.42 176.03 34.22C176.06 34.51 176.1 34.81 176.13 35.1C176.14 35.2 176.17 35.33 176.27 35.37C176.3 35.38 176.34 35.38 176.37 35.4C176.49 35.45 176.44 35.6 176.52 35.68C176.74 35.88 176.94 36.11 177.17 36.31C177.31 36.41 177.51 36.4 177.67 36.41C178.38 36.47 179.1 36.48 179.82 36.46C180.12 36.47 180.47 36.4 180.55 36.07C180.6 35.94 180.77 35.89 180.77 35.94C180.8 35.68 180.64 35.45 180.48 35.25C180.35 35.05 180.23 34.82 180.1 34.62C179.84 34.22 178.96 34.16 178.96 34.16C178.69 33.4 178.76 32.98 178.83 32.06C178.89 31.65 178.87 31.21 179.02 30.82C179.09 30.66 179.18 30.48 179.18 30.3C179.23 29.88 179.43 29.48 179.46 29.06C179.47 29.15 179.49 29.24 179.5 29.33C179.66 28.26 180.05 27.25 180.47 26.28C180.48 26.24 180.6 25.86 180.59 25.86C180.63 25.88 180.66 25.93 180.67 25.97C180.72 25.82 180.8 25.68 180.9 25.56C180.89 25.67 180.94 25.78 181.02 25.86C180.98 25.7 181.04 25.53 181.16 25.42C181.15 25.43 181.21 25.53 181.22 25.55C181.51 25.93 181.33 26.44 181.17 26.85L181.16 26.89C181.3 26.78 181.43 26.65 181.54 26.5C181.43 26.79 181.32 27.07 181.21 27.36C181.37 27.25 181.5 27.12 181.61 26.97C181.51 27.16 181.39 27.33 181.26 27.5C181.34 27.44 181.42 27.39 181.5 27.33C181.48 27.49 181.47 27.66 181.47 27.83C181.54 27.72 181.63 27.61 181.74 27.53C181.59 27.71 181.49 27.93 181.45 28.16C181.61 27.83 182 27.76 182.33 27.73C182.2 27.94 182.04 28.13 181.85 28.29C181.99 28.19 182.15 28.13 182.32 28.11C182.23 28.27 182.09 28.4 181.93 28.5C182.23 28.52 182.54 28.46 182.81 28.33C182.55 28.57 182.29 28.8 182.04 29.04C182.21 28.9 182.41 28.8 182.62 28.74C182.53 28.87 182.44 28.99 182.36 29.12C182.43 29.1 182.5 29.09 182.57 29.07C182.49 29.34 182.47 29.62 182.5 29.89C182.58 29.71 182.76 29.58 182.95 29.53C182.87 29.81 182.85 30.11 182.88 30.4C182.91 30.33 182.96 30.26 183.02 30.21C183.05 30.46 183.25 31.06 183.22 31.27C183.24 31.16 183.27 31.06 183.31 30.96C183.36 31.16 183.42 31.36 183.5 31.55C183.54 31.51 183.59 31.47 183.63 31.44C183.63 31.44 183.71 31.68 183.72 31.71C183.73 31.78 183.74 31.84 183.78 31.9C184.32 32.72 184.43 33.75 184.98 34.55C185.12 34.79 185.39 34.82 185.66 34.8C186.46 34.91 187.26 35.06 188.08 34.87C188.24 34.85 188.41 34.82 188.5 34.69C188.55 34.58 188.64 34.54 188.75 34.52C188.92 34.46 188.92 34.25 188.9 34.11C188.85 33.85 188.78 33.56 188.58 33.37C188.38 33.17 188.08 32.52 187.74 32.59C187.4 32.66 186.98 32.59 186.98 32.59C186.98 32.59 186.74 31.99 186.54 31.27C186.35 30.66 186.35 29.99 186.21 29.37C186.19 29.29 186.22 29.19 186.22 29.11C186.29 28.44 186.26 27.76 186.29 27.09C186.41 26.72 186.38 26.33 186.42 25.95C186.47 26.08 186.51 26.22 186.56 26.35C186.54 26.22 186.52 26.09 186.51 25.96C186.48 25.7 186.45 25.43 186.43 25.17C186.42 24.96 186.39 24.74 186.42 24.53C186.45 24.3 186.51 24.08 186.56 23.86C186.58 23.75 186.61 23.64 186.62 23.52C186.62 23.48 186.66 23.22 186.62 23.2C186.75 23.28 186.95 23.64 187.08 23.72C186.94 23.32 186.96 22.86 187.12 22.47C187.18 22.31 187.27 22.17 187.4 22.05C187.42 22.03 187.48 21.96 187.52 21.98C187.54 21.99 187.53 22.01 187.53 22.02C187.54 22.06 187.49 22.17 187.48 22.2C187.45 22.33 187.41 22.46 187.38 22.58C187.74 22.19 188.02 21.72 188.18 21.22C188.19 21.41 188.2 21.6 188.21 21.8C188.39 21.44 188.53 21.07 188.63 20.69C188.65 20.93 188.7 21.18 188.79 21.41C188.71 20.79 188.83 20.14 189.12 19.58C189.18 19.74 189.22 19.9 189.24 20.07C189.43 19.8 189.56 19.49 189.63 19.16C189.69 19.38 189.71 19.61 189.71 19.83C190.15 19.07 189.74 18.02 190.21 17.28C190.32 17.35 190.41 17.45 190.47 17.57C190.46 17.3 190.44 17.03 190.43 16.76C190.58 16.98 190.62 17.25 190.66 17.51C190.69 16.64 190.68 15.77 190.63 14.9C190.76 15.02 190.89 15.14 191.02 15.27C190.99 14.99 190.97 14.71 190.97 14.43C191.03 14.58 191.16 14.7 191.3 14.76C191.19 14.47 191.09 14.19 191.06 13.88C191.04 13.7 191.04 13.29 191.09 13.12C191.11 13.04 191.14 12.97 191.18 12.9C191.2 12.87 191.2 12.84 191.22 12.81C191.24 12.78 191.25 12.75 191.27 12.72C191.32 12.64 191.39 12.57 191.46 12.51C191.5 12.48 191.53 12.45 191.57 12.42C191.59 12.41 191.61 12.39 191.63 12.38C191.64 12.37 191.68 12.35 191.68 12.34C191.63 12.43 191.59 12.53 191.58 12.64C191.62 12.57 191.67 12.5 191.73 12.44C191.8 12.38 191.87 12.32 191.95 12.28C191.99 12.26 192.03 12.24 192.08 12.22C192.1 12.21 192.12 12.21 192.14 12.2C192.16 12.19 192.19 12.17 192.21 12.17C192.22 12.18 192.21 12.25 192.19 12.26C192.3 12.22 192.42 12.18 192.53 12.15C192.48 12.21 192.43 12.28 192.38 12.34C192.42 12.32 192.45 12.3 192.49 12.28C192.52 12.26 192.56 12.26 192.59 12.25C192.64 12.24 192.68 12.21 192.72 12.19C192.82 12.15 192.92 12.14 193.03 12.11C193.2 12.07 193.35 11.98 193.46 11.85C193.49 11.82 193.51 11.78 193.53 11.74C193.55 11.7 193.57 11.66 193.59 11.62C193.61 11.59 193.63 11.56 193.65 11.53C193.67 11.48 193.68 11.43 193.69 11.37C193.7 11.34 193.7 11.31 193.71 11.28C193.72 11.26 193.73 11.24 193.75 11.23C193.77 11.21 193.8 11.19 193.83 11.17C193.84 11.16 193.86 11.15 193.87 11.14C193.88 11.13 193.9 11.13 193.91 11.11C193.98 11.05 194.04 10.98 194.1 10.92C194.21 10.8 194.31 10.68 194.39 10.55C194.48 10.42 194.56 10.29 194.63 10.15C194.66 10.08 194.69 10.01 194.72 9.94C194.73 9.9 194.75 9.87 194.76 9.83C194.78 9.78 194.8 9.74 194.8 9.69C194.8 9.68 194.8 9.67 194.8 9.66C194.8 9.64 194.82 9.63 194.83 9.62C194.86 9.59 194.89 9.55 194.9 9.51C194.91 9.47 194.92 9.43 194.91 9.4C194.9 9.32 194.87 9.25 194.83 9.19C194.81 9.16 194.8 9.13 194.77 9.11C194.76 9.1 194.75 9.09 194.74 9.09C194.7 9.03 194.67 8.97 194.63 8.91C194.56 8.8 194.47 8.7 194.39 8.6C194.25 8.43 194.12 8.25 193.98 8.08C193.89 7.97 193.8 7.85 193.77 7.71C193.75 7.62 193.75 7.53 193.75 7.43C193.75 7.23 193.75 7.02 193.76 6.82C193.76 6.72 193.76 6.62 193.77 6.53C193.78 6.41 193.73 6.28 193.67 6.17C193.63 6.13 193.61 6.05 193.58 6C193.55 5.95 193.51 5.9 193.49 5.85C193.45 5.77 193.38 5.71 193.33 5.64L193.14 5.42C193.01 5.27 192.88 5.12 192.76 4.97C192.64 4.84 192.53 4.7 192.41 4.57C192.35 4.5 192.29 4.43 192.24 4.37C192.16 4.27 192.13 4.25 192.15 4.1C192.19 3.82 192.28 3.57 192.27 3.29C192.26 3.01 192.19 2.73 192.18 2.45C192.2 2.11 192.19 1.73 192.22 1.41C192.1 1.42 192.05 1.43 191.97 1.52C191.64 1.79 191.14 1.93 190.88 2.28C190.72 2.44 190.6 2.86 190.31 2.68C190.07 2.52 190.1 2.17 189.95 1.94C189.86 1.72 189.7 1.52 189.66 1.28C189.63 1.13 189.51 1.01 189.42 0.900002C189.32 0.740002 189.25 0.570001 189.27 0.380001C189.28 0.320001 189.33 0.24 189.31 0.18C189.28 0.19 189.24 0.210003 189.21 0.210003C189.21 0.130003 189.29 0.07 189.31 0C189.2 0.05 188.86 0.509999 188.78 0.639999C188.61 0.859999 188.47 1.12 188.31 1.35C188 1.87 187.68 2.67 187.16 2.96C187.27 2.94 187.38 2.89 187.49 2.86C187.44 2.98 187.26 3.02 187.21 3.13C187.24 3.25 187.07 3.3 187.02 3.38C187.07 3.38 187.09 3.38 187.06 3.43C186.97 3.61 186.75 3.64 186.61 3.77C186.65 3.78 186.71 3.76 186.68 3.82C186.13 4.43 185.24 4.58 184.57 5.04C184.7 4.98 184.83 4.96 184.97 4.93C184.98 4.99 184.78 5.08 184.75 5.1C184.51 5.32 184.16 5.37 183.85 5.41C183.83 5.4 183.82 5.4 183.8 5.41C183.87 5.45 183.96 5.41 184.03 5.42C184.09 5.44 184.14 5.45 184.2 5.44C184.01 5.53 183.83 5.67 183.61 5.67C183.56 5.67 183.44 5.65 183.41 5.68C183.52 5.71 183.44 5.76 183.38 5.76C183.39 5.77 183.41 5.78 183.41 5.79C183.17 5.93 182.87 6 182.69 6.22C182.79 6.18 182.92 6.11 183.03 6.11C182.9 6.24 182.68 6.3 182.54 6.45C182.58 6.42 182.67 6.44 182.7 6.46C182.35 6.85 181.92 7.27 181.39 7.42C181.41 7.42 181.44 7.41 181.46 7.41C181.33 7.86 180.75 7.82 180.43 8.06C180.48 8.04 180.54 8.04 180.59 8.05C180.29 8.45 179.77 8.62 179.35 8.87C179.42 8.88 179.49 8.81 179.55 8.84C179.63 8.9 179.56 9.01 179.48 9.04C179.24 9.2 179 9.36 178.71 9.4C178.3 9.54 177.84 9.42 177.44 9.52C177.19 9.62 176.94 9.7 176.68 9.77C176.52 9.81 176.36 9.84 176.2 9.89C176.06 9.94 175.97 10.09 175.82 10.11C175.37 10.24 174.97 10.52 174.48 10.48C174.05 10.51 173.63 10.52 173.2 10.52C173.06 10.52 172.94 10.52 172.81 10.54C172.66 10.57 172.49 10.55 172.34 10.55C172.12 10.55 171.9 10.52 171.68 10.51C171.6 10.51 171.52 10.51 171.44 10.51C171.34 10.51 171.25 10.48 171.15 10.47C171.08 10.46 170.97 10.45 170.91 10.43C170.87 10.42 170.86 10.37 170.8 10.4C170.81 10.46 170.9 10.46 170.93 10.51C170.63 10.46 170.32 10.44 170.03 10.36C169.88 10.32 169.73 10.27 169.58 10.22C169.52 10.2 169.37 10.1 169.3 10.13C169.29 10.21 169.4 10.32 169.42 10.4C169.39 10.45 169.06 10.35 169.02 10.33C168.83 10.26 168.65 10.18 168.46 10.12C168.27 10.06 168.07 10.01 167.88 9.98C167.78 9.96 167.67 9.96 167.56 9.94C167.45 9.92 167.34 9.95 167.23 9.93C167.3 9.92 167.48 10.03 167.52 10.08C167.48 10.08 167.44 10.06 167.39 10.06C167.28 10.04 167.17 10.05 167.06 10.05C166.98 10.05 166.9 10.05 166.82 10.05C166.74 10.05 166.66 10.05 166.58 10.05C166.54 10.05 166.49 10.04 166.46 10.06C166.44 10.07 166.44 10.1 166.42 10.11C166.34 10.15 166.2 10.13 166.11 10.12C165.84 10.09 165.59 10.04 165.33 9.97C165.05 9.9 164.76 9.92 164.48 9.88C164.4 9.87 164.33 9.85 164.25 9.84C163.99 9.82 163.72 9.91 163.47 9.93C163.02 9.96 162.55 10.1 162.1 10.19C161.9 10.23 161.69 10.25 161.5 10.28C161.4 10.29 161.3 10.27 161.19 10.29C161.08 10.31 160.99 10.32 160.87 10.32C160.64 10.32 160.41 10.32 160.18 10.32C160.03 10.32 159.89 10.36 159.75 10.36C159.67 10.36 159.59 10.34 159.52 10.4C159.59 10.4 159.7 10.36 159.77 10.4C159.9 10.46 159.73 10.51 159.66 10.52C159.6 10.53 159.55 10.54 159.49 10.55C159.43 10.56 159.37 10.54 159.32 10.55C159.25 10.56 159.17 10.58 159.1 10.59C158.69 10.68 158.27 10.77 157.85 10.85C157.66 10.89 157.47 10.96 157.28 11.01C157.09 11.06 156.88 11.14 156.71 11.23C156.53 11.33 156.31 11.37 156.11 11.43C155.95 11.48 155.8 11.55 155.65 11.63C155.6 11.66 155.56 11.68 155.51 11.7C155.48 11.71 155.44 11.72 155.4 11.73C155.3 11.75 155.14 11.84 155.04 11.81C155.07 11.82 155.11 11.84 155.13 11.86C155 11.99 154.77 12.03 154.61 12.1C154.57 12.11 154.52 12.13 154.48 12.15Z" fill="#A91255"/>
<path d="M94 76C91.7935 76 90 77.7935 90 80C90 82.2065 91.7935 84 94 84C96.2065 84 98 82.2065 98 80C98 77.7935 96.2065 76 94 76Z" fill="#A91255"/>
<path d="M94 73C90.1352 73 87 76.1451 87 80C87 83.8648 90.1451 87 94 87C97.8648 87 101 83.8549 101 80C101.01 76.1451 97.8648 73 94 73ZM94 84.9887C91.2493 84.9887 89.0211 82.7606 89.0211 80.0099C89.0211 77.2592 91.2493 75.031 94 75.031C96.7507 75.031 98.9789 77.269 98.9789 80.0099C98.9887 82.7507 96.7507 84.9887 94 84.9887Z" fill="#F7DBE7"/>
<path d="M367 76C364.793 76 363 77.7935 363 80C363 82.2065 364.793 84 367 84C369.207 84 371 82.2065 371 80C371 77.7935 369.207 76 367 76Z" fill="#A91255"/>
<path d="M366.995 73C363.133 73 360 76.1451 360 80C360 83.8648 363.143 87 366.995 87C370.857 87 374 83.8549 374 80C374 76.1451 370.857 73 366.995 73ZM366.995 84.9887C364.246 84.9887 362.02 82.7606 362.02 80.0099C362.02 77.2592 364.246 75.031 366.995 75.031C369.744 75.031 371.97 77.269 371.97 80.0099C371.97 82.7507 369.744 84.9887 366.995 84.9887Z" fill="#F7DBE7"/>
<mask id="mask0_2246_1176" style="mask-type:luminance" maskUnits="userSpaceOnUse" x="370" y="44" width="118" height="14">
<path d="M487.309 57.5504V44.6504H370.029V57.5504" fill="white"/>
</mask>
<g mask="url(#mask0_2246_1176)">
<path fill-rule="evenodd" clip-rule="evenodd" d="M354.283 65.5207L375.713 39.7207L375.906 39.8804L354.476 65.6804L354.283 65.5207Z" fill="#EFB4CB"/>
<path fill-rule="evenodd" clip-rule="evenodd" d="M354.713 70.1105L376.133 44.3105L376.325 44.4702L354.905 70.2702L354.713 70.1105Z" fill="#EFB4CB"/>
<path fill-rule="evenodd" clip-rule="evenodd" d="M362.304 67.0908L383.724 41.2908L383.916 41.4505L362.496 67.2505L362.304 67.0908Z" fill="#EFB4CB"/>
<path fill-rule="evenodd" clip-rule="evenodd" d="M365.193 69.2207L386.613 43.4207L386.806 43.5803L365.386 69.3804L365.193 69.2207Z" fill="#EFB4CB"/>
<path fill-rule="evenodd" clip-rule="evenodd" d="M372.043 66.1906L393.463 40.3906L393.655 40.5503L372.235 66.3503L372.043 66.1906Z" fill="#EFB4CB"/>
<path fill-rule="evenodd" clip-rule="evenodd" d="M372.474 70.7807L393.894 44.9807L394.086 45.1404L372.666 70.9404L372.474 70.7807Z" fill="#EFB4CB"/>
<path fill-rule="evenodd" clip-rule="evenodd" d="M381.304 65.3308L402.724 39.5308L402.916 39.6905L381.496 65.4905L381.304 65.3308Z" fill="#EFB4CB"/>
<path fill-rule="evenodd" clip-rule="evenodd" d="M391.363 64.4006L412.783 38.6006L412.976 38.7603L391.556 64.5603L391.363 64.4006Z" fill="#EFB4CB"/>
<path fill-rule="evenodd" clip-rule="evenodd" d="M391.783 68.9907L413.203 43.1907L413.396 43.3504L391.976 69.1504L391.783 68.9907Z" fill="#EFB4CB"/>
<path fill-rule="evenodd" clip-rule="evenodd" d="M400.633 63.5407L422.053 37.7407L422.245 37.9004L400.825 63.7004L400.633 63.5407Z" fill="#EFB4CB"/>
<path fill-rule="evenodd" clip-rule="evenodd" d="M401.063 68.1306L422.483 42.3306L422.676 42.4903L401.256 68.2903L401.063 68.1306Z" fill="#EFB4CB"/>
<path fill-rule="evenodd" clip-rule="evenodd" d="M410.233 62.6506L431.653 36.8506L431.846 37.0103L410.426 62.8103L410.233 62.6506Z" fill="#EFB4CB"/>
<path fill-rule="evenodd" clip-rule="evenodd" d="M410.663 67.2407L432.083 41.4407L432.275 41.6004L410.855 67.4004L410.663 67.2407Z" fill="#EFB4CB"/>
<path fill-rule="evenodd" clip-rule="evenodd" d="M419.113 61.8208L440.533 36.0308L440.726 36.1905L419.306 61.9805L419.113 61.8208Z" fill="#EFB4CB"/>
<path fill-rule="evenodd" clip-rule="evenodd" d="M419.543 66.4206L440.963 40.6206L441.155 40.7803L419.735 66.5803L419.543 66.4206Z" fill="#EFB4CB"/>
<path fill-rule="evenodd" clip-rule="evenodd" d="M428.413 60.9607L449.833 35.1707L450.025 35.3304L428.605 61.1204L428.413 60.9607Z" fill="#EFB4CB"/>
<path fill-rule="evenodd" clip-rule="evenodd" d="M428.833 65.5507L450.263 39.7607L450.455 39.9205L429.025 65.7105L428.833 65.5507Z" fill="#EFB4CB"/>
<path fill-rule="evenodd" clip-rule="evenodd" d="M437.093 60.1606L458.513 34.3606L458.705 34.5203L437.285 60.3203L437.093 60.1606Z" fill="#EFB4CB"/>
<path fill-rule="evenodd" clip-rule="evenodd" d="M437.514 64.7507L458.934 38.9507L459.126 39.1104L437.706 64.9104L437.514 64.7507Z" fill="#EFB4CB"/>
<path fill-rule="evenodd" clip-rule="evenodd" d="M445.764 59.3605L467.184 33.5605L467.376 33.7202L445.956 59.5202L445.764 59.3605Z" fill="#EFB4CB"/>
<path fill-rule="evenodd" clip-rule="evenodd" d="M446.184 63.9506L467.604 38.1506L467.796 38.3103L446.376 64.1103L446.184 63.9506Z" fill="#EFB4CB"/>
<path fill-rule="evenodd" clip-rule="evenodd" d="M454.163 58.5808L475.583 32.7808L475.775 32.9405L454.355 58.7405L454.163 58.5808Z" fill="#EFB4CB"/>
<path fill-rule="evenodd" clip-rule="evenodd" d="M454.583 63.1706L476.013 37.3706L476.205 37.5303L454.775 63.3303L454.583 63.1706Z" fill="#EFB4CB"/>
<path fill-rule="evenodd" clip-rule="evenodd" d="M463.304 57.7307L484.724 31.9307L484.916 32.0904L463.496 57.8904L463.304 57.7307Z" fill="#EFB4CB"/>
<path fill-rule="evenodd" clip-rule="evenodd" d="M463.724 62.3208L485.144 36.5208L485.336 36.6804L463.916 62.4804L463.724 62.3208Z" fill="#EFB4CB"/>
<path fill-rule="evenodd" clip-rule="evenodd" d="M468.313 61.8906L489.733 36.1006L489.926 36.2603L468.506 62.0503L468.313 61.8906Z" fill="#EFB4CB"/>
<path fill-rule="evenodd" clip-rule="evenodd" d="M472.333 62.3208L493.753 36.5208L493.945 36.6804L472.525 62.4804L472.333 62.3208Z" fill="#EFB4CB"/>
<path fill-rule="evenodd" clip-rule="evenodd" d="M385.863 65.3308L407.283 39.5308L407.476 39.6905L386.056 65.4905L385.863 65.3308Z" fill="#EFB4CB"/>
<path fill-rule="evenodd" clip-rule="evenodd" d="M476.493 62.3208L497.923 36.5208L498.115 36.6805L476.685 62.4805L476.493 62.3208Z" fill="#EFB4CB"/>
</g>
</svg>
