<svg width="539" height="130" viewBox="0 0 539 130" fill="none" xmlns="http://www.w3.org/2000/svg">
<path fill-rule="evenodd" clip-rule="evenodd" d="M43.0057 10.7916C43.0057 10.7916 42.8357 10.2816 42.7957 10.2216C42.7557 10.1616 42.5557 9.80158 42.5557 9.74158C42.5557 9.68158 42.5257 9.44158 42.5257 9.44158C42.6857 9.41158 43.0757 9.62158 43.0757 9.62158C43.0457 9.52158 42.6557 9.22158 42.6557 9.22158L42.5057 9.10158L42.7557 9.13158C42.7557 9.13158 42.6657 9.04158 42.5957 9.00158C42.5257 8.95158 42.3457 8.91158 42.3457 8.91158L42.2857 8.85158L42.3257 8.76158L42.5757 8.85158C42.5757 8.85158 42.5757 8.82158 42.5457 8.70158C42.5157 8.58158 42.3057 8.49158 42.3057 8.49158L42.3557 8.30158C42.4457 8.33158 42.6857 8.58158 42.6857 8.58158L42.6357 8.36158C42.6257 8.29158 42.4757 8.11158 42.4757 8.11158C42.4757 8.11158 42.3457 8.11158 42.9657 7.41158C43.5957 6.71158 43.8457 5.87158 43.8457 5.81158C43.7457 5.94158 42.2157 6.69158 42.2157 6.69158C42.2157 6.69158 41.3357 7.23158 41.1257 7.30158C40.9157 7.38158 40.4857 7.46158 40.1557 7.58158C39.8257 7.70158 39.2857 7.76158 38.8757 7.77158C38.4557 7.78158 37.4257 7.86158 37.4257 7.86158C36.8857 7.08158 35.7357 6.14158 35.7357 6.14158C35.2257 6.30158 34.9757 6.66158 34.9757 6.66158C34.3457 7.38158 34.7257 9.23158 34.7257 9.23158C34.0057 9.99158 34.2157 10.7416 34.2157 10.7416C34.2157 10.7416 34.2257 10.7916 34.2157 11.0416C34.2057 11.2916 34.1257 12.3716 34.1257 12.3716C34.1257 12.3716 34.0657 12.5516 33.7657 12.9216C33.4657 13.2916 32.8957 14.8016 32.8957 14.8016C32.8957 14.8016 32.3757 15.8516 32.2357 16.1416C32.0857 16.4216 31.7357 16.4516 31.7357 16.4516C31.7357 16.4516 31.2457 16.5616 31.0357 16.6216C30.8157 16.6816 30.3757 16.8416 30.3757 16.8416C30.3757 16.8416 30.1057 16.9216 29.7157 17.0416C29.3157 17.1716 28.6057 17.9016 28.6057 17.9016L27.4757 19.2216C27.4757 19.2216 26.8957 19.9816 26.7157 20.1916C26.5357 20.4016 26.1657 21.0116 26.1657 21.0116L26.4057 20.9616C26.4057 20.9616 25.7357 21.7416 25.3557 23.3216C24.9857 24.9016 24.8757 24.6616 24.4257 26.0716C24.2557 26.6016 24.0457 27.1416 23.8557 27.6116L23.7957 27.5616C23.6957 27.7516 23.5657 28.1416 23.4357 28.5916C23.3257 28.8416 23.2557 28.9816 23.2557 28.9816C23.2557 28.9816 23.2657 29.0816 23.2657 29.2216C23.0857 29.9516 22.9657 30.6716 23.0757 30.8616C22.9757 31.0216 23.3857 32.0616 23.2657 32.1216C23.1457 32.1816 23.6157 32.0416 23.4157 32.5516C23.2257 33.0516 23.8457 32.5716 23.7257 33.0516C23.6057 33.5316 23.9557 32.9316 23.9357 33.0516C23.9157 33.1716 24.1257 33.6316 23.9357 33.8216C23.7457 34.0116 24.6457 33.2616 24.5957 33.8616C24.5357 34.4616 24.9857 34.8316 23.3957 34.8716C21.8057 34.9116 22.6257 35.1416 22.3657 35.3016C22.1157 35.4516 22.3257 36.1516 21.9757 35.7116C21.6257 35.2616 21.7057 35.7716 21.6057 35.7316C21.5057 35.6916 21.8357 36.3316 21.4157 36.0216C21.4157 36.0216 21.8757 36.4816 21.6857 36.5016C21.4957 36.5216 21.1057 36.6016 21.0257 36.5216C20.9457 36.4416 21.4357 37.5316 19.8057 37.5316C18.1857 37.5316 21.4157 37.7016 20.6557 37.9416C19.9057 38.1716 29.7257 38.7116 30.1157 38.5816C30.5057 38.4416 33.4557 38.5816 33.9257 38.3116C33.9857 38.2816 34.0657 38.2516 34.1657 38.2416C34.1957 38.2416 34.2257 38.2416 34.2457 38.2416C34.3157 38.2416 34.3557 38.2316 34.3857 38.2216C35.1257 38.1716 36.3157 38.2516 36.0257 37.3716C36.0257 37.3716 36.0257 37.3716 36.0357 37.3716C36.2557 37.3916 36.4457 37.3816 36.5957 37.3716L36.7057 37.4516C36.6957 37.4116 36.6557 37.3916 36.5957 37.3716C36.8457 37.3516 36.9757 37.3116 36.9757 37.3116C37.7057 38.3416 38.0357 38.2416 38.0357 38.2416C38.0357 38.2416 38.9357 38.3416 39.6357 38.3316C40.3357 38.3216 40.7557 37.9316 40.7557 37.9316C41.4757 38.0316 41.4857 37.6016 41.4857 37.6016C41.4857 37.6016 41.6357 37.3816 41.4057 36.7516C41.1857 36.1216 40.3457 36.1816 40.3457 36.1816C39.9457 35.1816 39.9257 34.0116 39.9257 34.0116C39.9257 34.0116 39.9357 32.7316 40.0757 32.2516C40.2057 31.7716 40.2957 30.1916 40.2957 30.1916C40.2957 30.1916 40.3057 29.2516 40.3557 28.9116C40.3957 28.5716 40.6557 27.6816 40.6557 27.6816L40.7457 27.0416L40.8357 26.8516L40.9157 26.6016L40.8557 26.2316L40.8857 26.0216L40.9257 25.8916C40.9257 25.8916 41.0257 25.8116 41.1957 25.7016C41.3657 25.5816 41.2957 25.3616 41.2957 25.3616L41.4957 25.0916C41.4957 25.0916 41.7357 24.9516 41.8657 24.6716C41.9957 24.3916 41.9257 24.1916 41.9257 24.1916C41.9257 24.1916 41.9357 23.9916 42.0357 23.8816C42.1357 23.7816 42.1757 23.5516 42.1657 23.4216C42.1457 23.2916 42.2157 23.2516 42.3157 23.0916C42.4157 22.9216 42.3957 22.6916 42.3957 22.6916C42.3957 22.6916 42.3557 22.5916 42.6057 22.3916C42.8557 22.1916 42.6457 21.9316 42.6457 21.9316C42.6457 21.9316 42.6557 21.8716 42.8357 21.6816C43.0157 21.4916 42.8857 21.4516 42.9557 21.0216C43.0257 20.5916 43.0157 20.2116 43.0157 20.2116C43.0157 20.2116 43.0057 19.6016 42.9857 18.5116C42.9757 17.4216 42.6757 16.7716 42.6757 16.7716C42.6757 16.7716 42.4857 16.4016 42.4657 16.0316C42.4457 15.6616 42.6057 15.6616 42.8257 15.4816C43.0457 15.3016 43.1657 14.8616 43.1657 14.8616C43.2057 14.5516 43.0357 14.3416 43.0257 14.1716C43.0257 14.1316 43.0257 14.1316 43.0257 14.1316V13.9916V13.8616L43.0657 13.5716C43.0657 13.5716 43.2157 13.0516 43.2557 12.5316C43.2957 12.0116 43.1657 11.5616 43.1657 11.5616V11.5016L43.2157 11.4716L43.2257 11.4016L43.1457 11.2516L43.3157 11.2916L43.0057 10.9316L43.4557 10.8616L43.0057 10.7916Z" fill="#F7DBE7"/>
<path d="M60.1455 32.3317C60.1455 32.3317 59.9355 32.4817 59.9455 32.6517C59.9655 33.0517 59.7355 33.7117 59.6455 33.9917C59.5055 34.3917 59.0655 34.8217 58.8055 34.9117C58.5455 35.0017 58.5655 35.0817 58.5655 35.0817L58.7655 35.1917C58.7655 35.1917 59.1855 35.5617 59.3255 35.6217C59.4655 35.6817 60.1655 36.2617 60.8055 37.0817C61.4555 38.5917 61.2555 38.6417 61.0055 38.7517C60.7655 38.8617 60.0355 38.8417 59.7755 38.3117C59.3455 37.4616 57.9755 36.8816 57.9755 36.8816C57.9755 36.8816 57.6855 37.4417 57.7755 37.7817C57.9855 37.6117 58.1755 37.6717 58.4255 37.7517C59.2955 38.4817 58.4255 38.7417 58.4255 38.7417L57.8955 38.8416C57.8955 38.8416 57.0455 38.8416 56.6455 38.7716C56.2455 38.6916 56.1255 37.9317 56.0955 37.6316C56.0655 37.3216 56.0355 36.1117 56.0355 36.1117L55.7255 35.8717C55.7255 35.8717 55.1155 35.0917 54.5655 35.0317C54.0155 34.9717 52.7355 34.6817 52.2555 34.6617C51.7655 34.6517 51.7555 34.8017 51.6755 35.0317C51.5955 35.2617 51.5655 35.7917 51.5355 36.0017C51.5055 36.2117 51.5055 36.8217 51.5355 36.9617C51.5655 37.1017 52.0655 37.5417 52.6055 37.6817C53.5955 38.1117 53.1155 38.5817 53.1155 38.5817C53.1155 38.5817 52.8755 38.6917 52.7155 38.7317C52.5655 38.7817 51.8755 38.7317 51.3555 38.6517C50.8355 38.5717 50.1755 37.6617 49.8455 36.8517C49.0155 33.3917 48.7155 36.2916 48.5255 36.5617C48.3555 37.0016 48.5455 37.3717 48.8655 37.5817C49.4855 37.8817 49.2055 38.3117 49.1755 38.4317C49.1455 38.5517 48.8555 38.5417 48.8555 38.5417H47.7255C47.1055 38.2417 47.1355 37.5717 47.1355 37.5717C47.1355 37.5717 47.0455 36.2317 47.0355 35.9017C46.9155 35.2017 46.9755 35.2617 46.9555 35.0117C46.9355 34.7117 46.9755 34.6417 47.3655 33.9117C46.7055 32.3017 47.0455 31.1017 47.0455 31.1017L46.8955 30.8317C46.8955 30.8317 45.0655 29.9317 45.1255 28.0617C45.1855 26.1917 45.7055 25.2116 46.5455 24.5916C48.1755 23.7416 48.0355 24.5117 48.0355 24.5117L47.9755 24.7817C47.9755 24.7817 47.7655 25.3517 47.3555 25.8817C46.8555 26.5117 46.7755 27.1017 47.0055 27.7217C47.1455 28.2417 48.2055 28.3017 48.5555 28.1917C52.4655 27.6417 54.3855 28.3617 55.0155 28.4817C55.6355 28.6017 56.5055 29.0717 56.5055 29.0717C56.7555 29.0617 56.7755 28.9117 56.7755 28.9117C56.7755 28.9117 57.0055 27.8017 58.3155 27.4017C59.6355 27.1817 60.1355 26.9216 60.4155 26.8416C60.6955 26.7716 61.2155 26.5817 61.2655 27.0517C62.0355 26.7317 62.6955 26.5917 62.8755 26.5017C63.0455 26.4117 62.4655 27.2017 62.2755 27.2817C62.0855 27.3617 61.8255 27.7617 61.7855 28.0317C62.1255 28.1417 62.3555 28.5417 62.3355 28.7617C62.3155 28.9817 62.3555 29.5417 62.2955 29.7217C62.2355 29.9017 62.3255 30.3617 62.3155 30.5517C62.3055 30.7317 62.3155 30.8817 62.3755 31.0717C62.3755 31.2217 62.4355 31.3617 62.0755 31.5417C61.7755 31.7117 61.7155 31.7917 61.6055 31.8317C61.4955 31.8717 61.2355 32.0217 61.1055 31.9817C60.9655 31.9417 60.9555 31.8516 60.8155 31.8416C60.6755 31.8316 60.6155 31.8717 60.6155 31.8717C60.6155 31.8717 60.4255 31.9617 60.3555 32.0517C60.2655 32.1017 60.1455 32.3317 60.1455 32.3317Z" fill="#A91255"/>
<path d="M168.684 25.9988L165.99 31.6139L169.12 39.5054H166.237L164.302 34.5732L163.429 36.3943V39.5054H160.735V25.9988H163.429V31.8036L165.99 25.9988H168.684Z" fill="#A91255"/>
<path d="M155.704 25.9988V37.0773H159.233V39.5054H153.011V25.9988H155.704Z" fill="#A91255"/>
<path d="M150.924 25.9988V39.5054H148.23V25.9988H150.924Z" fill="#A91255"/>
<path d="M146.141 25.9988V39.5054H143.448V32.4865L142.006 37.0962H140.602L139.161 32.4865V39.5054H136.467V25.9988H138.838L141.304 32.6193L143.77 25.9988H146.141Z" fill="#A91255"/>
<path d="M132.008 25.9988V28.4269H129.732V39.5054H127.038V28.4269H124.762V25.9988H132.008Z" fill="#A91255"/>
<path d="M115.623 39.5054L119.095 25.9988H121.75L125.222 39.5054H122.414L121.978 37.3997H118.867L118.431 39.5054H115.623ZM119.379 34.9716H121.466L120.422 29.9635L119.379 34.9716Z" fill="#A91255"/>
<path d="M111.412 25.847C112.531 25.847 113.328 26.1695 114.011 26.8145C114.713 27.4785 115.168 28.5408 115.225 29.8307H112.531C112.512 29.4513 112.474 29.0719 112.323 28.7874C112.171 28.4649 111.905 28.2752 111.412 28.2752C110.919 28.2752 110.653 28.5028 110.501 28.8064C110.179 29.4324 110.141 31.1207 110.141 32.7521C110.141 34.3835 110.179 36.0719 110.501 36.6979C110.653 37.0014 110.919 37.229 111.412 37.229C111.905 37.229 112.171 37.0204 112.323 36.6979C112.474 36.4133 112.512 36.0339 112.531 35.6545H115.225C115.168 36.9445 114.713 38.0258 114.011 38.6897C113.328 39.3347 112.531 39.6572 111.412 39.6572C109.951 39.6572 109.06 39.0502 108.453 38.2914C107.504 37.1342 107.447 35.351 107.447 32.7521C107.447 30.1532 107.504 28.3701 108.453 27.2129C109.06 26.4541 109.951 25.847 111.412 25.847Z" fill="#A91255"/>
<path d="M107.012 25.9988L104.262 34.4215V39.5054H101.568V34.4215L98.8174 25.9988H101.777L102.915 30.893L104.053 25.9988H107.012Z" fill="#A91255"/>
<path d="M90.5244 25.9988H94.4322C95.7791 25.9988 96.6707 26.3023 97.2588 26.8714C97.9037 27.4974 98.1504 28.1993 98.1504 29.679C98.1504 30.6464 97.9796 31.3863 97.4105 31.9554C97.2398 32.1261 97.0501 32.2778 96.7845 32.4106C97.0311 32.5434 97.2588 32.7142 97.4105 32.8849C97.9796 33.473 98.1504 34.2128 98.1504 35.5407C98.1504 37.0962 97.9227 37.9119 97.2398 38.6138C96.6707 39.2019 95.7791 39.5054 94.4322 39.5054H90.5244V25.9988ZM94.0718 33.5868H93.2182V37.0773H94.0718C95.1531 37.0773 95.4566 36.5651 95.4566 35.332C95.4566 34.099 95.1152 33.5868 94.0718 33.5868ZM94.1097 28.4269H93.2182V31.3104H94.1097C95.1531 31.3104 95.4566 30.8551 95.4566 29.8687C95.4566 28.8822 95.1721 28.4269 94.1097 28.4269Z" fill="#A91255"/>
<path d="M79.7764 39.5054L83.2479 25.9988H85.9037L89.3752 39.5054H86.5676L86.1313 37.3997H83.0202L82.5839 39.5054H79.7764ZM83.5324 34.9716H85.6191L84.5758 29.9635L83.5324 34.9716Z" fill="#A91255"/>
<path d="M71.2578 25.9988H75.1656C76.5125 25.9988 77.4041 26.3023 77.9922 26.8714C78.6371 27.4974 78.8838 28.1993 78.8838 29.679C78.8838 30.6464 78.713 31.3863 78.1439 31.9554C77.9732 32.1261 77.7835 32.2778 77.5179 32.4106C77.7645 32.5434 77.9922 32.7142 78.1439 32.8849C78.713 33.473 78.8838 34.2128 78.8838 35.5407C78.8838 37.0962 78.6561 37.9119 77.9732 38.6138C77.4041 39.2019 76.5125 39.5054 75.1656 39.5054H71.2578V25.9988ZM74.8052 33.5868H73.9516V37.0773H74.8052C75.8865 37.0773 76.19 36.5651 76.19 35.332C76.19 34.099 75.8486 33.5868 74.8052 33.5868ZM74.8431 28.4269H73.9516V31.3104H74.8431C75.8865 31.3104 76.19 30.8551 76.19 29.8687C76.19 28.8822 75.9055 28.4269 74.8431 28.4269Z" fill="#A91255"/>
<path d="M407.676 80.6715C402.726 80.6715 398.706 76.6515 398.706 71.7015C398.706 66.7515 402.726 62.7315 407.676 62.7315C412.626 62.7315 416.646 66.7515 416.646 71.7015C416.646 76.6615 412.626 80.6715 407.676 80.6715Z" fill="#F7DBE7"/>
<path fill-rule="evenodd" clip-rule="evenodd" d="M405.216 66.2504C405.509 65.9578 405.984 65.9583 406.277 66.2515L411.237 71.2215C411.529 71.5145 411.529 71.989 411.236 72.2816L406.346 77.1716C406.054 77.4645 405.579 77.4645 405.286 77.1716C404.993 76.8787 404.993 76.4039 405.286 76.111L409.646 71.7508L405.215 67.3111C404.923 67.0179 404.923 66.543 405.216 66.2504Z" fill="#A91255"/>
<path d="M192 45.275H7V58.275H192V45.275Z" fill="#A91255"/>
<path fill-rule="evenodd" clip-rule="evenodd" d="M319.217 44.4922H407.782V58.0578H319.217V44.4922ZM320.782 46.0578V56.4922H406.217V46.0578H320.782Z" fill="#EFB4CB"/>
<path fill-rule="evenodd" clip-rule="evenodd" d="M410.217 44.4922H523.782V58.0578H410.217V44.4922ZM411.782 46.0578V56.4922H522.217V46.0578H411.782Z" fill="#EFB4CB"/>
<path d="M528.054 46.3019C528.054 46.8691 527.594 47.3289 527.027 47.3289C526.46 47.3289 526 46.8691 526 46.3019C526 45.7347 526.46 45.275 527.027 45.275C527.594 45.275 528.054 45.7347 528.054 46.3019Z" fill="#A91255"/>
<path d="M528.054 57.0216C528.054 57.5888 527.594 58.0486 527.027 58.0486C526.46 58.0486 526 57.5888 526 57.0216C526 56.4545 526.46 55.9947 527.027 55.9947C527.594 55.9947 528.054 56.4545 528.054 57.0216Z" fill="#A91255"/>
<path d="M533.054 46.3019C533.054 46.8691 532.594 47.3289 532.027 47.3289C531.46 47.3289 531 46.8691 531 46.3019C531 45.7347 531.46 45.275 532.027 45.275C532.594 45.275 533.054 45.7347 533.054 46.3019Z" fill="#A91255"/>
<path d="M533.054 57.0216C533.054 57.5888 532.594 58.0486 532.027 58.0486C531.46 58.0486 531 57.5888 531 57.0216C531 56.4545 531.46 55.9947 532.027 55.9947C532.594 55.9947 533.054 56.4545 533.054 57.0216Z" fill="#A91255"/>
<path d="M538.054 46.3019C538.054 46.8691 537.594 47.3289 537.027 47.3289C536.46 47.3289 536 46.8691 536 46.3019C536 45.7347 536.46 45.275 537.027 45.275C537.594 45.275 538.054 45.7347 538.054 46.3019Z" fill="#A91255"/>
<path d="M538.054 57.0216C538.054 57.5888 537.594 58.0486 537.027 58.0486C536.46 58.0486 536 57.5888 536 57.0216C536 56.4545 536.46 55.9947 537.027 55.9947C537.594 55.9947 538.054 56.4545 538.054 57.0216Z" fill="#A91255"/>
<path fill-rule="evenodd" clip-rule="evenodd" d="M194.839 7.275C194.839 6.6339 195.359 6.1142 196 6.1142H239C239.641 6.1142 240.16 6.6339 240.16 7.275C240.16 7.91609 239.641 8.4358 239 8.4358H196C195.359 8.4358 194.839 7.91609 194.839 7.275Z" fill="#EFB4CB"/>
<path fill-rule="evenodd" clip-rule="evenodd" d="M364.839 7.275C364.839 6.6339 365.359 6.1142 366 6.1142L409 6.1142C409.641 6.1142 410.16 6.63391 410.16 7.275C410.16 7.91609 409.641 8.4358 409 8.4358L366 8.4358C365.359 8.4358 364.839 7.91609 364.839 7.275Z" fill="#EFB4CB"/>
<path d="M523.146 77.5117L533.195 71.7117L523.146 65.9117V77.5117Z" fill="#EFB4CB"/>
<path fill-rule="evenodd" clip-rule="evenodd" d="M18.8389 71.275C18.8389 70.6339 19.3586 70.1142 19.9997 70.1142H58.9997C59.6408 70.1142 60.1605 70.6339 60.1605 71.275C60.1605 71.9161 59.6408 72.4358 58.9997 72.4358H19.9997C19.3586 72.4358 18.8389 71.9161 18.8389 71.275Z" fill="#EFB4CB"/>
<path fill-rule="evenodd" clip-rule="evenodd" d="M137.295 72.2018C137.295 71.5607 137.815 71.041 138.456 71.041H183.706C184.347 71.041 184.867 71.5607 184.867 72.2018C184.867 72.8428 184.347 73.3626 183.706 73.3626H138.456C137.815 73.3626 137.295 72.8428 137.295 72.2018Z" fill="#EFB4CB"/>
<path d="M131.043 70.3786V68.1854H129.309C128.946 68.1854 128.657 68.2874 128.442 68.4914C128.238 68.6841 128.136 68.9504 128.136 69.2905C128.136 69.6192 128.238 69.8855 128.442 70.0895C128.657 70.2822 128.946 70.3786 129.309 70.3786H131.043ZM128.357 75.2749H125.841L127.626 71.6537C127.116 71.461 126.714 71.1493 126.419 70.7186C126.124 70.2879 125.977 69.7778 125.977 69.1885C125.977 68.3837 126.249 67.7207 126.793 67.1993C127.348 66.6779 128.057 66.4172 128.918 66.4172H133.219V75.2749H131.009V72.1297H129.819L128.357 75.2749Z" fill="#E2001A"/>
<path d="M124.117 75.275H121.907V66.6723H124.117V75.275ZM124.134 64.9041H121.873V63.102H124.134V64.9041Z" fill="#E2001A"/>
<path d="M120.279 77.4511H118.17V75.2749H111.795V66.4172H114.022V73.3198H116.861V66.4172H119.089V73.3198H120.279V77.4511Z" fill="#E2001A"/>
<path d="M109.429 75.275H107.27V74.5099C106.964 74.8159 106.647 75.0369 106.318 75.173C106.001 75.2976 105.593 75.36 105.094 75.36C104.108 75.36 103.354 75.0993 102.833 74.5779C102.345 74.0679 102.102 73.4048 102.102 72.5888C102.102 71.8407 102.362 71.2286 102.884 70.7526C103.405 70.2652 104.164 70.0215 105.162 70.0215H107.219V69.5795C107.219 69.0921 107.089 68.7408 106.828 68.5254C106.567 68.2987 106.148 68.1854 105.57 68.1854C104.878 68.1854 104.312 68.4404 103.87 68.9505L102.476 67.5733C102.906 67.0973 103.354 66.7686 103.819 66.5873C104.295 66.4059 104.907 66.3152 105.655 66.3152C108.171 66.3152 109.429 67.358 109.429 69.4435V75.275ZM107.219 72.0107V71.5347H105.536C104.663 71.5347 104.227 71.8747 104.227 72.5547C104.227 73.2235 104.674 73.5578 105.57 73.5578C106.148 73.5578 106.584 73.4162 106.879 73.1328C107.106 72.9401 107.219 72.5661 107.219 72.0107Z" fill="#E2001A"/>
<path d="M101.384 68.3724H98.8342V75.2749H96.6071V68.3724H94.0059V66.4172H101.384V68.3724Z" fill="#E2001A"/>
<path d="M88.2057 75.2749H85.9785V66.4172H88.2057V75.2749ZM93.9182 75.2749H91.2659L88.2227 70.6336L91.1299 66.4172H93.7141L90.5859 70.5486L93.9182 75.2749Z" fill="#E2001A"/>
<path d="M83.5952 75.275H81.436V74.5099C81.13 74.8159 80.8126 75.0369 80.4839 75.173C80.1666 75.2976 79.7585 75.36 79.2598 75.36C78.2737 75.36 77.52 75.0993 76.9986 74.5779C76.5113 74.0679 76.2676 73.4048 76.2676 72.5888C76.2676 71.8407 76.5283 71.2286 77.0496 70.7526C77.571 70.2652 78.3304 70.0215 79.3278 70.0215H81.385V69.5795C81.385 69.0921 81.2546 68.7408 80.994 68.5254C80.7333 68.2987 80.3139 68.1854 79.7359 68.1854C79.0445 68.1854 78.4778 68.4404 78.0357 68.9505L76.6416 67.5733C77.0723 67.0973 77.52 66.7686 77.9847 66.5873C78.4608 66.4059 79.0728 66.3152 79.8209 66.3152C82.3371 66.3152 83.5952 67.358 83.5952 69.4435V75.275ZM81.385 72.0107V71.5347H79.7019C78.8291 71.5347 78.3927 71.8747 78.3927 72.5547C78.3927 73.2235 78.8405 73.5578 79.7359 73.5578C80.3139 73.5578 80.7503 73.4162 81.045 73.1328C81.2716 72.9401 81.385 72.5661 81.385 72.0107Z" fill="#E2001A"/>
<path d="M74.2349 75.275H71.8717V65.2782H68.9814V68.7974C68.9814 70.4636 68.8341 71.7783 68.5394 72.7418C68.256 73.6938 67.848 74.3569 67.3153 74.7309C66.7939 75.0936 66.0969 75.275 65.2241 75.275H64.2891V73.1668H64.6291C64.9578 73.1668 65.2355 73.1101 65.4622 72.9968C65.7002 72.8721 65.9155 72.6567 66.1082 72.3507C66.3122 72.0334 66.4596 71.5687 66.5502 70.9566C66.6523 70.3446 66.7033 69.5795 66.7033 68.6614V63.17H74.2349V75.275Z" fill="#E2001A"/>
<path d="M299.414 70.3786V68.1854H297.68C297.317 68.1854 297.028 68.2874 296.813 68.4914C296.609 68.6841 296.507 68.9504 296.507 69.2905C296.507 69.6192 296.609 69.8855 296.813 70.0895C297.028 70.2822 297.317 70.3786 297.68 70.3786H299.414ZM296.728 75.2749H294.212L295.997 71.6537C295.487 71.461 295.085 71.1493 294.79 70.7186C294.495 70.2879 294.348 69.7778 294.348 69.1885C294.348 68.3837 294.62 67.7207 295.164 67.1993C295.719 66.6779 296.428 66.4172 297.289 66.4172H301.591V75.2749H299.38V72.1297H298.19L296.728 75.2749Z" fill="#E2001A"/>
<path d="M292.49 75.2749H290.263V71.7217H287.423V75.2749H285.196V66.4172H287.423V69.7665H290.263V66.4172H292.49V75.2749Z" fill="#E2001A"/>
<path d="M282.745 75.2749H280.518V71.7217H277.678V75.2749H275.451V66.4172H277.678V69.7665H280.518V66.4172H282.745V75.2749Z" fill="#E2001A"/>
<path d="M273.431 71.5347H267.888C267.888 72.124 268.058 72.6001 268.398 72.9628C268.738 73.3255 269.214 73.5068 269.826 73.5068C270.28 73.5068 270.648 73.4445 270.931 73.3198C271.226 73.1838 271.526 72.9684 271.832 72.6738L273.176 73.9829C272.699 74.4702 272.206 74.8273 271.696 75.0539C271.198 75.2693 270.569 75.377 269.809 75.377C269.243 75.377 268.727 75.309 268.262 75.173C267.809 75.0256 267.384 74.7876 266.987 74.4589C266.59 74.1302 266.279 73.6598 266.052 73.0478C265.825 72.4357 265.712 71.699 265.712 70.8376C265.712 69.4208 266.063 68.3157 266.766 67.5223C267.469 66.7176 268.404 66.3152 269.571 66.3152C270.784 66.3152 271.73 66.7119 272.41 67.5053C273.091 68.2874 273.431 69.3188 273.431 70.5996V71.5347ZM271.254 70.0215C271.243 69.6362 271.175 69.3188 271.05 69.0695C270.778 68.4574 270.285 68.1514 269.571 68.1514C268.857 68.1514 268.364 68.4574 268.092 69.0695C267.967 69.3188 267.899 69.6362 267.888 70.0215H271.254Z" fill="#E2001A"/>
<path d="M263.691 75.2749H261.48V72.1637C260.585 72.3224 259.78 72.4017 259.066 72.4017C258.341 72.4017 257.746 72.1864 257.281 71.7557C256.816 71.325 256.584 70.7356 256.584 69.9875V66.4172H258.794V69.3755C258.794 70.0895 259.157 70.4466 259.882 70.4466C260.166 70.4466 260.698 70.3956 261.48 70.2935V66.4172H263.691V75.2749Z" fill="#E2001A"/>
<path d="M255.611 66.4172L251.82 76.7031C251.582 77.3378 251.259 77.7968 250.851 78.0802C250.454 78.3749 249.922 78.5222 249.253 78.5222H248.386V76.533H248.896C249.224 76.533 249.462 76.4764 249.61 76.363C249.757 76.261 249.888 76.0513 250.001 75.734L250.375 74.6459L247.349 66.4172H249.678L251.514 71.8917L253.282 66.4172H255.611Z" fill="#E2001A"/>
<path d="M246.117 75.2749H243.907V68.3724H241.782V70.4976C241.782 72.2997 241.55 73.5465 241.085 74.2379C240.62 74.9293 239.906 75.2749 238.943 75.2749H237.889V73.3198H238.161C238.399 73.3198 238.586 73.2971 238.722 73.2518C238.858 73.1951 239.005 73.0704 239.164 72.8778C239.334 72.6737 239.453 72.3337 239.521 71.8577C239.6 71.3816 239.64 70.7639 239.64 70.0045V66.4172H246.117V75.2749Z" fill="#E2001A"/>
<path d="M237.259 77.4511H235.167V75.2749H230.101V77.4511H228.01V73.3198H228.911C229.489 72.2884 229.778 70.8886 229.778 69.1205V66.4172H236.136V73.3198H237.259V77.4511ZM233.926 73.3198V68.3724H231.903V69.5285C231.903 71.1266 231.676 72.3904 231.223 73.3198H233.926Z" fill="#E2001A"/>
<path d="M226.558 75.275H224.347V66.6723H226.558V75.275ZM226.575 64.9041H224.313V63.102H226.575V64.9041Z" fill="#E2001A"/>
<path d="M220.434 69.0695C220.819 69.2735 221.125 69.4888 221.352 69.7155C221.851 70.2482 222.1 70.9453 222.1 71.8067C222.1 72.8721 221.765 73.7165 221.097 74.3399C220.428 74.9633 219.527 75.275 218.394 75.275H213.327V63.17H218.19C219.334 63.17 220.241 63.4703 220.91 64.0711C221.59 64.6718 221.93 65.4822 221.93 66.5023C221.93 67.6583 221.431 68.5141 220.434 69.0695ZM215.69 68.0664H218.003C218.49 68.0664 218.87 67.9417 219.142 67.6923C219.425 67.443 219.567 67.103 219.567 66.6723C219.567 66.2416 219.425 65.9015 219.142 65.6522C218.87 65.4028 218.49 65.2782 218.003 65.2782H215.69V68.0664ZM215.69 73.1668H218.156C218.643 73.1668 219.028 73.0308 219.312 72.7588C219.595 72.4867 219.737 72.124 219.737 71.6707C219.737 71.2173 219.595 70.8603 219.312 70.5996C219.028 70.3276 218.643 70.1915 218.156 70.1915H215.69V73.1668Z" fill="#E2001A"/>
<path d="M359.041 3.4173L355.25 13.7031C355.012 14.3378 354.689 14.7969 354.281 15.0802C353.884 15.3749 353.351 15.5223 352.682 15.5223H351.815V13.5331H352.325C352.654 13.5331 352.892 13.4764 353.039 13.3631C353.187 13.2611 353.317 13.0514 353.431 12.734L353.805 11.646L350.778 3.4173H353.108L354.944 8.89174L356.712 3.4173H359.041Z" fill="#E2001A"/>
<path d="M350.356 5.37245H347.806V12.275H345.579V5.37245H342.978V3.4173H350.356V5.37245Z" fill="#E2001A"/>
<path d="M342.306 11.1699C341.536 11.9746 340.561 12.377 339.382 12.377C339.008 12.377 338.645 12.3373 338.294 12.258C337.943 12.1673 337.586 12.0199 337.223 11.8159C336.872 11.6006 336.566 11.3286 336.305 10.9999C336.044 10.6598 335.829 10.2235 335.659 9.69076C335.5 9.14672 335.421 8.529 335.421 7.83761C335.421 7.14622 335.5 6.53417 335.659 6.00146C335.829 5.45742 336.044 5.02105 336.305 4.69236C336.566 4.36366 336.872 4.09164 337.223 3.87629C337.586 3.66094 337.943 3.5136 338.294 3.43426C338.645 3.35492 339.008 3.31525 339.382 3.31525C340.572 3.31525 341.547 3.71194 342.306 4.50534L340.81 6.00146C340.38 5.53676 339.904 5.30441 339.382 5.30441C338.861 5.30441 338.441 5.49709 338.124 5.88245C337.795 6.29049 337.631 6.9422 337.631 7.83761C337.631 8.74435 337.795 9.40174 338.124 9.80977C338.441 10.1951 338.861 10.3878 339.382 10.3878C339.904 10.3878 340.38 10.1555 340.81 9.69076L342.306 11.1699Z" fill="#E2001A"/>
<path d="M333.755 7.83761C333.755 8.68768 333.682 9.37907 333.534 9.91178C333.398 10.4332 333.138 10.8922 332.752 11.2889C332.05 12.0143 331.132 12.377 329.998 12.377C328.876 12.377 327.964 12.0143 327.261 11.2889C326.876 10.8809 326.609 10.4162 326.462 9.89478C326.326 9.36207 326.258 8.67634 326.258 7.83761C326.258 6.99888 326.326 6.31882 326.462 5.79745C326.609 5.27607 326.876 4.81137 327.261 4.40333C327.964 3.67794 328.876 3.31525 329.998 3.31525C331.154 3.31525 332.072 3.67794 332.752 4.40333C333.138 4.81137 333.398 5.27607 333.534 5.79745C333.682 6.31882 333.755 6.99888 333.755 7.83761ZM331.545 7.83761C331.545 6.73819 331.375 6.02413 331.035 5.69544C330.775 5.43475 330.429 5.30441 329.998 5.30441C329.579 5.30441 329.239 5.43475 328.978 5.69544C328.638 6.02413 328.468 6.73819 328.468 7.83761C328.468 8.94837 328.638 9.66809 328.978 9.99678C329.239 10.2575 329.579 10.3878 329.998 10.3878C330.429 10.3878 330.775 10.2575 331.035 9.99678C331.375 9.66809 331.545 8.94837 331.545 7.83761Z" fill="#E2001A"/>
<path d="M324.531 7.83761C324.531 8.75568 324.474 9.50941 324.361 10.0988C324.247 10.6882 323.998 11.1812 323.613 11.5779C323.103 12.1106 322.389 12.377 321.471 12.377C320.552 12.377 319.838 12.0823 319.328 11.4929V15.5222H317.118V3.41725H319.26V4.25032C319.816 3.62694 320.552 3.31525 321.471 3.31525C322.389 3.31525 323.103 3.5816 323.613 4.11431C323.998 4.51101 324.247 5.00405 324.361 5.59343C324.474 6.18281 324.531 6.93087 324.531 7.83761ZM322.27 8.85769C322.304 8.58567 322.321 8.24564 322.321 7.83761C322.321 7.42958 322.304 7.09522 322.27 6.83453C322.236 6.56251 322.168 6.30182 322.066 6.05247C321.975 5.80311 321.822 5.6161 321.607 5.49142C321.403 5.36674 321.142 5.30441 320.824 5.30441C320.507 5.30441 320.241 5.36674 320.025 5.49142C319.821 5.6161 319.668 5.80311 319.566 6.05247C319.476 6.30182 319.413 6.56251 319.379 6.83453C319.345 7.09522 319.328 7.42958 319.328 7.83761C319.328 8.24564 319.345 8.58567 319.379 8.85769C319.413 9.11838 319.476 9.37907 319.566 9.63976C319.668 9.88911 319.821 10.0761 320.025 10.2008C320.241 10.3255 320.507 10.3878 320.824 10.3878C321.142 10.3878 321.403 10.3255 321.607 10.2008C321.822 10.0761 321.975 9.88911 322.066 9.63976C322.168 9.37907 322.236 9.11838 322.27 8.85769Z" fill="#E2001A"/>
<path d="M310.781 12.275H308.554V5.37245H305.714V12.275H303.487V3.4173H310.781V12.275Z" fill="#E2001A"/>
<path d="M301.121 12.275H298.961V11.5099C298.655 11.8159 298.338 12.0369 298.009 12.173C297.692 12.2976 297.284 12.36 296.785 12.36C295.799 12.36 295.045 12.0993 294.524 11.5779C294.037 11.0679 293.793 10.4048 293.793 9.58875C293.793 8.84069 294.054 8.22864 294.575 7.7526C295.096 7.26523 295.856 7.02154 296.853 7.02154H298.91V6.57951C298.91 6.09214 298.78 5.74077 298.519 5.52542C298.259 5.29874 297.839 5.1854 297.261 5.1854C296.57 5.1854 296.003 5.44042 295.561 5.95046L294.167 4.57335C294.598 4.09731 295.045 3.76862 295.51 3.58727C295.986 3.40592 296.598 3.31525 297.346 3.31525C299.862 3.31525 301.121 4.358 301.121 6.4435V12.275ZM298.91 9.0107V8.53467H297.227C296.355 8.53467 295.918 8.87469 295.918 9.55475C295.918 10.2235 296.366 10.5578 297.261 10.5578C297.839 10.5578 298.276 10.4162 298.57 10.1328C298.797 9.94011 298.91 9.56608 298.91 9.0107Z" fill="#E2001A"/>
<path d="M293.077 5.37245H290.527V12.275H288.299V5.37245H285.698V3.4173H293.077V5.37245Z" fill="#E2001A"/>
<path d="M284.881 8.53467H279.338C279.338 9.12405 279.508 9.60009 279.848 9.96278C280.188 10.3255 280.664 10.5068 281.276 10.5068C281.73 10.5068 282.098 10.4445 282.382 10.3198C282.676 10.1838 282.977 9.96845 283.283 9.67376L284.626 10.9829C284.15 11.4702 283.657 11.8273 283.147 12.0539C282.648 12.2693 282.019 12.377 281.259 12.377C280.693 12.377 280.177 12.309 279.712 12.173C279.259 12.0256 278.834 11.7876 278.437 11.4589C278.041 11.1302 277.729 10.6598 277.502 10.0478C277.275 9.43574 277.162 8.69901 277.162 7.83761C277.162 6.42083 277.513 5.31574 278.216 4.52234C278.919 3.71761 279.854 3.31525 281.021 3.31525C282.234 3.31525 283.181 3.71194 283.861 4.50534C284.541 5.2874 284.881 6.31882 284.881 7.59959V8.53467ZM282.705 7.02154C282.693 6.63618 282.625 6.31882 282.501 6.06947C282.229 5.45742 281.735 5.15139 281.021 5.15139C280.307 5.15139 279.814 5.45742 279.542 6.06947C279.418 6.31882 279.35 6.63618 279.338 7.02154H282.705Z" fill="#E2001A"/>
<path d="M270.153 0C270.13 0.850069 269.852 1.46779 269.319 1.85315C268.798 2.23851 268.158 2.4312 267.398 2.4312C266.639 2.4312 265.999 2.23851 265.477 1.85315C264.956 1.46779 264.678 0.850069 264.644 0H266.31C266.356 0.702724 266.718 1.05409 267.398 1.05409C268.078 1.05409 268.441 0.702724 268.486 0H270.153ZM271.19 12.275H268.962V6.86855L265.851 12.275H263.624V3.41728H265.851V8.6877L268.962 3.41728H271.19V12.275Z" fill="#E2001A"/>
<path d="M261.4 8.44968H256.164V6.39252H261.4V8.44968Z" fill="#E2001A"/>
<path d="M252.356 12.275H250.146V2.55024L247.681 4.69241V2.31222L250.146 0.170044H252.356V12.275Z" fill="#E2001A"/>
<path fill-rule="evenodd" clip-rule="evenodd" d="M421.99 71.275C421.99 70.7172 422.442 70.265 423 70.265L445 70.265C445.558 70.265 446.01 70.7172 446.01 71.275C446.01 71.8328 445.558 72.285 445 72.285L423 72.285C422.442 72.285 421.99 71.8328 421.99 71.275Z" fill="#EFB4CB"/>
<path fill-rule="evenodd" clip-rule="evenodd" d="M487.99 71.275C487.99 70.7172 488.442 70.265 489 70.265L517 70.265C517.558 70.265 518.01 70.7172 518.01 71.275C518.01 71.8328 517.558 72.285 517 72.285L489 72.285C488.442 72.285 487.99 71.8328 487.99 71.275Z" fill="#EFB4CB"/>
<path d="M482.091 68.3724H479.541V75.2749H477.314V68.3724H474.713V66.4172H482.091V68.3724Z" fill="#E2001A"/>
<path d="M474.043 74.1699C473.272 74.9746 472.297 75.377 471.119 75.377C470.745 75.377 470.382 75.3373 470.03 75.258C469.679 75.1673 469.322 75.0199 468.959 74.8159C468.608 74.6006 468.302 74.3286 468.041 73.9999C467.781 73.6598 467.565 73.2235 467.395 72.6908C467.237 72.1467 467.157 71.529 467.157 70.8376C467.157 70.1462 467.237 69.5342 467.395 69.0015C467.565 68.4574 467.781 68.021 468.041 67.6924C468.302 67.3637 468.608 67.0916 468.959 66.8763C469.322 66.6609 469.679 66.5136 470.03 66.4343C470.382 66.3549 470.745 66.3152 471.119 66.3152C472.309 66.3152 473.283 66.7119 474.043 67.5053L472.547 69.0015C472.116 68.5368 471.64 68.3044 471.119 68.3044C470.597 68.3044 470.178 68.4971 469.86 68.8825C469.532 69.2905 469.367 69.9422 469.367 70.8376C469.367 71.7443 469.532 72.4017 469.86 72.8098C470.178 73.1951 470.597 73.3878 471.119 73.3878C471.64 73.3878 472.116 73.1555 472.547 72.6908L474.043 74.1699Z" fill="#E2001A"/>
<path d="M465.127 75.275H462.917V66.6723H465.127V75.275ZM465.144 64.9041H462.883V63.102H465.144V64.9041Z" fill="#E2001A"/>
<path d="M460.011 64.2581C460.736 64.9835 461.099 65.8789 461.099 66.9443C461.099 68.0097 460.736 68.9051 460.011 69.6305C459.297 70.3559 458.328 70.7186 457.104 70.7186H454.774V75.275H452.411V63.17H457.104C458.328 63.17 459.297 63.5327 460.011 64.2581ZM458.26 68.1514C458.577 67.8454 458.736 67.443 458.736 66.9443C458.736 66.4456 458.577 66.0432 458.26 65.7372C457.942 65.4312 457.517 65.2782 456.985 65.2782H454.774V68.5934H456.985C457.517 68.5934 457.942 68.4461 458.26 68.1514Z" fill="#E2001A"/>
<path d="M73.0881 112.206V110.517H71.7527C71.4734 110.517 71.2509 110.595 71.0851 110.753C70.928 110.901 70.8494 111.106 70.8494 111.368C70.8494 111.621 70.928 111.826 71.0851 111.983C71.2509 112.132 71.4734 112.206 71.7527 112.206H73.0881ZM71.0196 115.976H69.082L70.4566 113.188C70.0639 113.039 69.7541 112.799 69.5271 112.468C69.3002 112.136 69.1868 111.743 69.1868 111.289C69.1868 110.67 69.3962 110.159 69.8152 109.758C70.2428 109.356 70.7883 109.155 71.4516 109.155H74.7638V115.976H73.0619V113.554H72.1455L71.0196 115.976Z" fill="#A91255"/>
<path d="M67.7569 115.976H66.0419V113.24H63.8556V115.976H62.1406V109.155H63.8556V111.734H66.0419V109.155H67.7569V115.976Z" fill="#A91255"/>
<path d="M60.252 115.976H58.537V113.24H56.3507V115.976H54.6357V109.155H56.3507V111.734H58.537V109.155H60.252V115.976Z" fill="#A91255"/>
<path d="M53.0803 113.096H48.8124C48.8124 113.55 48.9434 113.916 49.2052 114.196C49.467 114.475 49.8336 114.615 50.3049 114.615C50.654 114.615 50.9376 114.567 51.1558 114.471C51.3828 114.366 51.614 114.2 51.8497 113.973L52.8839 114.981C52.5174 115.356 52.1377 115.631 51.745 115.806C51.3609 115.972 50.8766 116.055 50.2918 116.055C49.8554 116.055 49.4583 116.002 49.1005 115.898C48.7513 115.784 48.4241 115.601 48.1186 115.348C47.8131 115.095 47.5731 114.732 47.3985 114.261C47.224 113.79 47.1367 113.223 47.1367 112.559C47.1367 111.468 47.4073 110.617 47.9484 110.006C48.4895 109.387 49.2096 109.077 50.1085 109.077C51.0424 109.077 51.7711 109.382 52.2948 109.993C52.8185 110.595 53.0803 111.39 53.0803 112.376V113.096ZM51.4046 111.931C51.3959 111.634 51.3435 111.39 51.2475 111.198C51.038 110.726 50.6584 110.491 50.1085 110.491C49.5587 110.491 49.179 110.726 48.9695 111.198C48.8735 111.39 48.8212 111.634 48.8124 111.931H51.4046Z" fill="#A91255"/>
<path d="M46.8599 115.976H44.8699L42.6575 112.402L44.7652 109.155H46.7159L44.4772 112.337L46.8599 115.976ZM42.6444 115.976H40.9294V109.155H42.6444V115.976ZM38.7169 115.976H36.7139L39.1096 112.337L36.871 109.155H38.8216L40.9163 112.402L38.7169 115.976Z" fill="#A91255"/>
<path d="M36.49 117.652H34.8797V115.976H30.9784V117.652H29.3682V114.471H30.062C30.5071 113.676 30.7297 112.598 30.7297 111.237V109.155H35.6259V114.471H36.49V117.652ZM33.924 114.471V110.661H32.3661V111.551C32.3661 112.782 32.1916 113.755 31.8425 114.471H33.924Z" fill="#A91255"/>
<path d="M28.7226 112.559C28.7226 113.214 28.6659 113.746 28.5524 114.156C28.4477 114.558 28.247 114.911 27.9502 115.217C27.4091 115.775 26.7021 116.055 25.8294 116.055C24.9653 116.055 24.2627 115.775 23.7216 115.217C23.4249 114.903 23.2198 114.545 23.1063 114.143C23.0016 113.733 22.9492 113.205 22.9492 112.559C22.9492 111.913 23.0016 111.39 23.1063 110.988C23.2198 110.587 23.4249 110.229 23.7216 109.915C24.2627 109.356 24.9653 109.077 25.8294 109.077C26.7196 109.077 27.4265 109.356 27.9502 109.915C28.247 110.229 28.4477 110.587 28.5524 110.988C28.6659 111.39 28.7226 111.913 28.7226 112.559ZM27.0207 112.559C27.0207 111.713 26.8898 111.163 26.628 110.91C26.4272 110.709 26.161 110.609 25.8294 110.609C25.5064 110.609 25.2446 110.709 25.0439 110.91C24.782 111.163 24.6511 111.713 24.6511 112.559C24.6511 113.415 24.782 113.969 25.0439 114.222C25.2446 114.423 25.5064 114.523 25.8294 114.523C26.161 114.523 26.4272 114.423 26.628 114.222C26.8898 113.969 27.0207 113.415 27.0207 112.559Z" fill="#A91255"/>
<path d="M21.6191 112.559C21.6191 113.266 21.5754 113.847 21.4882 114.3C21.4009 114.754 21.2089 115.134 20.9121 115.439C20.5194 115.85 19.9695 116.055 19.2626 116.055C18.5556 116.055 18.0058 115.828 17.613 115.374V118.477H15.9111V109.155H17.5607V109.797C17.9883 109.317 18.5556 109.077 19.2626 109.077C19.9695 109.077 20.5194 109.282 20.9121 109.692C21.2089 109.998 21.4009 110.377 21.4882 110.831C21.5754 111.285 21.6191 111.861 21.6191 112.559ZM19.8779 113.345C19.9041 113.135 19.9172 112.873 19.9172 112.559C19.9172 112.245 19.9041 111.988 19.8779 111.787C19.8517 111.577 19.7993 111.377 19.7208 111.185C19.651 110.993 19.5331 110.849 19.3673 110.753C19.2102 110.657 19.0095 110.609 18.7651 110.609C18.5207 110.609 18.3156 110.657 18.1498 110.753C17.9927 110.849 17.8749 110.993 17.7963 111.185C17.7265 111.377 17.6785 111.577 17.6523 111.787C17.6261 111.988 17.613 112.245 17.613 112.559C17.613 112.873 17.6261 113.135 17.6523 113.345C17.6785 113.545 17.7265 113.746 17.7963 113.947C17.8749 114.139 17.9927 114.283 18.1498 114.379C18.3156 114.475 18.5207 114.523 18.7651 114.523C19.0095 114.523 19.2102 114.475 19.3673 114.379C19.5331 114.283 19.651 114.139 19.7208 113.947C19.7993 113.746 19.8517 113.545 19.8779 113.345Z" fill="#A91255"/>
<path d="M14.0761 115.976H12.4134V115.387C12.1778 115.623 11.9334 115.793 11.6803 115.898C11.4359 115.994 11.1217 116.042 10.7377 116.042C9.9784 116.042 9.39801 115.841 8.99653 115.439C8.62124 115.047 8.43359 114.536 8.43359 113.908C8.43359 113.332 8.63433 112.86 9.03581 112.494C9.43728 112.118 10.022 111.931 10.7901 111.931H12.3742V111.59C12.3742 111.215 12.2738 110.945 12.0731 110.779C11.8723 110.604 11.5494 110.517 11.1043 110.517C10.5719 110.517 10.1355 110.713 9.79512 111.106L8.72161 110.046C9.05326 109.679 9.39801 109.426 9.75585 109.286C10.1224 109.147 10.5937 109.077 11.1697 109.077C13.1073 109.077 14.0761 109.88 14.0761 111.486V115.976ZM12.3742 113.463V113.096H11.0781C10.4061 113.096 10.07 113.358 10.07 113.881C10.07 114.396 10.4148 114.654 11.1043 114.654C11.5494 114.654 11.8854 114.545 12.1123 114.327C12.2869 114.178 12.3742 113.89 12.3742 113.463Z" fill="#A91255"/>
<path d="M6.88146 115.976H5.06172V112.075H1.90665V115.976H0.0869141V106.655H1.90665V110.465H5.06172V106.655H6.88146V115.976Z" fill="#A91255"/>
<path d="M7 67.275C4.79277 67.275 3 69.0677 3 71.275C3 73.4822 4.79277 75.275 7 75.275C9.20723 75.275 11 73.4822 11 71.275C10.9904 69.0677 9.1976 67.275 7 67.275Z" fill="#A91255"/>
<path d="M7 64.275C3.13733 64.275 0 67.4123 0 71.275C0 75.1376 3.13733 78.275 7 78.275C10.8627 78.275 14 75.1376 14 71.275C13.9913 67.4123 10.8539 64.275 7 64.275ZM7 76.2388C4.25593 76.2388 2.02746 74.0103 2.02746 71.2662C2.02746 68.5222 4.25593 66.2937 7 66.2937C9.74407 66.2937 11.9725 68.5222 11.9725 71.2662C11.9725 74.0103 9.74407 76.2388 7 76.2388Z" fill="#F7DBE7"/>
<path fill-rule="evenodd" clip-rule="evenodd" d="M6.36621 98.9213V79.7813H8.36621V98.9213H6.36621Z" fill="black"/>
<path fill-rule="evenodd" clip-rule="evenodd" d="M5.92578 61.8517V30.7017H7.92578V61.8517H5.92578Z" fill="black"/>
<path d="M196.056 80.6715C191.106 80.6715 187.086 76.6515 187.086 71.7015C187.086 66.7515 191.106 62.7315 196.056 62.7315C201.006 62.7315 205.026 66.7515 205.026 71.7015C205.026 76.6615 201.006 80.6715 196.056 80.6715Z" fill="#F7DBE7"/>
<path fill-rule="evenodd" clip-rule="evenodd" d="M193.586 66.251C193.879 65.9581 194.354 65.9581 194.647 66.251L199.617 71.221C199.757 71.3616 199.836 71.5524 199.836 71.7513C199.836 71.9502 199.757 72.141 199.617 72.2816L194.727 77.1716C194.434 77.4645 193.959 77.4645 193.666 77.1716C193.373 76.8787 193.373 76.4039 193.666 76.111L198.026 71.7513L193.586 67.3116C193.293 67.0187 193.293 66.5439 193.586 66.251Z" fill="#A91255"/>
<path d="M224.74 112.206C225.159 112.607 225.368 113.131 225.368 113.777C225.368 114.422 225.154 114.951 224.727 115.361C224.308 115.762 223.767 115.963 223.103 115.963H219.817V109.142H221.532V111.603H223.103C223.775 111.603 224.321 111.804 224.74 112.206ZM222.789 112.939H221.48V114.628H222.789C223.06 114.628 223.274 114.553 223.431 114.405C223.596 114.248 223.679 114.038 223.679 113.777C223.679 113.524 223.596 113.323 223.431 113.174C223.274 113.017 223.06 112.939 222.789 112.939Z" fill="#A91255"/>
<path d="M218.578 117.639H216.954V115.963H212.045V109.142H213.76V114.457H215.946V109.142H217.661V114.457H218.578V117.639Z" fill="#A91255"/>
<path d="M208.482 112.193V110.504H207.146C206.867 110.504 206.644 110.582 206.479 110.739C206.322 110.888 206.243 111.093 206.243 111.355C206.243 111.608 206.322 111.813 206.479 111.97C206.644 112.118 206.867 112.193 207.146 112.193H208.482ZM206.413 115.963H204.476L205.85 113.174C205.457 113.026 205.148 112.786 204.921 112.454C204.694 112.123 204.58 111.73 204.58 111.276C204.58 110.656 204.79 110.146 205.209 109.744C205.636 109.343 206.182 109.142 206.845 109.142H210.157V115.963H208.455V113.541H207.539L206.413 115.963Z" fill="#A91255"/>
<path d="M203.723 115.112C203.13 115.732 202.379 116.041 201.471 116.041C201.183 116.041 200.904 116.011 200.633 115.95C200.363 115.88 200.088 115.767 199.809 115.609C199.538 115.444 199.302 115.234 199.102 114.981C198.901 114.719 198.735 114.383 198.604 113.973C198.482 113.554 198.421 113.078 198.421 112.546C198.421 112.014 198.482 111.542 198.604 111.132C198.735 110.713 198.901 110.377 199.102 110.124C199.302 109.871 199.538 109.662 199.809 109.496C200.088 109.33 200.363 109.216 200.633 109.155C200.904 109.094 201.183 109.064 201.471 109.064C202.388 109.064 203.138 109.369 203.723 109.98L202.571 111.132C202.239 110.774 201.873 110.595 201.471 110.595C201.07 110.595 200.747 110.744 200.502 111.04C200.249 111.355 200.123 111.857 200.123 112.546C200.123 113.244 200.249 113.75 200.502 114.065C200.747 114.361 201.07 114.51 201.471 114.51C201.873 114.51 202.239 114.331 202.571 113.973L203.723 115.112Z" fill="#A91255"/>
<path d="M196.858 115.963H195.156V109.339H196.858V115.963ZM196.871 107.977H195.13V106.589H196.871V107.977Z" fill="#A91255"/>
<path d="M193.248 115.963H191.546V112.022L190.263 114.549H189.294L187.998 112.022V115.963H186.283V109.142H187.972L189.779 112.729L191.572 109.142H193.248V115.963Z" fill="#A91255"/>
<path d="M180.138 115.963H178.436V108.475L176.538 110.124V108.291L178.436 106.642H180.138V115.963Z" fill="#A91255"/>
<path fill-rule="evenodd" clip-rule="evenodd" d="M196.595 84.3207C197.236 84.3207 197.756 84.8404 197.756 85.4815V102.332C197.756 102.973 197.236 103.492 196.595 103.492C195.954 103.492 195.435 102.973 195.435 102.332V85.4815C195.435 84.8404 195.954 84.3207 196.595 84.3207Z" fill="#EFB4CB"/>
<path d="M317.616 80.6715C312.666 80.6715 308.646 76.6515 308.646 71.7015C308.646 66.7515 312.666 62.7315 317.616 62.7315C322.566 62.7315 326.586 66.7515 326.586 71.7015C326.576 76.6615 322.566 80.6715 317.616 80.6715Z" fill="#F7DBE7"/>
<path fill-rule="evenodd" clip-rule="evenodd" d="M315.145 66.251C315.438 65.9581 315.913 65.9581 316.206 66.251L321.176 71.221C321.317 71.3616 321.396 71.5524 321.396 71.7513C321.396 71.9502 321.317 72.141 321.176 72.2816L316.286 77.1716C315.993 77.4645 315.518 77.4645 315.225 77.1716C314.933 76.8787 314.933 76.4039 315.225 76.111L319.585 71.7513L315.145 67.3116C314.853 67.0187 314.853 66.5439 315.145 66.251Z" fill="#A91255"/>
<path fill-rule="evenodd" clip-rule="evenodd" d="M318.155 84.3207C318.796 84.3207 319.316 84.8404 319.316 85.4815V102.332C319.316 102.973 318.796 103.492 318.155 103.492C317.514 103.492 316.994 102.973 316.994 102.332V85.4815C316.994 84.8404 317.514 84.3207 318.155 84.3207Z" fill="#EFB4CB"/>
<path fill-rule="evenodd" clip-rule="evenodd" d="M409.055 84.3207C409.696 84.3207 410.216 84.8404 410.216 85.4815V102.332C410.216 102.973 409.696 103.492 409.055 103.492C408.414 103.492 407.895 102.973 407.895 102.332V85.4815C407.895 84.8404 408.414 84.3207 409.055 84.3207Z" fill="#EFB4CB"/>
<path fill-rule="evenodd" clip-rule="evenodd" d="M196.595 6.41058C197.236 6.41058 197.756 6.93029 197.756 7.57138V39.7314C197.756 40.3725 197.236 40.8922 196.595 40.8922C195.954 40.8922 195.435 40.3725 195.435 39.7314V7.57138C195.435 6.93029 195.954 6.41058 196.595 6.41058Z" fill="#EFB4CB"/>
<path fill-rule="evenodd" clip-rule="evenodd" d="M409.055 6.41058C409.696 6.41058 410.216 6.93029 410.216 7.57138V39.7314C410.216 40.3725 409.696 40.8922 409.055 40.8922C408.414 40.8922 407.895 40.3725 407.895 39.7314V7.57138C407.895 6.93029 408.414 6.41058 409.055 6.41058Z" fill="#EFB4CB"/>
<path fill-rule="evenodd" clip-rule="evenodd" d="M531 81.1142C531.641 81.1142 532.16 81.6339 532.16 82.275L532.16 102.275C532.16 102.916 531.641 103.436 531 103.436C530.359 103.436 529.839 102.916 529.839 102.275L529.839 82.275C529.839 81.6339 530.359 81.1142 531 81.1142Z" fill="#EFB4CB"/>
<mask id="mask0_2262_3167" style="mask-type:luminance" maskUnits="userSpaceOnUse" x="195" y="44" width="122" height="14">
<path d="M317 44.8414H195.466V57.7514H317V44.8414Z" fill="white"/>
</mask>
<g mask="url(#mask0_2262_3167)">
<path fill-rule="evenodd" clip-rule="evenodd" d="M298.941 59.8775L312.882 40.7075L313.691 41.2956L299.75 60.4656L298.941 59.8775Z" fill="#EFB4CB"/>
<path fill-rule="evenodd" clip-rule="evenodd" d="M300.614 62.8574L314.555 43.6874L315.364 44.2756L301.423 63.4456L300.614 62.8574Z" fill="#EFB4CB"/>
<path fill-rule="evenodd" clip-rule="evenodd" d="M302.164 65.4975L320.921 39.7075L321.73 40.2956L302.973 66.0856L302.164 65.4975Z" fill="#EFB4CB"/>
<path fill-rule="evenodd" clip-rule="evenodd" d="M302.541 70.0974L321.298 44.2974L322.107 44.8854L303.35 70.6854L302.541 70.0974Z" fill="#EFB4CB"/>
<path fill-rule="evenodd" clip-rule="evenodd" d="M309.179 67.0773L327.936 41.2773L328.744 41.8654L309.988 67.6654L309.179 67.0773Z" fill="#EFB4CB"/>
</g>
<mask id="mask1_2262_3167" style="mask-type:luminance" maskUnits="userSpaceOnUse" x="195" y="44" width="122" height="14">
<path d="M317 44.8414H195.466V57.7514H317V44.8414Z" fill="white"/>
</mask>
<g mask="url(#mask1_2262_3167)">
<path fill-rule="evenodd" clip-rule="evenodd" d="M183.188 59.8775L197.129 40.7075L197.938 41.2956L183.997 60.4656L183.188 59.8775Z" fill="#EFB4CB"/>
<path fill-rule="evenodd" clip-rule="evenodd" d="M184.87 62.8576L198.802 43.6876L199.611 44.2755L185.679 63.4455L184.87 62.8576Z" fill="#EFB4CB"/>
<path fill-rule="evenodd" clip-rule="evenodd" d="M186.411 65.4975L205.168 39.7075L205.977 40.2956L187.22 66.0856L186.411 65.4975Z" fill="#EFB4CB"/>
<path fill-rule="evenodd" clip-rule="evenodd" d="M186.788 70.0974L205.545 44.2974L206.354 44.8854L187.597 70.6854L186.788 70.0974Z" fill="#EFB4CB"/>
<path fill-rule="evenodd" clip-rule="evenodd" d="M193.426 67.0773L212.183 41.2773L212.991 41.8654L194.235 67.6654L193.426 67.0773Z" fill="#EFB4CB"/>
<path fill-rule="evenodd" clip-rule="evenodd" d="M195.955 69.1977L214.712 43.4077L215.521 43.9958L196.764 69.7858L195.955 69.1977Z" fill="#EFB4CB"/>
<path fill-rule="evenodd" clip-rule="evenodd" d="M201.964 66.1674L220.721 40.3774L221.529 40.9656L202.773 66.7556L201.964 66.1674Z" fill="#EFB4CB"/>
<path fill-rule="evenodd" clip-rule="evenodd" d="M202.34 70.7572L221.097 44.9672L221.905 45.5554L203.149 71.3454L202.34 70.7572Z" fill="#EFB4CB"/>
<path fill-rule="evenodd" clip-rule="evenodd" d="M210.071 65.3176L228.828 39.5176L229.637 40.1056L210.88 65.9056L210.071 65.3176Z" fill="#EFB4CB"/>
<path fill-rule="evenodd" clip-rule="evenodd" d="M210.447 69.9074L229.204 44.1074L230.013 44.6955L211.256 70.4954L210.447 69.9074Z" fill="#EFB4CB"/>
<path fill-rule="evenodd" clip-rule="evenodd" d="M218.872 64.3772L237.638 38.5872L238.446 39.1756L219.681 64.9656L218.872 64.3772Z" fill="#EFB4CB"/>
<path fill-rule="evenodd" clip-rule="evenodd" d="M219.248 68.9672L238.005 43.1772L238.814 43.7654L220.057 69.5554L219.248 68.9672Z" fill="#EFB4CB"/>
<path fill-rule="evenodd" clip-rule="evenodd" d="M226.999 63.5175L245.756 37.7275L246.565 38.3157L227.808 64.1057L226.999 63.5175Z" fill="#EFB4CB"/>
<path fill-rule="evenodd" clip-rule="evenodd" d="M227.366 68.1073L246.123 42.3173L246.932 42.9055L228.175 68.6955L227.366 68.1073Z" fill="#EFB4CB"/>
<path fill-rule="evenodd" clip-rule="evenodd" d="M235.404 62.6273L254.161 36.8373L254.97 37.4255L236.213 63.2155L235.404 62.6273Z" fill="#EFB4CB"/>
<path fill-rule="evenodd" clip-rule="evenodd" d="M235.772 67.2172L254.529 41.4272L255.338 42.0154L236.581 67.8054L235.772 67.2172Z" fill="#EFB4CB"/>
<path fill-rule="evenodd" clip-rule="evenodd" d="M243.181 61.8073L261.938 36.0073L262.746 36.5954L243.99 62.3954L243.181 61.8073Z" fill="#EFB4CB"/>
<path fill-rule="evenodd" clip-rule="evenodd" d="M243.558 66.3977L262.314 40.5977L263.123 41.1857L244.366 66.9857L243.558 66.3977Z" fill="#EFB4CB"/>
<path fill-rule="evenodd" clip-rule="evenodd" d="M251.324 60.9475L270.081 35.1475L270.89 35.7355L252.133 61.5355L251.324 60.9475Z" fill="#EFB4CB"/>
<path fill-rule="evenodd" clip-rule="evenodd" d="M251.692 65.5373L270.449 39.7373L271.258 40.3253L252.501 66.1253L251.692 65.5373Z" fill="#EFB4CB"/>
<path fill-rule="evenodd" clip-rule="evenodd" d="M258.917 60.1376L277.674 34.3476L278.483 34.9358L259.726 60.7258L258.917 60.1376Z" fill="#EFB4CB"/>
<path fill-rule="evenodd" clip-rule="evenodd" d="M259.293 64.7375L278.05 38.9375L278.859 39.5255L260.102 65.3255L259.293 64.7375Z" fill="#EFB4CB"/>
<path fill-rule="evenodd" clip-rule="evenodd" d="M266.509 59.3376L285.266 33.5376L286.074 34.1256L267.318 59.9256L266.509 59.3376Z" fill="#EFB4CB"/>
<path fill-rule="evenodd" clip-rule="evenodd" d="M266.885 63.9274L285.642 38.1274L286.45 38.7155L267.694 64.5155L266.885 63.9274Z" fill="#EFB4CB"/>
<path fill-rule="evenodd" clip-rule="evenodd" d="M273.872 58.5573L292.629 32.7573L293.438 33.3454L274.681 59.1454L273.872 58.5573Z" fill="#EFB4CB"/>
<path fill-rule="evenodd" clip-rule="evenodd" d="M274.241 63.1474L292.998 37.3574L293.807 37.9455L275.05 63.7355L274.241 63.1474Z" fill="#EFB4CB"/>
<path fill-rule="evenodd" clip-rule="evenodd" d="M281.868 57.7175L300.625 31.9175L301.434 32.5055L282.677 58.3055L281.868 57.7175Z" fill="#EFB4CB"/>
<path fill-rule="evenodd" clip-rule="evenodd" d="M282.244 62.3073L301.001 36.5073L301.81 37.0954L283.053 62.8954L282.244 62.3073Z" fill="#EFB4CB"/>
<path fill-rule="evenodd" clip-rule="evenodd" d="M286.264 61.8776L305.02 36.0776L305.829 36.6657L287.073 62.4657L286.264 61.8776Z" fill="#EFB4CB"/>
<path fill-rule="evenodd" clip-rule="evenodd" d="M289.774 62.3073L308.531 36.5073L309.34 37.0954L290.583 62.8954L289.774 62.3073Z" fill="#EFB4CB"/>
<path fill-rule="evenodd" clip-rule="evenodd" d="M293.392 62.3073L312.157 36.5073L312.966 37.0955L294.2 62.8955L293.392 62.3073Z" fill="#EFB4CB"/>
</g>
<path d="M343.588 115.963H341.887V109.339H343.588V115.963ZM343.602 107.977H341.86V106.589H343.602V107.977Z" fill="#EFB4CB"/>
<path d="M340.633 117.639H339.01V115.963H334.101V109.142H335.816V114.457H338.002V109.142H339.717V114.457H340.633V117.639Z" fill="#EFB4CB"/>
<path d="M330.537 112.193V110.504H329.202C328.923 110.504 328.7 110.582 328.534 110.739C328.377 110.888 328.299 111.093 328.299 111.355C328.299 111.608 328.377 111.813 328.534 111.97C328.7 112.118 328.923 112.193 329.202 112.193H330.537ZM328.469 115.963H326.531L327.906 113.174C327.513 113.026 327.203 112.786 326.976 112.454C326.749 112.123 326.636 111.73 326.636 111.276C326.636 110.657 326.845 110.146 327.264 109.744C327.692 109.343 328.238 109.142 328.901 109.142H332.213V115.963H330.511V113.541H329.595L328.469 115.963Z" fill="#EFB4CB"/>
<path d="M325.779 115.112C325.185 115.732 324.435 116.042 323.527 116.042C323.239 116.042 322.96 116.011 322.689 115.95C322.418 115.88 322.144 115.767 321.864 115.61C321.594 115.444 321.358 115.234 321.157 114.981C320.957 114.719 320.791 114.383 320.66 113.973C320.538 113.554 320.477 113.078 320.477 112.546C320.477 112.014 320.538 111.542 320.66 111.132C320.791 110.713 320.957 110.377 321.157 110.124C321.358 109.871 321.594 109.662 321.864 109.496C322.144 109.33 322.418 109.216 322.689 109.155C322.96 109.094 323.239 109.064 323.527 109.064C324.443 109.064 325.194 109.369 325.779 109.98L324.627 111.132C324.295 110.774 323.928 110.595 323.527 110.595C323.125 110.595 322.803 110.744 322.558 111.041C322.305 111.355 322.178 111.857 322.178 112.546C322.178 113.244 322.305 113.751 322.558 114.065C322.803 114.361 323.125 114.51 323.527 114.51C323.928 114.51 324.295 114.331 324.627 113.973L325.779 115.112Z" fill="#EFB4CB"/>
<path d="M318.914 115.963H317.212V109.339H318.914V115.963ZM318.927 107.977H317.186V106.589H318.927V107.977Z" fill="#EFB4CB"/>
<path d="M315.304 115.963H313.602V112.022L312.319 114.549H311.35L310.054 112.022V115.963H308.339V109.142H310.028L311.834 112.729L313.628 109.142H315.304V115.963Z" fill="#EFB4CB"/>
<path d="M303.686 115.963H298.018V114.431L301.5 110.386C301.823 110.002 301.984 109.627 301.984 109.26C301.984 108.911 301.884 108.632 301.683 108.422C301.491 108.204 301.216 108.095 300.858 108.095C300.536 108.095 300.265 108.191 300.047 108.383C299.829 108.566 299.719 108.867 299.719 109.286H298.018C298.018 108.457 298.284 107.798 298.816 107.309C299.357 106.812 300.038 106.563 300.858 106.563C301.696 106.563 302.377 106.808 302.901 107.296C303.424 107.785 303.686 108.444 303.686 109.273C303.686 109.692 303.612 110.046 303.464 110.334C303.315 110.622 303.058 110.979 302.691 111.407L300.086 114.431H303.686V115.963Z" fill="#EFB4CB"/>
<path d="M434.543 115.963H432.841V109.339H434.543V115.963ZM434.556 107.977H432.814V106.589H434.556V107.977Z" fill="#EFB4CB"/>
<path d="M431.587 117.639H429.964V115.963H425.055V109.142H426.77V114.457H428.956V109.142H430.671V114.457H431.587V117.639Z" fill="#EFB4CB"/>
<path d="M421.491 112.193V110.504H420.156C419.877 110.504 419.654 110.582 419.488 110.739C419.331 110.888 419.253 111.093 419.253 111.355C419.253 111.608 419.331 111.813 419.488 111.97C419.654 112.118 419.877 112.193 420.156 112.193H421.491ZM419.423 115.963H417.485L418.86 113.174C418.467 113.026 418.157 112.786 417.93 112.454C417.704 112.123 417.59 111.73 417.59 111.276C417.59 110.656 417.8 110.146 418.218 109.744C418.646 109.343 419.192 109.142 419.855 109.142H423.167V115.963H421.465V113.541H420.549L419.423 115.963Z" fill="#EFB4CB"/>
<path d="M416.734 115.112C416.14 115.732 415.39 116.041 414.482 116.041C414.194 116.041 413.915 116.011 413.644 115.95C413.374 115.88 413.099 115.767 412.819 115.609C412.549 115.444 412.313 115.234 412.112 114.981C411.912 114.719 411.746 114.383 411.615 113.973C411.493 113.554 411.432 113.078 411.432 112.546C411.432 112.014 411.493 111.542 411.615 111.132C411.746 110.713 411.912 110.377 412.112 110.124C412.313 109.871 412.549 109.662 412.819 109.496C413.099 109.33 413.374 109.216 413.644 109.155C413.915 109.094 414.194 109.064 414.482 109.064C415.398 109.064 416.149 109.369 416.734 109.98L415.582 111.132C415.25 110.774 414.883 110.595 414.482 110.595C414.081 110.595 413.758 110.744 413.513 111.04C413.26 111.355 413.134 111.857 413.134 112.546C413.134 113.244 413.26 113.75 413.513 114.065C413.758 114.361 414.081 114.51 414.482 114.51C414.883 114.51 415.25 114.331 415.582 113.973L416.734 115.112Z" fill="#EFB4CB"/>
<path d="M409.868 115.963H408.166V109.339H409.868V115.963ZM409.881 107.977H408.14V106.589H409.881V107.977Z" fill="#EFB4CB"/>
<path d="M406.258 115.963H404.556V112.022L403.273 114.549H402.304L401.008 112.022V115.963H399.293V109.142H400.982L402.788 112.729L404.582 109.142H406.258V115.963Z" fill="#EFB4CB"/>
<path d="M394.903 114.641H394.052V115.963H392.415V114.641H388.605V113.03L391.8 106.642H393.659L390.464 113.03H392.415V111.289H394.052V113.03H394.903V114.641Z" fill="#EFB4CB"/>
<path d="M537.684 113.999C537.684 114.601 537.497 115.081 537.122 115.439C536.746 115.788 536.236 115.963 535.59 115.963H532.107V109.142H535.472C536.109 109.142 536.62 109.312 537.004 109.653C537.388 109.993 537.58 110.447 537.58 111.014C537.58 111.643 537.292 112.123 536.716 112.454C537.362 112.786 537.684 113.301 537.684 113.999ZM535.066 110.399H533.796V111.865H535.066C535.616 111.865 535.891 111.617 535.891 111.119C535.891 110.639 535.616 110.399 535.066 110.399ZM535.996 113.908C535.996 113.655 535.921 113.458 535.773 113.318C535.625 113.179 535.415 113.109 535.145 113.109H533.796V114.706H535.145C535.407 114.706 535.612 114.636 535.76 114.497C535.917 114.348 535.996 114.152 535.996 113.908Z" fill="#EFB4CB"/>
<path d="M530.217 115.963H528.515V109.339H530.217V115.963ZM530.23 107.977H528.489V106.589H530.23V107.977Z" fill="#EFB4CB"/>
<path d="M527.262 117.639H525.639V115.963H520.729V109.142H522.444V114.457H524.631V109.142H526.346V114.457H527.262V117.639Z" fill="#EFB4CB"/>
<path d="M517.166 112.193V110.504H515.831C515.552 110.504 515.329 110.582 515.163 110.739C515.006 110.888 514.928 111.093 514.928 111.355C514.928 111.608 515.006 111.813 515.163 111.97C515.329 112.118 515.552 112.193 515.831 112.193H517.166ZM515.098 115.963H513.16L514.535 113.174C514.142 113.026 513.832 112.786 513.605 112.454C513.378 112.123 513.265 111.73 513.265 111.276C513.265 110.657 513.474 110.146 513.893 109.744C514.321 109.343 514.866 109.142 515.53 109.142H518.842V115.963H517.14V113.541H516.224L515.098 115.963Z" fill="#EFB4CB"/>
<path d="M512.408 115.112C511.814 115.732 511.063 116.042 510.156 116.042C509.868 116.042 509.589 116.011 509.318 115.95C509.047 115.88 508.772 115.767 508.493 115.61C508.223 115.444 507.987 115.234 507.786 114.981C507.585 114.719 507.42 114.383 507.289 113.973C507.167 113.554 507.105 113.078 507.105 112.546C507.105 112.014 507.167 111.542 507.289 111.132C507.42 110.713 507.585 110.377 507.786 110.124C507.987 109.871 508.223 109.662 508.493 109.496C508.772 109.33 509.047 109.216 509.318 109.155C509.589 109.094 509.868 109.064 510.156 109.064C511.072 109.064 511.823 109.369 512.408 109.98L511.256 111.132C510.924 110.774 510.557 110.595 510.156 110.595C509.754 110.595 509.431 110.744 509.187 111.041C508.934 111.355 508.807 111.857 508.807 112.546C508.807 113.244 508.934 113.751 509.187 114.065C509.431 114.361 509.754 114.51 510.156 114.51C510.557 114.51 510.924 114.331 511.256 113.973L512.408 115.112Z" fill="#EFB4CB"/>
<path d="M505.543 115.963H503.841V109.339H505.543V115.963ZM505.556 107.977H503.814V106.589H505.556V107.977Z" fill="#EFB4CB"/>
<path d="M501.933 115.963H500.231V112.022L498.948 114.549H497.979L496.683 112.022V115.963H494.968V109.142H496.657L498.463 112.729L500.257 109.142H501.933V115.963Z" fill="#EFB4CB"/>
<path d="M490.315 115.963H484.646V114.431L488.129 110.386C488.452 110.002 488.613 109.627 488.613 109.26C488.613 108.911 488.513 108.632 488.312 108.422C488.12 108.204 487.845 108.095 487.487 108.095C487.164 108.095 486.894 108.191 486.676 108.383C486.457 108.566 486.348 108.867 486.348 109.286H484.646C484.646 108.457 484.913 107.798 485.445 107.309C485.986 106.812 486.667 106.563 487.487 106.563C488.325 106.563 489.006 106.808 489.53 107.296C490.053 107.785 490.315 108.444 490.315 109.273C490.315 109.692 490.241 110.046 490.093 110.334C489.944 110.622 489.687 110.979 489.32 111.407L486.715 114.431H490.315V115.963Z" fill="#EFB4CB"/>
<path d="M481.714 115.963H480.013V108.475L478.114 110.124V108.291L480.013 106.642H481.714V115.963Z" fill="#EFB4CB"/>
<path opacity="0.69" d="M539 129.975H283L288.55 83.905L328.93 81.825V67.455L318 60.275V42.275H539V129.975Z" fill="white"/>
</svg>
