<svg width="540" height="133" viewBox="0 0 540 133" fill="none" xmlns="http://www.w3.org/2000/svg">
<path d="M307.111 8.14221L303.32 18.428C303.082 19.0628 302.759 19.5218 302.351 19.8052C301.954 20.0998 301.422 20.2472 300.753 20.2472H299.886V18.258H300.396C300.724 18.258 300.962 18.2014 301.11 18.088C301.257 17.986 301.388 17.7763 301.501 17.459L301.875 16.3709L298.849 8.14221H301.178L303.014 13.6167L304.782 8.14221H307.111Z" fill="#E2001A"/>
<path d="M298.426 10.0974H295.876V16.9999H293.649V10.0974H291.048V8.14221H298.426V10.0974Z" fill="#E2001A"/>
<path d="M290.377 15.8949C289.606 16.6996 288.631 17.102 287.453 17.102C287.078 17.102 286.716 17.0623 286.364 16.983C286.013 16.8923 285.656 16.745 285.293 16.541C284.942 16.3256 284.636 16.0536 284.375 15.7249C284.115 15.3849 283.899 14.9485 283.729 14.4158C283.571 13.8718 283.491 13.254 283.491 12.5626C283.491 11.8713 283.571 11.2592 283.729 10.7265C283.899 10.1825 284.115 9.74609 284.375 9.41739C284.636 9.0887 284.942 8.81668 285.293 8.60133C285.656 8.38598 286.013 8.23863 286.364 8.15929C286.716 8.07995 287.078 8.04028 287.453 8.04028C288.643 8.04028 289.617 8.43698 290.377 9.23038L288.881 10.7265C288.45 10.2618 287.974 10.0294 287.453 10.0294C286.931 10.0294 286.512 10.2221 286.194 10.6075C285.866 11.0155 285.701 11.6672 285.701 12.5626C285.701 13.4694 285.866 14.1268 286.194 14.5348C286.512 14.9202 286.931 15.1129 287.453 15.1129C287.974 15.1129 288.45 14.8805 288.881 14.4158L290.377 15.8949Z" fill="#E2001A"/>
<path d="M281.826 12.5626C281.826 13.4127 281.752 14.1041 281.605 14.6368C281.469 15.1582 281.208 15.6172 280.823 16.0139C280.12 16.7393 279.202 17.102 278.068 17.102C276.946 17.102 276.034 16.7393 275.331 16.0139C274.946 15.6059 274.679 15.1412 274.532 14.6198C274.396 14.0871 274.328 13.4014 274.328 12.5626C274.328 11.7239 274.396 11.0439 274.532 10.5225C274.679 10.0011 274.946 9.5364 275.331 9.12837C276.034 8.40298 276.946 8.04028 278.068 8.04028C279.225 8.04028 280.143 8.40298 280.823 9.12837C281.208 9.5364 281.469 10.0011 281.605 10.5225C281.752 11.0439 281.826 11.7239 281.826 12.5626ZM279.616 12.5626C279.616 11.4632 279.446 10.7492 279.106 10.4205C278.845 10.1598 278.499 10.0294 278.068 10.0294C277.649 10.0294 277.309 10.1598 277.048 10.4205C276.708 10.7492 276.538 11.4632 276.538 12.5626C276.538 13.6734 276.708 14.3931 277.048 14.7218C277.309 14.9825 277.649 15.1129 278.068 15.1129C278.499 15.1129 278.845 14.9825 279.106 14.7218C279.446 14.3931 279.616 13.6734 279.616 12.5626Z" fill="#E2001A"/>
<path d="M272.601 12.5626C272.601 13.4807 272.544 14.2344 272.431 14.8238C272.318 15.4132 272.068 15.9062 271.683 16.3029C271.173 16.8357 270.459 17.102 269.541 17.102C268.623 17.102 267.909 16.8073 267.399 16.2179V20.2473H265.188V8.14229H267.331V8.97536C267.886 8.35197 268.623 8.04028 269.541 8.04028C270.459 8.04028 271.173 8.30664 271.683 8.83935C272.068 9.23605 272.318 9.72909 272.431 10.3185C272.544 10.9078 272.601 11.6559 272.601 12.5626ZM270.34 13.5827C270.374 13.3107 270.391 12.9707 270.391 12.5626C270.391 12.1546 270.374 11.8203 270.34 11.5596C270.306 11.2875 270.238 11.0269 270.136 10.7775C270.045 10.5281 269.892 10.3411 269.677 10.2165C269.473 10.0918 269.212 10.0294 268.895 10.0294C268.577 10.0294 268.311 10.0918 268.096 10.2165C267.892 10.3411 267.739 10.5281 267.637 10.7775C267.546 11.0269 267.484 11.2875 267.45 11.5596C267.416 11.8203 267.399 12.1546 267.399 12.5626C267.399 12.9707 267.416 13.3107 267.45 13.5827C267.484 13.8434 267.546 14.1041 267.637 14.3648C267.739 14.6141 267.892 14.8012 268.096 14.9258C268.311 15.0505 268.577 15.1129 268.895 15.1129C269.212 15.1129 269.473 15.0505 269.677 14.9258C269.892 14.8012 270.045 14.6141 270.136 14.3648C270.238 14.1041 270.306 13.8434 270.34 13.5827Z" fill="#E2001A"/>
<path d="M258.851 16.9999H256.624V10.0974H253.785V16.9999H251.558V8.14221H258.851V16.9999Z" fill="#E2001A"/>
<path d="M249.191 17H247.032V16.2349C246.726 16.541 246.408 16.762 246.08 16.898C245.762 17.0227 245.354 17.085 244.856 17.085C243.869 17.085 243.116 16.8243 242.594 16.3029C242.107 15.7929 241.863 15.1299 241.863 14.3138C241.863 13.5657 242.124 12.9537 242.645 12.4776C243.167 11.9903 243.926 11.7466 244.924 11.7466H246.981V11.3045C246.981 10.8172 246.85 10.4658 246.59 10.2505C246.329 10.0238 245.91 9.91043 245.332 9.91043C244.64 9.91043 244.073 10.1655 243.631 10.6755L242.237 9.29838C242.668 8.82235 243.116 8.49365 243.58 8.3123C244.056 8.13096 244.669 8.04028 245.417 8.04028C247.933 8.04028 249.191 9.08303 249.191 11.1685V17ZM246.981 13.7357V13.2597H245.298C244.425 13.2597 243.988 13.5997 243.988 14.2798C243.988 14.9485 244.436 15.2829 245.332 15.2829C245.91 15.2829 246.346 15.1412 246.641 14.8578C246.867 14.6651 246.981 14.2911 246.981 13.7357Z" fill="#E2001A"/>
<path d="M241.147 10.0974H238.597V16.9999H236.37V10.0974H233.769V8.14221H241.147V10.0974Z" fill="#E2001A"/>
<path d="M232.951 13.2597H227.409C227.409 13.8491 227.579 14.3251 227.919 14.6878C228.259 15.0505 228.735 15.2319 229.347 15.2319C229.8 15.2319 230.168 15.1695 230.452 15.0448C230.747 14.9088 231.047 14.6935 231.353 14.3988L232.696 15.7079C232.22 16.1953 231.727 16.5523 231.217 16.779C230.718 16.9943 230.089 17.102 229.33 17.102C228.763 17.102 228.247 17.034 227.783 16.898C227.329 16.7506 226.904 16.5126 226.508 16.1839C226.111 15.8552 225.799 15.3849 225.572 14.7728C225.346 14.1608 225.232 13.424 225.232 12.5626C225.232 11.1459 225.584 10.0408 226.287 9.24738C226.989 8.44265 227.924 8.04028 229.092 8.04028C230.304 8.04028 231.251 8.43698 231.931 9.23038C232.611 10.0124 232.951 11.0439 232.951 12.3246V13.2597ZM230.775 11.7466C230.764 11.3612 230.696 11.0439 230.571 10.7945C230.299 10.1825 229.806 9.87643 229.092 9.87643C228.378 9.87643 227.885 10.1825 227.613 10.7945C227.488 11.0439 227.42 11.3612 227.409 11.7466H230.775Z" fill="#E2001A"/>
<path d="M218.223 4.72498C218.2 5.57504 217.923 6.19276 217.39 6.57813C216.868 6.96349 216.228 7.15617 215.469 7.15617C214.709 7.15617 214.069 6.96349 213.547 6.57813C213.026 6.19276 212.748 5.57504 212.714 4.72498H214.381C214.426 5.4277 214.789 5.77906 215.469 5.77906C216.149 5.77906 216.511 5.4277 216.557 4.72498H218.223ZM219.26 17H217.033V11.5935L213.922 17H211.694V8.14225H213.922V13.4127L217.033 8.14225H219.26V17Z" fill="#E2001A"/>
<path d="M209.471 13.1746H204.234V11.1174H209.471V13.1746Z" fill="#E2001A"/>
<path d="M200.426 17H198.216V7.27521L195.751 9.41738V7.03719L198.216 4.89502H200.426V17Z" fill="#E2001A"/>
<path d="M360.6 85.3965C355.65 85.3965 351.63 81.3765 351.63 76.4265C351.63 71.4765 355.65 67.4565 360.6 67.4565C365.55 67.4565 369.57 71.4765 369.57 76.4265C369.57 81.3865 365.55 85.3965 360.6 85.3965Z" fill="#F7DBE7"/>
<path fill-rule="evenodd" clip-rule="evenodd" d="M358.14 70.9755C358.433 70.6829 358.908 70.6834 359.201 70.9766L364.161 75.9466C364.453 76.2395 364.453 76.714 364.16 77.0067L359.27 81.8967C358.977 82.1896 358.502 82.1896 358.21 81.8967C357.917 81.6038 357.917 81.1289 358.21 80.836L362.57 76.4758L358.139 72.0361C357.846 71.743 357.847 71.2681 358.14 70.9755Z" fill="#A91255"/>
<path fill-rule="evenodd" clip-rule="evenodd" d="M8.2168 49.2172H146.782V62.7828H8.2168V49.2172ZM9.7824 50.7828V61.2172H145.217V50.7828H9.7824Z" fill="#EFB4CB"/>
<path fill-rule="evenodd" clip-rule="evenodd" d="M252.217 49.2172H362.782V62.7828H252.217V49.2172ZM253.782 50.7828V61.2172H361.217V50.7828H253.782Z" fill="#EFB4CB"/>
<path d="M525.06 49.2266H364.06V62.2266H525.06V49.2266Z" fill="#A91255"/>
<path d="M529.113 50.2535C529.113 50.8207 528.654 51.2805 528.087 51.2805C527.519 51.2805 527.06 50.8207 527.06 50.2535C527.06 49.6863 527.519 49.2266 528.087 49.2266C528.654 49.2266 529.113 49.6863 529.113 50.2535Z" fill="#A91255"/>
<path d="M529.113 60.9732C529.113 61.5404 528.654 62.0002 528.087 62.0002C527.519 62.0002 527.06 61.5404 527.06 60.9732C527.06 60.4061 527.519 59.9463 528.087 59.9463C528.654 59.9463 529.113 60.4061 529.113 60.9732Z" fill="#A91255"/>
<path d="M534.113 50.2535C534.113 50.8207 533.654 51.2805 533.087 51.2805C532.519 51.2805 532.06 50.8207 532.06 50.2535C532.06 49.6863 532.519 49.2266 533.087 49.2266C533.654 49.2266 534.113 49.6863 534.113 50.2535Z" fill="#A91255"/>
<path d="M534.113 60.9732C534.113 61.5404 533.654 62.0002 533.087 62.0002C532.519 62.0002 532.06 61.5404 532.06 60.9732C532.06 60.4061 532.519 59.9463 533.087 59.9463C533.654 59.9463 534.113 60.4061 534.113 60.9732Z" fill="#A91255"/>
<path d="M539.113 50.2535C539.113 50.8207 538.654 51.2805 538.087 51.2805C537.519 51.2805 537.06 50.8207 537.06 50.2535C537.06 49.6863 537.519 49.2266 538.087 49.2266C538.654 49.2266 539.113 49.6863 539.113 50.2535Z" fill="#A91255"/>
<path d="M539.113 60.9732C539.113 61.5404 538.654 62.0002 538.087 62.0002C537.519 62.0002 537.06 61.5404 537.06 60.9732C537.06 60.4061 537.519 59.9463 538.087 59.9463C538.654 59.9463 539.113 60.4061 539.113 60.9732Z" fill="#A91255"/>
<path fill-rule="evenodd" clip-rule="evenodd" d="M147 12C147 11.4477 147.448 11 148 11L150.05 11C150.602 11 151.05 11.4477 151.05 12C151.05 12.5523 150.602 13 150.05 13L148 13C147.448 13 147 12.5523 147 12ZM153.15 12C153.15 11.4477 153.598 11 154.15 11L158.25 11C158.802 11 159.25 11.4477 159.25 12C159.25 12.5523 158.802 13 158.25 13L154.15 13C153.598 13 153.15 12.5523 153.15 12ZM161.35 12C161.35 11.4477 161.798 11 162.35 11L166.45 11C167.002 11 167.45 11.4477 167.45 12C167.45 12.5523 167.002 13 166.45 13L162.35 13C161.798 13 161.35 12.5523 161.35 12ZM169.55 12C169.55 11.4477 169.998 11 170.55 11L174.65 11C175.202 11 175.65 11.4477 175.65 12C175.65 12.5523 175.202 13 174.65 13L170.55 13C169.998 13 169.55 12.5523 169.55 12ZM177.75 12C177.75 11.4477 178.198 11 178.75 11L182.85 11C183.402 11 183.85 11.4477 183.85 12C183.85 12.5523 183.402 13 182.85 13L178.75 13C178.198 13 177.75 12.5523 177.75 12ZM185.95 12C185.95 11.4477 186.398 11 186.95 11L189 11C189.552 11 190 11.4477 190 12C190 12.5523 189.552 13 189 13L186.95 13C186.398 13 185.95 12.5523 185.95 12Z" fill="#EFB4CB"/>
<path fill-rule="evenodd" clip-rule="evenodd" d="M312 12C312 11.4477 312.448 11 313 11L315.042 11C315.594 11 316.042 11.4477 316.042 12C316.042 12.5523 315.594 13 315.042 13L313 13C312.448 13 312 12.5523 312 12ZM318.125 12C318.125 11.4477 318.573 11 319.125 11L323.208 11C323.761 11 324.208 11.4477 324.208 12C324.208 12.5523 323.761 13 323.208 13L319.125 13C318.573 13 318.125 12.5523 318.125 12ZM326.292 12C326.292 11.4477 326.739 11 327.292 11L331.375 11C331.927 11 332.375 11.4477 332.375 12C332.375 12.5523 331.927 13 331.375 13L327.292 13C326.739 13 326.292 12.5523 326.292 12ZM334.458 12C334.458 11.4477 334.906 11 335.458 11L339.542 11C340.094 11 340.542 11.4477 340.542 12C340.542 12.5523 340.094 13 339.542 13L335.458 13C334.906 13 334.458 12.5523 334.458 12ZM342.625 12C342.625 11.4477 343.073 11 343.625 11L347.708 11C348.261 11 348.708 11.4477 348.708 12C348.708 12.5523 348.261 13 347.708 13L343.625 13C343.073 13 342.625 12.5523 342.625 12ZM350.792 12C350.792 11.4477 351.239 11 351.792 11L355.875 11C356.427 11 356.875 11.4477 356.875 12C356.875 12.5523 356.427 13 355.875 13L351.792 13C351.239 13 350.792 12.5523 350.792 12ZM358.958 12C358.958 11.4477 359.406 11 359.958 11L362 11C362.552 11 363 11.4477 363 12C363 12.5523 362.552 13 362 13L359.958 13C359.406 13 358.958 12.5523 358.958 12Z" fill="#EFB4CB"/>
<path d="M524.069 82.2367L534.119 76.4367L524.069 70.6367V82.2367Z" fill="#EFB4CB"/>
<path fill-rule="evenodd" clip-rule="evenodd" d="M19 76C19 75.4477 19.4477 75 20 75H21.75C22.3023 75 22.75 75.4477 22.75 76C22.75 76.5523 22.3023 77 21.75 77H20C19.4477 77 19 76.5523 19 76ZM24.25 76C24.25 75.4477 24.6977 75 25.25 75H28.75C29.3023 75 29.75 75.4477 29.75 76C29.75 76.5523 29.3023 77 28.75 77H25.25C24.6977 77 24.25 76.5523 24.25 76ZM31.25 76C31.25 75.4477 31.6977 75 32.25 75H35.75C36.3023 75 36.75 75.4477 36.75 76C36.75 76.5523 36.3023 77 35.75 77H32.25C31.6977 77 31.25 76.5523 31.25 76ZM38.25 76C38.25 75.4477 38.6977 75 39.25 75H41C41.5523 75 42 75.4477 42 76C42 76.5523 41.5523 77 41 77H39.25C38.6977 77 38.25 76.5523 38.25 76Z" fill="#EFB4CB"/>
<path fill-rule="evenodd" clip-rule="evenodd" d="M116 77C116 76.4477 116.448 76 117 76L119.25 76C119.802 76 120.25 76.4477 120.25 77C120.25 77.5523 119.802 78 119.25 78L117 78C116.448 78 116 77.5523 116 77ZM122.75 77C122.75 76.4477 123.198 76 123.75 76L128.25 76C128.802 76 129.25 76.4477 129.25 77C129.25 77.5523 128.802 78 128.25 78L123.75 78C123.198 78 122.75 77.5523 122.75 77ZM131.75 77C131.75 76.4477 132.198 76 132.75 76L135 76C135.552 76 136 76.4477 136 77C136 77.5523 135.552 78 135 78L132.75 78C132.198 78 131.75 77.5523 131.75 77Z" fill="#EFB4CB"/>
<path d="M111.388 76.1037V73.9105H109.654C109.291 73.9105 109.002 74.0125 108.787 74.2165C108.583 74.4092 108.481 74.6755 108.481 75.0156C108.481 75.3443 108.583 75.6106 108.787 75.8146C109.002 76.0073 109.291 76.1037 109.654 76.1037H111.388ZM108.702 81H106.186L107.971 77.3788C107.461 77.1861 107.058 76.8744 106.764 76.4437C106.469 76.013 106.322 75.5029 106.322 74.9136C106.322 74.1088 106.594 73.4458 107.138 72.9244C107.693 72.403 108.401 72.1423 109.263 72.1423H113.564V81H111.354V77.8548H110.164L108.702 81Z" fill="#E2001A"/>
<path d="M104.462 81H102.252V72.3973H104.462V81ZM104.479 70.6292H102.218V68.827H104.479V70.6292Z" fill="#E2001A"/>
<path d="M100.623 83.1762H98.5152V81H92.1396V72.1423H94.3668V79.0449H97.2061V72.1423H99.4332V79.0449H100.623V83.1762Z" fill="#E2001A"/>
<path d="M89.7739 81H87.6147V80.2349C87.3087 80.541 86.9913 80.762 86.6626 80.898C86.3453 81.0227 85.9372 81.085 85.4385 81.085C84.4525 81.085 83.6987 80.8243 83.1773 80.3029C82.69 79.7929 82.4463 79.1299 82.4463 78.3138C82.4463 77.5657 82.707 76.9537 83.2284 76.4776C83.7497 75.9903 84.5091 75.7466 85.5065 75.7466H87.5637V75.3045C87.5637 74.8172 87.4334 74.4658 87.1727 74.2505C86.912 74.0238 86.4926 73.9104 85.9146 73.9104C85.2232 73.9104 84.6565 74.1655 84.2144 74.6755L82.8203 73.2984C83.251 72.8223 83.6987 72.4937 84.1634 72.3123C84.6395 72.131 85.2515 72.0403 85.9996 72.0403C88.5158 72.0403 89.7739 73.083 89.7739 75.1685V81ZM87.5637 77.7357V77.2597H85.8806C85.0078 77.2597 84.5715 77.5997 84.5715 78.2798C84.5715 78.9485 85.0192 79.2829 85.9146 79.2829C86.4926 79.2829 86.929 79.1412 87.2237 78.8578C87.4504 78.6651 87.5637 78.2911 87.5637 77.7357Z" fill="#E2001A"/>
<path d="M81.7292 74.0975H79.179V81H76.9518V74.0975H74.3506V72.1423H81.7292V74.0975Z" fill="#E2001A"/>
<path d="M68.5504 81H66.3232V72.1423H68.5504V81ZM74.2629 81H71.6107L68.5674 76.3587L71.4747 72.1423H74.0589L70.9306 76.2737L74.2629 81Z" fill="#E2001A"/>
<path d="M63.9399 81H61.7807V80.2349C61.4747 80.541 61.1573 80.762 60.8286 80.898C60.5113 81.0227 60.1033 81.085 59.6045 81.085C58.6185 81.085 57.8647 80.8243 57.3434 80.3029C56.856 79.7929 56.6123 79.1299 56.6123 78.3138C56.6123 77.5657 56.873 76.9537 57.3944 76.4776C57.9157 75.9903 58.6751 75.7466 59.6726 75.7466H61.7297V75.3045C61.7297 74.8172 61.5994 74.4658 61.3387 74.2505C61.078 74.0238 60.6586 73.9104 60.0806 73.9104C59.3892 73.9104 58.8225 74.1655 58.3804 74.6755L56.9863 73.2984C57.417 72.8223 57.8647 72.4937 58.3294 72.3123C58.8055 72.131 59.4175 72.0403 60.1656 72.0403C62.6818 72.0403 63.9399 73.083 63.9399 75.1685V81ZM61.7297 77.7357V77.2597H60.0466C59.1738 77.2597 58.7375 77.5997 58.7375 78.2798C58.7375 78.9485 59.1852 79.2829 60.0806 79.2829C60.6586 79.2829 61.095 79.1412 61.3897 78.8578C61.6164 78.6651 61.7297 78.2911 61.7297 77.7357Z" fill="#E2001A"/>
<path d="M54.5796 81H52.2164V71.0032H49.3262V74.5225C49.3262 76.1886 49.1788 77.5034 48.8841 78.4668C48.6008 79.4189 48.1927 80.0819 47.66 80.4559C47.1387 80.8186 46.4416 81 45.5689 81H44.6338V78.8918H44.9738C45.3025 78.8918 45.5802 78.8352 45.8069 78.7218C46.0449 78.5971 46.2603 78.3818 46.4529 78.0758C46.657 77.7584 46.8043 77.2937 46.895 76.6816C46.997 76.0696 47.048 75.3045 47.048 74.3865V68.895H54.5796V81Z" fill="#E2001A"/>
<path d="M246.338 76.1037V73.9105H244.604C244.241 73.9105 243.952 74.0125 243.737 74.2165C243.533 74.4092 243.431 74.6755 243.431 75.0156C243.431 75.3443 243.533 75.6106 243.737 75.8146C243.952 76.0073 244.241 76.1037 244.604 76.1037H246.338ZM243.652 81H241.136L242.921 77.3788C242.411 77.1861 242.008 76.8744 241.714 76.4437C241.419 76.013 241.272 75.5029 241.272 74.9136C241.272 74.1088 241.544 73.4458 242.088 72.9244C242.643 72.403 243.352 72.1423 244.213 72.1423H248.514V81H246.304V77.8548H245.114L243.652 81Z" fill="#E2001A"/>
<path d="M239.414 81H237.187V77.4468H234.347V81H232.12V72.1423H234.347V75.4916H237.187V72.1423H239.414V81Z" fill="#E2001A"/>
<path d="M229.669 81H227.441V77.4468H224.602V81H222.375V72.1423H224.602V75.4916H227.441V72.1423H229.669V81Z" fill="#E2001A"/>
<path d="M220.354 77.2597H214.812C214.812 77.8491 214.982 78.3251 215.322 78.6878C215.662 79.0505 216.138 79.2319 216.75 79.2319C217.203 79.2319 217.572 79.1695 217.855 79.0448C218.15 78.9088 218.45 78.6935 218.756 78.3988L220.099 79.7079C219.623 80.1953 219.13 80.5523 218.62 80.779C218.122 80.9943 217.492 81.102 216.733 81.102C216.166 81.102 215.651 81.034 215.186 80.898C214.733 80.7506 214.308 80.5126 213.911 80.1839C213.514 79.8552 213.202 79.3849 212.976 78.7728C212.749 78.1608 212.636 77.424 212.636 76.5626C212.636 75.1459 212.987 74.0408 213.69 73.2474C214.393 72.4426 215.328 72.0403 216.495 72.0403C217.708 72.0403 218.654 72.437 219.334 73.2304C220.014 74.0124 220.354 75.0439 220.354 76.3246V77.2597ZM218.178 75.7466C218.167 75.3612 218.099 75.0439 217.974 74.7945C217.702 74.1825 217.209 73.8764 216.495 73.8764C215.781 73.8764 215.288 74.1825 215.016 74.7945C214.891 75.0439 214.823 75.3612 214.812 75.7466H218.178Z" fill="#E2001A"/>
<path d="M210.614 81H208.404V77.8888C207.509 78.0475 206.704 78.1268 205.99 78.1268C205.265 78.1268 204.67 77.9115 204.205 77.4808C203.74 77.0501 203.508 76.4607 203.508 75.7126V72.1423H205.718V75.1006C205.718 75.8146 206.081 76.1717 206.806 76.1717C207.089 76.1717 207.622 76.1207 208.404 76.0186V72.1423H210.614V81Z" fill="#E2001A"/>
<path d="M202.535 72.1423L198.744 82.4282C198.506 83.0629 198.183 83.5219 197.775 83.8053C197.378 84.1 196.845 84.2473 196.177 84.2473H195.31V82.2581H195.82C196.148 82.2581 196.386 82.2015 196.534 82.0881C196.681 81.9861 196.811 81.7764 196.925 81.4591L197.299 80.371L194.272 72.1423H196.602L198.438 77.6168L200.206 72.1423H202.535Z" fill="#E2001A"/>
<path d="M193.041 81H190.831V74.0975H188.706V76.2227C188.706 78.0248 188.473 79.2716 188.009 79.963C187.544 80.6544 186.83 81 185.867 81H184.812V79.0449H185.085C185.323 79.0449 185.51 79.0222 185.646 78.9769C185.782 78.9202 185.929 78.7955 186.088 78.6029C186.258 78.3988 186.377 78.0588 186.445 77.5828C186.524 77.1067 186.564 76.489 186.564 75.7296V72.1423H193.041V81Z" fill="#E2001A"/>
<path d="M184.182 83.1762H182.091V81H177.025V83.1762H174.934V79.0449H175.835C176.413 78.0135 176.702 76.6137 176.702 74.8456V72.1423H183.06V79.0449H184.182V83.1762ZM180.85 79.0449V74.0975H178.827V75.2536C178.827 76.8517 178.6 78.1155 178.147 79.0449H180.85Z" fill="#E2001A"/>
<path d="M173.481 81H171.271V72.3973H173.481V81ZM173.498 70.6292H171.237V68.827H173.498V70.6292Z" fill="#E2001A"/>
<path d="M167.358 74.7945C167.743 74.9985 168.049 75.2139 168.276 75.4405C168.774 75.9733 169.024 76.6703 169.024 77.5317C169.024 78.5971 168.689 79.4415 168.021 80.0649C167.352 80.6883 166.451 81 165.317 81H160.251V68.895H165.113C166.258 68.895 167.165 69.1954 167.834 69.7961C168.514 70.3968 168.854 71.2072 168.854 72.2273C168.854 73.3834 168.355 74.2391 167.358 74.7945ZM162.614 73.7914H164.926C165.414 73.7914 165.793 73.6667 166.065 73.4174C166.349 73.168 166.49 72.828 166.49 72.3973C166.49 71.9666 166.349 71.6266 166.065 71.3772C165.793 71.1279 165.414 71.0032 164.926 71.0032H162.614V73.7914ZM162.614 78.8918H165.079C165.567 78.8918 165.952 78.7558 166.235 78.4838C166.519 78.2118 166.66 77.8491 166.66 77.3957C166.66 76.9423 166.519 76.5853 166.235 76.3246C165.952 76.0526 165.567 75.9166 165.079 75.9166H162.614V78.8918Z" fill="#E2001A"/>
<path fill-rule="evenodd" clip-rule="evenodd" d="M369.189 76.4365C369.189 75.8842 369.637 75.4365 370.189 75.4365H372.299C372.851 75.4365 373.299 75.8842 373.299 76.4365C373.299 76.9888 372.851 77.4365 372.299 77.4365H370.189C369.637 77.4365 369.189 76.9888 369.189 76.4365ZM375.517 76.4365C375.517 75.8842 375.965 75.4365 376.517 75.4365H380.736C381.288 75.4365 381.736 75.8842 381.736 76.4365C381.736 76.9888 381.288 77.4365 380.736 77.4365H376.517C375.965 77.4365 375.517 76.9888 375.517 76.4365ZM383.954 76.4365C383.954 75.8842 384.402 75.4365 384.954 75.4365H389.173C389.725 75.4365 390.173 75.8842 390.173 76.4365C390.173 76.9888 389.725 77.4365 389.173 77.4365H384.954C384.402 77.4365 383.954 76.9888 383.954 76.4365ZM392.392 76.4365C392.392 75.8842 392.839 75.4365 393.392 75.4365H397.61C398.162 75.4365 398.61 75.8842 398.61 76.4365C398.61 76.9888 398.162 77.4365 397.61 77.4365H393.392C392.839 77.4365 392.392 76.9888 392.392 76.4365ZM400.829 76.4365C400.829 75.8842 401.276 75.4365 401.829 75.4365H406.047C406.6 75.4365 407.047 75.8842 407.047 76.4365C407.047 76.9888 406.6 77.4365 406.047 77.4365H401.829C401.276 77.4365 400.829 76.9888 400.829 76.4365ZM409.266 76.4365C409.266 75.8842 409.714 75.4365 410.266 75.4365H414.484C415.037 75.4365 415.484 75.8842 415.484 76.4365C415.484 76.9888 415.037 77.4365 414.484 77.4365H410.266C409.714 77.4365 409.266 76.9888 409.266 76.4365ZM417.703 76.4365C417.703 75.8842 418.151 75.4365 418.703 75.4365H422.922C423.474 75.4365 423.922 75.8842 423.922 76.4365C423.922 76.9888 423.474 77.4365 422.922 77.4365H418.703C418.151 77.4365 417.703 76.9888 417.703 76.4365ZM426.14 76.4365C426.14 75.8842 426.588 75.4365 427.14 75.4365H429.249C429.802 75.4365 430.249 75.8842 430.249 76.4365C430.249 76.9888 429.802 77.4365 429.249 77.4365H427.14C426.588 77.4365 426.14 76.9888 426.14 76.4365Z" fill="#EFB4CB"/>
<path fill-rule="evenodd" clip-rule="evenodd" d="M469 76C469 75.4477 469.448 75 470 75H472.042C472.594 75 473.042 75.4477 473.042 76C473.042 76.5523 472.594 77 472.042 77H470C469.448 77 469 76.5523 469 76ZM475.125 76C475.125 75.4477 475.573 75 476.125 75H480.208C480.761 75 481.208 75.4477 481.208 76C481.208 76.5523 480.761 77 480.208 77H476.125C475.573 77 475.125 76.5523 475.125 76ZM483.292 76C483.292 75.4477 483.739 75 484.292 75H488.375C488.927 75 489.375 75.4477 489.375 76C489.375 76.5523 488.927 77 488.375 77H484.292C483.739 77 483.292 76.5523 483.292 76ZM491.458 76C491.458 75.4477 491.906 75 492.458 75H496.542C497.094 75 497.542 75.4477 497.542 76C497.542 76.5523 497.094 77 496.542 77H492.458C491.906 77 491.458 76.5523 491.458 76ZM499.625 76C499.625 75.4477 500.073 75 500.625 75H504.708C505.261 75 505.708 75.4477 505.708 76C505.708 76.5523 505.261 77 504.708 77H500.625C500.073 77 499.625 76.5523 499.625 76ZM507.792 76C507.792 75.4477 508.239 75 508.792 75H512.875C513.427 75 513.875 75.4477 513.875 76C513.875 76.5523 513.427 77 512.875 77H508.792C508.239 77 507.792 76.5523 507.792 76ZM515.958 76C515.958 75.4477 516.406 75 516.958 75H519C519.552 75 520 75.4477 520 76C520 76.5523 519.552 77 519 77H516.958C516.406 77 515.958 76.5523 515.958 76Z" fill="#EFB4CB"/>
<path d="M465.045 74.0975H462.494V81H460.267V74.0975H457.666V72.1423H465.045V74.0975Z" fill="#E2001A"/>
<path d="M456.996 79.8949C456.225 80.6996 455.25 81.102 454.072 81.102C453.698 81.102 453.335 81.0623 452.984 80.983C452.632 80.8923 452.275 80.745 451.912 80.541C451.561 80.3256 451.255 80.0536 450.994 79.7249C450.734 79.3849 450.518 78.9485 450.348 78.4158C450.19 77.8718 450.11 77.254 450.11 76.5626C450.11 75.8713 450.19 75.2592 450.348 74.7265C450.518 74.1825 450.734 73.7461 450.994 73.4174C451.255 73.0887 451.561 72.8167 451.912 72.6013C452.275 72.386 452.632 72.2386 452.984 72.1593C453.335 72.08 453.698 72.0403 454.072 72.0403C455.262 72.0403 456.237 72.437 456.996 73.2304L455.5 74.7265C455.069 74.2618 454.593 74.0294 454.072 74.0294C453.55 74.0294 453.131 74.2221 452.814 74.6075C452.485 75.0155 452.321 75.6672 452.321 76.5626C452.321 77.4694 452.485 78.1268 452.814 78.5348C453.131 78.9202 453.55 79.1129 454.072 79.1129C454.593 79.1129 455.069 78.8805 455.5 78.4158L456.996 79.8949Z" fill="#E2001A"/>
<path d="M448.08 81H445.87V72.3973H448.08V81ZM448.097 70.6292H445.836V68.827H448.097V70.6292Z" fill="#E2001A"/>
<path d="M442.964 69.9831C443.689 70.7085 444.052 71.6039 444.052 72.6693C444.052 73.7347 443.689 74.6301 442.964 75.3555C442.25 76.0809 441.281 76.4436 440.057 76.4436H437.727V81H435.364V68.895H440.057C441.281 68.895 442.25 69.2577 442.964 69.9831ZM441.213 73.8764C441.53 73.5704 441.689 73.168 441.689 72.6693C441.689 72.1706 441.53 71.7683 441.213 71.4622C440.895 71.1562 440.47 71.0032 439.938 71.0032H437.727V74.3185H439.938C440.47 74.3185 440.895 74.1711 441.213 73.8764Z" fill="#E2001A"/>
<path d="M73.0119 117.23V115.541H71.6766C71.3973 115.541 71.1747 115.619 71.0089 115.776C70.8518 115.925 70.7732 116.13 70.7732 116.392C70.7732 116.645 70.8518 116.85 71.0089 117.007C71.1747 117.155 71.3973 117.23 71.6766 117.23H73.0119ZM70.9434 121H69.0059L70.3805 118.211C69.9877 118.063 69.6779 117.823 69.451 117.491C69.2241 117.16 69.1106 116.767 69.1106 116.313C69.1106 115.693 69.3201 115.183 69.739 114.781C70.1666 114.38 70.7121 114.179 71.3754 114.179H74.6876V121H72.9857V118.578H72.0693L70.9434 121Z" fill="#A91255"/>
<path d="M67.6808 121H65.9657V118.264H63.7795V121H62.0645V114.179H63.7795V116.758H65.9657V114.179H67.6808V121Z" fill="#A91255"/>
<path d="M60.1759 121H58.4609V118.264H56.2746V121H54.5596V114.179H56.2746V116.758H58.4609V114.179H60.1759V121Z" fill="#A91255"/>
<path d="M53.0041 118.12H48.7363C48.7363 118.574 48.8672 118.94 49.129 119.219C49.3908 119.499 49.7574 119.638 50.2287 119.638C50.5778 119.638 50.8615 119.59 51.0797 119.494C51.3066 119.39 51.5379 119.224 51.7735 118.997L52.8078 120.005C52.4412 120.38 52.0615 120.655 51.6688 120.83C51.2848 120.995 50.8004 121.078 50.2156 121.078C49.7792 121.078 49.3821 121.026 49.0243 120.921C48.6752 120.808 48.3479 120.625 48.0424 120.371C47.7369 120.118 47.4969 119.756 47.3224 119.285C47.1478 118.814 47.0605 118.246 47.0605 117.583C47.0605 116.492 47.3311 115.641 47.8722 115.03C48.4133 114.41 49.1334 114.101 50.0323 114.101C50.9662 114.101 51.695 114.406 52.2186 115.017C52.7423 115.619 53.0041 116.413 53.0041 117.4V118.12ZM51.3284 116.955C51.3197 116.658 51.2673 116.413 51.1713 116.221C50.9618 115.75 50.5822 115.514 50.0323 115.514C49.4825 115.514 49.1028 115.75 48.8934 116.221C48.7974 116.413 48.745 116.658 48.7363 116.955H51.3284Z" fill="#A91255"/>
<path d="M46.7837 121H44.7938L42.5813 117.426L44.689 114.179H46.6397L44.401 117.36L46.7837 121ZM42.5682 121H40.8532V114.179H42.5682V121ZM38.6407 121H36.6377L39.0335 117.36L36.7948 114.179H38.7454L40.8401 117.426L38.6407 121Z" fill="#A91255"/>
<path d="M36.4138 122.676H34.8036V121H30.9023V122.676H29.292V119.494H29.9858C30.431 118.7 30.6535 117.622 30.6535 116.261V114.179H35.5498V119.494H36.4138V122.676ZM33.8479 119.494V115.685H32.29V116.575C32.29 117.806 32.1154 118.779 31.7663 119.494H33.8479Z" fill="#A91255"/>
<path d="M28.6464 117.583C28.6464 118.238 28.5897 118.77 28.4763 119.18C28.3715 119.582 28.1708 119.935 27.874 120.241C27.3329 120.799 26.626 121.078 25.7532 121.078C24.8892 121.078 24.1866 120.799 23.6455 120.241C23.3487 119.926 23.1436 119.569 23.0301 119.167C22.9254 118.757 22.873 118.229 22.873 117.583C22.873 116.937 22.9254 116.413 23.0301 116.012C23.1436 115.61 23.3487 115.253 23.6455 114.938C24.1866 114.38 24.8892 114.101 25.7532 114.101C26.6434 114.101 27.3504 114.38 27.874 114.938C28.1708 115.253 28.3715 115.61 28.4763 116.012C28.5897 116.413 28.6464 116.937 28.6464 117.583ZM26.9445 117.583C26.9445 116.736 26.8136 116.187 26.5518 115.933C26.351 115.733 26.0849 115.632 25.7532 115.632C25.4303 115.632 25.1684 115.733 24.9677 115.933C24.7059 116.187 24.575 116.736 24.575 117.583C24.575 118.438 24.7059 118.992 24.9677 119.246C25.1684 119.446 25.4303 119.547 25.7532 119.547C26.0849 119.547 26.351 119.446 26.5518 119.246C26.8136 118.992 26.9445 118.438 26.9445 117.583Z" fill="#A91255"/>
<path d="M21.5429 117.583C21.5429 118.29 21.4993 118.87 21.412 119.324C21.3247 119.778 21.1327 120.158 20.836 120.463C20.4432 120.873 19.8934 121.078 19.1864 121.078C18.4795 121.078 17.9296 120.851 17.5369 120.398V123.5H15.835V114.179H17.4845V114.821C17.9122 114.341 18.4795 114.101 19.1864 114.101C19.8934 114.101 20.4432 114.306 20.836 114.716C21.1327 115.021 21.3247 115.401 21.412 115.855C21.4993 116.309 21.5429 116.885 21.5429 117.583ZM19.8017 118.368C19.8279 118.159 19.841 117.897 19.841 117.583C19.841 117.269 19.8279 117.011 19.8017 116.811C19.7755 116.601 19.7232 116.4 19.6446 116.208C19.5748 116.016 19.457 115.872 19.2911 115.776C19.134 115.68 18.9333 115.632 18.6889 115.632C18.4446 115.632 18.2395 115.68 18.0736 115.776C17.9165 115.872 17.7987 116.016 17.7201 116.208C17.6503 116.4 17.6023 116.601 17.5761 116.811C17.55 117.011 17.5369 117.269 17.5369 117.583C17.5369 117.897 17.55 118.159 17.5761 118.368C17.6023 118.569 17.6503 118.77 17.7201 118.971C17.7987 119.163 17.9165 119.307 18.0736 119.403C18.2395 119.499 18.4446 119.547 18.6889 119.547C18.9333 119.547 19.134 119.499 19.2911 119.403C19.457 119.307 19.5748 119.163 19.6446 118.971C19.7232 118.77 19.7755 118.569 19.8017 118.368Z" fill="#A91255"/>
<path d="M13.9999 121H12.3373V120.411C12.1016 120.646 11.8572 120.817 11.6041 120.921C11.3598 121.017 11.0456 121.065 10.6615 121.065C9.90223 121.065 9.32184 120.865 8.92036 120.463C8.54507 120.07 8.35742 119.56 8.35742 118.931C8.35742 118.355 8.55816 117.884 8.95964 117.517C9.36111 117.142 9.94587 116.955 10.7139 116.955H12.298V116.614C12.298 116.239 12.1976 115.968 11.9969 115.802C11.7961 115.628 11.4732 115.541 11.0281 115.541C10.4957 115.541 10.0593 115.737 9.71895 116.13L8.64544 115.069C8.97709 114.703 9.32184 114.45 9.67967 114.31C10.0462 114.17 10.5175 114.101 11.0936 114.101C13.0311 114.101 13.9999 114.904 13.9999 116.509V121ZM12.298 118.486V118.12H11.0019C10.3299 118.12 9.99387 118.382 9.99387 118.905C9.99387 119.42 10.3386 119.678 11.0281 119.678C11.4732 119.678 11.8092 119.569 12.0362 119.35C12.2107 119.202 12.298 118.914 12.298 118.486Z" fill="#A91255"/>
<path d="M6.80528 121H4.98555V117.099H1.83047V121H0.0107422V111.679H1.83047V115.488H4.98555V111.679H6.80528V121Z" fill="#A91255"/>
<path d="M8.9293 71.3965C6.6393 71.3965 4.7793 73.2565 4.7793 75.5465C4.7793 77.8365 6.6393 79.6965 8.9293 79.6965C11.2193 79.6965 13.0793 77.8365 13.0793 75.5465C13.0693 73.2565 11.2093 71.3965 8.9293 71.3965Z" fill="#A91255"/>
<path d="M8.92992 67.5366C4.50992 67.5366 0.919922 71.1266 0.919922 75.5466C0.919922 79.9666 4.50992 83.5566 8.92992 83.5566C13.3499 83.5566 16.9399 79.9666 16.9399 75.5466C16.9299 71.1266 13.3399 67.5366 8.92992 67.5366ZM8.92992 81.2266C5.78992 81.2266 3.23992 78.6766 3.23992 75.5366C3.23992 72.3966 5.78992 69.8466 8.92992 69.8466C12.0699 69.8466 14.6199 72.3966 14.6199 75.5366C14.6199 78.6766 12.0699 81.2266 8.92992 81.2266Z" fill="#F7DBE7"/>
<path fill-rule="evenodd" clip-rule="evenodd" d="M8 107L8 85L10 85L10 107L8 107Z" fill="black"/>
<path fill-rule="evenodd" clip-rule="evenodd" d="M7.84961 66.5768V35.4268H9.84961V66.5768H7.84961Z" fill="black"/>
<path d="M146.98 85.3965C142.03 85.3965 138.01 81.3765 138.01 76.4265C138.01 71.4765 142.03 67.4565 146.98 67.4565C151.93 67.4565 155.95 71.4765 155.95 76.4265C155.95 81.3865 151.93 85.3965 146.98 85.3965Z" fill="#F7DBE7"/>
<path fill-rule="evenodd" clip-rule="evenodd" d="M144.51 70.976C144.803 70.6831 145.277 70.6831 145.57 70.976L150.54 75.946C150.681 76.0867 150.76 76.2774 150.76 76.4763C150.76 76.6753 150.681 76.866 150.54 77.0067L145.65 81.8967C145.357 82.1896 144.883 82.1896 144.59 81.8967C144.297 81.6038 144.297 81.1289 144.59 80.836L148.949 76.4763L144.51 72.0367C144.217 71.7438 144.217 71.2689 144.51 70.976Z" fill="#A91255"/>
<path d="M175.664 117.243C176.083 117.644 176.292 118.168 176.292 118.814C176.292 119.46 176.078 119.988 175.651 120.398C175.232 120.799 174.691 121 174.027 121H170.741V114.179H172.456V116.641H174.027C174.699 116.641 175.245 116.841 175.664 117.243ZM173.713 117.976H172.404V119.665H173.713C173.984 119.665 174.197 119.591 174.354 119.442C174.52 119.285 174.603 119.076 174.603 118.814C174.603 118.561 174.52 118.36 174.354 118.212C174.197 118.055 173.984 117.976 173.713 117.976Z" fill="#EFB4CB"/>
<path d="M169.501 122.676H167.878V121H162.969V114.179H164.684V119.495H166.87V114.179H168.585V119.495H169.501V122.676Z" fill="#EFB4CB"/>
<path d="M159.405 117.23V115.541H158.07C157.791 115.541 157.568 115.62 157.402 115.777C157.245 115.925 157.167 116.13 157.167 116.392C157.167 116.645 157.245 116.85 157.402 117.007C157.568 117.156 157.791 117.23 158.07 117.23H159.405ZM157.337 121H155.399L156.774 118.212C156.381 118.063 156.071 117.823 155.845 117.492C155.618 117.16 155.504 116.767 155.504 116.313C155.504 115.694 155.714 115.183 156.133 114.782C156.56 114.38 157.106 114.179 157.769 114.179H161.081V121H159.379V118.578H158.463L157.337 121Z" fill="#EFB4CB"/>
<path d="M154.647 120.149C154.053 120.769 153.303 121.079 152.395 121.079C152.107 121.079 151.828 121.048 151.557 120.987C151.287 120.917 151.012 120.804 150.732 120.647C150.462 120.481 150.226 120.271 150.025 120.018C149.825 119.756 149.659 119.42 149.528 119.01C149.406 118.591 149.345 118.116 149.345 117.583C149.345 117.051 149.406 116.58 149.528 116.169C149.659 115.75 149.825 115.414 150.025 115.161C150.226 114.908 150.462 114.699 150.732 114.533C151.012 114.367 151.287 114.254 151.557 114.192C151.828 114.131 152.107 114.101 152.395 114.101C153.311 114.101 154.062 114.406 154.647 115.017L153.495 116.169C153.163 115.811 152.797 115.633 152.395 115.633C151.994 115.633 151.671 115.781 151.426 116.078C151.173 116.392 151.047 116.894 151.047 117.583C151.047 118.281 151.173 118.788 151.426 119.102C151.671 119.399 151.994 119.547 152.395 119.547C152.797 119.547 153.163 119.368 153.495 119.01L154.647 120.149Z" fill="#EFB4CB"/>
<path d="M147.782 121H146.08V114.376H147.782V121ZM147.795 113.014H146.054V111.626H147.795V113.014Z" fill="#EFB4CB"/>
<path d="M144.172 121H142.47V117.06L141.187 119.586H140.218L138.922 117.06V121H137.207V114.179H138.896L140.702 117.767L142.496 114.179H144.172V121Z" fill="#EFB4CB"/>
<path d="M131.062 121H129.36V113.512L127.462 115.161V113.328L129.36 111.679H131.062V121Z" fill="#EFB4CB"/>
<path fill-rule="evenodd" clip-rule="evenodd" d="M147.52 89C148.072 89 148.52 89.4477 148.52 90V92.1062C148.52 92.6585 148.072 93.1062 147.52 93.1062C146.967 93.1062 146.52 92.6585 146.52 92.1062V90C146.52 89.4477 146.967 89 147.52 89ZM147.52 95.3187C148.072 95.3187 148.52 95.7665 148.52 96.3187V100.531C148.52 101.084 148.072 101.531 147.52 101.531C146.967 101.531 146.52 101.084 146.52 100.531V96.3187C146.52 95.7665 146.967 95.3187 147.52 95.3187ZM147.52 103.744C148.072 103.744 148.52 104.191 148.52 104.744V106.85C148.52 107.402 148.072 107.85 147.52 107.85C146.967 107.85 146.52 107.402 146.52 106.85V104.744C146.52 104.191 146.967 103.744 147.52 103.744Z" fill="#EFB4CB"/>
<path d="M260.539 85.3965C255.589 85.3965 251.569 81.3765 251.569 76.4265C251.569 71.4765 255.589 67.4565 260.539 67.4565C265.489 67.4565 269.509 71.4765 269.509 76.4265C269.499 81.3865 265.489 85.3965 260.539 85.3965Z" fill="#F7DBE7"/>
<path fill-rule="evenodd" clip-rule="evenodd" d="M258.069 70.976C258.362 70.6831 258.837 70.6831 259.13 70.976L264.1 75.946C264.241 76.0867 264.32 76.2774 264.32 76.4763C264.32 76.6753 264.241 76.866 264.1 77.0067L259.21 81.8967C258.917 82.1896 258.442 82.1896 258.149 81.8967C257.856 81.6038 257.856 81.1289 258.149 80.836L262.509 76.4763L258.069 72.0367C257.776 71.7438 257.776 71.2689 258.069 70.976Z" fill="#A91255"/>
<path d="M276.512 121H274.81V114.376H276.512V121ZM276.525 113.014H274.784V111.626H276.525V113.014Z" fill="#EFB4CB"/>
<path d="M273.557 122.676H271.934V121H267.024V114.179H268.739V119.495H270.926V114.179H272.641V119.495H273.557V122.676Z" fill="#EFB4CB"/>
<path d="M263.461 117.23V115.541H262.126C261.846 115.541 261.624 115.62 261.458 115.777C261.301 115.925 261.222 116.13 261.222 116.392C261.222 116.645 261.301 116.85 261.458 117.007C261.624 117.156 261.846 117.23 262.126 117.23H263.461ZM261.393 121H259.455L260.83 118.212C260.437 118.063 260.127 117.823 259.9 117.492C259.673 117.16 259.56 116.767 259.56 116.313C259.56 115.694 259.769 115.183 260.188 114.782C260.616 114.38 261.161 114.179 261.825 114.179H265.137V121H263.435V118.578H262.519L261.393 121Z" fill="#EFB4CB"/>
<path d="M258.702 120.149C258.109 120.769 257.358 121.079 256.451 121.079C256.163 121.079 255.883 121.048 255.613 120.987C255.342 120.917 255.067 120.804 254.788 120.647C254.518 120.481 254.282 120.271 254.081 120.018C253.88 119.756 253.715 119.42 253.584 119.01C253.461 118.591 253.4 118.116 253.4 117.583C253.4 117.051 253.461 116.58 253.584 116.169C253.715 115.75 253.88 115.414 254.081 115.161C254.282 114.908 254.518 114.699 254.788 114.533C255.067 114.367 255.342 114.254 255.613 114.192C255.883 114.131 256.163 114.101 256.451 114.101C257.367 114.101 258.118 114.406 258.702 115.017L257.55 116.169C257.219 115.811 256.852 115.633 256.451 115.633C256.049 115.633 255.726 115.781 255.482 116.078C255.229 116.392 255.102 116.894 255.102 117.583C255.102 118.281 255.229 118.788 255.482 119.102C255.726 119.399 256.049 119.547 256.451 119.547C256.852 119.547 257.219 119.368 257.55 119.01L258.702 120.149Z" fill="#EFB4CB"/>
<path d="M251.837 121H250.136V114.376H251.837V121ZM251.851 113.014H250.109V111.626H251.851V113.014Z" fill="#EFB4CB"/>
<path d="M248.227 121H246.526V117.06L245.243 119.586H244.274L242.978 117.06V121H241.263V114.179H242.952L244.758 117.767L246.552 114.179H248.227V121Z" fill="#EFB4CB"/>
<path d="M236.61 121H230.941V119.468L234.424 115.423C234.747 115.039 234.908 114.664 234.908 114.297C234.908 113.948 234.808 113.669 234.607 113.459C234.415 113.241 234.14 113.132 233.782 113.132C233.459 113.132 233.189 113.228 232.971 113.42C232.752 113.603 232.643 113.904 232.643 114.323H230.941C230.941 113.494 231.208 112.835 231.74 112.347C232.281 111.849 232.962 111.6 233.782 111.6C234.62 111.6 235.301 111.845 235.825 112.333C236.348 112.822 236.61 113.481 236.61 114.31C236.61 114.729 236.536 115.083 236.388 115.371C236.239 115.659 235.982 116.017 235.615 116.444L233.01 119.468H236.61V121Z" fill="#EFB4CB"/>
<path d="M387.466 121H385.764V114.376H387.466V121ZM387.479 113.014H385.738V111.626H387.479V113.014Z" fill="#A91255"/>
<path d="M384.511 122.676H382.888V121H377.979V114.179H379.694V119.495H381.88V114.179H383.595V119.495H384.511V122.676Z" fill="#A91255"/>
<path d="M374.415 117.23V115.541H373.08C372.801 115.541 372.578 115.62 372.412 115.777C372.255 115.925 372.177 116.13 372.177 116.392C372.177 116.645 372.255 116.85 372.412 117.007C372.578 117.156 372.801 117.23 373.08 117.23H374.415ZM372.347 121H370.409L371.784 118.212C371.391 118.063 371.081 117.823 370.854 117.492C370.627 117.16 370.514 116.767 370.514 116.313C370.514 115.694 370.723 115.183 371.142 114.782C371.57 114.38 372.115 114.179 372.779 114.179H376.091V121H374.389V118.578H373.473L372.347 121Z" fill="#A91255"/>
<path d="M369.658 120.149C369.064 120.769 368.313 121.079 367.406 121.079C367.118 121.079 366.839 121.048 366.568 120.987C366.297 120.917 366.022 120.804 365.743 120.647C365.473 120.481 365.237 120.271 365.036 120.018C364.835 119.756 364.67 119.42 364.539 119.01C364.417 118.591 364.355 118.116 364.355 117.583C364.355 117.051 364.417 116.58 364.539 116.169C364.67 115.75 364.835 115.414 365.036 115.161C365.237 114.908 365.473 114.699 365.743 114.533C366.022 114.367 366.297 114.254 366.568 114.192C366.839 114.131 367.118 114.101 367.406 114.101C368.322 114.101 369.073 114.406 369.658 115.017L368.506 116.169C368.174 115.811 367.807 115.633 367.406 115.633C367.004 115.633 366.681 115.781 366.437 116.078C366.184 116.392 366.057 116.894 366.057 117.583C366.057 118.281 366.184 118.788 366.437 119.102C366.681 119.399 367.004 119.547 367.406 119.547C367.807 119.547 368.174 119.368 368.506 119.01L369.658 120.149Z" fill="#A91255"/>
<path d="M362.792 121H361.09V114.376H362.792V121ZM362.805 113.014H361.063V111.626H362.805V113.014Z" fill="#A91255"/>
<path d="M359.182 121H357.48V117.06L356.197 119.586H355.228L353.932 117.06V121H352.217V114.179H353.906L355.712 117.767L357.506 114.179H359.182V121Z" fill="#A91255"/>
<path d="M347.826 119.678H346.975V121H345.339V119.678H341.529V118.067L344.724 111.679H346.583L343.388 118.067H345.339V116.326H346.975V118.067H347.826V119.678Z" fill="#A91255"/>
<path d="M538.608 119.036C538.608 119.639 538.421 120.119 538.045 120.477C537.67 120.826 537.159 121 536.514 121H533.031V114.179H536.396C537.033 114.179 537.543 114.35 537.928 114.69C538.312 115.03 538.504 115.484 538.504 116.052C538.504 116.68 538.216 117.16 537.639 117.492C538.285 117.823 538.608 118.338 538.608 119.036ZM535.99 115.436H534.72V116.902H535.99C536.54 116.902 536.815 116.654 536.815 116.156C536.815 115.676 536.54 115.436 535.99 115.436ZM536.919 118.945C536.919 118.692 536.845 118.495 536.697 118.356C536.549 118.216 536.339 118.146 536.069 118.146H534.72V119.743H536.069C536.33 119.743 536.535 119.674 536.684 119.534C536.841 119.386 536.919 119.189 536.919 118.945Z" fill="#A91255"/>
<path d="M531.141 121H529.439V114.376H531.141V121ZM531.154 113.014H529.413V111.626H531.154V113.014Z" fill="#A91255"/>
<path d="M528.186 122.676H526.563V121H521.653V114.179H523.368V119.495H525.555V114.179H527.27V119.495H528.186V122.676Z" fill="#A91255"/>
<path d="M518.09 117.23V115.541H516.755C516.475 115.541 516.253 115.62 516.087 115.777C515.93 115.925 515.851 116.13 515.851 116.392C515.851 116.645 515.93 116.85 516.087 117.007C516.253 117.156 516.475 117.23 516.755 117.23H518.09ZM516.022 121H514.084L515.459 118.212C515.066 118.063 514.756 117.823 514.529 117.492C514.302 117.16 514.189 116.767 514.189 116.313C514.189 115.694 514.398 115.183 514.817 114.782C515.245 114.38 515.79 114.179 516.454 114.179H519.766V121H518.064V118.578H517.147L516.022 121Z" fill="#A91255"/>
<path d="M513.331 120.149C512.738 120.769 511.987 121.079 511.08 121.079C510.792 121.079 510.512 121.048 510.242 120.987C509.971 120.917 509.696 120.804 509.417 120.647C509.146 120.481 508.911 120.271 508.71 120.018C508.509 119.756 508.343 119.42 508.213 119.01C508.09 118.591 508.029 118.116 508.029 117.583C508.029 117.051 508.09 116.58 508.213 116.169C508.343 115.75 508.509 115.414 508.71 115.161C508.911 114.908 509.146 114.699 509.417 114.533C509.696 114.367 509.971 114.254 510.242 114.192C510.512 114.131 510.792 114.101 511.08 114.101C511.996 114.101 512.747 114.406 513.331 115.017L512.179 116.169C511.848 115.811 511.481 115.633 511.08 115.633C510.678 115.633 510.355 115.781 510.111 116.078C509.858 116.392 509.731 116.894 509.731 117.583C509.731 118.281 509.858 118.788 510.111 119.102C510.355 119.399 510.678 119.547 511.08 119.547C511.481 119.547 511.848 119.368 512.179 119.01L513.331 120.149Z" fill="#A91255"/>
<path d="M506.466 121H504.764V114.376H506.466V121ZM506.479 113.014H504.738V111.626H506.479V113.014Z" fill="#A91255"/>
<path d="M502.856 121H501.154V117.06L499.871 119.586H498.903L497.607 117.06V121H495.892V114.179H497.58L499.387 117.767L501.181 114.179H502.856V121Z" fill="#A91255"/>
<path d="M491.239 121H485.57V119.468L489.053 115.423C489.376 115.039 489.537 114.664 489.537 114.297C489.537 113.948 489.437 113.669 489.236 113.459C489.044 113.241 488.769 113.132 488.411 113.132C488.088 113.132 487.818 113.228 487.6 113.42C487.381 113.603 487.272 113.904 487.272 114.323H485.57C485.57 113.494 485.837 112.835 486.369 112.347C486.91 111.849 487.591 111.6 488.411 111.6C489.249 111.6 489.93 111.845 490.453 112.333C490.977 112.822 491.239 113.481 491.239 114.31C491.239 114.729 491.165 115.083 491.016 115.371C490.868 115.659 490.611 116.017 490.244 116.444L487.639 119.468H491.239V121Z" fill="#A91255"/>
<path d="M482.638 121H480.936V113.512L479.038 115.161V113.328L480.936 111.679H482.638V121Z" fill="#A91255"/>
<path fill-rule="evenodd" clip-rule="evenodd" d="M251 89C251.552 89 252 89.4477 252 90V92.1062C252 92.6585 251.552 93.1062 251 93.1062C250.448 93.1062 250 92.6585 250 92.1062V90C250 89.4477 250.448 89 251 89ZM251 95.3187C251.552 95.3187 252 95.7665 252 96.3187V100.531C252 101.084 251.552 101.531 251 101.531C250.448 101.531 250 101.084 250 100.531V96.3187C250 95.7665 250.448 95.3187 251 95.3187ZM251 103.744C251.552 103.744 252 104.191 252 104.744V106.85C252 107.402 251.552 107.85 251 107.85C250.448 107.85 250 107.402 250 106.85V104.744C250 104.191 250.448 103.744 251 103.744Z" fill="#EFB4CB"/>
<path fill-rule="evenodd" clip-rule="evenodd" d="M361.979 89C362.532 89 362.979 89.4477 362.979 90V92.1062C362.979 92.6585 362.532 93.1062 361.979 93.1062C361.427 93.1062 360.979 92.6585 360.979 92.1062V90C360.979 89.4477 361.427 89 361.979 89ZM361.979 95.3187C362.532 95.3187 362.979 95.7665 362.979 96.3187V100.531C362.979 101.084 362.532 101.531 361.979 101.531C361.427 101.531 360.979 101.084 360.979 100.531V96.3187C360.979 95.7665 361.427 95.3187 361.979 95.3187ZM361.979 103.744C362.532 103.744 362.979 104.191 362.979 104.744V106.85C362.979 107.402 362.532 107.85 361.979 107.85C361.427 107.85 360.979 107.402 360.979 106.85V104.744C360.979 104.191 361.427 103.744 361.979 103.744Z" fill="#EFB4CB"/>
<path fill-rule="evenodd" clip-rule="evenodd" d="M147.52 11.2964C148.072 11.2964 148.52 11.7441 148.52 12.2964V14.3064C148.52 14.8587 148.072 15.3064 147.52 15.3064C146.967 15.3064 146.52 14.8587 146.52 14.3064V12.2964C146.52 11.7441 146.967 11.2964 147.52 11.2964ZM147.52 17.3264C148.072 17.3264 148.52 17.7741 148.52 18.3264V22.3464C148.52 22.8987 148.072 23.3464 147.52 23.3464C146.967 23.3464 146.52 22.8987 146.52 22.3464V18.3264C146.52 17.7741 146.967 17.3264 147.52 17.3264ZM147.52 25.3664C148.072 25.3664 148.52 25.8141 148.52 26.3664V30.3864C148.52 30.9387 148.072 31.3864 147.52 31.3864C146.967 31.3864 146.52 30.9387 146.52 30.3864V26.3664C146.52 25.8141 146.967 25.3664 147.52 25.3664ZM147.52 33.4064C148.072 33.4064 148.52 33.8541 148.52 34.4064V38.4264C148.52 38.9787 148.072 39.4264 147.52 39.4264C146.967 39.4264 146.52 38.9787 146.52 38.4264V34.4064C146.52 33.8541 146.967 33.4064 147.52 33.4064ZM147.52 41.4464C148.072 41.4464 148.52 41.8941 148.52 42.4464V44.4564C148.52 45.0087 148.072 45.4564 147.52 45.4564C146.967 45.4564 146.52 45.0087 146.52 44.4564V42.4464C146.52 41.8941 146.967 41.4464 147.52 41.4464Z" fill="#EFB4CB"/>
<path fill-rule="evenodd" clip-rule="evenodd" d="M361.979 11.2964C362.532 11.2964 362.979 11.7441 362.979 12.2964V14.3064C362.979 14.8587 362.532 15.3064 361.979 15.3064C361.427 15.3064 360.979 14.8587 360.979 14.3064V12.2964C360.979 11.7441 361.427 11.2964 361.979 11.2964ZM361.979 17.3264C362.532 17.3264 362.979 17.7741 362.979 18.3264V22.3464C362.979 22.8987 362.532 23.3464 361.979 23.3464C361.427 23.3464 360.979 22.8987 360.979 22.3464V18.3264C360.979 17.7741 361.427 17.3264 361.979 17.3264ZM361.979 25.3664C362.532 25.3664 362.979 25.8141 362.979 26.3664V30.3864C362.979 30.9387 362.532 31.3864 361.979 31.3864C361.427 31.3864 360.979 30.9387 360.979 30.3864V26.3664C360.979 25.8141 361.427 25.3664 361.979 25.3664ZM361.979 33.4064C362.532 33.4064 362.979 33.8541 362.979 34.4064V38.4264C362.979 38.9787 362.532 39.4264 361.979 39.4264C361.427 39.4264 360.979 38.9787 360.979 38.4264V34.4064C360.979 33.8541 361.427 33.4064 361.979 33.4064ZM361.979 41.4464C362.532 41.4464 362.979 41.8941 362.979 42.4464V44.4564C362.979 45.0087 362.532 45.4564 361.979 45.4564C361.427 45.4564 360.979 45.0087 360.979 44.4564V42.4464C360.979 41.8941 361.427 41.4464 361.979 41.4464Z" fill="#EFB4CB"/>
<path fill-rule="evenodd" clip-rule="evenodd" d="M535 81C535.552 81 536 81.4477 536 82L536 84.0833C536 84.6356 535.552 85.0833 535 85.0833C534.448 85.0833 534 84.6356 534 84.0833L534 82C534 81.4477 534.448 81 535 81ZM535 87.25C535.552 87.25 536 87.6977 536 88.25L536 92.4167C536 92.969 535.552 93.4167 535 93.4167C534.448 93.4167 534 92.969 534 92.4167L534 88.25C534 87.6977 534.448 87.25 535 87.25ZM535 95.5833C535.552 95.5833 536 96.031 536 96.5833L536 100.75C536 101.302 535.552 101.75 535 101.75C534.448 101.75 534 101.302 534 100.75L534 96.5833C534 96.031 534.448 95.5833 535 95.5833ZM535 103.917C535.552 103.917 536 104.364 536 104.917L536 107C536 107.552 535.552 108 535 108C534.448 108 534 107.552 534 107L534 104.917C534 104.364 534.448 103.917 535 103.917Z" fill="#EFB4CB"/>
<path fill-rule="evenodd" clip-rule="evenodd" d="M148.217 49.2172H250.782V62.7828H148.217V49.2172ZM149.782 50.7828V61.2172H249.217V50.7828H149.782Z" fill="#EFB4CB"/>
<path fill-rule="evenodd" clip-rule="evenodd" d="M390.71 13.4468C390.71 13.4468 390.54 12.9368 390.5 12.8768C390.46 12.8168 390.26 12.4568 390.26 12.3968C390.26 12.3368 390.23 12.0968 390.23 12.0968C390.39 12.0668 390.78 12.2768 390.78 12.2768C390.75 12.1768 390.36 11.8768 390.36 11.8768L390.21 11.7568L390.46 11.7868C390.46 11.7868 390.37 11.6968 390.3 11.6568C390.23 11.6068 390.05 11.5668 390.05 11.5668L389.99 11.5068L390.03 11.4168L390.28 11.5068C390.28 11.5068 390.28 11.4768 390.25 11.3568C390.22 11.2368 390.01 11.1468 390.01 11.1468L390.06 10.9568C390.15 10.9868 390.39 11.2368 390.39 11.2368L390.34 11.0168C390.33 10.9468 390.18 10.7668 390.18 10.7668C390.18 10.7668 390.05 10.7668 390.67 10.0668C391.3 9.3668 391.55 8.5268 391.55 8.4668C391.45 8.5968 389.92 9.34679 389.92 9.34679C389.92 9.34679 389.04 9.88679 388.83 9.95679C388.62 10.0368 388.19 10.1168 387.86 10.2368C387.53 10.3568 386.99 10.4168 386.58 10.4268C386.16 10.4368 385.13 10.5168 385.13 10.5168C384.59 9.7368 383.44 8.79679 383.44 8.79679C382.93 8.95679 382.68 9.3168 382.68 9.3168C382.05 10.0368 382.43 11.8868 382.43 11.8868C381.71 12.6468 381.92 13.3968 381.92 13.3968C381.92 13.3968 381.93 13.4468 381.92 13.6968C381.91 13.9468 381.83 15.0268 381.83 15.0268C381.83 15.0268 381.77 15.2068 381.47 15.5768C381.17 15.9468 380.6 17.4568 380.6 17.4568C380.6 17.4568 380.08 18.5068 379.94 18.7968C379.79 19.0768 379.44 19.1068 379.44 19.1068C379.44 19.1068 378.95 19.2168 378.74 19.2768C378.52 19.3368 378.08 19.4968 378.08 19.4968C378.08 19.4968 377.81 19.5768 377.42 19.6968C377.02 19.8268 376.31 20.5568 376.31 20.5568L375.18 21.8768C375.18 21.8768 374.6 22.6368 374.42 22.8468C374.24 23.0568 373.87 23.6668 373.87 23.6668L374.11 23.6168C374.11 23.6168 373.44 24.3968 373.06 25.9768C372.69 27.5568 372.58 27.3168 372.13 28.7268C371.96 29.2568 371.75 29.7968 371.56 30.2668L371.5 30.2168C371.4 30.4068 371.27 30.7968 371.14 31.2468C371.03 31.4968 370.96 31.6368 370.96 31.6368C370.96 31.6368 370.97 31.7368 370.97 31.8768C370.79 32.6068 370.67 33.3268 370.78 33.5168C370.68 33.6768 371.09 34.7168 370.97 34.7768C370.85 34.8368 371.32 34.6968 371.13 35.2068C370.94 35.7068 371.56 35.2268 371.44 35.7068C371.32 36.1868 371.67 35.5868 371.65 35.7068C371.63 35.8268 371.84 36.2868 371.65 36.4768C371.46 36.6668 372.36 35.9168 372.31 36.5168C372.25 37.1168 372.7 37.4868 371.11 37.5268C369.52 37.5668 370.34 37.7968 370.08 37.9568C369.83 38.1068 370.04 38.8068 369.69 38.3668C369.34 37.9168 369.42 38.4268 369.32 38.3868C369.22 38.3468 369.55 38.9868 369.13 38.6768C369.13 38.6768 369.59 39.1368 369.4 39.1568C369.21 39.1768 368.82 39.2568 368.74 39.1768C368.66 39.0968 369.15 40.1868 367.52 40.1868C365.9 40.1868 369.13 40.3568 368.37 40.5968C367.62 40.8268 377.44 41.3668 377.83 41.2368C378.22 41.0968 381.17 41.2368 381.64 40.9668C381.7 40.9368 381.78 40.9068 381.88 40.8968C381.91 40.8968 381.94 40.8968 381.96 40.8968C382.03 40.8968 382.07 40.8868 382.1 40.8768C382.84 40.8268 384.03 40.9068 383.74 40.0268C383.74 40.0268 383.74 40.0268 383.75 40.0268C383.97 40.0468 384.16 40.0368 384.31 40.0268L384.42 40.1068C384.41 40.0668 384.37 40.0468 384.31 40.0268C384.56 40.0068 384.69 39.9668 384.69 39.9668C385.42 40.9968 385.75 40.8968 385.75 40.8968C385.75 40.8968 386.65 40.9968 387.35 40.9868C388.05 40.9768 388.47 40.5868 388.47 40.5868C389.19 40.6868 389.2 40.2568 389.2 40.2568C389.2 40.2568 389.35 40.0368 389.12 39.4068C388.9 38.7768 388.06 38.8368 388.06 38.8368C387.66 37.8368 387.64 36.6668 387.64 36.6668C387.64 36.6668 387.65 35.3868 387.79 34.9068C387.92 34.4268 388.01 32.8468 388.01 32.8468C388.01 32.8468 388.02 31.9068 388.07 31.5668C388.11 31.2268 388.37 30.3368 388.37 30.3368L388.46 29.6968L388.55 29.5068L388.66 29.2268L388.6 28.8568L388.63 28.6468L388.67 28.5168C388.67 28.5168 388.77 28.4368 388.94 28.3268C389.11 28.2068 389.04 27.9868 389.04 27.9868L389.24 27.7168C389.24 27.7168 389.48 27.5768 389.61 27.2968C389.74 27.0168 389.67 26.8168 389.67 26.8168C389.67 26.8168 389.68 26.6168 389.78 26.5068C389.88 26.4068 389.92 26.1768 389.91 26.0468C389.89 25.9168 389.96 25.8768 390.06 25.7168C390.16 25.5468 390.14 25.3168 390.14 25.3168C390.14 25.3168 390.1 25.2168 390.35 25.0168C390.6 24.8168 390.39 24.5568 390.39 24.5568C390.39 24.5568 390.4 24.4968 390.58 24.3068C390.76 24.1168 390.63 24.0768 390.7 23.6468C390.77 23.2168 390.76 22.8368 390.76 22.8368C390.76 22.8368 390.75 22.2268 390.73 21.1368C390.72 20.0468 390.42 19.3968 390.42 19.3968C390.42 19.3968 390.23 19.0268 390.21 18.6568C390.19 18.2868 390.35 18.2868 390.57 18.1068C390.79 17.9268 390.91 17.4868 390.91 17.4868C390.95 17.1768 390.78 16.9668 390.77 16.7968C390.77 16.7568 390.77 16.7568 390.77 16.7568V16.6168V16.4868L390.81 16.1968C390.81 16.1968 390.96 15.6768 391 15.1568C391.04 14.6368 390.91 14.1868 390.91 14.1868V14.1468L390.96 14.1168L390.97 14.0468L390.89 13.8968L391.06 13.9368L390.75 13.5768L391.2 13.5068L390.71 13.4468Z" fill="#F7DBE7"/>
<path d="M407.85 35.9766C407.85 35.9766 407.64 36.1266 407.65 36.2966C407.67 36.6966 407.44 37.3566 407.35 37.6366C407.21 38.0366 406.77 38.4666 406.51 38.5566C406.25 38.6466 406.27 38.7266 406.27 38.7266L406.47 38.8366C406.47 38.8366 406.89 39.2066 407.03 39.2666C407.17 39.3266 407.87 39.9066 408.51 40.7266C409.16 42.2366 408.96 42.2866 408.71 42.3966C408.47 42.5066 407.74 42.4866 407.48 41.9566C407.05 41.1066 405.68 40.5266 405.68 40.5266C405.68 40.5266 405.39 41.0866 405.48 41.4266C405.69 41.2566 405.88 41.3166 406.13 41.3966C407 42.1266 406.13 42.3866 406.13 42.3866L405.6 42.4866C405.6 42.4866 404.75 42.4866 404.35 42.4166C403.95 42.3366 403.83 41.5766 403.8 41.2766C403.77 40.9666 403.74 39.7566 403.74 39.7566L403.43 39.5166C403.43 39.5166 402.82 38.7366 402.27 38.6766C401.72 38.6166 400.44 38.3266 399.96 38.3066C399.47 38.2966 399.46 38.4466 399.38 38.6766C399.3 38.9066 399.27 39.4366 399.24 39.6466C399.21 39.8566 399.21 40.4666 399.24 40.6066C399.27 40.7466 399.77 41.1866 400.31 41.3266C401.3 41.7566 400.82 42.2266 400.82 42.2266C400.82 42.2266 400.58 42.3366 400.42 42.3766C400.27 42.4266 399.58 42.3766 399.06 42.2966C398.54 42.2166 397.88 41.3066 397.55 40.4966C396.72 37.0366 396.42 39.9366 396.23 40.2066C396.06 40.6466 396.25 41.0166 396.57 41.2266C397.19 41.5266 396.91 41.9566 396.88 42.0766C396.85 42.1966 396.56 42.1866 396.56 42.1866H395.43C394.81 41.8866 394.84 41.2166 394.84 41.2166C394.84 41.2166 394.75 39.8766 394.74 39.5466C394.62 38.8466 394.68 38.9066 394.66 38.6566C394.64 38.3566 394.68 38.2866 395.07 37.5566C394.41 35.9466 394.75 34.7466 394.75 34.7466L394.6 34.4766C394.6 34.4766 392.77 33.5766 392.83 31.7066C392.89 29.8366 393.41 28.8566 394.25 28.2366C395.88 27.3866 395.74 28.1566 395.74 28.1566L395.68 28.4266C395.68 28.4266 395.47 28.9966 395.06 29.5266C394.56 30.1566 394.48 30.7466 394.71 31.3666C394.85 31.8866 395.91 31.9466 396.26 31.8366C400.17 31.2866 402.09 32.0066 402.72 32.1266C403.34 32.2466 404.21 32.7166 404.21 32.7166C404.46 32.7066 404.48 32.5566 404.48 32.5566C404.48 32.5566 404.71 31.4466 406.02 31.0466C407.34 30.8266 407.84 30.5666 408.12 30.4866C408.4 30.4166 408.92 30.2266 408.97 30.6966C409.74 30.3766 410.4 30.2366 410.58 30.1466C410.75 30.0566 410.17 30.8466 409.98 30.9266C409.79 31.0066 409.53 31.4066 409.49 31.6766C409.83 31.7866 410.06 32.1866 410.04 32.4066C410.02 32.6266 410.06 33.1866 410 33.3666C409.94 33.5466 410.03 34.0066 410.02 34.1966C410.01 34.3766 410.02 34.5266 410.08 34.7166C410.08 34.8666 410.14 35.0066 409.78 35.1866C409.48 35.3566 409.42 35.4366 409.31 35.4766C409.2 35.5166 408.94 35.6666 408.81 35.6266C408.67 35.5866 408.66 35.4966 408.52 35.4866C408.38 35.4766 408.32 35.5166 408.32 35.5166C408.32 35.5166 408.13 35.6066 408.06 35.6966C407.98 35.7566 407.85 35.9766 407.85 35.9766Z" fill="#A91255"/>
<path d="M465.425 29.6155V43.1221H463.129L460.265 36.5206V43.1221H457.571V29.6155H459.924L462.731 36.217V29.6155H465.425Z" fill="#A91255"/>
<path d="M455.92 29.6155V32.0436H452.392V35.0409H455.427V37.4691H452.392V40.694H455.92V43.1221H449.698V29.6155H455.92Z" fill="#A91255"/>
<path d="M448.278 29.6155V32.0436H446.001V43.1221H443.308V32.0436H441.031V29.6155H448.278Z" fill="#A91255"/>
<path d="M440.275 29.6155V32.0436H437.998V43.1221H435.305V32.0436H433.028V29.6155H440.275Z" fill="#A91255"/>
<path d="M431.607 29.6155V43.1221H428.913V29.6155H431.607Z" fill="#A91255"/>
<path d="M427.321 29.6155L424.627 35.2306L427.757 43.1221H424.873L422.938 38.1899L422.066 40.011V43.1221H419.372V29.6155H422.066V35.4203L424.627 29.6155H427.321Z" fill="#A91255"/>
<path opacity="0.69" d="M0 132.85H294.891L295.861 87.68L351.091 84.7V63.01H363.581V0H0V132.85Z" fill="white"/>
</svg>
