<svg width="119" height="119" viewBox="0 0 119 119" fill="none" xmlns="http://www.w3.org/2000/svg">
<path d="M69.6995 108.21C96.7103 102.469 113.953 75.9182 108.211 48.9074C102.47 21.8966 75.9192 4.65429 48.9084 10.3956C21.8976 16.1369 4.65524 42.6878 10.3966 69.6986C16.1379 96.7094 42.6887 113.952 69.6995 108.21Z" fill="white"/>
<path d="M68.687 103.62C93.1625 98.4177 108.786 74.3589 103.584 49.8833C98.3816 25.4077 74.3228 9.78376 49.8472 14.9862C25.3717 20.1887 9.74769 44.2474 14.9501 68.723C20.1526 93.1986 44.2114 108.823 68.687 103.62Z" fill="white"/>
<path d="M68.1776 104.177C67.963 104.222 67.7121 104.096 67.6574 103.839C67.6118 103.624 67.7378 103.373 67.9952 103.319C68.2097 103.273 68.4698 103.442 68.5154 103.656C68.561 103.871 68.435 104.122 68.1776 104.177ZM69.7595 103.392C69.7139 103.177 69.8399 102.926 70.0544 102.881C70.2689 102.835 70.5199 102.961 70.5655 103.176C70.6111 103.39 70.4851 103.641 70.2706 103.687C70.0132 103.742 69.8051 103.606 69.7595 103.392ZM66.1001 104.529C65.8855 104.574 65.6683 104.396 65.6228 104.182C65.5772 103.967 65.7552 103.75 65.9697 103.704C66.1842 103.659 66.4014 103.837 66.447 104.051C66.4926 104.266 66.3146 104.483 66.1001 104.529ZM71.8005 102.868C71.7549 102.654 71.8809 102.403 72.0954 102.357C72.31 102.312 72.5609 102.438 72.6065 102.652C72.6521 102.867 72.569 103.109 72.3116 103.163C72.3116 103.163 72.3116 103.163 72.2687 103.172C72.0971 103.209 71.8461 103.083 71.8005 102.868ZM63.9614 104.804C63.7378 104.806 63.5297 104.671 63.475 104.414C63.4723 104.19 63.6074 103.982 63.8648 103.927C64.0794 103.882 64.2965 104.06 64.3513 104.317C64.354 104.541 64.2188 104.749 64.0043 104.795C64.0043 104.795 64.0043 104.795 63.9614 104.804ZM73.8142 102.216C73.7257 102.011 73.8517 101.76 74.0571 101.671C74.2625 101.583 74.5135 101.709 74.602 101.914C74.6905 102.12 74.5644 102.371 74.3591 102.459L74.3162 102.468C74.1108 102.557 73.9027 102.422 73.8142 102.216ZM61.8475 104.984C61.6238 104.987 61.4066 104.809 61.4039 104.585C61.4012 104.361 61.5793 104.144 61.8029 104.142C62.0265 104.139 62.2437 104.317 62.2464 104.541C62.2491 104.764 62.1048 104.929 61.8903 104.975C61.8903 104.975 61.8904 104.975 61.8475 104.984ZM75.8096 101.478C75.7211 101.273 75.8471 101.022 76.0525 100.933C76.2579 100.845 76.5089 100.971 76.5974 101.176C76.6859 101.382 76.5599 101.633 76.3545 101.721C76.3545 101.721 76.3116 101.73 76.2687 101.739C76.0971 101.776 75.8981 101.684 75.8096 101.478ZM59.7061 105.036C59.4825 105.038 59.2653 104.86 59.2626 104.637C59.2599 104.413 59.4379 104.196 59.6616 104.193C59.8852 104.19 60.1024 104.368 60.1051 104.592C60.1078 104.816 59.9635 104.981 59.749 105.027C59.7919 105.017 59.749 105.027 59.7061 105.036ZM77.753 100.706C77.6645 100.501 77.7476 100.259 77.953 100.171C78.1584 100.082 78.4003 100.165 78.4888 100.371C78.5773 100.576 78.4942 100.818 78.2979 100.949C78.255 100.958 78.255 100.958 78.2121 100.968C78.0314 100.961 77.8324 100.869 77.753 100.706ZM57.5986 105.035C57.3749 105.038 57.1915 104.808 57.1888 104.584C57.1861 104.361 57.4162 104.177 57.6398 104.174C57.8634 104.172 58.0469 104.402 58.0495 104.625C58.0431 104.806 57.8989 104.971 57.7273 105.008C57.6844 105.017 57.6415 105.026 57.5986 105.035ZM79.66 99.763C79.5715 99.5576 79.6546 99.3157 79.8508 99.1844C80.0562 99.0959 80.2981 99.179 80.4295 99.3752C80.518 99.5806 80.4349 99.8225 80.2386 99.9539C80.1957 99.963 80.1528 99.9721 80.1099 99.9812C79.9474 100.061 79.7484 99.9684 79.66 99.763ZM55.4637 104.906C55.2309 104.866 55.0566 104.679 55.0968 104.446C55.0941 104.222 55.3242 104.039 55.5569 104.079C55.7806 104.076 55.964 104.307 55.9238 104.539C55.9173 104.72 55.7731 104.885 55.6015 104.922C55.5495 104.888 55.5066 104.897 55.4637 104.906ZM81.5149 98.7858C81.3835 98.5896 81.4666 98.3477 81.6628 98.2163C81.8591 98.0849 82.101 98.168 82.2324 98.3643C82.3638 98.5605 82.2807 98.8024 82.0844 98.9338C82.0415 98.9429 81.9986 98.952 81.9557 98.9612C81.7932 99.0405 81.5942 98.9483 81.5149 98.7858ZM53.3443 104.639C53.1116 104.599 52.9373 104.412 52.9775 104.179C53.0177 103.946 53.2048 103.772 53.4376 103.812C53.6703 103.852 53.8446 104.04 53.8044 104.272C53.798 104.453 53.6537 104.618 53.4821 104.655C53.4392 104.664 53.3963 104.673 53.3443 104.639ZM83.3515 97.7228C83.2201 97.5266 83.2941 97.2418 83.4995 97.1533C83.6958 97.0219 83.9376 97.105 84.069 97.3013C84.2004 97.4975 84.1173 97.7394 83.9211 97.8708C83.8782 97.8799 83.8444 97.9319 83.8015 97.9411C83.6208 97.9346 83.4309 97.8853 83.3515 97.7228ZM51.2158 104.329C50.9831 104.289 50.8426 104.05 50.8828 103.817C50.923 103.584 51.1622 103.444 51.352 103.493C51.5847 103.533 51.7253 103.773 51.6759 103.962C51.6266 104.152 51.5161 104.265 51.3445 104.302C51.3537 104.345 51.2678 104.363 51.2158 104.329ZM85.118 96.5403C84.9866 96.344 85.0176 96.0683 85.2139 95.9369C85.4102 95.8055 85.6858 95.8366 85.8172 96.0329C85.9486 96.2292 85.9084 96.4619 85.7213 96.6362C85.6784 96.6453 85.6446 96.6973 85.5588 96.7156C85.3872 96.7521 85.1973 96.7027 85.118 96.5403ZM49.1549 103.915C48.9222 103.875 48.7817 103.636 48.8219 103.403C48.8621 103.171 49.1012 103.03 49.334 103.07C49.5667 103.11 49.7073 103.35 49.667 103.582C49.6086 103.729 49.5072 103.885 49.3356 103.922C49.2498 103.94 49.1978 103.906 49.1549 103.915ZM86.7894 95.333C86.658 95.1367 86.6891 94.8611 86.8854 94.7297C87.0817 94.5983 87.3144 94.6385 87.4796 94.7828C87.611 94.979 87.5799 95.2547 87.4265 95.377C87.3927 95.429 87.3069 95.4472 87.264 95.4563C87.0495 95.5019 86.9026 95.4435 86.7894 95.333ZM47.0666 103.373C46.8339 103.333 46.6934 103.093 46.7765 102.852C46.8167 102.619 47.0559 102.478 47.2977 102.561C47.5305 102.602 47.671 102.841 47.5879 103.083C47.5294 103.23 47.419 103.343 47.2474 103.379C47.2045 103.388 47.1187 103.407 47.0666 103.373ZM88.4336 93.9971C88.3022 93.8008 88.2995 93.5772 88.4866 93.4029C88.6829 93.2715 88.9065 93.2688 89.0808 93.4559C89.2551 93.6431 89.2149 93.8758 89.0278 94.0501C88.994 94.1022 88.9082 94.1204 88.8224 94.1386C88.6937 94.166 88.5467 94.1075 88.4336 93.9971ZM45.0122 102.778C44.7703 102.695 44.6727 102.447 44.7649 102.248C44.848 102.006 45.0963 101.908 45.2862 101.958C45.528 102.041 45.6256 102.289 45.5334 102.488C45.475 102.635 45.3645 102.748 45.2358 102.775C45.15 102.794 45.1071 102.803 45.0122 102.778ZM90.0166 92.5845C89.8423 92.3973 89.8825 92.1646 90.0267 91.9994C90.2139 91.8251 90.4466 91.8653 90.6118 92.0095C90.7861 92.1967 90.7459 92.4294 90.6017 92.5946C90.525 92.6557 90.4821 92.6649 90.3963 92.6831C90.2767 92.7534 90.1297 92.6949 90.0166 92.5845ZM43.0161 102.037C42.7743 101.954 42.6766 101.705 42.7689 101.506C42.852 101.264 43.1003 101.167 43.2992 101.259C43.4982 101.351 43.6387 101.59 43.5465 101.789C43.488 101.936 43.3684 102.007 43.2397 102.034C43.1631 102.095 43.0681 102.07 43.0161 102.037ZM91.5475 91.138C91.3824 90.9938 91.3706 90.7273 91.5577 90.553C91.702 90.3878 91.9685 90.376 92.1428 90.5631C92.3171 90.7503 92.3198 90.9739 92.1326 91.1482C92.0559 91.2093 92.0222 91.2614 91.9364 91.2796C91.7985 91.2641 91.6607 91.2485 91.5475 91.138ZM41.011 101.252C40.812 101.16 40.7144 100.912 40.8066 100.713C40.8988 100.514 41.1471 100.416 41.3461 100.508C41.545 100.601 41.6427 100.849 41.5504 101.048C41.492 101.195 41.3724 101.265 41.2437 101.292C41.2008 101.302 41.1059 101.277 41.011 101.252ZM92.9654 89.5812C92.8002 89.4369 92.7884 89.1704 92.9326 89.0052C93.0769 88.84 93.3434 88.8282 93.5086 88.9725C93.6738 89.1167 93.6856 89.3832 93.5413 89.5484C93.4646 89.6096 93.388 89.6707 93.3022 89.6889C93.2164 89.7072 93.0785 89.6916 92.9654 89.5812ZM39.1163 100.355C38.9173 100.262 38.8197 100.014 38.9028 99.7722C38.995 99.5732 39.2433 99.4756 39.4852 99.5587C39.6841 99.6509 39.7818 99.8992 39.6986 100.141C39.6311 100.245 39.5206 100.358 39.3919 100.386C39.2632 100.413 39.1683 100.388 39.1163 100.355ZM94.3741 87.9814C94.2089 87.8371 94.1542 87.5797 94.2893 87.3717C94.4335 87.2065 94.691 87.1518 94.8561 87.296C95.0213 87.4403 95.076 87.6977 94.9409 87.9058C94.8642 87.9669 94.7875 88.028 94.7017 88.0463C94.5822 88.1165 94.4781 88.049 94.3741 87.9814ZM37.2033 99.3711C37.0044 99.2789 36.8976 98.9877 37.0328 98.7796C37.125 98.5807 37.4162 98.4739 37.6243 98.6091C37.8323 98.7442 37.9299 98.9925 37.7948 99.2006C37.7273 99.3046 37.6077 99.3749 37.5219 99.3931C37.3932 99.4205 37.2982 99.3958 37.2033 99.3711ZM95.6787 86.3141C95.4706 86.1789 95.4588 85.9124 95.594 85.7043C95.7291 85.4962 95.9956 85.4844 96.2037 85.6196C96.3689 85.7638 96.4236 86.0212 96.2885 86.2293C96.2209 86.3333 96.1351 86.3516 96.0064 86.3789C95.8777 86.4063 95.7399 86.3907 95.6787 86.3141ZM35.358 98.2837C35.1499 98.1486 35.0952 97.8911 35.2303 97.6831C35.3654 97.475 35.6228 97.4203 35.8309 97.5554C36.039 97.6905 36.0937 97.9479 35.9586 98.156C35.891 98.2601 35.8143 98.3212 35.6856 98.3485C35.5569 98.3759 35.462 98.3512 35.358 98.2837ZM96.8793 84.5791C96.6713 84.444 96.6165 84.1866 96.7517 83.9785C96.8868 83.7705 97.1442 83.7157 97.3523 83.8509C97.5604 83.986 97.6151 84.2434 97.48 84.4515C97.4124 84.5555 97.3357 84.6167 97.207 84.644C97.0783 84.6714 96.9834 84.6467 96.8793 84.5791ZM33.5893 97.1351C33.3812 97 33.3265 96.7426 33.4616 96.5345C33.5967 96.3264 33.8541 96.2717 34.0622 96.4068C34.2703 96.5419 34.325 96.7993 34.1899 97.0074C34.1223 97.1115 34.0456 97.1726 33.9169 97.1999C33.7882 97.2273 33.6504 97.2118 33.5893 97.1351ZM98.0279 82.8105C97.829 82.7182 97.7651 82.4179 97.9094 82.2528C98.0445 82.0447 98.3019 81.99 98.5009 82.0822C98.709 82.2173 98.7637 82.4747 98.6715 82.6737C98.6039 82.7777 98.4843 82.848 98.3985 82.8662C98.2269 82.9027 98.132 82.878 98.0279 82.8105ZM31.8453 95.8916C31.6801 95.7473 31.6254 95.4899 31.7605 95.2818C31.9047 95.1166 32.1621 95.0619 32.3702 95.1971C32.5354 95.3413 32.5901 95.5987 32.455 95.8068C32.3874 95.9108 32.3016 95.9291 32.2158 95.9473C32.0442 95.9838 31.9493 95.9591 31.8453 95.8916ZM99.0725 80.9742C98.8735 80.882 98.7668 80.5908 98.9019 80.3827C98.9942 80.1838 99.2424 80.0861 99.4934 80.2122C99.6924 80.3044 99.7991 80.5956 99.664 80.8037C99.5964 80.9077 99.4768 80.978 99.391 80.9962C99.2715 81.0664 99.1765 81.0418 99.0725 80.9742ZM30.1779 94.5869C30.0127 94.4427 29.958 94.1852 30.1452 94.011C30.2894 93.8458 30.5468 93.7911 30.712 93.9353C30.8772 94.0796 30.9319 94.337 30.7968 94.545C30.7201 94.6062 30.6434 94.6673 30.5576 94.6856C30.3769 94.6791 30.282 94.6545 30.1779 94.5869ZM100.022 79.1133C99.8232 79.0211 99.7256 78.7728 99.8087 78.5309C99.9009 78.332 100.149 78.2343 100.391 78.3175C100.59 78.4097 100.688 78.658 100.595 78.8569C100.528 78.961 100.417 79.0741 100.289 79.1015C100.212 79.1626 100.117 79.138 100.022 79.1133ZM28.5352 93.1873C28.3701 93.0431 28.3583 92.7766 28.5025 92.6114C28.6467 92.4462 28.9133 92.4344 29.0784 92.5786C29.2436 92.7229 29.2554 92.9894 29.1203 93.1975C29.0436 93.2586 28.9669 93.3198 28.8811 93.338C28.7862 93.3133 28.6484 93.2978 28.5352 93.1873ZM100.911 77.1757C100.712 77.0835 100.614 76.8352 100.706 76.6362C100.799 76.4373 101.047 76.3397 101.246 76.4319C101.445 76.5241 101.542 76.7724 101.45 76.9714C101.392 77.1183 101.272 77.1886 101.143 77.2159C101.1 77.225 101.015 77.2433 100.911 77.1757ZM27.0121 91.7175C26.8378 91.5303 26.8352 91.3067 27.0223 91.1324C27.1666 90.9672 27.4331 90.9554 27.6074 91.1426C27.7726 91.2868 27.7844 91.5533 27.5972 91.7276C27.5205 91.7888 27.4439 91.8499 27.401 91.859C27.2631 91.8435 27.1253 91.828 27.0121 91.7175ZM101.704 75.2134C101.505 75.1212 101.365 74.8821 101.457 74.6831C101.549 74.4841 101.788 74.3436 101.987 74.4358C102.229 74.5189 102.327 74.7672 102.235 74.9662C102.176 75.1131 102.066 75.2263 101.937 75.2537C101.851 75.2719 101.799 75.2381 101.704 75.2134ZM25.5228 90.1956C25.3485 90.0085 25.3888 89.7757 25.533 89.6106C25.7201 89.4363 25.9958 89.4673 26.1181 89.6207C26.2924 89.8079 26.2522 90.0406 26.1079 90.2058C26.0312 90.2669 25.9883 90.276 25.9025 90.2943C25.7829 90.3645 25.636 90.3061 25.5228 90.1956ZM102.403 73.2265C102.161 73.1434 102.063 72.8951 102.113 72.7053C102.196 72.4634 102.401 72.3749 102.634 72.4151C102.876 72.4982 102.973 72.7465 102.924 72.9364C102.866 73.0833 102.755 73.1965 102.626 73.2238C102.541 73.2421 102.498 73.2512 102.403 73.2265ZM24.144 88.5606C24.0126 88.3643 24.0008 88.0978 24.1971 87.9664C24.3933 87.835 24.617 87.8323 24.7913 88.0195C24.9226 88.2158 24.9253 88.4394 24.7382 88.6137C24.7044 88.6657 24.6186 88.6839 24.5328 88.7022C24.4132 88.7724 24.2234 88.7231 24.144 88.5606ZM103.007 71.2149C102.774 71.1747 102.633 70.9356 102.716 70.6937C102.757 70.461 102.996 70.3204 103.238 70.4036C103.47 70.4438 103.611 70.6829 103.528 70.9248C103.469 71.0717 103.359 71.1849 103.187 71.2214C103.144 71.2305 103.102 71.2396 103.007 71.2149ZM22.8081 86.9165C22.6767 86.7202 22.7078 86.4446 22.904 86.3132C23.1003 86.1818 23.3759 86.2129 23.5073 86.4091C23.6387 86.6054 23.6076 86.881 23.4114 87.0124C23.3776 87.0645 23.2918 87.0827 23.2489 87.0918C23.0773 87.1283 22.8874 87.079 22.8081 86.9165ZM103.506 69.1358C103.274 69.0956 103.133 68.8564 103.173 68.6237C103.213 68.3909 103.453 68.2504 103.685 68.2906C103.918 68.3308 104.059 68.57 104.018 68.8027C103.969 68.9926 103.859 69.1057 103.687 69.1422C103.644 69.1513 103.601 69.1604 103.506 69.1358ZM21.5488 85.2112C21.4174 85.0149 21.4576 84.7822 21.6539 84.6508C21.8502 84.5194 22.1258 84.5505 22.2572 84.7468C22.3886 84.943 22.3575 85.2187 22.1612 85.3501C22.1183 85.3592 22.0845 85.4112 21.9987 85.4294C21.818 85.423 21.662 85.3217 21.5488 85.2112ZM103.92 67.0749C103.687 67.0347 103.547 66.7955 103.596 66.6057C103.636 66.3729 103.876 66.2324 104.056 66.2388C104.289 66.279 104.43 66.5182 104.38 66.708C104.374 66.8888 104.22 67.011 104.049 67.0475C104.058 67.0904 104.015 67.0995 103.92 67.0749ZM20.4 83.3928C20.2686 83.1965 20.3517 82.9546 20.548 82.8232C20.7443 82.6918 21.029 82.7658 21.1175 82.9712C21.2489 83.1675 21.1749 83.4522 20.9695 83.5407C20.9266 83.5499 20.8929 83.6019 20.8499 83.611C20.6783 83.6475 20.4794 83.5553 20.4 83.3928ZM104.239 64.9893C104.006 64.9491 103.832 64.7619 103.872 64.5292C103.913 64.2965 104.1 64.1222 104.332 64.1624C104.565 64.2026 104.739 64.3897 104.699 64.6225C104.693 64.8032 104.549 64.9684 104.377 65.0048C104.325 64.9711 104.325 64.9711 104.239 64.9893ZM19.2941 81.5652C19.2056 81.3598 19.2458 81.1271 19.4421 80.9957C19.6384 80.8643 19.8802 80.9474 20.0116 81.1437C20.143 81.3399 20.0599 81.5818 19.8636 81.7132C19.8207 81.7223 19.7778 81.7314 19.7349 81.7406C19.5725 81.8199 19.3735 81.7277 19.2941 81.5652ZM104.463 62.8791C104.24 62.8817 104.056 62.6517 104.053 62.4281C104.051 62.2044 104.281 62.021 104.504 62.0183C104.728 62.0156 104.911 62.2457 104.914 62.4693C104.908 62.65 104.764 62.8152 104.592 62.8517C104.549 62.8608 104.506 62.8699 104.463 62.8791ZM18.3078 79.6674C18.2193 79.462 18.3024 79.2202 18.4987 79.0888C18.7041 79.0003 18.9459 79.0834 19.0773 79.2796C19.1658 79.485 19.0827 79.7269 18.8865 79.8583C18.8436 79.8674 18.8007 79.8765 18.8007 79.8765C18.5953 79.965 18.3963 79.8728 18.3078 79.6674ZM104.601 60.7871C104.378 60.7898 104.204 60.6026 104.192 60.3361C104.189 60.1125 104.376 59.9382 104.643 59.9263C104.866 59.9236 105.041 60.1108 105.052 60.3773C105.046 60.558 104.902 60.7232 104.73 60.7597C104.644 60.7779 104.644 60.7779 104.601 60.7871ZM17.4073 77.7514C17.3188 77.546 17.4019 77.3041 17.6502 77.2065C17.8556 77.118 18.0975 77.2011 18.1951 77.4494C18.2836 77.6548 18.2005 77.8966 17.9522 77.9943C17.9093 78.0034 17.9093 78.0034 17.8664 78.0125C17.6948 78.049 17.4958 77.9567 17.4073 77.7514ZM104.602 58.6795C104.378 58.6822 104.161 58.5042 104.158 58.2805C104.156 58.0569 104.334 57.8397 104.557 57.837C104.781 57.8343 104.998 58.0124 105.001 58.236C105.004 58.4596 104.859 58.6248 104.688 58.6613C104.645 58.6704 104.645 58.6704 104.602 58.6795ZM16.5835 75.7742C16.495 75.5688 16.621 75.3178 16.8264 75.2293C17.0318 75.1408 17.2828 75.2668 17.3713 75.4722C17.4598 75.6776 17.3337 75.9286 17.1284 76.0171L17.0855 76.0262C16.871 76.0718 16.672 75.9796 16.5835 75.7742ZM104.55 56.5382C104.327 56.5409 104.109 56.3628 104.107 56.1392C104.104 55.9156 104.282 55.6984 104.506 55.6957C104.729 55.693 104.947 55.871 104.949 56.0947C104.952 56.3183 104.808 56.4835 104.636 56.5199C104.55 56.5382 104.55 56.5382 104.55 56.5382ZM15.8884 73.7696C15.7999 73.5642 15.9259 73.3133 16.1742 73.2156C16.3796 73.1271 16.6305 73.2532 16.7282 73.5014C16.8167 73.7068 16.6907 73.9578 16.4853 74.0463L16.4424 74.0554C16.1421 74.1193 15.934 73.9841 15.8884 73.7696ZM104.327 54.4333C104.113 54.4789 103.895 54.3009 103.85 54.0864C103.804 53.8719 103.982 53.6547 104.197 53.6091C104.411 53.5635 104.628 53.7415 104.674 53.956C104.729 54.2134 104.584 54.3786 104.327 54.4333C104.37 54.4242 104.37 54.4242 104.327 54.4333ZM15.2362 71.756C15.1906 71.5415 15.3166 71.2905 15.5311 71.2449C15.7456 71.1993 15.9966 71.3253 16.0422 71.5398C16.0878 71.7543 15.9617 72.0053 15.7472 72.0509C15.7472 72.0509 15.7472 72.0509 15.7043 72.06C15.5327 72.0965 15.3247 71.9613 15.2362 71.756ZM104.061 52.3376C103.846 52.3832 103.629 52.2052 103.584 51.9907C103.538 51.7761 103.707 51.516 103.931 51.5134C104.145 51.4678 104.362 51.6458 104.408 51.8603C104.453 52.0748 104.318 52.2829 104.061 52.3376ZM14.7035 69.672C14.6579 69.4575 14.7839 69.2066 15.0413 69.1518C15.2559 69.1062 15.5068 69.2323 15.5524 69.4468C15.598 69.6613 15.472 69.9122 15.2575 69.9578C15.0092 70.0555 14.7582 69.9295 14.7035 69.672ZM103.198 49.9652C103.152 49.7507 103.278 49.4997 103.536 49.445C103.75 49.3994 104.001 49.5254 104.056 49.7828C104.102 49.9973 103.976 50.2483 103.718 50.303C103.452 50.3148 103.244 50.1797 103.198 49.9652ZM14.786 67.9506C14.5715 67.9962 14.3114 67.8273 14.3087 67.6037C14.2631 67.3892 14.4412 67.172 14.6557 67.1264C14.8702 67.0808 15.1303 67.2497 15.133 67.4733C15.1694 67.6449 15.0005 67.905 14.786 67.9506ZM102.781 48.2153C102.736 48.0008 102.862 47.7499 103.076 47.7043C103.291 47.6587 103.542 47.7847 103.587 47.9992C103.633 48.2137 103.507 48.4647 103.292 48.5103C103.078 48.5559 102.827 48.4299 102.781 48.2153ZM14.425 65.8302C14.2105 65.8758 13.9933 65.6978 13.9477 65.4833C13.9021 65.2688 14.0801 65.0516 14.2946 65.006C14.5091 64.9604 14.7263 65.1384 14.7719 65.3529C14.8267 65.6103 14.6395 65.7846 14.425 65.8302ZM102.215 46.1834C102.126 45.9781 102.252 45.7271 102.51 45.6724C102.724 45.6268 102.975 45.7528 103.021 45.9673C103.066 46.1818 102.94 46.4328 102.726 46.4784L102.683 46.4875C102.511 46.524 102.303 46.3888 102.215 46.1834ZM14.1589 63.7345C13.9353 63.7372 13.7272 63.602 13.7154 63.3355C13.7127 63.1119 13.8478 62.9038 14.1143 62.892C14.338 62.8893 14.546 63.0244 14.5579 63.291C14.6034 63.5055 14.4254 63.7227 14.2109 63.7683L14.1589 63.7345ZM101.572 44.2127C101.483 44.0073 101.609 43.7563 101.815 43.6678C102.02 43.5793 102.271 43.7053 102.359 43.9107C102.448 44.1161 102.322 44.3671 102.117 44.4556L102.074 44.4647C101.859 44.5103 101.66 44.4181 101.572 44.2127ZM13.9877 61.6634C13.7641 61.6661 13.5469 61.4881 13.5442 61.2644C13.5415 61.0408 13.7195 60.8236 13.9431 60.8209C14.1668 60.8182 14.384 60.9963 14.3867 61.2199C14.3894 61.4435 14.2451 61.6087 14.0306 61.6543C14.0306 61.6543 14.0306 61.6543 13.9877 61.6634ZM100.843 42.2602C100.754 42.0548 100.837 41.8129 101.086 41.7153C101.291 41.6268 101.533 41.7099 101.631 41.9582C101.719 42.1636 101.636 42.4054 101.388 42.5031C101.345 42.5122 101.345 42.5122 101.302 42.5213C101.13 42.5578 100.931 42.4655 100.843 42.2602ZM13.9361 59.5221C13.7125 59.5248 13.4953 59.3467 13.5355 59.114C13.5328 58.8904 13.7108 58.6732 13.9436 58.7134C14.1672 58.7107 14.3844 58.8887 14.3442 59.1215C14.3378 59.3022 14.2026 59.5103 13.9881 59.5559C13.9881 59.5559 13.979 59.513 13.9361 59.5221ZM99.9852 40.335C99.8967 40.1296 99.9798 39.8877 100.185 39.7992C100.391 39.7108 100.632 39.7939 100.764 39.9901C100.852 40.1955 100.769 40.4374 100.573 40.5688C100.53 40.5779 100.53 40.5779 100.487 40.587C100.273 40.6326 100.074 40.5404 99.9852 40.335ZM13.9794 57.4054C13.7558 57.4081 13.5724 57.1781 13.5697 56.9544C13.567 56.7308 13.7971 56.5474 14.0207 56.5447C14.2443 56.542 14.4277 56.772 14.4304 56.9957C14.424 57.1764 14.2797 57.3416 14.1081 57.3781C14.0314 57.4392 13.9886 57.4483 13.9794 57.4054ZM99.0938 38.4618C99.0053 38.2565 99.0884 38.0146 99.2847 37.8832C99.4901 37.7947 99.7319 37.8778 99.8633 38.0741C99.9518 38.2795 99.8778 38.5642 99.6724 38.6527C99.6295 38.6618 99.5866 38.671 99.5437 38.6801C99.3721 38.7166 99.1732 38.6243 99.0938 38.4618ZM14.1177 55.3134C13.8849 55.2732 13.7106 55.086 13.7508 54.8533C13.7911 54.6206 13.9782 54.4463 14.2109 54.4865C14.4437 54.5267 14.618 54.7138 14.5778 54.9466C14.5714 55.1273 14.4271 55.2925 14.2555 55.329C14.2035 55.2952 14.1606 55.3043 14.1177 55.3134ZM98.0737 36.6161C97.9423 36.4198 98.0254 36.1779 98.2217 36.0465C98.418 35.9151 98.6598 35.9982 98.7912 36.1945C98.9226 36.3908 98.8486 36.6755 98.6432 36.764C98.6003 36.7732 98.5574 36.7823 98.5145 36.7914C98.352 36.8708 98.1531 36.7785 98.0737 36.6161ZM14.3417 53.2032C14.109 53.163 13.9347 52.9758 13.9749 52.7431C14.0151 52.5103 14.2022 52.336 14.435 52.3762C14.6677 52.4164 14.842 52.6036 14.8018 52.8363C14.7525 53.0262 14.642 53.1393 14.4704 53.1758C14.4367 53.2278 14.3937 53.2369 14.3417 53.2032ZM96.9769 34.8314C96.8455 34.6351 96.9286 34.3933 97.082 34.271C97.2783 34.1396 97.563 34.2136 97.6424 34.3761C97.7738 34.5723 97.6998 34.8571 97.4944 34.9456C97.4515 34.9547 97.4178 35.0067 97.3749 35.0159C97.2553 35.0861 97.0563 34.9939 96.9769 34.8314ZM14.6607 51.1176C14.428 51.0774 14.2874 50.8382 14.3276 50.6055C14.3679 50.3727 14.607 50.2322 14.8398 50.2724C15.0725 50.3126 15.213 50.5518 15.1728 50.7845C15.1235 50.9744 15.013 51.0875 14.8414 51.124C14.7985 51.1331 14.7127 51.1514 14.6607 51.1176ZM95.8035 33.1079C95.6721 32.9116 95.7123 32.6789 95.8994 32.5046C96.0957 32.3732 96.3284 32.4134 96.5027 32.6005C96.6341 32.7968 96.6031 33.0725 96.4068 33.2039C96.373 33.2559 96.2872 33.2741 96.2443 33.2832C96.0727 33.3197 95.8829 33.2704 95.8035 33.1079ZM15.1175 49.0476C14.8847 49.0073 14.7442 48.7682 14.7844 48.5354C14.8246 48.3027 15.0638 48.1622 15.3057 48.2453C15.5384 48.2855 15.6789 48.5247 15.6387 48.7574C15.5894 48.9473 15.4789 49.0604 15.3073 49.0969C15.2124 49.0722 15.1695 49.0813 15.1175 49.0476ZM94.5104 31.4546C94.379 31.2584 94.4101 30.9827 94.5635 30.8604C94.7598 30.729 94.9925 30.7693 95.1577 30.9135C95.2891 31.1098 95.258 31.3854 95.1046 31.5077C95.0709 31.5597 94.985 31.578 94.9421 31.5871C94.8226 31.6573 94.6327 31.608 94.5104 31.4546ZM15.6263 47.0113C15.3844 46.9282 15.2959 46.7228 15.3362 46.4901C15.3764 46.2573 15.6246 46.1597 15.8574 46.1999C16.0901 46.2401 16.1877 46.4884 16.1475 46.7212C16.0891 46.8681 15.9786 46.9813 15.8499 47.0086C15.7641 47.0269 15.7212 47.036 15.6263 47.0113ZM93.1836 29.8534C93.0093 29.6662 93.0404 29.3906 93.2367 29.2592C93.4238 29.0849 93.6995 29.116 93.8309 29.3123C93.9623 29.5085 93.9741 29.7751 93.7778 29.9065C93.744 29.9585 93.6582 29.9767 93.5724 29.995C93.4437 30.0223 93.2968 29.9639 93.1836 29.8534ZM16.2729 44.9906C16.0311 44.9075 15.9335 44.6592 16.0257 44.4602C16.1088 44.2184 16.3571 44.1208 16.556 44.213C16.7979 44.2961 16.8955 44.5444 16.8033 44.7434C16.7448 44.8903 16.6344 45.0035 16.5057 45.0308C16.4108 45.0061 16.325 45.0244 16.2729 44.9906ZM91.7801 28.3133C91.6058 28.1262 91.6369 27.8505 91.7903 27.7282C91.9774 27.5539 92.2102 27.5941 92.3753 27.7384C92.5496 27.9255 92.5094 28.1583 92.3652 28.3235C92.2885 28.3846 92.2456 28.3937 92.1598 28.412C92.0311 28.4393 91.8933 28.4238 91.7801 28.3133ZM16.9716 43.0037C16.7297 42.9206 16.6321 42.6723 16.7243 42.4733C16.8166 42.2744 17.0557 42.1338 17.2547 42.2261C17.4537 42.3183 17.5942 42.5575 17.5019 42.7564C17.4435 42.9034 17.3239 42.9736 17.1952 43.001C17.1523 43.0101 17.0665 43.0283 16.9716 43.0037ZM90.2999 26.8343C90.1348 26.6901 90.1229 26.4236 90.2672 26.2584C90.4114 26.0932 90.678 26.0814 90.8431 26.2256C91.0083 26.3699 91.0201 26.6364 90.8759 26.8016C90.7992 26.8627 90.7225 26.9239 90.6796 26.933C90.5509 26.9604 90.4131 26.9448 90.2999 26.8343ZM17.7652 41.0414C17.5662 40.9492 17.4686 40.7009 17.5517 40.459C17.6439 40.2601 17.8922 40.1625 18.0912 40.2547C18.2901 40.3469 18.3877 40.5952 18.2955 40.7942C18.2371 40.9411 18.1175 41.0114 17.9888 41.0387C17.955 41.0907 17.8601 41.0661 17.7652 41.0414ZM88.7859 25.4074C88.6208 25.2632 88.609 24.9966 88.7441 24.7886C88.8883 24.6234 89.1549 24.6116 89.32 24.7558C89.4852 24.9001 89.497 25.1666 89.3619 25.3747C89.2852 25.4358 89.2085 25.4969 89.1227 25.5152C88.994 25.5425 88.8562 25.527 88.7859 25.4074ZM18.6628 39.1467C18.4638 39.0545 18.3662 38.8062 18.4922 38.5552C18.5844 38.3563 18.8327 38.2587 19.0408 38.3938C19.2398 38.486 19.3374 38.7343 19.2543 38.9762C19.1867 39.0802 19.0763 39.1934 18.9475 39.2207C18.8526 39.196 18.7577 39.1714 18.6628 39.1467ZM87.1615 24.0936C86.9963 23.9494 86.9416 23.692 87.0768 23.4839C87.221 23.3187 87.4784 23.264 87.6865 23.3991C87.8517 23.5434 87.9064 23.8008 87.7713 24.0089C87.6946 24.07 87.6179 24.1311 87.5321 24.1494C87.4034 24.1767 87.2656 24.1612 87.1615 24.0936ZM19.6462 37.2338C19.4381 37.0987 19.3834 36.8413 19.4756 36.6423C19.6108 36.4342 19.8682 36.3795 20.0671 36.4717C20.2752 36.6069 20.3299 36.8643 20.2377 37.0632C20.1701 37.1673 20.0505 37.2375 19.9647 37.2558C19.8452 37.326 19.7502 37.3014 19.6462 37.2338ZM85.5033 22.8319C85.2952 22.6967 85.2834 22.4302 85.4185 22.2221C85.5537 22.0141 85.8202 22.0022 86.0283 22.1374C86.2363 22.2725 86.2482 22.539 86.113 22.7471C86.0455 22.8512 85.9597 22.8694 85.831 22.8967C85.7023 22.9241 85.6073 22.8994 85.5033 22.8319ZM20.7428 35.4313C20.5347 35.2962 20.48 35.0388 20.6151 34.8307C20.7502 34.6226 21.0076 34.5679 21.2157 34.703C21.4238 34.8382 21.4785 35.0956 21.3434 35.3037C21.2758 35.4077 21.1991 35.4688 21.0704 35.4962C20.9417 35.5235 20.8039 35.508 20.7428 35.4313ZM83.7684 21.6313C83.5603 21.4961 83.5056 21.2387 83.6407 21.0306C83.7759 20.8226 84.0333 20.7678 84.2413 20.903C84.4494 21.0381 84.5041 21.2955 84.369 21.5036C84.3014 21.6076 84.2248 21.6688 84.096 21.6961C83.9673 21.7235 83.8724 21.6988 83.7684 21.6313ZM21.8914 33.6626C21.6833 33.5275 21.6715 33.261 21.7637 33.062C21.8988 32.8539 22.1562 32.7992 22.3643 32.9344C22.5724 33.0695 22.5842 33.336 22.492 33.535C22.4244 33.639 22.3386 33.6572 22.2099 33.6846C22.0903 33.7549 21.9954 33.7302 21.8914 33.6626ZM81.9659 20.5347C81.7578 20.3996 81.7031 20.1421 81.7954 19.9432C81.9305 19.7351 82.1879 19.6804 82.3869 19.7726C82.5949 19.9077 82.6497 20.1652 82.5574 20.3641C82.4899 20.4682 82.3703 20.5384 82.2845 20.5567C82.2078 20.6178 82.07 20.6022 81.9659 20.5347ZM23.1011 31.9706C22.9359 31.8264 22.8812 31.569 23.0163 31.3609C23.1606 31.1957 23.418 31.141 23.6261 31.2761C23.7913 31.4204 23.846 31.6778 23.7108 31.8859C23.6342 31.947 23.5575 32.0081 23.4717 32.0264C23.343 32.0537 23.2051 32.0382 23.1011 31.9706ZM80.1388 19.533C79.9398 19.4408 79.8331 19.1496 79.9682 18.9415C80.0605 18.7426 80.3516 18.6358 80.5597 18.771C80.7587 18.8632 80.8563 19.1115 80.7212 19.3196C80.6536 19.4236 80.5431 19.5368 80.4144 19.5641C80.3286 19.5824 80.2337 19.5577 80.1388 19.533ZM24.4058 30.3033C24.2406 30.159 24.2288 29.8925 24.3639 29.6844C24.5081 29.5193 24.7747 29.5074 24.9828 29.6426C25.1479 29.7868 25.1597 30.0534 25.0246 30.2614C24.9479 30.3226 24.8713 30.3837 24.7854 30.402C24.6567 30.4293 24.5098 30.3709 24.4058 30.3033ZM78.2779 18.5834C78.0789 18.4912 77.9813 18.2429 78.0644 18.001C78.1566 17.802 78.4049 17.7044 78.6039 17.7967C78.8029 17.8889 78.9005 18.1372 78.8082 18.3361C78.7407 18.4402 78.6302 18.5533 78.5015 18.5807C78.4677 18.6327 78.3819 18.651 78.2779 18.5834ZM25.8145 28.7035C25.6493 28.5593 25.6375 28.2927 25.7817 28.1276C25.926 27.9624 26.1925 27.9506 26.3577 28.0948C26.5229 28.2391 26.5347 28.5056 26.3995 28.7137C26.3228 28.7748 26.2462 28.836 26.2033 28.8451C26.0654 28.8295 25.9276 28.814 25.8145 28.7035ZM76.3494 17.7378C76.1504 17.6456 76.0528 17.3973 76.1451 17.1983C76.2373 16.9994 76.4856 16.9017 76.6845 16.994C76.8835 17.0862 77.024 17.3254 76.8889 17.5334C76.8304 17.6804 76.7108 17.7506 76.5821 17.778C76.5392 17.7871 76.4534 17.8054 76.3494 17.7378ZM27.2843 27.1804C27.1191 27.0362 27.1502 26.7605 27.2945 26.5954C27.4816 26.4211 27.7144 26.4613 27.8795 26.6055C28.0447 26.7498 28.0565 27.0163 27.8694 27.1906C27.7927 27.2517 27.7498 27.2608 27.664 27.2791C27.5353 27.3064 27.3546 27.3 27.2843 27.1804ZM74.3963 16.9871C74.1544 16.904 74.0568 16.6557 74.149 16.4568C74.2321 16.2149 74.4804 16.1173 74.6794 16.2095C74.9212 16.2926 75.0189 16.5409 74.9266 16.7399C74.8682 16.8868 74.7577 17 74.629 17.0273C74.5861 17.0364 74.4912 17.0118 74.3963 16.9871ZM28.8153 25.734C28.641 25.5469 28.6721 25.2712 28.8683 25.1398C29.0555 24.9655 29.2882 25.0057 29.4625 25.1929C29.6368 25.38 29.6057 25.6557 29.4095 25.7871C29.3328 25.8482 29.2899 25.8573 29.2041 25.8756C29.0663 25.86 28.8855 25.8536 28.8153 25.734ZM72.4185 16.3314C72.1766 16.2483 72.079 16 72.1283 15.8101C72.2114 15.5683 72.4168 15.4798 72.6496 15.52C72.8914 15.6031 72.989 15.8514 72.9397 16.0412C72.8813 16.1882 72.7708 16.3013 72.6421 16.3287C72.5563 16.3469 72.4705 16.3651 72.4185 16.3314ZM30.3983 24.3214C30.2669 24.1251 30.298 23.8495 30.4513 23.7272C30.6476 23.5958 30.8803 23.636 31.0455 23.7803C31.1769 23.9765 31.1458 24.2522 30.9925 24.3745C30.9587 24.4265 30.8729 24.4447 30.83 24.4538C30.6675 24.5332 30.4776 24.4839 30.3983 24.3214ZM70.416 15.7705C70.1833 15.7303 70.0427 15.4912 70.1258 15.2493C70.1661 15.0166 70.4052 14.876 70.6471 14.9591C70.8798 14.9994 71.0203 15.2385 70.9372 15.4804C70.8788 15.6273 70.7683 15.7405 70.5967 15.777C70.5538 15.7861 70.468 15.8043 70.416 15.7705ZM32.0515 23.0284C31.9201 22.8321 31.9512 22.5564 32.1475 22.4251C32.3438 22.2937 32.6194 22.3247 32.7508 22.521C32.8822 22.7173 32.8511 22.9929 32.6548 23.1243C32.6211 23.1763 32.5353 23.1946 32.4924 23.2037C32.3207 23.2402 32.1309 23.1908 32.0515 23.0284ZM68.346 15.3137C68.1132 15.2735 67.9727 15.0344 68.0129 14.8016C68.0531 14.5689 68.2923 14.4284 68.525 14.4686C68.7578 14.5088 68.8983 14.7479 68.8581 14.9807C68.8517 15.1614 68.6983 15.2837 68.5267 15.3202C68.4747 15.2864 68.4318 15.2955 68.346 15.3137ZM33.7659 21.812C33.6345 21.6157 33.6656 21.3401 33.871 21.2516C34.0673 21.1202 34.3 21.1604 34.4314 21.3567C34.5628 21.5529 34.4888 21.8377 34.3263 21.9171C34.2926 21.9691 34.2496 21.9782 34.1638 21.9965C34.0351 22.0238 33.8453 21.9745 33.7659 21.812ZM66.285 14.8999C66.0523 14.8596 65.878 14.6725 65.9182 14.4398C65.9584 14.207 66.1885 14.0236 66.3783 14.0729C66.6111 14.1131 66.7854 14.3003 66.7451 14.533C66.6958 14.7229 66.5854 14.836 66.4138 14.8725C66.4229 14.9154 66.3371 14.9336 66.285 14.8999ZM35.5415 20.6723C35.4101 20.4761 35.4932 20.2342 35.6894 20.1028C35.8857 19.9714 36.1276 20.0545 36.259 20.2508C36.3904 20.4471 36.3164 20.7318 36.111 20.8203C36.0681 20.8294 36.0252 20.8386 35.9823 20.8477C35.8107 20.8841 35.6208 20.8348 35.5415 20.6723ZM64.2086 14.6238C63.9758 14.5836 63.8016 14.3964 63.8418 14.1637C63.882 13.9309 64.0691 13.7566 64.3019 13.7969C64.5346 13.8371 64.7089 14.0242 64.6687 14.257C64.6623 14.4377 64.518 14.6029 64.3464 14.6393C64.3035 14.6484 64.2606 14.6576 64.2086 14.6238ZM37.3261 19.5756C37.2376 19.3702 37.2778 19.1374 37.517 18.9969C37.7224 18.9084 37.9551 18.9486 38.0956 19.1878C38.1841 19.3932 38.1439 19.6259 37.9048 19.7664C37.8619 19.7756 37.819 19.7847 37.776 19.7938C37.6044 19.8303 37.4575 19.7718 37.3261 19.5756ZM62.1504 14.4335C61.9267 14.4362 61.7433 14.2062 61.7406 13.9825C61.7379 13.7589 61.968 13.5755 62.1916 13.5728C62.4152 13.5701 62.5987 13.8002 62.6014 14.0238C62.5949 14.2045 62.4507 14.3697 62.2791 14.4062C62.2024 14.4673 62.1595 14.4764 62.1504 14.4335ZM39.233 18.6322C39.1445 18.4268 39.2276 18.1849 39.4239 18.0535C39.6293 17.965 39.8712 18.0481 40.0026 18.2444C40.0911 18.4498 40.0079 18.6916 39.8117 18.823C39.7688 18.8322 39.7259 18.8413 39.7259 18.8413C39.5114 18.8869 39.3124 18.7946 39.233 18.6322ZM60.0337 14.3902C59.8101 14.3929 59.6358 14.2057 59.624 13.9392C59.6213 13.7156 59.8084 13.5413 60.075 13.5295C60.2986 13.5268 60.4729 13.7139 60.4756 13.9376C60.4691 14.1183 60.334 14.3264 60.1624 14.3628C60.1195 14.372 60.0766 14.3811 60.0337 14.3902ZM41.1491 17.7317C41.0606 17.5263 41.1437 17.2844 41.392 17.1868C41.5974 17.0983 41.8392 17.1814 41.9368 17.4297C42.0253 17.6351 41.9422 17.8769 41.694 17.9746C41.6511 17.9837 41.651 17.9837 41.6081 17.9928C41.4365 18.0293 41.2285 17.8941 41.1491 17.7317ZM57.9691 14.3807C57.7454 14.3833 57.5282 14.2053 57.5255 13.9817C57.5229 13.7581 57.7009 13.5409 57.9245 13.5382C58.1481 13.5355 58.3653 13.7135 58.368 13.9371C58.3707 14.1608 58.2265 14.3259 58.0549 14.3624C58.012 14.3715 57.9691 14.3807 57.9691 14.3807ZM43.0834 16.917C42.9949 16.7116 43.1209 16.4606 43.3263 16.3721C43.5317 16.2836 43.7826 16.4096 43.8711 16.615C43.9596 16.8204 43.8336 17.0714 43.6282 17.1599L43.5853 17.169C43.38 17.2575 43.1719 17.1223 43.0834 16.917ZM55.846 14.5181C55.6223 14.5207 55.4051 14.3427 55.4024 14.1191C55.3998 13.8955 55.5778 13.6783 55.8014 13.6756C56.025 13.6729 56.2422 13.8509 56.2449 14.0745C56.2476 14.2982 56.1034 14.4633 55.8889 14.5089C55.8889 14.5089 55.8889 14.5089 55.846 14.5181ZM45.0879 16.2218C44.9994 16.0165 45.1254 15.7655 45.3737 15.6679C45.5791 15.5794 45.8301 15.7054 45.9277 15.9537C45.9733 16.1682 45.8902 16.41 45.6328 16.4647L45.5899 16.4739C45.3845 16.5624 45.1335 16.4363 45.0879 16.2218ZM53.784 14.7321C53.5695 14.7777 53.3523 14.5997 53.3067 14.3852C53.2611 14.1707 53.4392 13.9535 53.6537 13.9079C53.8682 13.8623 54.0854 14.0403 54.131 14.2548C54.1765 14.4693 54.0414 14.6774 53.784 14.7321ZM47.1107 15.6125C47.0651 15.398 47.1911 15.147 47.4056 15.1014C47.6201 15.0558 47.8711 15.1819 47.9167 15.3964C47.9623 15.6109 47.8363 15.8618 47.6218 15.9074C47.3644 15.9622 47.1563 15.827 47.1107 15.6125ZM51.6974 15.0411C51.4829 15.0867 51.2228 14.9178 51.2201 14.6942C51.1745 14.4797 51.3434 14.2196 51.567 14.2169C51.7815 14.1713 52.0417 14.3402 52.0443 14.5638C52.0899 14.7784 51.9548 14.9864 51.6974 15.0411C51.7403 15.032 51.7403 15.032 51.6974 15.0411ZM49.1517 15.089C49.1061 14.8745 49.2321 14.6235 49.4895 14.5688C49.7041 14.5232 49.955 14.6492 50.0006 14.8637C50.0462 15.0782 49.9202 15.3292 49.7057 15.3748C49.4145 15.4815 49.2064 15.3464 49.1517 15.089Z" fill="#A91255"/>
<path d="M68.6785 106.364C68.421 106.419 68.2038 106.241 68.1582 106.027C68.1127 105.812 68.2816 105.552 68.4961 105.506C68.7535 105.452 68.9707 105.63 69.0163 105.844C69.0619 106.059 68.893 106.319 68.6785 106.364ZM70.3033 105.571C70.2486 105.313 70.3837 105.105 70.6411 105.051C70.8985 104.996 71.1066 105.131 71.1613 105.388C71.216 105.646 71.0809 105.854 70.8235 105.909C70.5999 105.911 70.3489 105.785 70.3033 105.571ZM65.9429 106.363C65.8882 106.106 66.0662 105.888 66.3237 105.834C66.5811 105.779 66.7983 105.957 66.853 106.214C66.9077 106.472 66.7297 106.689 66.4722 106.744C66.2148 106.798 65.9976 106.62 65.9429 106.363ZM72.4639 104.977C72.4092 104.72 72.5443 104.511 72.7497 104.423C72.9642 104.377 73.2152 104.503 73.3037 104.709C73.3493 104.923 73.2233 105.174 73.0179 105.263L72.975 105.272C72.7267 105.369 72.5186 105.234 72.4639 104.977ZM64.2478 107.037C63.9813 107.049 63.7641 106.871 63.7614 106.647C63.7587 106.424 63.9367 106.207 64.1512 106.161C64.4086 106.106 64.6258 106.284 64.6377 106.551C64.6403 106.774 64.5052 106.983 64.2478 107.037ZM74.5725 104.349C74.4749 104.101 74.6009 103.85 74.8583 103.795C75.1066 103.698 75.3576 103.824 75.4123 104.081C75.5008 104.287 75.3839 104.581 75.1265 104.635L75.0836 104.644C74.86 104.647 74.661 104.555 74.5725 104.349ZM61.996 107.202C61.7724 107.205 61.5552 107.027 61.5525 106.803C61.5498 106.579 61.7278 106.362 61.9852 106.307C62.2089 106.305 62.4261 106.483 62.4379 106.749C62.4406 106.973 62.3054 107.181 62.0909 107.227C62.0389 107.193 62.0389 107.193 61.996 107.202ZM76.6537 103.593C76.5652 103.388 76.6821 103.094 76.8875 103.005C77.0929 102.917 77.3868 103.034 77.4753 103.239C77.5638 103.445 77.4469 103.738 77.2415 103.827C77.1986 103.836 77.1986 103.836 77.1557 103.845C76.9412 103.891 76.7422 103.799 76.6537 103.593ZM59.778 107.315C59.5544 107.317 59.3372 107.139 59.3254 106.873C59.3227 106.649 59.5007 106.432 59.7672 106.42C59.9908 106.418 60.2081 106.596 60.2199 106.862C60.2226 107.086 60.0783 107.251 59.8638 107.296C59.8209 107.306 59.8209 107.306 59.778 107.315ZM78.7076 102.708C78.6191 102.503 78.6931 102.218 78.9414 102.12C79.1468 102.032 79.4315 102.106 79.5291 102.354C79.6176 102.56 79.5437 102.844 79.2954 102.942C79.2525 102.951 79.2525 102.951 79.2096 102.96C78.995 103.006 78.7961 102.914 78.7076 102.708ZM57.5235 107.256C57.2999 107.259 57.0736 107.038 57.1138 106.805C57.1111 106.581 57.332 106.355 57.5648 106.395C57.7884 106.392 58.0147 106.613 57.9745 106.846C57.9772 107.07 57.8329 107.235 57.6184 107.281C57.6184 107.281 57.5664 107.247 57.5235 107.256ZM80.7095 101.789C80.621 101.584 80.6949 101.299 80.9003 101.211C81.1057 101.122 81.3905 101.196 81.479 101.402C81.6104 101.598 81.4935 101.892 81.2881 101.98C81.2452 101.989 81.2023 101.999 81.1594 102.008C80.9878 102.044 80.7888 101.952 80.7095 101.789ZM55.3028 107.145C55.0701 107.105 54.8958 106.918 54.8839 106.651C54.9242 106.418 55.1113 106.244 55.3778 106.232C55.6106 106.272 55.7849 106.46 55.7967 106.726C55.7903 106.907 55.646 107.072 55.4315 107.118C55.3886 107.127 55.3457 107.136 55.3028 107.145ZM82.641 100.751C82.5096 100.555 82.5836 100.27 82.8228 100.13C83.0191 99.9982 83.3038 100.072 83.4352 100.268C83.5666 100.465 83.4926 100.749 83.2964 100.881C83.2535 100.89 83.2106 100.899 83.1677 100.908C82.9623 100.997 82.7633 100.904 82.641 100.751ZM53.0977 106.896C52.8649 106.856 52.6815 106.626 52.7217 106.393C52.7619 106.161 52.9919 105.977 53.2247 106.017C53.4574 106.058 53.6409 106.288 53.6006 106.52C53.5513 106.71 53.45 106.866 53.2355 106.912C53.1835 106.878 53.1406 106.887 53.0977 106.896ZM84.5453 99.5841C84.4139 99.3878 84.4879 99.1031 84.6841 98.9717C84.8804 98.8403 85.1652 98.9143 85.2966 99.1105C85.428 99.3068 85.354 99.5916 85.1577 99.723C85.1148 99.7321 85.081 99.7841 84.9952 99.8023C84.8665 99.8297 84.6767 99.7804 84.5453 99.5841ZM50.8742 106.562C50.6415 106.522 50.4581 106.291 50.5412 106.05C50.5814 105.817 50.8115 105.633 51.0533 105.717C51.2861 105.757 51.4695 105.987 51.3864 106.229C51.337 106.419 51.2266 106.532 51.055 106.568C50.96 106.544 50.9171 106.553 50.8742 106.562ZM86.3975 98.3833C86.2661 98.187 86.2972 97.9114 86.4935 97.78C86.6897 97.6486 86.9654 97.6797 87.0968 97.8759C87.2282 98.0722 87.1971 98.3479 87.0008 98.4793C86.967 98.5313 86.8812 98.5495 86.8383 98.5586C86.6667 98.5951 86.5198 98.5367 86.3975 98.3833ZM48.6664 106.089C48.4337 106.049 48.2931 105.81 48.3333 105.577C48.3736 105.345 48.6127 105.204 48.8455 105.244C49.0782 105.284 49.2187 105.524 49.1785 105.756C49.1292 105.946 49.0187 106.059 48.8471 106.096C48.8042 106.105 48.7184 106.123 48.6664 106.089ZM88.1886 97.1058C88.0572 96.9095 88.0883 96.6339 88.2754 96.4596C88.4717 96.3282 88.7473 96.3593 88.9216 96.5464C89.053 96.7427 89.0219 97.0183 88.8257 97.1497C88.7919 97.2018 88.7061 97.22 88.6632 97.2291C88.4487 97.2747 88.3017 97.2163 88.1886 97.1058ZM46.4923 105.565C46.2505 105.482 46.1099 105.243 46.1931 105.001C46.2762 104.759 46.5153 104.619 46.7572 104.702C46.9899 104.742 47.1396 105.024 47.0565 105.266C46.998 105.413 46.8876 105.526 46.7159 105.562C46.6301 105.581 46.5872 105.59 46.4923 105.565ZM89.9094 95.7087C89.7351 95.5216 89.7662 95.2459 89.9533 95.0716C90.1405 94.8973 90.4161 94.9284 90.5904 95.1156C90.7647 95.3027 90.7336 95.5784 90.5465 95.7527C90.4698 95.8138 90.4269 95.8229 90.3411 95.8411C90.1695 95.8776 90.0226 95.8192 89.9094 95.7087ZM44.3338 104.903C44.0919 104.82 43.9943 104.571 44.0345 104.339C44.1176 104.097 44.3659 103.999 44.5987 104.039C44.8405 104.123 44.9381 104.371 44.8979 104.604C44.8395 104.751 44.729 104.864 44.5574 104.9C44.5145 104.909 44.4287 104.928 44.3338 104.903ZM91.5691 94.2349C91.3948 94.0478 91.4259 93.7722 91.5701 93.607C91.7573 93.4327 92.0329 93.4638 92.1981 93.608C92.3724 93.7952 92.3413 94.0708 92.197 94.236C92.1204 94.2971 92.0866 94.3491 92.0008 94.3674C91.8292 94.4039 91.6822 94.3454 91.5691 94.2349ZM42.2428 104.137C42.001 104.054 41.9033 103.805 41.9865 103.563C42.0696 103.322 42.3179 103.224 42.5597 103.307C42.8016 103.39 42.8992 103.638 42.8161 103.88C42.7576 104.027 42.6472 104.14 42.4756 104.177C42.3898 104.195 42.3377 104.161 42.2428 104.137ZM93.1676 92.6845C92.9933 92.4973 92.9815 92.2308 93.1687 92.0565C93.3558 91.8822 93.6223 91.8704 93.7966 92.0576C93.9709 92.2447 93.9827 92.5112 93.7956 92.6855C93.7189 92.7467 93.6422 92.8078 93.5564 92.8261C93.4277 92.8534 93.2808 92.795 93.1676 92.6845ZM40.1856 103.318C39.9438 103.235 39.837 102.944 39.9722 102.736C40.0553 102.494 40.3465 102.387 40.5546 102.523C40.7964 102.606 40.9032 102.897 40.768 103.105C40.7096 103.252 40.59 103.322 40.4613 103.349C40.3326 103.377 40.2377 103.352 40.1856 103.318ZM94.6621 91.0665C94.4878 90.8793 94.476 90.6128 94.6202 90.4476C94.7645 90.2825 95.0739 90.2615 95.2391 90.4058C95.4043 90.55 95.4252 90.8594 95.281 91.0246C95.2043 91.0858 95.1276 91.1469 95.0418 91.1651C94.9131 91.1925 94.7753 91.177 94.6621 91.0665ZM38.144 102.362C37.945 102.27 37.8383 101.979 37.9305 101.78C38.0228 101.581 38.314 101.474 38.5129 101.567C38.721 101.702 38.8186 101.95 38.7264 102.149C38.6588 102.253 38.5484 102.366 38.4197 102.393C38.3339 102.412 38.248 102.43 38.144 102.362ZM96.1046 89.4147C95.9394 89.2705 95.8756 88.9701 96.0198 88.805C96.155 88.5969 96.4644 88.576 96.6296 88.7202C96.8376 88.8553 96.8586 89.1648 96.7143 89.3299C96.6468 89.434 96.561 89.4522 96.4752 89.4704C96.3465 89.4978 96.2086 89.4823 96.1046 89.4147ZM36.1362 101.354C35.9281 101.219 35.8305 100.971 35.9656 100.763C36.1007 100.555 36.349 100.457 36.5571 100.592C36.7652 100.727 36.8628 100.976 36.7277 101.184C36.6601 101.288 36.5405 101.358 36.4118 101.385C36.3689 101.394 36.2311 101.379 36.1362 101.354ZM97.4768 87.6433C97.2687 87.5082 97.2569 87.2417 97.392 87.0336C97.5272 86.8255 97.7937 86.8137 98.0018 86.9488C98.2099 87.0839 98.2308 87.3934 98.0866 87.5586C98.019 87.6626 97.9423 87.7237 97.8136 87.7511C97.7278 87.7693 97.5808 87.7109 97.4768 87.6433ZM34.2296 100.19C34.0216 100.055 33.9668 99.7976 34.102 99.5895C34.2371 99.3814 34.4945 99.3267 34.7026 99.4618C34.9107 99.597 34.9654 99.8544 34.8303 100.062C34.7627 100.166 34.6431 100.237 34.5573 100.255C34.4286 100.282 34.3337 100.258 34.2296 100.19ZM98.7541 85.8473C98.546 85.7121 98.4913 85.4547 98.6265 85.2467C98.7616 85.0386 99.019 84.9839 99.2271 85.119C99.4351 85.2541 99.4899 85.5115 99.3547 85.7196C99.2872 85.8236 99.1676 85.8939 99.0818 85.9121C98.996 85.9304 98.8582 85.9148 98.7541 85.8473ZM32.3569 98.974C32.1488 98.8388 32.0941 98.5814 32.2293 98.3733C32.3644 98.1653 32.6218 98.1106 32.8299 98.2457C33.038 98.3808 33.0927 98.6382 32.9575 98.8463C32.89 98.9503 32.8133 99.0115 32.6846 99.0388C32.5559 99.0662 32.461 99.0415 32.3569 98.974ZM99.9703 83.9745C99.7622 83.8394 99.7075 83.582 99.8426 83.3739C99.9777 83.1659 100.235 83.1111 100.434 83.2034C100.642 83.3385 100.697 83.5959 100.562 83.804C100.494 83.908 100.375 83.9783 100.289 83.9965C100.169 84.0668 100.074 84.0421 99.9703 83.9745ZM30.518 97.7058C30.3099 97.5707 30.289 97.2612 30.4332 97.0961C30.5683 96.888 30.8778 96.867 31.043 97.0113C31.251 97.1464 31.272 97.4558 31.1277 97.621C31.0602 97.7251 30.9743 97.7433 30.8456 97.7707C30.7598 97.7889 30.622 97.7733 30.518 97.7058ZM101.039 82.0434C100.831 81.9083 100.734 81.66 100.869 81.4519C101.004 81.2438 101.252 81.1462 101.46 81.2813C101.659 81.3735 101.766 81.6647 101.631 81.8728C101.563 81.9769 101.453 82.09 101.324 82.1174C101.281 82.1265 101.144 82.1109 101.039 82.0434ZM28.7466 96.3336C28.5814 96.1893 28.5176 95.889 28.7047 95.7147C28.8399 95.5066 29.1493 95.4857 29.3236 95.6728C29.4888 95.8171 29.5526 96.1174 29.3655 96.2917C29.2888 96.3528 29.2121 96.414 29.1263 96.4322C28.9885 96.4167 28.8506 96.4011 28.7466 96.3336ZM102.1 80.0693C101.858 79.9862 101.794 79.6859 101.886 79.4869C102.021 79.2788 102.27 79.1812 102.469 79.2735C102.71 79.3566 102.774 79.6569 102.682 79.8558C102.624 80.0028 102.504 80.073 102.375 80.1004C102.247 80.1278 102.161 80.146 102.1 80.0693ZM27.0857 94.8482C26.9114 94.661 26.8996 94.3945 27.0438 94.2293C27.1881 94.0641 27.4975 94.0432 27.6627 94.1875C27.837 94.3746 27.8488 94.6411 27.7045 94.8063C27.6279 94.8675 27.5512 94.9286 27.4654 94.9468C27.3367 94.9742 27.1988 94.9586 27.0857 94.8482ZM103.022 78.0797C102.78 77.9966 102.673 77.7054 102.808 77.4973C102.892 77.2554 103.183 77.1487 103.391 77.2838C103.633 77.367 103.739 77.6581 103.647 77.8571C103.589 78.004 103.469 78.0743 103.34 78.1017C103.16 78.0952 103.117 78.1044 103.022 78.0797ZM25.4586 93.3108C25.2843 93.1236 25.2724 92.8571 25.4596 92.6828C25.6467 92.5085 25.9133 92.4967 26.0876 92.6838C26.2619 92.871 26.2737 93.1375 26.0865 93.3118C26.0098 93.373 25.9332 93.4341 25.8903 93.4432C25.7187 93.4797 25.5717 93.4212 25.4586 93.3108ZM103.84 76.0225C103.598 75.9394 103.501 75.6911 103.584 75.4492C103.667 75.2074 103.915 75.1098 104.157 75.1929C104.399 75.276 104.496 75.5243 104.413 75.7661C104.355 75.9131 104.244 76.0262 104.073 76.0627C104.021 76.0289 103.935 76.0472 103.84 76.0225ZM23.9081 91.7122C23.7338 91.5251 23.7649 91.2494 23.9521 91.0751C24.1392 90.9008 24.4148 90.9319 24.5891 91.1191C24.7634 91.3062 24.7324 91.5819 24.5452 91.7562C24.4685 91.8173 24.4256 91.8264 24.3398 91.8447C24.1682 91.8811 24.0213 91.8227 23.9081 91.7122ZM104.563 73.9407C104.322 73.8576 104.181 73.6184 104.264 73.3765C104.347 73.1347 104.586 72.9941 104.828 73.0773C105.07 73.1604 105.211 73.3995 105.128 73.6414C105.069 73.7883 104.959 73.9015 104.787 73.938C104.701 73.9562 104.649 73.9224 104.563 73.9407ZM22.4252 90.0097C22.2509 89.8225 22.282 89.5469 22.4692 89.3726C22.6563 89.1983 22.932 89.2294 23.1063 89.4165C23.2806 89.6036 23.2495 89.8793 23.0623 90.0536C23.0285 90.1056 22.9427 90.1239 22.8569 90.1421C22.6945 90.2215 22.5475 90.163 22.4252 90.0097ZM105.183 71.7913C104.941 71.7081 104.8 71.469 104.883 71.2271C104.924 70.9944 105.206 70.8447 105.438 70.8849C105.671 70.9251 105.821 71.2072 105.781 71.44C105.731 71.6298 105.612 71.7001 105.44 71.7365C105.363 71.7977 105.278 71.8159 105.183 71.7913ZM21.0281 88.2888C20.8967 88.0926 20.9278 87.8169 21.1241 87.6855C21.3204 87.5541 21.596 87.5852 21.7274 87.7815C21.8588 87.9778 21.8277 88.2534 21.6406 88.4277C21.6068 88.4797 21.521 88.498 21.4781 88.5071C21.3403 88.4915 21.1413 88.3993 21.0281 88.2888ZM105.759 69.651C105.526 69.6108 105.386 69.3716 105.426 69.1388C105.466 68.9061 105.705 68.7656 105.938 68.8058C106.171 68.846 106.311 69.0852 106.271 69.3179C106.222 69.5078 106.111 69.6209 105.94 69.6574C105.845 69.6327 105.802 69.6419 105.759 69.651ZM19.7415 86.4549C19.6101 86.2586 19.6412 85.9829 19.8375 85.8515C20.0338 85.7201 20.3094 85.7512 20.4408 85.9475C20.5722 86.1438 20.5411 86.4194 20.3019 86.5599C20.259 86.5691 20.1824 86.6302 20.1395 86.6393C20.0199 86.7096 19.8209 86.6173 19.7415 86.4549ZM106.189 67.4522C105.956 67.412 105.772 67.182 105.813 66.9492C105.853 66.7165 106.083 66.5331 106.316 66.5733C106.548 66.6135 106.732 66.8435 106.692 67.0763C106.642 67.2661 106.532 67.3793 106.317 67.4249C106.283 67.4769 106.241 67.486 106.189 67.4522ZM18.4978 84.6118C18.3664 84.4155 18.4404 84.1307 18.6367 83.9993C18.833 83.8679 19.1177 83.9419 19.2491 84.1382C19.3805 84.3345 19.3065 84.6192 19.1102 84.7506C19.0673 84.7597 19.0336 84.8118 18.9907 84.8209C18.8099 84.8145 18.6201 84.7651 18.4978 84.6118ZM106.489 65.2808C106.257 65.2406 106.073 65.0106 106.113 64.7778C106.154 64.5451 106.384 64.3617 106.616 64.4019C106.849 64.4421 107.032 64.6722 106.992 64.9049C106.943 65.0947 106.842 65.2508 106.627 65.2964C106.618 65.2535 106.532 65.2717 106.489 65.2808ZM17.3646 82.6555C17.2332 82.4592 17.3072 82.1745 17.5463 82.034C17.7426 81.9026 18.0274 81.9765 18.1679 82.2157C18.2993 82.412 18.2253 82.6967 17.9861 82.8373C17.9432 82.8464 17.9003 82.8555 17.8574 82.8646C17.652 82.9531 17.496 82.8518 17.3646 82.6555ZM106.738 63.0757C106.514 63.0784 106.331 62.8483 106.328 62.6247C106.326 62.4011 106.556 62.2177 106.779 62.215C107.003 62.2123 107.186 62.4423 107.189 62.666C107.183 62.8467 107.038 63.0119 106.824 63.0574C106.824 63.0574 106.781 63.0666 106.738 63.0757ZM16.3171 80.681C16.2286 80.4756 16.3026 80.1909 16.508 80.1024C16.7134 80.0139 16.9982 80.0879 17.0867 80.2932C17.1752 80.4986 17.1012 80.7834 16.8958 80.8719C16.8529 80.881 16.81 80.8901 16.81 80.8901C16.6475 80.9695 16.4056 80.8864 16.3171 80.681ZM106.849 60.855C106.625 60.8577 106.399 60.6367 106.396 60.4131C106.394 60.1895 106.614 59.9632 106.838 59.9605C107.062 59.9578 107.288 60.1787 107.291 60.4023C107.293 60.626 107.149 60.7911 106.935 60.8367C106.935 60.8367 106.892 60.8459 106.849 60.855ZM15.3984 78.6792C15.3008 78.4309 15.3839 78.189 15.6322 78.0914C15.8805 77.9938 16.1223 78.0769 16.2199 78.3252C16.3084 78.5306 16.2344 78.8153 15.9862 78.9129C15.9433 78.9221 15.9433 78.9221 15.9003 78.9312C15.6858 78.9768 15.4778 78.8416 15.3984 78.6792ZM106.874 58.6525C106.65 58.6552 106.433 58.4772 106.421 58.2106C106.409 57.9441 106.597 57.7698 106.863 57.758C107.087 57.7553 107.304 57.9334 107.316 58.1999C107.319 58.4235 107.174 58.5887 106.96 58.6343C106.917 58.6434 106.917 58.6434 106.874 58.6525ZM14.5563 76.6162C14.4587 76.3679 14.5847 76.1169 14.7901 76.0284C14.9955 75.9399 15.2894 76.0568 15.335 76.2713C15.4235 76.4767 15.3066 76.7706 15.0921 76.8162C15.0492 76.8253 15.0492 76.8253 15.0063 76.8344C14.8438 76.9138 14.5928 76.7878 14.5563 76.6162ZM106.804 56.4254C106.58 56.4281 106.363 56.25 106.318 56.0355C106.306 55.769 106.493 55.5947 106.708 55.5491C106.931 55.5464 107.148 55.7245 107.194 55.939C107.197 56.1626 107.062 56.3707 106.847 56.4163L106.804 56.4254ZM13.791 74.492C13.6933 74.2437 13.8193 73.9928 14.0768 73.9381C14.325 73.8404 14.576 73.9665 14.6307 74.2239C14.7192 74.4292 14.5932 74.6802 14.3449 74.7778L14.302 74.787C14.0875 74.8326 13.8365 74.7065 13.791 74.492ZM106.606 54.2256C106.348 54.2803 106.131 54.1023 106.119 53.8358C106.074 53.6213 106.242 53.3612 106.509 53.3493C106.723 53.3038 106.984 53.4727 106.995 53.7392C106.998 53.9628 106.863 54.1709 106.606 54.2256ZM13.1114 72.3497C13.0567 72.0923 13.1918 71.8842 13.3972 71.7957C13.6546 71.741 13.8627 71.8761 13.9512 72.0815C14.0059 72.3389 13.8708 72.547 13.6654 72.6355C13.6654 72.6355 13.6654 72.6355 13.6225 72.6446C13.4171 72.7331 13.209 72.598 13.1114 72.3497ZM106.312 52.0012C106.055 52.0559 105.837 51.8779 105.783 51.6204C105.728 51.363 105.906 51.1458 106.164 51.0911C106.378 51.0455 106.638 51.2144 106.684 51.4289C106.705 51.7384 106.57 51.9465 106.312 52.0012ZM12.5605 70.1799C12.5058 69.9225 12.6409 69.7145 12.8983 69.6597C13.1128 69.6142 13.3638 69.7402 13.4185 69.9976C13.4733 70.255 13.3381 70.4631 13.0807 70.5178C12.8662 70.5634 12.6152 70.4374 12.5605 70.1799ZM105.379 49.5092C105.324 49.2518 105.502 49.0346 105.717 48.989C105.931 48.9434 106.191 49.1123 106.237 49.3268C106.292 49.5842 106.114 49.8014 105.899 49.847C105.685 49.8926 105.424 49.7237 105.379 49.5092ZM12.6248 68.3727C12.3674 68.4274 12.1502 68.2494 12.1046 68.0349C12.0499 67.7775 12.2279 67.5603 12.4424 67.5147C12.6998 67.46 12.917 67.638 12.9626 67.8525C13.0082 68.067 12.8822 68.318 12.6248 68.3727ZM104.987 47.6644C104.932 47.407 105.067 47.1989 105.315 47.1013C105.573 47.0466 105.781 47.1817 105.879 47.43C105.933 47.6874 105.798 47.8955 105.541 47.9502C105.25 48.057 105.041 47.9218 104.987 47.6644ZM12.2455 66.1665C11.9881 66.2212 11.7709 66.0432 11.7591 65.7767C11.7044 65.5193 11.8824 65.3021 12.1489 65.2902C12.3634 65.2446 12.6235 65.4136 12.6353 65.6801C12.638 65.9037 12.5029 66.1118 12.2455 66.1665ZM104.359 45.5558C104.304 45.2984 104.44 45.0903 104.645 45.0018C104.902 44.9471 105.11 45.0823 105.199 45.2876C105.245 45.5022 105.119 45.7531 104.913 45.8416L104.87 45.8508C104.656 45.8963 104.448 45.7612 104.359 45.5558ZM12.0041 63.9759C11.7375 63.9877 11.5203 63.8096 11.5176 63.586C11.515 63.3624 11.693 63.1452 11.9075 63.0996C12.174 63.0878 12.3912 63.2658 12.3939 63.4894C12.3966 63.7131 12.2615 63.9211 12.047 63.9667C12.0041 63.9759 12.0041 63.9759 12.0041 63.9759ZM103.689 43.4564C103.591 43.2081 103.717 42.9571 103.975 42.9024C104.18 42.8139 104.474 42.9308 104.529 43.1882C104.626 43.4365 104.5 43.6875 104.243 43.7422L104.2 43.7513C103.985 43.7969 103.777 43.6618 103.689 43.4564ZM11.8055 61.7761C11.5819 61.7788 11.3647 61.6007 11.3529 61.3342C11.3502 61.1106 11.5282 60.8934 11.7948 60.8816C12.0184 60.8789 12.2356 61.0569 12.2474 61.3234C12.2501 61.5471 12.1058 61.7122 11.8913 61.7578C11.8484 61.767 11.8484 61.767 11.8055 61.7761ZM102.899 41.4272C102.801 41.1789 102.927 40.9279 103.132 40.8394C103.338 40.7509 103.632 40.8678 103.72 41.0732C103.818 41.3215 103.692 41.5724 103.486 41.6609C103.444 41.6701 103.444 41.6701 103.401 41.6792C103.229 41.7157 102.987 41.6325 102.899 41.4272ZM11.7357 59.5489C11.5121 59.5516 11.2858 59.3307 11.2831 59.1071C11.2804 58.8835 11.4584 58.6663 11.7249 58.6544C11.9914 58.6426 12.1749 58.8727 12.1776 59.0963C12.1802 59.3199 12.036 59.4851 11.8215 59.5307C11.8215 59.5307 11.7786 59.5398 11.7357 59.5489ZM102.023 39.4162C101.934 39.2108 102.008 38.926 102.257 38.8284C102.462 38.7399 102.747 38.8139 102.844 39.0622C102.933 39.2676 102.859 39.5524 102.611 39.65C102.568 39.6591 102.568 39.6591 102.525 39.6682C102.353 39.7047 102.111 39.6216 102.023 39.4162ZM11.7608 57.3465C11.5372 57.3492 11.3108 57.1282 11.351 56.8955C11.3483 56.6719 11.5693 56.4456 11.802 56.4858C12.0256 56.4831 12.252 56.704 12.2118 56.9367C12.2053 57.1175 12.0702 57.3255 11.8557 57.3711C11.8466 57.3282 11.8037 57.3374 11.7608 57.3465ZM101.061 37.4235C100.93 37.2272 101.047 36.9333 101.252 36.8448C101.448 36.7134 101.742 36.8303 101.831 37.0357C101.962 37.232 101.845 37.5258 101.64 37.6143C101.597 37.6235 101.554 37.6326 101.511 37.6417C101.349 37.7211 101.15 37.6288 101.061 37.4235ZM11.9146 55.1167C11.6818 55.0764 11.5075 54.8893 11.4957 54.6228C11.5359 54.39 11.7231 54.2157 11.9896 54.2039C12.2223 54.2441 12.3966 54.4313 12.4085 54.6978C12.402 54.8785 12.2578 55.0437 12.0433 55.0893C12.0095 55.1413 11.9575 55.1075 11.9146 55.1167ZM99.9891 35.5439C99.8577 35.3476 99.9317 35.0628 100.128 34.9314C100.324 34.8001 100.609 34.874 100.74 35.0703C100.872 35.2666 100.798 35.5513 100.602 35.6827C100.559 35.6919 100.525 35.7439 100.482 35.753C100.301 35.7466 100.111 35.6972 99.9891 35.5439ZM12.1633 52.9115C11.9305 52.8713 11.7471 52.6412 11.7873 52.4085C11.8275 52.1757 12.0576 51.9923 12.2903 52.0325C12.5231 52.0727 12.7065 52.3028 12.6663 52.5355C12.6598 52.7163 12.5156 52.8814 12.344 52.9179C12.2582 52.9362 12.2062 52.9024 12.1633 52.9115ZM98.865 33.6305C98.7336 33.4343 98.8076 33.1495 99.0038 33.0181C99.2001 32.8867 99.4849 32.9607 99.6163 33.157C99.7477 33.3532 99.6737 33.638 99.4774 33.7694C99.4345 33.7785 99.4007 33.8305 99.3149 33.8488C99.1433 33.8852 98.9444 33.793 98.865 33.6305ZM12.5069 50.731C12.2742 50.6908 12.0907 50.4607 12.1739 50.2189C12.2141 49.9861 12.4441 49.8027 12.686 49.8858C12.9187 49.926 13.1021 50.1561 13.019 50.3979C12.9697 50.5878 12.8592 50.7009 12.6876 50.7374C12.6447 50.7465 12.5498 50.7219 12.5069 50.731ZM97.6304 31.8303C97.499 31.6341 97.5301 31.3584 97.7264 31.227C97.9226 31.0956 98.1983 31.1267 98.3297 31.323C98.4611 31.5192 98.43 31.7949 98.2337 31.9263C98.1908 31.9354 98.1141 31.9965 98.0712 32.0057C97.8996 32.0421 97.7098 31.9928 97.6304 31.8303ZM12.9792 48.5231C12.7465 48.4829 12.606 48.2438 12.6371 47.9681C12.6773 47.7354 12.9165 47.5949 13.1492 47.6351C13.3819 47.6753 13.5225 47.9144 13.4914 48.1901C13.442 48.3799 13.3316 48.4931 13.16 48.5296C13.0742 48.5478 13.0313 48.5569 12.9792 48.5231ZM96.3191 30.0913C96.1877 29.895 96.2188 29.6194 96.4151 29.488C96.6113 29.3566 96.8779 29.3448 97.0522 29.5319C97.1836 29.7282 97.1525 30.0038 96.9653 30.1781C96.9315 30.2301 96.8457 30.2484 96.7599 30.2666C96.5883 30.3031 96.3985 30.2538 96.3191 30.0913ZM13.5127 46.392C13.2709 46.3089 13.1303 46.0697 13.2135 45.8278C13.2966 45.586 13.5357 45.4454 13.7776 45.5286C14.0195 45.6117 14.16 45.8508 14.0769 46.0927C14.0184 46.2396 13.908 46.3528 13.7363 46.3893C13.6505 46.4075 13.6076 46.4166 13.5127 46.392ZM94.8882 28.4225C94.714 28.2353 94.745 27.9597 94.9322 27.7854C95.1193 27.6111 95.395 27.6422 95.5693 27.8293C95.7436 28.0165 95.7125 28.2921 95.5253 28.4664C95.4487 28.5276 95.4058 28.5367 95.32 28.5549C95.1913 28.5823 95.0014 28.5329 94.8882 28.4225ZM14.184 44.2763C13.9422 44.1932 13.8445 43.9449 13.9276 43.7031C14.0108 43.4612 14.259 43.3636 14.5009 43.4467C14.7428 43.5298 14.8404 43.7781 14.7573 44.02C14.6988 44.1669 14.5884 44.2801 14.4168 44.3165C14.3218 44.2919 14.236 44.3101 14.184 44.2763ZM93.4236 26.8057C93.2493 26.6185 93.2375 26.352 93.4246 26.1777C93.6118 26.0034 93.8874 26.0345 94.0526 26.1788C94.2269 26.3659 94.2387 26.6324 94.0516 26.8067C93.9749 26.8679 93.932 26.877 93.8462 26.8952C93.6746 26.9317 93.5368 26.9162 93.4236 26.8057ZM14.9073 42.1945C14.6655 42.1114 14.5679 41.8631 14.651 41.6212C14.7341 41.3794 14.9824 41.2818 15.2242 41.3649C15.4661 41.448 15.5637 41.6963 15.4806 41.9381C15.4222 42.0851 15.3117 42.1982 15.183 42.2256C15.0972 42.2438 15.0023 42.2192 14.9073 42.1945ZM91.8823 25.2501C91.708 25.0629 91.6962 24.7964 91.8833 24.6221C92.0705 24.4478 92.337 24.436 92.5113 24.6231C92.6856 24.8103 92.6974 25.0768 92.5102 25.2511C92.4336 25.3122 92.3569 25.3734 92.2711 25.3916C92.1333 25.3761 91.9863 25.3176 91.8823 25.2501ZM15.7685 40.1282C15.5266 40.0451 15.4199 39.7539 15.555 39.5458C15.6381 39.304 15.9293 39.1972 16.1374 39.3323C16.3792 39.4155 16.4431 39.7158 16.3509 39.9147C16.2924 40.0617 16.1728 40.1319 16.0441 40.1593C15.9583 40.1775 15.8725 40.1958 15.7685 40.1282ZM90.2643 23.7556C90.0991 23.6113 90.0782 23.3019 90.2224 23.1367C90.4096 22.9624 90.6761 22.9506 90.8413 23.0948C91.0064 23.2391 91.0274 23.5485 90.8831 23.7137C90.8064 23.7748 90.7297 23.836 90.6439 23.8542C90.5152 23.8816 90.3774 23.866 90.2643 23.7556ZM16.6908 38.1386C16.4827 38.0034 16.3851 37.7552 16.4773 37.5562C16.6124 37.3481 16.8607 37.2505 17.0688 37.3856C17.2677 37.4779 17.3745 37.7691 17.2823 37.968C17.2147 38.0721 17.1042 38.1852 16.9755 38.2126C16.9235 38.1788 16.7857 38.1632 16.6908 38.1386ZM88.5787 22.3651C88.4135 22.2208 88.3497 21.9205 88.4939 21.7554C88.629 21.5473 88.9385 21.5263 89.1037 21.6706C89.3117 21.8057 89.3327 22.1151 89.1884 22.2803C89.1209 22.3844 89.0351 22.4026 88.9064 22.43C88.8206 22.4482 88.6827 22.4327 88.5787 22.3651ZM17.7509 36.1645C17.5428 36.0294 17.4452 35.7811 17.5803 35.573C17.7154 35.3649 17.9637 35.2673 18.1718 35.4024C18.3799 35.5376 18.4346 35.795 18.3423 35.9939C18.2748 36.098 18.1552 36.1682 18.0265 36.1956C17.9498 36.2567 17.8549 36.2321 17.7509 36.1645ZM86.8164 21.0358C86.6083 20.9006 86.5874 20.5912 86.7317 20.426C86.8668 20.218 87.1242 20.1632 87.3414 20.3413C87.5495 20.4764 87.5704 20.7858 87.4262 20.951C87.3586 21.055 87.2819 21.1162 87.1532 21.1435C87.0583 21.1189 86.9205 21.1033 86.8164 21.0358ZM18.8721 34.2671C18.664 34.132 18.6093 33.8746 18.7444 33.6665C18.8796 33.4584 19.137 33.4037 19.3451 33.5388C19.5531 33.674 19.6078 33.9314 19.4727 34.1395C19.4052 34.2435 19.2856 34.3138 19.1998 34.332C19.0711 34.3593 18.9761 34.3347 18.8721 34.2671ZM84.9866 19.8105C84.7785 19.6754 84.7238 19.418 84.8589 19.2099C84.9941 19.0018 85.2515 18.9471 85.4596 19.0822C85.6676 19.2173 85.7224 19.4747 85.5872 19.6828C85.5197 19.7869 85.4001 19.8571 85.3143 19.8754C85.2285 19.8936 85.0906 19.8781 84.9866 19.8105ZM20.0883 32.3944C19.8802 32.2593 19.8255 32.0019 19.9606 31.7938C20.0957 31.5857 20.3531 31.531 20.5612 31.6661C20.7693 31.8012 20.824 32.0586 20.646 32.2758C20.5784 32.3799 20.5017 32.441 20.373 32.4684C20.2872 32.4866 20.1923 32.462 20.0883 32.3944ZM83.123 18.6372C82.9149 18.5021 82.8602 18.2447 82.9524 18.0457C83.0876 17.8377 83.345 17.7829 83.5439 17.8752C83.752 18.0103 83.8067 18.2677 83.7145 18.4667C83.6469 18.5707 83.5273 18.641 83.3986 18.6683C83.3649 18.7203 83.227 18.7048 83.123 18.6372ZM21.3656 30.5983C21.1575 30.4632 21.1366 30.1538 21.2808 29.9886C21.4159 29.7805 21.7254 29.7596 21.8905 29.9038C22.0986 30.039 22.1195 30.3484 21.9753 30.5136C21.9077 30.6176 21.8219 30.6359 21.6932 30.6632C21.6165 30.7244 21.4787 30.7088 21.3656 30.5983ZM81.2347 17.5589C81.0266 17.4238 80.929 17.1755 81.0642 16.9674C81.1993 16.7593 81.4476 16.6617 81.6557 16.7968C81.8637 16.932 81.9614 17.1802 81.8262 17.3883C81.7587 17.4924 81.6482 17.6055 81.5195 17.6329C81.4337 17.6511 81.2959 17.6356 81.2347 17.5589ZM22.7469 28.8699C22.5817 28.7256 22.5179 28.4253 22.705 28.251C22.8493 28.0858 23.1496 28.022 23.3239 28.2092C23.4891 28.3534 23.5529 28.6537 23.3658 28.828C23.2891 28.8892 23.2124 28.9503 23.1266 28.9685C22.9979 28.9959 22.8601 28.9803 22.7469 28.8699ZM79.236 16.5937C78.9941 16.5106 78.9303 16.2103 79.0225 16.0113C79.1056 15.7695 79.4059 15.7056 79.6049 15.7979C79.8468 15.881 79.9106 16.1813 79.8184 16.3802C79.7599 16.5272 79.6403 16.5974 79.5116 16.6248C79.4258 16.643 79.3309 16.6184 79.236 16.5937ZM24.1894 27.2181C24.0151 27.0309 24.0033 26.7644 24.1475 26.5992C24.3347 26.4249 24.6012 26.4131 24.7664 26.5574C24.9407 26.7445 24.9525 27.011 24.8082 27.1762C24.7315 27.2374 24.6549 27.2985 24.5691 27.3167C24.4404 27.3441 24.2934 27.2856 24.1894 27.2181ZM77.2555 15.7143C77.0136 15.6312 76.9069 15.34 76.9991 15.1411C77.0822 14.8992 77.3305 14.8016 77.5724 14.8847C77.8142 14.9678 77.9119 15.2161 77.8288 15.458C77.7703 15.6049 77.6598 15.7181 77.5311 15.7454C77.4024 15.7728 77.3075 15.7481 77.2555 15.7143ZM25.7268 25.5909C25.5525 25.4038 25.5407 25.1373 25.7278 24.963C25.915 24.7887 26.1815 24.7769 26.3558 24.964C26.5301 25.1512 26.5419 25.4177 26.3548 25.592C26.2781 25.6531 26.2014 25.7143 26.1585 25.7234C25.9869 25.7599 25.8399 25.7014 25.7268 25.5909ZM75.1983 14.8961C74.9565 14.813 74.8588 14.5647 74.9419 14.3228C75.025 14.081 75.2733 13.9834 75.5152 14.0665C75.7571 14.1496 75.8547 14.3979 75.7716 14.6397C75.7131 14.7867 75.6027 14.8998 75.4311 14.9363C75.3453 14.9545 75.2595 14.9728 75.1983 14.8961ZM27.3344 24.0834C27.1601 23.8963 27.1912 23.6206 27.3784 23.4463C27.5655 23.272 27.8412 23.3031 28.0155 23.4902C28.1898 23.6774 28.1587 23.953 27.9715 24.1273C27.8949 24.1885 27.8519 24.1976 27.7661 24.2158C27.5945 24.2523 27.4476 24.1939 27.3344 24.0834ZM73.0827 14.2248C72.8408 14.1417 72.7003 13.9025 72.7834 13.6607C72.8665 13.4188 73.1057 13.2783 73.3476 13.3614C73.5894 13.4445 73.7299 13.6837 73.6468 13.9255C73.5884 14.0725 73.4779 14.1856 73.3063 14.2221C73.2634 14.2312 73.1776 14.2495 73.0827 14.2248ZM28.9941 22.6096C28.8627 22.4134 28.8938 22.1377 29.0381 21.9725C29.2343 21.8412 29.5009 21.8293 29.6752 22.0165C29.8495 22.2036 29.8184 22.4793 29.6312 22.6536C29.5545 22.7147 29.5116 22.7238 29.4258 22.7421C29.2633 22.8215 29.1164 22.763 28.9941 22.6096ZM70.9853 13.6393C70.7525 13.5991 70.6029 13.317 70.6431 13.0843C70.6833 12.8515 70.9654 12.7019 71.1982 12.7421C71.4309 12.7823 71.5805 13.0644 71.5403 13.2971C71.491 13.487 71.3805 13.6001 71.2089 13.6366C71.1231 13.6548 71.0373 13.6731 70.9853 13.6393ZM30.7241 21.2555C30.5927 21.0592 30.6238 20.7835 30.82 20.6521C31.0163 20.5208 31.2919 20.5518 31.4233 20.7481C31.5547 20.9444 31.5236 21.22 31.3274 21.3514C31.2936 21.4034 31.2078 21.4217 31.1649 21.4308C31.0362 21.4582 30.8463 21.4088 30.7241 21.2555ZM68.8632 13.1487C68.6305 13.1085 68.4471 12.8785 68.5302 12.6366C68.5704 12.4039 68.8096 12.2633 69.0423 12.3036C69.2751 12.3438 69.4156 12.5829 69.3754 12.8157C69.326 13.0055 69.2156 13.1187 69.044 13.1552C68.9491 13.1305 68.9061 13.1396 68.8632 13.1487ZM32.5151 19.978C32.3837 19.7817 32.4577 19.4969 32.654 19.3655C32.8503 19.2341 33.1259 19.2652 33.2664 19.5044C33.3978 19.7007 33.3667 19.9763 33.1276 20.1168C33.0847 20.1259 33.0509 20.178 32.9651 20.1962C32.8273 20.1807 32.6374 20.1313 32.5151 19.978ZM66.6645 12.7193C66.4318 12.6791 66.2483 12.449 66.2886 12.2163C66.3288 11.9835 66.5588 11.8001 66.7916 11.8403C67.0243 11.8805 67.2077 12.1106 67.1675 12.3433C67.1182 12.5332 67.0168 12.6892 66.8023 12.7348C66.8023 12.7348 66.7165 12.7531 66.6645 12.7193ZM34.4103 18.768C34.2789 18.5718 34.3528 18.287 34.5491 18.1556C34.7454 18.0242 35.0302 18.0982 35.1616 18.2945C35.2929 18.4907 35.219 18.7755 35.0227 18.9069C34.9798 18.916 34.946 18.968 34.9031 18.9772C34.6886 19.0227 34.4896 18.9305 34.4103 18.768ZM64.5022 12.4615C64.2695 12.4213 64.0952 12.2341 64.1263 11.9585C64.1665 11.7257 64.3966 11.5423 64.6293 11.5825C64.862 11.6227 65.0363 11.8099 65.0053 12.0855C64.9988 12.2662 64.8546 12.4314 64.6401 12.477C64.5881 12.4432 64.5451 12.4523 64.5022 12.4615ZM36.3236 17.6439C36.1922 17.4476 36.2662 17.1629 36.5054 17.0224C36.7016 16.891 36.9864 16.965 37.084 17.2132C37.2154 17.4095 37.1414 17.6943 36.9023 17.8348C36.8594 17.8439 36.8165 17.853 36.7736 17.8621C36.6019 17.8986 36.403 17.8064 36.3236 17.6439ZM62.3062 12.2557C62.0735 12.2154 61.8992 12.0283 61.8965 11.8047C61.9367 11.5719 62.1147 11.3547 62.3475 11.3949C62.5711 11.3922 62.7545 11.6223 62.7572 11.8459C62.7508 12.0266 62.6065 12.1918 62.392 12.2374C62.392 12.2374 62.3491 12.2465 62.3062 12.2557ZM38.2552 16.6056C38.1667 16.4002 38.2407 16.1154 38.4461 16.0269C38.6515 15.9384 38.9362 16.0124 39.0247 16.2178C39.1132 16.4232 39.0392 16.708 38.8339 16.7965C38.791 16.8056 38.748 16.8147 38.748 16.8147C38.5856 16.8941 38.3437 16.811 38.2552 16.6056ZM60.1375 12.1785C59.871 12.1904 59.6876 11.9603 59.6849 11.7367C59.6822 11.5131 59.9031 11.2867 60.1268 11.284C60.3504 11.2814 60.5767 11.5023 60.5794 11.7259C60.5821 11.9495 60.4378 12.1147 60.2233 12.1603C60.1804 12.1694 60.1375 12.1785 60.1375 12.1785ZM40.3 15.6777C40.2023 15.4294 40.2855 15.1876 40.5337 15.09C40.7391 15.0015 41.0239 15.0754 41.1215 15.3237C41.21 15.5291 41.136 15.8139 40.8877 15.9115C40.8448 15.9206 40.8448 15.9206 40.8019 15.9297C40.5874 15.9753 40.3885 15.8831 40.3 15.6777ZM57.9442 12.1964C57.6776 12.2082 57.5033 12.021 57.4915 11.7545C57.4888 11.5309 57.6669 11.3137 57.9334 11.3019C58.157 11.2992 58.3742 11.4772 58.386 11.7437C58.3887 11.9674 58.2445 12.1325 58.03 12.1781C57.9871 12.1872 57.9442 12.1964 57.9442 12.1964ZM42.32 14.8448C42.2315 14.6394 42.3484 14.3455 42.6059 14.2908C42.8112 14.2023 43.1051 14.3192 43.1598 14.5766C43.2483 14.782 43.1314 15.0759 42.874 15.1306C42.8311 15.1397 42.8311 15.1397 42.8311 15.1397C42.6166 15.1853 42.4085 15.0502 42.32 14.8448ZM55.7262 12.3091C55.5025 12.3118 55.2853 12.1338 55.2397 11.9193C55.237 11.6956 55.4151 11.4784 55.6296 11.4328C55.8532 11.4301 56.0704 11.6082 56.116 11.8227C56.1187 12.0463 55.9836 12.2544 55.7691 12.3C55.7691 12.3 55.7691 12.3 55.7262 12.3091ZM44.4104 14.1314C44.3557 13.874 44.4817 13.623 44.6962 13.5774C44.9445 13.4798 45.1617 13.6579 45.2502 13.8632C45.2958 14.0778 45.1698 14.3287 44.9644 14.4172L44.9215 14.4263C44.707 14.4719 44.4989 14.3368 44.4104 14.1314ZM53.5264 12.5076C53.2599 12.5195 53.0518 12.3843 53.04 12.1178C52.9944 11.9033 53.1633 11.6432 53.4298 11.6314C53.6443 11.5858 53.9044 11.7547 53.9162 12.0212C53.9618 12.2357 53.7838 12.4529 53.5264 12.5076C53.5693 12.4985 53.5693 12.4985 53.5264 12.5076ZM46.5528 13.4519C46.498 13.1944 46.6332 12.9864 46.8815 12.8888C47.1389 12.834 47.347 12.9692 47.4354 13.1746C47.4902 13.432 47.355 13.64 47.1067 13.7377C46.8585 13.8353 46.6075 13.7093 46.5528 13.4519ZM51.354 12.8349C51.0966 12.8896 50.8794 12.7116 50.8338 12.4971C50.779 12.2397 50.9571 12.0225 51.1716 11.9769C51.429 11.9221 51.6462 12.1002 51.7009 12.3576C51.7894 12.563 51.6114 12.7802 51.354 12.8349C51.3969 12.8258 51.3969 12.8258 51.354 12.8349ZM48.6796 12.9101C48.634 12.6956 48.8029 12.4355 49.0174 12.3899C49.2748 12.3352 49.4829 12.4703 49.5376 12.7277C49.5923 12.9851 49.4143 13.2023 49.1998 13.2479C48.9853 13.2935 48.7343 13.1675 48.6796 12.9101Z" fill="#A91255"/>
<path d="M81.5686 63.8753L75.5158 65.1619L73.4434 55.4117L79.4961 54.1251L79.6941 55.0563L74.682 56.1217L75.4126 59.5589L79.6852 58.6507L79.8831 59.5819L75.6106 60.4901L76.3586 64.0094L81.3707 62.9441L81.5686 63.8753Z" fill="#A91255"/>
<path d="M68.2402 66.7084L67.1994 66.9296L65.127 57.1794L66.1677 56.9582L68.2402 66.7084ZM74.1149 65.4597L72.7318 65.7537L67.1711 61.6113L70.3581 56.0675L71.6727 55.7881L68.384 61.3249L74.1149 65.4597Z" fill="#A91255"/>
<path d="M63.4301 58.5133L58.6098 59.5379L60.4843 68.3568L59.4436 68.5781L57.3711 58.8279L63.2322 57.5821L63.4301 58.5133Z" fill="#A91255"/>
<path d="M57.1897 69.0572L51.1369 70.3438L49.0645 60.5936L55.1172 59.3071L55.3152 60.2383L50.3031 61.3036L51.0337 64.7408L55.3063 63.8327L55.5042 64.7639L51.2317 65.672L51.9797 69.1914L56.9918 68.126L57.1897 69.0572Z" fill="#A91255"/>
<path d="M48.3193 70.9427L47.2786 71.1639L45.404 62.3449L42.0901 63.0493L42.8003 66.3907C43.2233 68.3809 43.2903 69.8409 43.0013 70.7706C42.7123 71.7003 42.0839 72.2681 41.1162 72.4738L40.6232 72.5785L40.4253 71.6473L40.6855 71.592C41.0142 71.5222 41.279 71.3991 41.4801 71.2228C41.6883 71.0354 41.8524 70.7524 41.9723 70.3739C42.0923 69.9953 42.1326 69.4667 42.0933 68.7881C42.054 68.1094 41.9296 67.2771 41.72 66.2911L40.8788 62.3335L46.2468 61.1925L48.3193 70.9427Z" fill="#A91255"/>
<path d="M92.3143 75.3409L91.8446 77.6327L90.5534 77.9071L91.2114 75.3463C90.8852 75.2739 90.6083 75.1256 90.3807 74.9013C90.1572 74.6708 90.0083 74.3807 89.934 74.0312C89.822 73.5043 89.9023 73.0483 90.1749 72.6632C90.4463 72.2729 90.8533 72.0201 91.3959 71.9048L93.5556 71.4457L94.7399 77.0172L93.6522 77.2484L93.2064 75.1513L92.3143 75.3409ZM93.0018 74.1888L92.6708 72.6316L91.6536 72.8478C91.4084 72.8999 91.2277 73.0119 91.1116 73.1838C90.9954 73.3557 90.9618 73.5565 91.0106 73.786C91.0594 74.0155 91.1729 74.1904 91.3511 74.3107C91.5334 74.4246 91.7446 74.456 91.9846 74.405L93.0018 74.1888Z" fill="#A91255"/>
<path d="M89.6567 78.0977L88.569 78.3289L88.0733 75.997L86.1874 76.3978L86.6831 78.7297L85.5954 78.9609L84.4111 73.3894L85.4988 73.1582L85.9829 75.4353L87.8687 75.0345L87.3847 72.7574L88.4724 72.5262L89.6567 78.0977Z" fill="#A91255"/>
<path d="M84.2992 79.2364L83.2115 79.4676L82.7159 77.1357L80.83 77.5365L81.3257 79.8684L80.238 80.0996L79.0537 74.5281L80.1414 74.2969L80.6254 76.574L82.5113 76.1732L82.0273 73.896L83.115 73.6648L84.2992 79.2364Z" fill="#A91255"/>
<path d="M79.5516 80.2454L78.417 80.4866L77.8787 79.5705L75.8989 79.9913L75.772 81.0488L74.6374 81.29L75.4798 75.2877L76.3328 75.1064L79.5516 80.2454ZM77.3946 78.7165L76.283 76.8345L76.0095 79.0109L77.3946 78.7165Z" fill="#A91255"/>
<path d="M72.8383 78.6873C73.0357 78.7435 73.1976 78.8127 73.3241 78.8949C73.6057 79.0913 73.7887 79.3877 73.873 79.7842C73.9772 80.2745 73.9059 80.6959 73.6591 81.0483C73.4123 81.4006 73.0281 81.6322 72.5064 81.7431L70.1745 82.2388L68.9902 76.6672L71.2282 76.1915C71.7551 76.0795 72.2019 76.1291 72.5684 76.3401C72.9402 76.5501 73.176 76.8898 73.2758 77.3593C73.3889 77.8915 73.2431 78.3341 72.8383 78.6873ZM70.557 78.6897L71.6212 78.4635C71.8455 78.4158 72.0081 78.3213 72.1089 78.1799C72.2149 78.0374 72.2468 77.867 72.2047 77.6688C72.1626 77.4706 72.0641 77.3279 71.9093 77.2409C71.7597 77.1527 71.5727 77.1325 71.3484 77.1802L70.2842 77.4064L70.557 78.6897ZM71.056 81.0372L72.1906 80.7961C72.4149 80.7484 72.579 80.6481 72.6828 80.4952C72.7866 80.3422 72.8163 80.1614 72.772 79.9528C72.7276 79.7441 72.6275 79.5936 72.4716 79.5014C72.3145 79.4039 72.1238 79.379 71.8995 79.4267L70.7649 79.6678L71.056 81.0372Z" fill="#A91255"/>
<path d="M68.309 76.8121L67.3217 81.8637C67.1888 82.5463 66.8406 82.9475 66.2771 83.0672L65.612 83.2086L65.4058 82.2383L65.844 82.1451C66.1257 82.0852 66.2937 81.9268 66.3482 81.6699L66.431 81.2515L63.8252 77.7651L64.9598 77.524L66.6963 79.9602L67.1822 77.0516L68.309 76.8121Z" fill="#A91255"/>
<path d="M64.3244 83.4821L63.2445 83.7116L62.8004 81.6223C62.2111 81.8512 61.7496 82.0011 61.4157 82.0721C61.0244 82.1552 60.663 82.1094 60.3314 81.9345C60.005 81.7585 59.7958 81.454 59.7037 81.021L59.2197 78.7439L60.3074 78.5127L60.7316 80.5081C60.8258 80.9515 61.1051 81.1239 61.5694 81.0252C61.8928 80.9565 62.2366 80.8425 62.6008 80.6833L62.0603 78.1401L63.1401 77.9106L64.3244 83.4821Z" fill="#A91255"/>
<path d="M58.4994 80.3446C58.6274 80.6391 58.7579 81.0993 58.891 81.7253C59.0241 82.3514 59.092 82.8249 59.0948 83.146C59.0977 83.4671 58.9984 83.7826 58.7971 84.0926C58.489 84.567 58.035 84.868 57.4351 84.9955C56.83 85.1241 56.2902 85.0344 55.8157 84.7263C55.5058 84.525 55.2873 84.2797 55.1604 83.9905C55.0376 83.6949 54.9091 83.2315 54.775 82.6002C54.6408 81.969 54.5702 81.496 54.5633 81.1812C54.5605 80.8601 54.6597 80.5446 54.861 80.2346C55.1691 79.7602 55.6257 79.4587 56.2309 79.3301C56.8308 79.2026 57.368 79.2928 57.8424 79.6009C58.1524 79.8022 58.3714 80.0501 58.4994 80.3446ZM57.8033 81.9565C57.6935 81.4401 57.5962 81.0846 57.5112 80.89C57.4314 80.6943 57.3266 80.5475 57.1968 80.4497C56.9825 80.2881 56.7293 80.2383 56.4371 80.3004C56.1502 80.3614 55.9365 80.5104 55.7961 80.7474C55.7172 80.8896 55.6812 81.0663 55.6879 81.2775C55.6946 81.4887 55.7529 81.8526 55.8627 82.369C55.9724 82.8855 56.0672 83.2416 56.147 83.4373C56.2256 83.6277 56.3299 83.7719 56.4597 83.8697C56.6908 84.0332 56.9471 84.0851 57.2289 84.0252C57.5158 83.9642 57.7263 83.8131 57.8604 83.572C57.9381 83.4246 57.9742 83.2479 57.9686 83.0419C57.9671 82.8296 57.912 82.4678 57.8033 81.9565Z" fill="#A91255"/>
<path d="M54.2598 85.6214L53.1721 85.8526L52.4819 82.6052L51.8667 84.9442L51.1312 85.1006L49.61 83.2156L50.3003 86.4631L49.2126 86.6943L48.0283 81.1227L49.1004 80.8949L51.1962 83.5982L52.0035 80.2778L53.0756 80.0499L54.2598 85.6214Z" fill="#A91255"/>
<path d="M46.1206 87.4007C45.5989 87.5115 45.1213 87.4577 44.6877 87.239C44.2582 87.0141 43.9372 86.6325 43.7246 86.0943L44.8045 85.8647C45.0573 86.3617 45.4316 86.5575 45.9272 86.4521C46.1984 86.3945 46.4005 86.2806 46.5334 86.1106C46.6652 85.9354 46.7072 85.7356 46.6596 85.5113C46.6085 85.2713 46.4961 85.1017 46.3224 85.0023C46.1538 84.9018 45.9312 84.881 45.6548 84.9397L44.9348 85.0928L44.7452 84.2007L45.473 84.046C45.7129 83.995 45.8854 83.8956 45.9903 83.7479C46.0993 83.5939 46.13 83.4047 46.0823 83.1804C46.0369 82.9665 45.9283 82.8151 45.7568 82.7261C45.5841 82.632 45.3751 82.611 45.13 82.6631C44.8743 82.7174 44.6817 82.8374 44.5522 83.0231C44.4267 83.2024 44.3608 83.4182 44.3544 83.6703L43.2667 83.9015C43.242 83.3234 43.3806 82.8468 43.6826 82.4718C43.9886 82.0905 44.4077 81.8433 44.9398 81.7302C45.4928 81.6127 45.974 81.6576 46.3834 81.865C46.798 82.0713 47.0547 82.4066 47.1534 82.8709C47.2676 83.4083 47.1098 83.8589 46.6801 84.2229C47.2685 84.3486 47.6269 84.7141 47.7556 85.3192C47.862 85.8201 47.7622 86.2611 47.4561 86.6424C47.1501 87.0237 46.7049 87.2765 46.1206 87.4007Z" fill="#A91255"/>
<path d="M42.3754 83.7719C42.5034 84.0664 42.6339 84.5266 42.767 85.1526C42.9 85.7787 42.968 86.2522 42.9708 86.5733C42.9736 86.8944 42.8744 87.2099 42.6731 87.5199C42.365 87.9943 41.911 88.2953 41.3111 88.4228C40.7059 88.5514 40.1661 88.4617 39.6917 88.1536C39.3818 87.9523 39.1633 87.707 39.0364 87.4178C38.9136 87.1222 38.7851 86.6588 38.6509 86.0275C38.5168 85.3963 38.4462 84.9233 38.4393 84.6085C38.4365 84.2874 38.5357 83.9719 38.737 83.662C39.0451 83.1875 39.5017 82.886 40.1069 82.7574C40.7068 82.6299 41.244 82.7201 41.7184 83.0282C42.0283 83.2295 42.2473 83.4774 42.3754 83.7719ZM41.6793 85.3838C41.5695 84.8674 41.4721 84.5119 41.3871 84.3173C41.3074 84.1216 41.2026 83.9748 41.0727 83.877C40.8585 83.7154 40.6052 83.6656 40.3131 83.7277C40.0262 83.7887 39.8125 83.9377 39.672 84.1748C39.5932 84.3169 39.5572 84.4936 39.5639 84.7048C39.5706 84.916 39.6289 85.2799 39.7386 85.7963C39.8484 86.3128 39.9432 86.6689 40.023 86.8646C40.1016 87.055 40.2059 87.1992 40.3357 87.297C40.5667 87.4605 40.8231 87.5124 41.1048 87.4525C41.3917 87.3915 41.6023 87.2404 41.7364 86.9993C41.8141 86.8519 41.8502 86.6752 41.8446 86.4692C41.843 86.2569 41.788 85.8951 41.6793 85.3838Z" fill="#A91255"/>
<path d="M36.9373 84.0036C37.3422 84.2665 37.5967 84.6431 37.7009 85.1335C37.8052 85.6239 37.7258 86.0715 37.4629 86.4764C37.2052 86.8801 36.7947 87.1418 36.2313 87.2616L35.1592 87.4895L35.605 89.5866L34.5173 89.8178L33.333 84.2463L35.4928 83.7872C36.0562 83.6675 36.5377 83.7396 36.9373 84.0036ZM36.5122 85.9669C36.6283 85.795 36.662 85.5943 36.6132 85.3647C36.5644 85.1352 36.452 84.9655 36.276 84.8557C36.1 84.7459 35.8894 84.7171 35.6442 84.7692L34.627 84.9854L34.9513 86.5113L35.9686 86.2951C36.2138 86.243 36.395 86.1336 36.5122 85.9669Z" fill="#A91255"/>
<path d="M56.4502 95.437L77.9437 90.8684" stroke="#A91255" stroke-width="1.9269" stroke-miterlimit="10" stroke-linecap="round" stroke-linejoin="round"/>
<path d="M57.7161 48.9553C52.9125 49.9764 48.1789 46.9023 47.1579 42.0987C45.924 36.2938 52.5492 24.6471 52.5492 24.6471C52.5492 24.6471 63.3388 32.5921 64.5727 38.3971C65.5937 43.2007 62.5197 47.9343 57.7161 48.9553Z" fill="#A91255"/>
</svg>
